<?xml version="1.0" encoding="utf-8"?>
<!-- Generator: Adobe Illustrator 25.4.1, SVG Export Plug-In . SVG Version: 6.00 Build 0)  -->
<svg version="1.1" id="Layer_1" xmlns="http://www.w3.org/2000/svg" xmlns:xlink="http://www.w3.org/1999/xlink" x="0px" y="0px"
	 viewBox="0 0 80 80" style="enable-background:new 0 0 80 80;" xml:space="preserve">
<style type="text/css">
	.st0{fill:none;stroke:#242364;stroke-width:1.9274;stroke-linecap:round;stroke-linejoin:round;stroke-miterlimit:10;}
	.st1{fill:none;stroke:#1890FF;stroke-width:1.9274;stroke-linejoin:round;stroke-miterlimit:10;}
	.st2{fill:none;stroke:#1890FF;stroke-width:1.9274;stroke-linecap:round;stroke-linejoin:round;stroke-miterlimit:10;}
</style>
<g>
	<path class="st0" d="M28.9,16.9h6.8"/>
	<path class="st0" d="M28.9,22h6.8"/>
	<path class="st0" d="M28.9,27.1h6.8"/>
	<path class="st0" d="M44.8,16.9h6.8"/>
	<path class="st0" d="M44.8,22h6.8"/>
	<path class="st0" d="M44.8,27.1h6.8"/>
	<path class="st1" d="M56,32.7H41.4l-1.3,1.1l-1.3-1.1H24.4v-21h31.7L56,32.7L56,32.7z"/>
	<path class="st2" d="M40.2,33.7V11.7"/>
	<path class="st0" d="M56.3,51.5c-2.6,0-4.7-2.1-4.7-4.7v-2.3c0-2.6,2.1-4.7,4.7-4.7s4.7,2.1,4.7,4.7v2.3
		C61,49.4,59.1,51.5,56.3,51.5z"/>
	<path class="st0" d="M49.8,64.4H65v-5.8c-0.2-2.3-2.1-4.2-4.7-4.2h-0.4c-0.9,1.1-2.1,1.7-3.7,1.7c-1.5,0-2.8-0.7-3.7-1.7h-0.7
		c-1.1,0-1.9,0.4-2.8,1.1"/>
	<path class="st0" d="M24.4,51.5c-2.6,0-4.7-2.1-4.7-4.7v-2.3c0-2.6,2.1-4.7,4.7-4.7s4.7,2.1,4.7,4.7v2.3
		C29,49.4,26.9,51.5,24.4,51.5z"/>
	<path class="st0" d="M31.2,55.2c-0.9-0.7-1.7-0.9-2.8-0.9H28c-0.9,1.1-2.1,1.7-3.7,1.7s-2.8-0.7-3.7-1.7H20c-2.3,0-4.2,1.9-4.2,4.2
		v5.8h14.7"/>
	<path class="st0" d="M40.4,50.8c-3,0-5.4-2.3-5.4-5.4v-2.6c0-3,2.3-5.4,5.4-5.4c3,0,5.4,2.3,5.4,5.4v2.6
		C45.8,48.4,43.4,50.8,40.4,50.8z"/>
	<path class="st0" d="M44.9,54h-0.4c-1.1,1.3-2.6,1.9-4,1.9c-1.5,0-3.2-0.9-4-1.9h-0.9c-2.8,0-4.9,2.1-4.9,4.9v9.4h19.3v-9.4
		C49.8,56.1,47.7,54,44.9,54z"/>
</g>
</svg>
