<?xml version="1.0" encoding="utf-8"?>
<!-- Generator: Adobe Illustrator 25.4.1, SVG Export Plug-In . SVG Version: 6.00 Build 0)  -->
<svg version="1.1" id="Layer_1" xmlns="http://www.w3.org/2000/svg" xmlns:xlink="http://www.w3.org/1999/xlink" x="0px" y="0px"
	 viewBox="0 0 80 80" style="enable-background:new 0 0 80 80;" xml:space="preserve">
<style type="text/css">
	.st0{fill:none;stroke:#242364;stroke-width:2.1369;stroke-linecap:round;stroke-linejoin:round;stroke-miterlimit:10;}
	.st1{fill:none;stroke:#1890FF;stroke-width:2.1369;stroke-linecap:round;stroke-linejoin:round;stroke-miterlimit:10;}
	.st2{fill:none;stroke:#1890FF;stroke-width:2.3013;stroke-linecap:round;stroke-linejoin:round;stroke-miterlimit:10;}
</style>
<g>
	<path class="st0" d="M21.4,48.8h14"/>
	<path class="st0" d="M21.4,42.9h14"/>
	<path class="st0" d="M46.8,48.8h14"/>
	<path class="st0" d="M46.8,42.9h14"/>
	<path class="st1" d="M29.3,54.6h6.2"/>
	<path class="st1" d="M46.8,54.6H53"/>
	<path class="st1" d="M21.4,54.6H24"/>
	<path class="st1" d="M58.2,54.6h2.6"/>
	<path class="st1" d="M35.4,71.3l-2.4-1.2l-2.4,1.2V61.1h4.7V71.3z"/>
	<path class="st0" d="M41.1,63.4V36.8"/>
	<path class="st0" d="M59.9,28.9h5.9V61H43.7l-2.6,2.4L38.5,61H16.4V28.9h8.8"/>
	<path class="st2" d="M54,23.5c0.4-3.9-1.8-6.1-4.5-6.3c-2.3-0.2-4.2,1-4.2,1c-1.1-1.8-2.9-3.6-5.1-3.6c-3.3,0-6.2,2.1-6.2,6.2
		c0,0.7,0.1,1.2,0.2,1.8c-0.6-0.2-1.3-0.3-1.9-0.3c-3.9,0-7.2,3.3-7.2,7.2c0,1.9,0.6,3.3,1.7,4.7c1.4,1.4,3.3,2.5,5.5,2.5
		c0.1,0,0.1,0,0.2,0l20.3,0c3.8,0,6.7-3,6.7-6.5C59.4,26.8,57,24.2,54,23.5z"/>
</g>
</svg>
