<?xml version="1.0" encoding="utf-8"?>
<!-- Generator: Adobe Illustrator 25.4.1, SVG Export Plug-In . SVG Version: 6.00 Build 0)  -->
<svg version="1.1" id="Layer_1" xmlns="http://www.w3.org/2000/svg" xmlns:xlink="http://www.w3.org/1999/xlink" x="0px" y="0px"
	 viewBox="0 0 80 80" style="enable-background:new 0 0 80 80;" xml:space="preserve">
<style type="text/css">
	.st0{fill:none;stroke:#242364;stroke-width:2.0956;stroke-linejoin:round;stroke-miterlimit:10;}
	.st1{fill:none;stroke:#242364;stroke-width:2.0956;stroke-linecap:round;stroke-linejoin:round;stroke-miterlimit:10;}
	.st2{fill:none;stroke:#1890FF;stroke-width:2.0956;stroke-linecap:round;stroke-linejoin:round;stroke-miterlimit:10;}
	.st3{fill:none;stroke:#1890FF;stroke-width:2.0956;stroke-linejoin:round;stroke-miterlimit:10;}
</style>
<g>
	<path class="st0" d="M48.7,62.4v2.7H34.5v-2.7H11.9v6.4h59.4v-6.4H48.7z"/>
	<path class="st1" d="M34.5,62.4l-19.1,0V25.5h9.8"/>
	<path class="st1" d="M58.2,25.5h9.5v36.9l-19.1,0"/>
	<path class="st1" d="M59,30.8h3.8v25.8H20V30.8h4.4"/>
	<path class="st2" d="M27.8,50.8h27.5"/>
	<path class="st3" d="M58.2,28.7c0,4-1.4,7.7-3.7,10.5l-0.2,0.2c-0.5,0.5-0.7,0.7-1.2,1.2c-3,2.8-7,4.7-11.4,4.7h-0.2
		c-5.1,0-9.8-2.3-12.8-6.1c-2.3-2.8-3.7-6.5-3.7-10.5s1.4-7.7,4-10.7c3-3.7,7.5-5.8,12.6-5.8c2.6,0,5.4,0.5,7.5,1.6
		c2.1,0.9,4.2,2.3,5.6,4.2C56.6,21.1,58.2,24.8,58.2,28.7z"/>
	<path class="st3" d="M50.3,29c0,7-3.5,11.9-8.8,15.4c-5.4-3.5-8.8-8.7-8.8-15.4c0-7,3.5-13,9.1-16.8C46.8,15.7,50.3,22,50.3,29z"/>
	<path class="st3" d="M54.5,18c-3.5,3-8.1,4.9-13,4.9c-4.9,0-9.3-1.9-12.8-4.7c3-3.7,7.7-6.1,12.8-6.1C46.6,12.2,51.5,14.3,54.5,18z
		"/>
	<path class="st3" d="M54.3,39.4c-0.5,0.5-0.7,0.7-1.2,1.2c-3,2.8-7,4.7-11.4,4.7h-0.2c-5.1,0-9.8-2.3-12.8-6.1
		c3.5-2.8,7.7-4.4,12.6-4.4C46.1,34.8,51,36.4,54.3,39.4z"/>
	<path class="st2" d="M41.4,12.2l0,32.2"/>
	<path class="st2" d="M24.9,28.7h33.3"/>
</g>
</svg>
