<svg width="80" height="80" viewBox="0 0 80 80" fill="none" xmlns="http://www.w3.org/2000/svg">
<path d="M30.2222 35.3333V26.8889C30.2222 20.2222 35.1111 14.8889 41.5555 14C41.1111 14 40.4444 14 40 14C32.8889 14 27.1111 19.7777 27.1111 26.8889V35.3333C27.1111 42.4444 32.8889 48.2222 40 48.2222C40.4444 48.2222 41.1111 48.2222 41.5555 48.2222C35.1111 47.3333 30.2222 41.7777 30.2222 35.3333Z" fill="#1890FF" fill-opacity="0.2"/>
<path d="M34.8037 51.9997C35.3558 51.9854 35.7917 51.5262 35.7774 50.9741C35.7632 50.422 35.304 49.986 34.7519 50.0003L34.8037 51.9997ZM19 68.5H18C18 69.0523 18.4477 69.5 19 69.5V68.5ZM61 68.5V69.5C61.5523 69.5 62 69.0523 62 68.5H61ZM45.5259 50.0003C44.9738 49.986 44.5146 50.422 44.5003 50.9741C44.486 51.5262 44.922 51.9854 45.4741 51.9997L45.5259 50.0003ZM34.7519 50.0003C25.5405 50.2388 18 57.8644 18 67.3782H20C20 58.9433 26.6817 52.2099 34.8037 51.9997L34.7519 50.0003ZM18 67.3782V68.5H20V67.3782H18ZM19 69.5H61V67.5H19V69.5ZM62 68.5V67.3782H60V68.5H62ZM62 67.3782C62 57.8874 54.7599 50.2394 45.5259 50.0003L45.4741 51.9997C53.5734 52.2093 60 58.9203 60 67.3782H62Z" fill="#1890FF"/>
<path d="M35.0002 68.4445C35.0002 68.9968 35.448 69.4445 36.0002 69.4445C36.5525 69.4445 37.0002 68.9968 37.0002 68.4445H35.0002ZM43.0002 68.4445C43.0002 68.9968 43.448 69.4445 44.0002 69.4445C44.5525 69.4445 45.0002 68.9968 45.0002 68.4445H43.0002ZM37.0002 68.4445V67.7778H35.0002V68.4445H37.0002ZM37.0002 67.7778C37.0002 66.1079 38.3303 64.7778 40.0002 64.7778V62.7778C37.2257 62.7778 35.0002 65.0033 35.0002 67.7778H37.0002ZM40.0002 64.7778C41.6702 64.7778 43.0002 66.1079 43.0002 67.7778H45.0002C45.0002 65.0033 42.7747 62.7778 40.0002 62.7778V64.7778ZM43.0002 67.7778V68.4445H45.0002V67.7778H43.0002Z" fill="#1890FF"/>
<path d="M54 68.5V54" stroke="#1890FF" stroke-width="2" stroke-miterlimit="10" stroke-linecap="round" stroke-linejoin="round"/>
<path d="M26 54V68.5" stroke="#1890FF" stroke-width="2" stroke-miterlimit="10" stroke-linecap="round" stroke-linejoin="round"/>
<path d="M30.0002 59.3334V62.4445" stroke="#1890FF" stroke-width="2" stroke-miterlimit="10" stroke-linecap="round" stroke-linejoin="round"/>
<path d="M30.0002 65.5556V65.1112" stroke="#1890FF" stroke-width="2" stroke-miterlimit="10" stroke-linecap="round" stroke-linejoin="round"/>
<path d="M35.3335 47.3333C35.3335 48.8889 35.1112 50.2222 34.889 51.5556C34.6668 52 34.4446 53.1111 34.4446 53.7778C34.4446 56.8889 36.889 59.5556 40.2224 59.5556C43.3335 59.5556 46.0001 57.1111 46.0001 53.7778C46.0001 53.1111 45.7779 52 45.5557 51.7778C45.1113 50.4445 45.1113 48.8889 44.889 47.3333" stroke="#242364" stroke-width="2" stroke-miterlimit="10"/>
<path d="M40 48.2223C32.8889 48.2223 27.1111 42.4445 27.1111 35.3334V26.8889C27.1111 19.7778 32.8889 14 40 14C47.1111 14 52.8889 19.7778 52.8889 26.8889V35.3334C52.8889 42.4445 47.1111 48.2223 40 48.2223Z" stroke="#242364" stroke-width="2" stroke-miterlimit="10"/>
<path d="M32.4443 16.2222C31.9999 13.5556 29.7776 11.7778 27.111 11.7778C23.9999 11.7778 21.5554 14.2222 21.5554 17.3334C21.5554 20.4445 23.9999 22.8889 27.111 22.8889C27.3332 22.8889 27.5554 22.8889 27.7776 22.8889" stroke="#242364" stroke-width="2" stroke-miterlimit="10" stroke-linecap="round"/>
<path d="M27.1111 31.1111C25.5555 31.1111 24.2222 32.4445 24.2222 34C24.2222 35.5556 25.5555 36.8889 27.1111 36.8889" stroke="#242364" stroke-width="2" stroke-miterlimit="10" stroke-linecap="round"/>
<path d="M52.8892 36.6667C52.8892 36.6667 52.8892 36.8889 52.8892 36.6667C54.6669 36.6667 55.7781 35.3334 55.7781 33.7778C55.7781 32.2222 54.4447 31.1111 52.8892 31.1111" stroke="#242364" stroke-width="2" stroke-miterlimit="10" stroke-linecap="round"/>
<path d="M21.5556 17.7778C18.6667 18.4445 16.6667 21.1111 16.6667 24.2222V31.7778C16.6667 31.7778 16.6667 35.1111 18.889 34.4445C21.5556 33.3334 24.2223 31.1111 27.1112 31.1111" stroke="#242364" stroke-width="2" stroke-miterlimit="10" stroke-linecap="round"/>
<path d="M52.2221 22.6667C52.4443 22.6667 52.6665 22.6667 52.8888 22.6667C55.9999 22.6667 58.4443 20.2222 58.4443 17.1111C58.4443 14 55.9999 11.5556 52.8888 11.5556C50.2221 11.5556 47.9999 13.5556 47.5554 16" stroke="#242364" stroke-width="2" stroke-miterlimit="10" stroke-linecap="round"/>
<path d="M52.8892 31.1111C55.778 31.1111 58.4447 33.3333 60.8892 34.2222C63.3336 35.1111 63.1114 31.5556 63.1114 31.5556V24C63.1114 20.8889 60.8892 18.25 58.5002 17.75" stroke="#242364" stroke-width="2" stroke-miterlimit="10" stroke-linecap="round"/>
<path d="M27.1111 31.1111C38.4444 31.1111 38.6666 25.7778 40 25.7778C41.3333 25.7778 41.5555 31.1111 52.8889 31.1111" stroke="#242364" stroke-width="2" stroke-miterlimit="10"/>
<path d="M37.3335 41.3333C38.0002 41.7778 38.6668 42.2222 39.5557 42.2222H40.2224C41.1113 42.2222 41.7779 42 42.4446 41.3333" stroke="#242364" stroke-width="2" stroke-miterlimit="10" stroke-linecap="round"/>
<mask id="path-18-inside-1_444_879" fill="white">
<ellipse cx="34.5" cy="34.5" rx="2" ry="2"/>
</mask>
<ellipse cx="34.5" cy="34.5" rx="2" ry="2" fill="#242364"/>
<path d="M34.5 34.5L34.5 34.5V38.5C36.7091 38.5 38.5 36.7091 38.5 34.5H34.5ZM34.5 34.5L34.5 34.5H30.5C30.5 36.7091 32.2909 38.5 34.5 38.5V34.5ZM34.5 34.5L34.5 34.5V30.5C32.2909 30.5 30.5 32.2909 30.5 34.5H34.5ZM34.5 34.5L34.5 34.5H38.5C38.5 32.2909 36.7091 30.5 34.5 30.5V34.5Z" fill="#242364" mask="url(#path-18-inside-1_444_879)"/>
<mask id="path-20-inside-2_444_879" fill="white">
<ellipse cx="45.5" cy="34.5" rx="2" ry="2"/>
</mask>
<ellipse cx="45.5" cy="34.5" rx="2" ry="2" fill="#242364"/>
<path d="M45.5 34.5V34.5V38.5C47.7091 38.5 49.5 36.7091 49.5 34.5H45.5ZM45.5 34.5V34.5H41.5C41.5 36.7091 43.2909 38.5 45.5 38.5V34.5ZM45.5 34.5V34.5V30.5C43.2909 30.5 41.5 32.2909 41.5 34.5H45.5ZM45.5 34.5V34.5H49.5C49.5 32.2909 47.7091 30.5 45.5 30.5V34.5Z" fill="#242364" mask="url(#path-20-inside-2_444_879)"/>
</svg>
