<?xml version="1.0" encoding="utf-8"?>
<!-- Generator: Adobe Illustrator 25.4.1, SVG Export Plug-In . SVG Version: 6.00 Build 0)  -->
<svg version="1.1" id="Layer_1" xmlns="http://www.w3.org/2000/svg" xmlns:xlink="http://www.w3.org/1999/xlink" x="0px" y="0px"
	 viewBox="0 0 80 80" style="enable-background:new 0 0 80 80;" xml:space="preserve">
<style type="text/css">
	.st0{fill:none;stroke:#242364;stroke-width:2.0158;stroke-linecap:round;stroke-linejoin:round;stroke-miterlimit:10;}
	.st1{fill:none;stroke:#1890FF;stroke-width:2.0158;stroke-linecap:round;stroke-linejoin:round;stroke-miterlimit:10;}
</style>
<g>
	<path class="st0" d="M50.9,34.1c0.4,0.4,2,2,2.8,2.9c3.1,3.4,4.9,8.1,4.9,13.2s-1.8,9.9-4.9,13.2c-3.6,4.3-9.2,6.9-15.2,6.9
		s-11.4-2.7-15.2-6.9c-3.1-3.6-4.9-8.3-4.9-13.2c0-5.2,1.8-9.9,5.2-13.2c1.1-1.1,2.2-2.2,3.6-3.1"/>
	<path class="st0" d="M23.3,63.4c3.8-4.3,9.2-6.9,15.2-6.9s11.4,2.7,15.2,6.9"/>
	<path class="st0" d="M53.7,36.9c-3.8,4.3-9.2,6.9-15.2,6.9c-5.9,0-11.2-2.6-15-6.7"/>
	<path class="st0" d="M46.4,35.5c2.3,3.6,3.5,9,3.5,14.7c0,11.2-5.2,20.2-11.4,20.2c-6.3,0-11.4-9-11.4-20.2c0-6,1.6-11.6,4-15.2"/>
	<path class="st0" d="M38.5,37v13.2v20.2"/>
	<path class="st0" d="M18.3,50.2h20.2h20.2"/>
	<path class="st1" d="M26.4,22.8v10.8L38.5,37l13-3.4V22.8"/>
	<path class="st1" d="M44.3,24.3l-5.8,2.1l-18.6-6.9l20.2-5.8l17.5,5.6l-8.7,3.4"/>
	<path class="st0" d="M21,30.6v-7.2l16-4.6"/>
</g>
</svg>
