<svg width="80" height="80" viewBox="0 0 80 80" fill="none" xmlns="http://www.w3.org/2000/svg">
<path d="M33.7778 27.3333V17.1111C33.7778 14.2222 36.2222 11.7778 39.1111 11.7778H35.3333C32.4444 11.7778 30 14.2222 30 17.1111V27.5555H33.7778V27.3333Z" fill="#1890FF" fill-opacity="0.2"/>
<path d="M33.7778 40.2222V32.2222H30V40.2222C30 43.1111 32.4444 45.5556 35.3333 45.5556H39.1111C36 45.5556 33.7778 43.1111 33.7778 40.2222Z" fill="#1890FF" fill-opacity="0.2"/>
<path d="M30.6668 29.7778C30.6668 28.4444 31.7779 27.3333 33.1113 27.3333H29.7779C28.4446 27.3333 27.3335 28.4444 27.3335 29.7778C27.3335 31.1111 28.4446 32.2222 29.7779 32.2222H33.1113C31.5557 32.2222 30.6668 31.1111 30.6668 29.7778Z" fill="#1890FF" fill-opacity="0.2"/>
<path d="M24.2222 28.2222H27.7777" stroke="#1890FF" stroke-width="2" stroke-miterlimit="10" stroke-linecap="round"/>
<path d="M27.7777 31.3333H24.2222" stroke="#1890FF" stroke-width="2" stroke-miterlimit="10" stroke-linecap="round"/>
<path d="M55.7777 31.3333H52.2222" stroke="#1890FF" stroke-width="2" stroke-miterlimit="10" stroke-linecap="round"/>
<path d="M52.2222 28.2222H55.7777" stroke="#1890FF" stroke-width="2" stroke-miterlimit="10" stroke-linecap="round"/>
<path d="M55.7778 26V33.5555C55.7778 42.2222 49.1112 49.7778 40.4445 50C31.5556 50.2222 24.2223 43.1111 24.2223 34.2222V26C24.2223 24.8889 23.3334 23.7778 22.0001 23.7778C20.8889 23.7778 19.7778 24.6667 19.7778 26V33.5555C19.7778 44.2222 27.7778 53.5555 38.4445 54.2222C50.0001 54.8889 59.7778 45.7778 59.7778 34.2222V26C59.7778 24.8889 58.8889 23.7778 57.5556 23.7778C56.6667 24 55.7778 24.8889 55.7778 26Z" stroke="#1890FF" stroke-width="2" stroke-miterlimit="10"/>
<path d="M37.7778 54.2222V60.8889M42.2223 54.2222V60.8889" stroke="#1890FF" stroke-width="2" stroke-miterlimit="10" stroke-linejoin="round"/>
<path d="M44.6667 60.8889H35.5556C33.5556 60.8889 32 62.4445 32 64.4445V68.4445H48.2222V64.4445C48.2222 62.4445 46.6667 60.8889 44.6667 60.8889Z" stroke="#1890FF" stroke-width="2" stroke-miterlimit="10" stroke-linejoin="round"/>
<path d="M48.2222 65.3333H32V68.4444H48.2222V65.3333Z" stroke="#1890FF" stroke-width="2" stroke-miterlimit="10" stroke-linejoin="round"/>
<path d="M50.0001 32.2222V40.2222C50.0001 43.1111 47.5556 45.5556 44.6667 45.5556H35.1112C32.2223 45.5556 29.7778 43.1111 29.7778 40.2222V32.2222" stroke="#242364" stroke-width="2" stroke-miterlimit="10" stroke-linejoin="round"/>
<path d="M30 27.3333V17.1111C30 14.2222 32.4444 11.7778 35.3333 11.7778H44.8889C47.7778 11.7778 50.2222 14.2222 50.2222 17.1111V27.5555" stroke="#242364" stroke-width="2" stroke-miterlimit="10" stroke-linejoin="round"/>
<path d="M50.4446 32.2222H29.7779C28.4446 32.2222 27.3335 31.1111 27.3335 29.7778C27.3335 28.4444 28.4446 27.3333 29.7779 27.3333H50.4446C51.7779 27.3333 52.889 28.4444 52.889 29.7778C52.889 31.1111 51.7779 32.2222 50.4446 32.2222Z" stroke="#242364" stroke-width="2" stroke-miterlimit="10" stroke-linejoin="round"/>
<path d="M40 32.2222V45.5556" stroke="#242364" stroke-width="2" stroke-miterlimit="10" stroke-linejoin="round"/>
<path d="M45.7778 32.2222V45.5556" stroke="#242364" stroke-width="2" stroke-miterlimit="10" stroke-linejoin="round"/>
<path d="M34.2222 32.2222V45.5556" stroke="#242364" stroke-width="2" stroke-miterlimit="10" stroke-linejoin="round"/>
<path d="M36.2224 22.8889C36.7133 22.8889 37.1113 22.4909 37.1113 22C37.1113 21.5091 36.7133 21.1111 36.2224 21.1111C35.7315 21.1111 35.3335 21.5091 35.3335 22C35.3335 22.4909 35.7315 22.8889 36.2224 22.8889Z" stroke="#242364" stroke-width="1.5" stroke-miterlimit="10"/>
<path d="M40 22.8889C40.4909 22.8889 40.8889 22.4909 40.8889 22C40.8889 21.5091 40.4909 21.1111 40 21.1111C39.5091 21.1111 39.1111 21.5091 39.1111 22C39.1111 22.4909 39.5091 22.8889 40 22.8889Z" stroke="#242364" stroke-width="1.5" stroke-miterlimit="10"/>
<path d="M43.7778 22.8889C44.2687 22.8889 44.6667 22.4909 44.6667 22C44.6667 21.5091 44.2687 21.1111 43.7778 21.1111C43.2869 21.1111 42.8889 21.5091 42.8889 22C42.8889 22.4909 43.2869 22.8889 43.7778 22.8889Z" stroke="#242364" stroke-width="1.5" stroke-miterlimit="10"/>
<path d="M38.2224 18.6667C38.7133 18.6667 39.1113 18.2687 39.1113 17.7778C39.1113 17.2869 38.7133 16.8889 38.2224 16.8889C37.7315 16.8889 37.3335 17.2869 37.3335 17.7778C37.3335 18.2687 37.7315 18.6667 38.2224 18.6667Z" stroke="#242364" stroke-width="1.5" stroke-miterlimit="10"/>
<path d="M41.7778 18.6667C42.2687 18.6667 42.6667 18.2687 42.6667 17.7778C42.6667 17.2869 42.2687 16.8889 41.7778 16.8889C41.2869 16.8889 40.8889 17.2869 40.8889 17.7778C40.8889 18.2687 41.2869 18.6667 41.7778 18.6667Z" stroke="#242364" stroke-width="1.5" stroke-miterlimit="10"/>
<path d="M32.8889 16.8889V16.4445" stroke="#242364" stroke-width="1.8" stroke-miterlimit="10" stroke-linecap="round" stroke-linejoin="round"/>
<path d="M32.8889 23.5555V19.3333" stroke="#242364" stroke-width="1.8" stroke-miterlimit="10" stroke-linecap="round" stroke-linejoin="round"/>
</svg>
