<?xml version="1.0" encoding="utf-8"?>
<!-- Generator: Adobe Illustrator 24.2.3, SVG Export Plug-In . SVG Version: 6.00 Build 0)  -->
<svg version="1.1" id="Layer_1" xmlns="http://www.w3.org/2000/svg" xmlns:xlink="http://www.w3.org/1999/xlink" x="0px" y="0px"
	 viewBox="0 0 80 80" style="enable-background:new 0 0 80 80;" xml:space="preserve">
<style type="text/css">
	.st0{fill:none;stroke:#1890FF;stroke-width:2;stroke-linejoin:round;stroke-miterlimit:10;}
	.st1{fill:none;stroke:#1890FF;stroke-width:2;stroke-linecap:round;stroke-linejoin:round;stroke-miterlimit:10;}
	.st2{fill:none;stroke:#242364;stroke-width:2;stroke-linecap:round;stroke-linejoin:round;stroke-miterlimit:10;}
	.st3{fill:#1890FF;fill-opacity:0.2;}
</style>
<path class="st0" d="M55.9,30.5H40.8l-1.3,1.1l-1.3-1.1H23.1V8.7H56L55.9,30.5L55.9,30.5z"/>
<path class="st1" d="M31.1,12.7h4.7"/>
<path class="st1" d="M26.8,12.7h1.3"/>
<path class="st1" d="M31.5,17.1h-4.7"/>
<path class="st1" d="M35.7,17.1h-1.3"/>
<path class="st1" d="M29.3,21.8h6.4"/>
<path class="st1" d="M31.5,26.7h-4.7"/>
<path class="st1" d="M35.7,26.7h-1.3"/>
<path class="st1" d="M47.9,12.7h-4.7"/>
<path class="st1" d="M52.2,12.7h-1.3"/>
<path class="st1" d="M47.5,17.1h4.7"/>
<path class="st1" d="M43.3,17.1h1.3"/>
<path class="st1" d="M47.9,21.8h-4.7"/>
<path class="st1" d="M52.2,21.8h-1.3"/>
<path class="st1" d="M47.5,26.2h4.7"/>
<path class="st1" d="M43.3,26.2h1.3"/>
<path class="st1" d="M39.5,31.6V8.7"/>
<path class="st2" d="M56.2,49.8c-2.7,0-4.9-2.2-4.9-4.9v-2.4c0-2.7,2.2-4.9,4.9-4.9s4.9,2.2,4.9,4.9v2.4
	C61.1,47.6,59.1,49.8,56.2,49.8z"/>
<path class="st2" d="M49.5,62.5h15.8v-6c-0.2-2.4-2.2-4.4-4.9-4.4H60c-0.9,1.1-2.2,1.8-3.8,1.8s-2.9-0.7-3.8-1.8h-0.7
	c-1.1,0-2,0.4-2.9,1.1"/>
<path class="st2" d="M23.1,49.8c-2.7,0-4.9-2.2-4.9-4.9v-2.4c0-2.7,2.2-4.9,4.9-4.9s4.9,2.2,4.9,4.9v2.4
	C27.9,47.6,25.7,49.8,23.1,49.8z"/>
<path class="st2" d="M30.2,52.9c-0.9-0.7-1.8-0.9-2.9-0.9h-0.4c-0.9,1.1-2.2,1.8-3.8,1.8s-2.9-0.7-3.8-1.8h-0.7
	c-2.4,0-4.4,2-4.4,4.4v6h15.3"/>
<path class="st3" d="M36.8,42.2v-2.7c0-2.7,1.8-4.9,4.2-5.3c-0.4,0-0.9-0.2-1.3-0.2c-3.1,0-5.6,2.4-5.6,5.6v2.7
	c0,3.1,2.4,5.6,5.6,5.6c0.4,0,0.9,0,1.3-0.2C38.6,47.1,36.8,44.9,36.8,42.2z"/>
<path class="st3" d="M35.7,50.7l-0.2-0.2h-0.9c-2.9,0-5.1,2.2-5.1,5.1v9.8h2.7v-9.8C32.2,53.1,33.7,51.3,35.7,50.7z"/>
<path class="st2" d="M39.7,47.8c-3.1,0-5.6-2.4-5.6-5.6v-2.7c0-3.1,2.4-5.6,5.6-5.6c3.1,0,5.6,2.4,5.6,5.6v2.7
	C45.3,45.3,42.8,47.8,39.7,47.8z"/>
<path class="st2" d="M44.4,50.5H44c-1.1,1.3-2.7,2-4.2,2c-1.6,0-3.3-0.9-4.2-2h-0.9c-2.9,0-5.1,2.2-5.1,5.1v9.8h20v-9.8
	C49.5,52.7,47.3,50.5,44.4,50.5z"/>
</svg>
