<?xml version="1.0" encoding="utf-8"?>
<!-- Generator: Adobe Illustrator 25.4.1, SVG Export Plug-In . SVG Version: 6.00 Build 0)  -->
<svg version="1.1" id="Layer_1" xmlns="http://www.w3.org/2000/svg" xmlns:xlink="http://www.w3.org/1999/xlink" x="0px" y="0px"
	 viewBox="0 0 80 80" style="enable-background:new 0 0 80 80;" xml:space="preserve">
<style type="text/css">
	.st0{fill:#242364;}
	.st1{fill:#1890FF;}
	.st2{fill:none;stroke:#1890FF;stroke-width:1.9559;stroke-linecap:round;stroke-linejoin:round;stroke-miterlimit:10;}
	.st3{fill:none;stroke:#242364;stroke-width:1.9559;stroke-miterlimit:10;}
	.st4{fill:none;stroke:#242364;stroke-width:1.9559;stroke-linecap:round;stroke-miterlimit:10;}
</style>
<g>
	<path class="st0" d="M35.2,67.3c0,0.5,0.4,1,1,1c0.5,0,1-0.4,1-1H35.2z M43,67.3c0,0.5,0.4,1,1,1c0.5,0,1-0.4,1-1H43z M37.2,67.3
		v-0.7h-2v0.7H37.2z M37.2,66.6c0-1.6,1.3-2.9,2.9-2.9v-2c-2.7,0-4.9,2.2-4.9,4.9H37.2z M40.1,63.7c1.6,0,2.9,1.3,2.9,2.9h2
		c0-2.7-2.2-4.9-4.9-4.9V63.7z M43,66.6v0.7h2v-0.7H43z"/>
	<path class="st1" d="M35,51.2c0.5,0,1-0.5,1-1c0-0.5-0.5-1-1-1L35,51.2z M19.6,67.4h-1c0,0.5,0.4,1,1,1V67.4z M60.6,67.4v1
		c0.5,0,1-0.4,1-1H60.6z M45.5,49.3c-0.5,0-1,0.4-1,1c0,0.5,0.4,1,1,1L45.5,49.3z M35,49.3c-9,0.2-16.4,7.7-16.4,17h2
		c0-8.2,6.5-14.8,14.5-15L35,49.3z M18.6,66.3v1.1h2v-1.1H18.6z M19.6,68.3h41.1v-2H19.6V68.3z M61.6,67.4v-1.1h-2v1.1H61.6z
		 M61.6,66.3c0-9.3-7.1-16.8-16.1-17l-0.1,2c7.9,0.2,14.2,6.8,14.2,15H61.6z"/>
	<path class="st2" d="M53.8,67.4V53.2"/>
	<path class="st2" d="M26.4,53.2v14.2"/>
	<path class="st3" d="M35.5,46.7c0,1.5-0.2,2.8-0.4,4.1c-0.2,0.4-0.4,1.5-0.4,2.2c0,3,2.4,5.7,5.7,5.7c3,0,5.7-2.4,5.7-5.7
		c0-0.7-0.2-1.7-0.4-2c-0.4-1.3-0.4-2.8-0.7-4.3"/>
	<path class="st4" d="M22.1,17.8c-2.8,0.7-4.8,3.3-4.8,6.3v7.4c0,0,0,3.3,2.2,2.6c2.6-1.1,5.2-3.3,8-3.3"/>
	<path class="st4" d="M52.7,30.8c2.8,0,5.4,2.2,7.8,3c2.4,0.9,2.2-2.6,2.2-2.6v-7.4c0-3-2.2-5.6-4.5-6.1"/>
	<path class="st3" d="M27.5,30.8c11.1,0,11.3-5.2,12.6-5.2c1.3,0,1.5,5.2,12.6,5.2"/>
	<ellipse class="st0" cx="35.6" cy="34.4" rx="1.6" ry="1.6"/>
	<ellipse class="st0" cx="44.6" cy="34.4" rx="1.6" ry="1.6"/>
	<path class="st4" d="M42.6,39.4c0,1.4-1.1,2.5-2.5,2.5s-2.5-1.1-2.5-2.5"/>
	<path class="st2" d="M32.7,16.2c-0.4-2.6-2.6-4.3-5.2-4.3c-3,0-5.4,2.4-5.4,5.4c0,3,2.4,5.4,5.4,5.4c0.2,0,0.4,0,0.7,0"/>
	<path class="st2" d="M52.1,22.5c0.2,0,0.4,0,0.7,0c3,0,5.4-2.4,5.4-5.4s-2.4-5.4-5.4-5.4c-2.6,0-4.8,2-5.2,4.3"/>
	<path class="st3" d="M40.1,47.5c-7,0-12.6-5.7-12.6-12.6v-8.3c0-7,5.7-12.6,12.6-12.6s12.6,5.7,12.6,12.6v8.3
		C52.7,41.9,47.1,47.5,40.1,47.5z"/>
</g>
</svg>
