<svg width="174" height="174" viewBox="0 0 174 174" fill="none" xmlns="http://www.w3.org/2000/svg">
<rect width="174" height="174" rx="4" fill="#E3E6FA"/>
<path d="M94.8001 53.7296C94.6609 53.7301 94.5231 53.7016 94.3955 53.6458C94.2679 53.5901 94.1533 53.5082 94.0592 53.4056C93.9651 53.303 93.8934 53.1819 93.8488 53.05C93.8042 52.918 93.7876 52.7783 93.8001 52.6396C93.8001 52.4596 93.8001 51.6396 93.8001 50.7496C93.8001 49.2996 93.8001 47.6596 93.8001 47.3696C93.7906 47.0383 93.6567 46.7227 93.4251 46.4855C93.1935 46.2484 92.8811 46.107 92.5501 46.0896C92.3404 46.0746 92.1299 46.0746 91.9201 46.0896H79.9201C78.4401 46.0896 77.9201 46.5696 77.9201 48.0896V48.4196C77.9201 51.2596 77.9201 52.7996 77.9201 52.9896C77.8775 53.2225 77.7537 53.4328 77.5705 53.583C77.3874 53.7331 77.1569 53.8134 76.9201 53.8096C76.4301 53.8096 75.9201 53.5996 75.9201 53.1196C75.7201 51.7496 75.6901 46.6096 76.5101 45.4596C76.8596 44.9752 77.3241 44.5854 77.8618 44.3253C78.3995 44.0652 78.9934 43.9429 79.5901 43.9696H92.0001C92.5232 43.9209 93.0505 43.9875 93.545 44.1648C94.0395 44.3421 94.489 44.6258 94.8619 44.9958C95.2348 45.3658 95.5219 45.8132 95.703 46.3063C95.8841 46.7994 95.9548 47.3262 95.9101 47.8496C95.9101 48.2696 95.9101 52.3896 95.9101 52.7296C95.9221 52.8736 95.9027 53.0184 95.8533 53.1542C95.8039 53.29 95.7256 53.4135 95.624 53.5161C95.5223 53.6187 95.3995 53.6981 95.2642 53.7488C95.1289 53.7994 94.9842 53.8202 94.8401 53.8096L94.8001 53.7296Z" fill="#242364"/>
<path d="M82.2904 78.1103C81.2904 78.1103 80.9204 77.7803 80.9104 76.7403C80.9004 75.7003 80.9104 74.5503 80.9104 73.4903C80.9289 73.3864 80.9253 73.2797 80.8997 73.1773C80.8742 73.0749 80.8273 72.979 80.7622 72.8959C80.6971 72.8129 80.6151 72.7445 80.5218 72.6953C80.4284 72.6461 80.3257 72.6171 80.2204 72.6103L61.8704 68.5303L60.8704 68.3003C60.0014 68.1397 59.2196 67.671 58.6685 66.9803C58.1174 66.2896 57.834 65.4232 57.8704 64.5403C57.8704 61.9603 57.8704 59.3703 57.8704 56.7803C57.8304 56.2659 57.8998 55.7489 58.0742 55.2634C58.2486 54.7779 58.5239 54.3348 58.8821 53.9634C59.2402 53.5921 59.673 53.3009 60.1519 53.109C60.6308 52.9171 61.1449 52.8289 61.6604 52.8503H109.76C110.407 52.7758 111.061 52.8746 111.657 53.1364C112.253 53.3982 112.768 53.8137 113.15 54.3403C113.367 54.6918 113.542 55.0678 113.67 55.4603C113.74 55.6403 113.81 55.8303 113.89 56.0103V65.3003C113.836 65.4136 113.789 65.5306 113.75 65.6503C113.651 65.95 113.528 66.241 113.38 66.5203C113.122 66.9781 112.767 67.3744 112.341 67.6817C111.915 67.9891 111.426 68.2001 110.91 68.3003L108.8 68.7703L91.5004 72.6003C91.3901 72.6069 91.2826 72.6369 91.1848 72.6883C91.087 72.7396 91.0013 72.8112 90.9332 72.8981C90.8651 72.9851 90.8163 73.0855 90.79 73.1928C90.7636 73.3001 90.7603 73.4117 90.7804 73.5203C90.7804 74.4003 90.7804 75.2903 90.7804 76.1803V76.7003C90.7804 77.7803 90.4404 78.1103 89.3804 78.1103H82.2804H82.2904ZM83.2904 70.4603C83.239 70.4602 83.1896 70.4799 83.1524 70.5153C83.1151 70.5507 83.0929 70.599 83.0904 70.6503V75.7103C83.0903 75.7361 83.0956 75.7616 83.1057 75.7854C83.1159 75.8091 83.1308 75.8305 83.1495 75.8483C83.1682 75.8661 83.1904 75.8799 83.2146 75.8888C83.2388 75.8977 83.2646 75.9016 83.2904 75.9003H88.3404C88.3908 75.9003 88.4391 75.8803 88.4747 75.8446C88.5104 75.809 88.5304 75.7607 88.5304 75.7103V70.6503C88.5279 70.6007 88.5072 70.5537 88.472 70.5186C88.4369 70.4835 88.39 70.4627 88.3404 70.4603H83.2904ZM61.7804 55.0503C60.5204 55.0503 60.0104 55.5703 60.0104 56.8503C60.0104 59.3603 60.0104 61.8503 60.0104 64.3903C59.9719 64.6136 59.9813 64.8426 60.0379 65.0621C60.0946 65.2815 60.1972 65.4865 60.339 65.6633C60.4808 65.8401 60.6586 65.9847 60.8605 66.0876C61.0625 66.1906 61.284 66.2494 61.5104 66.2603L76.1104 69.5303L80.6804 70.5303C80.719 70.5449 80.7617 70.5449 80.8004 70.5303C80.8239 70.5133 80.8426 70.4906 80.8549 70.4644C80.8671 70.4381 80.8725 70.4092 80.8704 70.3803V69.6203C80.8704 68.6203 81.2404 68.2803 82.2304 68.2703H89.4404C90.3604 68.2703 90.7004 68.6003 90.7504 69.5103C90.7604 69.6901 90.7604 69.8704 90.7504 70.0503V70.3503C90.7492 70.3791 90.7549 70.4077 90.7671 70.4338C90.7793 70.4599 90.7976 70.4827 90.8204 70.5003C90.859 70.5149 90.9017 70.5149 90.9404 70.5003H91.2104C91.3517 70.4812 91.4919 70.4545 91.6304 70.4203L110.15 66.2803C110.381 66.275 110.609 66.2199 110.817 66.1189C111.025 66.0179 111.208 65.8733 111.355 65.6949C111.503 65.5165 111.609 65.3086 111.669 65.0852C111.729 64.8618 111.739 64.6282 111.7 64.4003V56.8503C111.7 55.5703 111.18 55.0503 109.93 55.0503H61.7804Z" fill="#1890FF"/>
<path d="M63.0001 92.2196C62.2714 92.2803 61.5418 92.1139 60.9115 91.7433C60.2812 91.3726 59.7812 90.8159 59.4801 90.1496C59.2433 89.5828 59.1242 88.9738 59.1301 88.3596C59.1301 83.5596 59.1301 78.7596 59.1301 73.9596V72.1696C59.1301 71.6696 59.2701 70.8196 60.1301 70.8196C60.2564 70.8062 60.3838 70.8062 60.5101 70.8196C60.6754 70.8464 60.829 70.9215 60.9517 71.0354C61.0745 71.1492 61.1609 71.2968 61.2001 71.4596C61.2647 71.7314 61.2949 72.0102 61.2901 72.2896V88.1496C61.2901 89.5696 61.7701 90.0496 63.1801 90.0496H108.53C109.91 90.0496 110.4 89.5596 110.4 88.1796V72.3696C110.396 72.1248 110.416 71.8803 110.46 71.6396C110.521 71.3972 110.664 71.1837 110.866 71.0361C111.068 70.8885 111.315 70.8162 111.564 70.8316C111.814 70.8471 112.05 70.9493 112.232 71.1206C112.414 71.2919 112.53 71.5215 112.56 71.7696C112.57 71.9261 112.57 72.0831 112.56 72.2396V77.1696C112.56 80.8696 112.56 84.5696 112.56 88.2696C112.637 89.0083 112.477 89.7525 112.103 90.3942C111.729 91.036 111.161 91.5422 110.48 91.8396C109.862 92.0923 109.198 92.2149 108.53 92.1996C104.19 92.1996 99.8568 92.1996 95.5301 92.1996L63.0001 92.2196Z" fill="#242364"/>
</svg>
