<svg width="174" height="174" viewBox="0 0 174 174" fill="none" xmlns="http://www.w3.org/2000/svg">
<rect width="174" height="174" rx="4" fill="#E3E6FA"/>
<path d="M110 84H91.3002C91.7021 83.178 91.9108 82.275 91.9102 81.36C91.9254 81.1035 91.9254 80.8464 91.9102 80.59H109.21C109.375 80.6051 109.541 80.5857 109.698 80.5331C109.855 80.4804 109.999 80.3956 110.121 80.2841C110.243 80.1726 110.341 80.0368 110.408 79.8854C110.475 79.7341 110.509 79.5704 110.509 79.405C110.509 79.2395 110.475 79.0759 110.408 78.9245C110.341 78.7731 110.243 78.6373 110.121 78.5258C109.999 78.4143 109.855 78.3295 109.698 78.2769C109.541 78.2242 109.375 78.2048 109.21 78.22H91.0002C90.4603 77.3234 89.6978 76.5817 88.7866 76.0668C87.8755 75.5518 86.8467 75.2812 85.8002 75.2812C84.7536 75.2812 83.7248 75.5518 82.8137 76.0668C81.9026 76.5817 81.14 77.3234 80.6002 78.22H62.5302C62.3654 78.2048 62.1993 78.2242 62.0424 78.2769C61.8856 78.3295 61.7414 78.4143 61.6192 78.5258C61.4969 78.6373 61.3993 78.7731 61.3325 78.9245C61.2657 79.0759 61.2312 79.2395 61.2312 79.405C61.2312 79.5704 61.2657 79.7341 61.3325 79.8854C61.3993 80.0368 61.4969 80.1726 61.6192 80.2841C61.7414 80.3956 61.8856 80.4804 62.0424 80.5331C62.1993 80.5857 62.3654 80.6051 62.5302 80.59H79.8102C79.7699 80.8447 79.7499 81.1021 79.7502 81.36C79.7526 82.2758 79.9647 83.1788 80.3702 84H61.9102C61.6449 84 61.3906 84.1053 61.203 84.2929C61.0155 84.4804 60.9102 84.7348 60.9102 85C60.9102 85.2652 61.0155 85.5195 61.203 85.7071C61.3906 85.8946 61.6449 86 61.9102 86H81.9102C83.0051 86.9288 84.3943 87.4386 85.8302 87.4386C87.266 87.4386 88.6552 86.9288 89.7502 86H110C110.265 86 110.52 85.8946 110.707 85.7071C110.895 85.5195 111 85.2652 111 85C111 84.7348 110.895 84.4804 110.707 84.2929C110.52 84.1053 110.265 84 110 84ZM81.8002 81.36C81.8002 80.553 82.0394 79.7642 82.4878 79.0932C82.9361 78.4223 83.5733 77.8994 84.3188 77.5905C85.0643 77.2817 85.8847 77.2009 86.6761 77.3584C87.4676 77.5158 88.1946 77.9044 88.7652 78.475C89.3358 79.0456 89.7243 79.7726 89.8818 80.564C90.0392 81.3554 89.9584 82.1758 89.6496 82.9213C89.3408 83.6668 88.8178 84.3041 88.1469 84.7524C87.4759 85.2007 86.6871 85.44 85.8802 85.44C85.3359 85.4467 84.7959 85.3444 84.2918 85.1393C83.7877 84.9341 83.3297 84.6301 82.9449 84.2453C82.56 83.8604 82.256 83.4025 82.0509 82.8984C81.8457 82.3943 81.7434 81.8542 81.7502 81.31L81.8002 81.36Z" fill="#242364"/>
<path d="M111.53 84.1199H111C111.114 82.787 111.081 81.4455 110.9 80.1199C110.176 73.4751 107.164 67.2887 102.38 62.6199C100.957 61.2118 99.3573 59.995 97.6203 58.9999C97.4683 58.9121 97.2958 58.8659 97.1203 58.8659C96.9447 58.8659 96.7723 58.9121 96.6203 58.9999C96.471 59.0884 96.3473 59.2143 96.2614 59.365C96.1755 59.5158 96.1303 59.6864 96.1303 59.8599V60.6499C95.8703 62.9399 95.6103 64.5399 95.3503 66.0799C95.0903 67.6199 94.8303 69.2899 94.5803 71.6099C94.4703 72.6099 93.8403 73.1999 93.0003 73.0999C92.819 73.0842 92.6427 73.0329 92.4814 72.9488C92.32 72.8647 92.1769 72.7495 92.0603 72.6099C91.9249 72.4322 91.8268 72.229 91.7718 72.0125C91.7168 71.796 91.7061 71.5707 91.7403 71.3499C92.1503 67.7099 92.5603 64.5499 92.9703 61.4899C93.3303 58.7199 93.7103 55.8499 94.0903 52.5599C94.1338 52.3432 94.1286 52.1195 94.075 51.905C94.0214 51.6905 93.9207 51.4907 93.7803 51.3199C93.62 51.1609 93.4268 51.0391 93.2142 50.963C93.0017 50.887 92.775 50.8586 92.5503 50.8799C88.1436 50.8799 83.7336 50.8799 79.3203 50.8799C79.0914 50.8655 78.862 50.899 78.6468 50.9782C78.4316 51.0574 78.2352 51.1806 78.0703 51.3399C77.9232 51.5248 77.8183 51.7397 77.763 51.9695C77.7077 52.1992 77.7034 52.4383 77.7503 52.6699C78.1203 55.9499 78.4703 59.2299 78.8303 62.5199L79.2103 66.0499C79.3503 67.2799 79.4903 68.0499 79.6203 68.7599C79.7503 69.4699 79.8903 70.2299 80.0203 71.4599C80.0707 71.8339 79.9704 72.2125 79.7417 72.5126C79.5129 72.8126 79.1742 73.0095 78.8003 73.0599C78.6151 73.0849 78.4269 73.0731 78.2462 73.0253C78.0656 72.9775 77.8962 72.8946 77.7476 72.7813C77.4476 72.5525 77.2507 72.2139 77.2003 71.8399C77.0603 70.6599 76.9303 69.9799 76.8003 69.3199C76.6703 68.6599 76.5503 68.0199 76.4203 66.8699C76.1603 64.5199 75.4203 59.9399 75.4203 59.7499C75.3939 59.5836 75.3258 59.4266 75.2226 59.2935C75.1193 59.1605 74.984 59.0557 74.8294 58.9889C74.6748 58.922 74.5059 58.8954 74.3382 58.9113C74.1705 58.9272 74.0096 58.9852 73.8703 59.0799C70.3123 61.4539 67.3088 64.5681 65.0651 68.2097C62.8215 71.8513 61.3906 75.9344 60.8703 80.1799C60.6753 81.4702 60.605 82.7762 60.6603 84.0799H60.1903C59.5968 84.0516 59.0038 84.144 58.4471 84.3516C57.8904 84.5591 57.3816 84.8775 56.9516 85.2875C56.5216 85.6975 56.1792 86.1905 55.9453 86.7367C55.7114 87.2828 55.5908 87.8708 55.5908 88.4649C55.5908 89.0591 55.7114 89.647 55.9453 90.1932C56.1792 90.7393 56.5216 91.2323 56.9516 91.6423C57.3816 92.0523 57.8904 92.3707 58.4471 92.5783C59.0038 92.7858 59.5968 92.8783 60.1903 92.8499H111.59C112.184 92.8783 112.777 92.7858 113.333 92.5783C113.89 92.3707 114.399 92.0523 114.829 91.6423C115.259 91.2323 115.601 90.7393 115.835 90.1932C116.069 89.647 116.19 89.0591 116.19 88.4649C116.19 87.8708 116.069 87.2828 115.835 86.7367C115.601 86.1905 115.259 85.6975 114.829 85.2875C114.399 84.8775 113.89 84.5591 113.333 84.3516C112.777 84.144 112.184 84.0516 111.59 84.0799L111.53 84.1199ZM111.53 90.5199H60.1303C59.5999 90.5199 59.0911 90.3092 58.7161 89.9341C58.341 89.5591 58.1303 89.0503 58.1303 88.5199C58.1303 87.9895 58.341 87.4808 58.7161 87.1057C59.0911 86.7306 59.5999 86.5199 60.1303 86.5199H61.5303C61.8459 86.5199 62.1486 86.3945 62.3717 86.1714C62.5949 85.9482 62.7203 85.6455 62.7203 85.3299C62.7203 85.0599 62.6103 84.2699 62.6003 84.0699C62.5414 82.8629 62.6084 81.653 62.8003 80.4599C63.2529 76.7625 64.4483 73.1947 66.3145 69.9709C68.1807 66.7471 70.6794 63.9337 73.6603 61.6999C73.9103 63.2799 74.2703 65.6999 74.4303 67.1299C74.5703 68.3599 74.7103 69.0599 74.8403 69.7399C74.9703 70.4199 75.0803 71.0099 75.2103 72.1099C75.3164 73.0117 75.7763 73.8343 76.489 74.3969C77.2016 74.9595 78.1085 75.216 79.0103 75.1099C79.912 75.0038 80.7347 74.5439 81.2973 73.8312C81.8599 73.1186 82.1164 72.2117 82.0103 71.3099C81.8803 69.9799 81.7303 69.1999 81.5903 68.4399C81.4503 67.6799 81.3303 67.0299 81.2003 65.8699L80.8203 62.3399C80.4803 59.1999 80.147 56.0599 79.8203 52.9199C83.9003 52.9199 87.9836 52.9199 92.0703 52.9199C91.7203 55.9699 91.3603 58.6599 91.0103 61.2699C90.6103 64.3399 90.1903 67.5099 89.7803 71.1699C89.72 71.6542 89.7561 72.1456 89.8866 72.6158C90.017 73.0861 90.2392 73.5259 90.5403 73.9099C90.8213 74.2557 91.1687 74.5419 91.562 74.7514C91.9553 74.9609 92.3865 75.0896 92.8303 75.1299C93.2926 75.1694 93.7581 75.1159 94.1993 74.9723C94.6405 74.8288 95.0485 74.5983 95.399 74.2943C95.7496 73.9904 96.0356 73.6192 96.2403 73.2028C96.4449 72.7864 96.5639 72.3331 96.5903 71.8699C96.8503 69.5999 97.0903 68.0699 97.3603 66.4399C97.5903 65.0399 97.8203 63.5899 98.0603 61.6299C99.1085 62.3314 100.092 63.1245 101 63.9999C105.482 68.3368 108.291 74.116 108.93 80.3199C109.131 81.6457 109.131 82.9941 108.93 84.3199C108.822 84.6458 108.742 84.9803 108.69 85.3199C108.689 85.4757 108.719 85.6302 108.777 85.7746C108.836 85.9189 108.923 86.0501 109.032 86.1608C109.142 86.2714 109.273 86.3592 109.416 86.4191C109.56 86.4791 109.714 86.5099 109.87 86.5099H111.49C112.021 86.5099 112.529 86.7206 112.904 87.0957C113.28 87.4708 113.49 87.9795 113.49 88.5099C113.49 89.0403 113.28 89.5491 112.904 89.9241C112.529 90.2992 112.021 90.5099 111.49 90.5099L111.53 90.5199Z" fill="#1890FF"/>
</svg>
