<?xml version="1.0" encoding="utf-8"?>
<!-- Generator: Adobe Illustrator 25.4.1, SVG Export Plug-In . SVG Version: 6.00 Build 0)  -->
<svg version="1.1" id="Layer_1" xmlns="http://www.w3.org/2000/svg" xmlns:xlink="http://www.w3.org/1999/xlink" x="0px" y="0px"
	 viewBox="0 0 80 80" style="enable-background:new 0 0 80 80;" xml:space="preserve">
<style type="text/css">
	.st0{fill:none;stroke:#1890FF;stroke-width:1.984;stroke-linecap:round;stroke-miterlimit:10;}
	.st1{fill:none;stroke:#1890FF;stroke-width:1.984;stroke-miterlimit:10;}
	.st2{fill:none;stroke:#1890FF;stroke-width:1.984;stroke-linejoin:round;stroke-miterlimit:10;}
	.st3{fill:none;stroke:#242364;stroke-width:1.984;stroke-linejoin:round;stroke-miterlimit:10;}
	.st4{fill:none;stroke:#242364;stroke-width:1.9276;stroke-linejoin:round;stroke-miterlimit:10;}
	.st5{fill:#242364;}
</style>
<g>
	<path class="st0" d="M25.1,27.6h5.2"/>
	<path class="st0" d="M29.7,32.3h-4.6"/>
	<path class="st0" d="M56.4,32.3h-4.8"/>
	<path class="st0" d="M51.5,27.6h4.8"/>
	<path class="st1" d="M56.4,26.3v7.5c0,8.6-6.6,16.1-15.2,16.3c-8.8,0.2-16.1-6.8-16.1-15.7v-8.2c0-1.1-0.9-2.2-2.2-2.2
		c-1.1,0-2.2,0.9-2.2,2.2v7.5c0,10.6,7.9,19.8,18.5,20.5C50.6,55,60.3,46,60.3,34.5v-8.2c0-1.1-0.7-2.2-2-2.2
		C57.1,24.1,56.4,25.2,56.4,26.3z"/>
	<path class="st2" d="M38.5,54.3v6.6 M42.9,54.3v6.6"/>
	<path class="st2" d="M45.3,60.9h-9c-2,0-3.5,1.5-3.5,3.5v4h16.1v-4C48.9,62.5,47.3,60.9,45.3,60.9z"/>
	<path class="st2" d="M32.8,65.4v3.1h16.1v-3.1"/>
	<path class="st3" d="M50.5,32.5V38c0,2.9-2.4,5.3-5.3,5.3h-9.5c-2.9,0-5.3-2.4-5.3-5.3v-5.5"/>
	<path class="st3" d="M30.6,27.2V17.1c0-2.9,2.4-5.3,5.3-5.3h9.5c2.9,0,5.3,2.4,5.3,5.3v10.4"/>
	<path class="st4" d="M50.4,32.5H31c-1.2,0-2.3-1.1-2.3-2.4c0-1.3,1-2.4,2.3-2.4h19.4c1.2,0,2.3,1.1,2.3,2.4
		C52.7,31.4,51.6,32.5,50.4,32.5z"/>
	<path class="st3" d="M40.6,32.5v10.8"/>
	<path class="st3" d="M46.3,32.5v10.8"/>
	<path class="st3" d="M34.8,32.5v10.8"/>
	<circle class="st5" cx="36.5" cy="17.9" r="1.1"/>
	<circle class="st5" cx="40.7" cy="17.9" r="1.1"/>
	<circle class="st5" cx="36.5" cy="22.9" r="1.1"/>
	<circle class="st5" cx="44.9" cy="17.9" r="1.1"/>
	<circle class="st5" cx="44.9" cy="22.9" r="1.1"/>
	<circle class="st5" cx="40.7" cy="22.9" r="1.1"/>
</g>
</svg>
