<svg width="174" height="174" viewBox="0 0 174 174" fill="none" xmlns="http://www.w3.org/2000/svg">
<rect width="174" height="174" rx="4" fill="#E3E6FA"/>
<path d="M88.6896 93.1104C88.5528 93.1046 88.4192 93.0669 88.2996 93.0004L69.9196 85.2004C69.7388 85.1239 69.5846 84.9958 69.4761 84.8322C69.3677 84.6686 69.3097 84.4767 69.3096 84.2804V67.9404C69.3096 67.6752 69.4149 67.4209 69.6025 67.2333C69.79 67.0458 70.0444 66.9404 70.3096 66.9404C70.5748 66.9404 70.8291 67.0458 71.0167 67.2333C71.2042 67.4209 71.3096 67.6752 71.3096 67.9404V83.6204L88.6996 91.0004L107.43 83.6004V67.9404C107.43 67.6752 107.535 67.4209 107.722 67.2333C107.91 67.0458 108.164 66.9404 108.43 66.9404C108.695 66.9404 108.949 67.0458 109.137 67.2333C109.324 67.4209 109.43 67.6752 109.43 67.9404V84.2804C109.43 84.4807 109.37 84.6764 109.257 84.8422C109.145 85.0081 108.986 85.1363 108.8 85.2104L89.0596 93.0004C88.9452 93.0623 88.8192 93.0998 88.6896 93.1104V93.1104Z" fill="#1890FF"/>
<path d="M88.6905 74.39C88.5701 74.392 88.4508 74.3681 88.3405 74.32L60.0905 63.77C59.9006 63.6991 59.7369 63.5722 59.6208 63.4061C59.5047 63.24 59.4418 63.0426 59.4405 62.84C59.439 62.6368 59.4995 62.4381 59.6138 62.2702C59.7282 62.1022 59.8909 61.9731 60.0805 61.9L90.1905 50.32C90.428 50.2254 90.6929 50.2254 90.9305 50.32L118 61.57C118.187 61.6437 118.347 61.7718 118.46 61.9377C118.573 62.1035 118.633 62.2994 118.633 62.5C118.633 62.7006 118.573 62.8965 118.46 63.0623C118.347 63.2282 118.187 63.3563 118 63.43L104.72 68.53C104.596 68.589 104.461 68.6218 104.324 68.6262C104.186 68.6307 104.049 68.6067 103.921 68.5558C103.794 68.5049 103.678 68.4282 103.581 68.3305C103.484 68.2327 103.408 68.1161 103.359 67.9878C103.309 67.8595 103.286 67.7223 103.292 67.5849C103.298 67.4474 103.332 67.3126 103.392 67.1889C103.452 67.0653 103.538 66.9553 103.642 66.866C103.747 66.7767 103.869 66.71 104 66.67L114.94 62.46L90.5305 52.33L63.2605 62.82L88.6905 72.32L97.0905 69.23C97.2158 69.1716 97.3518 69.1399 97.4901 69.1368C97.6283 69.1337 97.7656 69.1593 97.8934 69.2119C98.0213 69.2646 98.1368 69.3432 98.2327 69.4428C98.3286 69.5423 98.4028 69.6607 98.4507 69.7904C98.4986 69.9201 98.519 70.0583 98.5107 70.1963C98.5025 70.3343 98.4657 70.4691 98.4027 70.5921C98.3397 70.7152 98.2519 70.8239 98.1448 70.9113C98.0377 70.9987 97.9136 71.063 97.7805 71.1L89.0005 74.33C88.9007 74.3652 88.7962 74.3854 88.6905 74.39Z" fill="#1890FF"/>
<path d="M62.5898 80.9999C62.3246 80.9999 62.0703 80.8945 61.8827 80.707C61.6952 80.5194 61.5898 80.2651 61.5898 79.9999V69.1299C61.5899 68.9244 61.6533 68.7239 61.7714 68.5557C61.8895 68.3875 62.0566 68.2597 62.2498 68.1899L86.4698 59.3299C86.7191 59.2384 86.9946 59.2497 87.2356 59.3612C87.4766 59.4728 87.6633 59.6756 87.7548 59.9249C87.8463 60.1742 87.8351 60.4496 87.7235 60.6906C87.6119 60.9316 87.4091 61.1184 87.1598 61.2099L63.5898 69.8299V79.9999C63.5898 80.2651 63.4845 80.5194 63.297 80.707C63.1094 80.8945 62.8551 80.9999 62.5898 80.9999Z" fill="#242364"/>
<path d="M62.6599 88.78C62.5435 88.78 62.4283 88.7569 62.3208 88.7121C62.2134 88.6672 62.116 88.6015 62.0341 88.5187C61.9523 88.436 61.8877 88.3378 61.844 88.2298C61.8004 88.1219 61.7786 88.0064 61.7799 87.89V84.59C61.3359 84.5277 60.9 84.417 60.4799 84.26L59.2399 86.63C59.1854 86.7382 59.1094 86.8341 59.0165 86.9119C58.9236 86.9896 58.8158 87.0476 58.6997 87.0822C58.5836 87.1169 58.4616 87.1275 58.3413 87.1133C58.221 87.0992 58.1048 87.0606 57.9999 87C57.8974 86.9463 57.8065 86.8729 57.7323 86.7839C57.6582 86.695 57.6024 86.5923 57.568 86.4818C57.5336 86.3712 57.5214 86.255 57.532 86.1397C57.5427 86.0245 57.5759 85.9124 57.6299 85.81L59.2499 82.7C59.3046 82.5958 59.3794 82.5035 59.47 82.4284C59.5606 82.3533 59.6652 82.2969 59.7777 82.2625C59.8903 82.2281 60.0085 82.2164 60.1256 82.228C60.2427 82.2395 60.3563 82.2742 60.4599 82.33C61.0722 82.6678 61.7607 82.8433 62.4599 82.84C62.7148 82.8166 62.9689 82.8918 63.1699 83.05C63.2637 83.1347 63.3388 83.2381 63.3905 83.3534C63.4421 83.4688 63.4692 83.5936 63.4699 83.72V87.89C63.4708 88.1128 63.3881 88.3279 63.2382 88.4927C63.0882 88.6575 62.8818 88.76 62.6599 88.78V88.78Z" fill="#242364"/>
<path d="M66.7302 87.0796C66.5573 87.078 66.3886 87.0261 66.2448 86.9302C66.101 86.8343 65.9881 86.6986 65.9202 86.5396L64.9202 84.1696C64.1917 84.4839 63.4031 84.6341 62.6102 84.6096C62.4903 84.5998 62.3737 84.5658 62.2673 84.5096C62.161 84.4534 62.0671 84.3763 61.9914 84.2828C61.9157 84.1893 61.8597 84.0815 61.8268 83.9658C61.794 83.8501 61.7849 83.7289 61.8002 83.6096C61.8114 83.4903 61.8463 83.3744 61.9029 83.2687C61.9595 83.163 62.0366 83.0697 62.1298 82.9943C62.2229 82.9188 62.3302 82.8627 62.4453 82.8293C62.5605 82.7959 62.6811 82.7858 62.8002 82.7996C63.5631 82.7746 64.3068 82.5543 64.9602 82.1596C65.0693 82.0955 65.1909 82.0554 65.3168 82.0421C65.4427 82.0287 65.57 82.0424 65.6903 82.0821C65.8105 82.1219 65.9208 82.1868 66.0139 82.2726C66.107 82.3584 66.1807 82.4631 66.2302 82.5796L67.6102 85.7996C67.6596 85.9126 67.6851 86.0347 67.6849 86.158C67.6847 86.2814 67.6589 86.4033 67.609 86.5162C67.5592 86.629 67.4864 86.7302 67.3954 86.8135C67.3044 86.8967 67.197 86.9601 67.0802 86.9996C66.9705 87.0509 66.8512 87.0782 66.7302 87.0796Z" fill="#242364"/>
</svg>
