<svg width="174" height="174" viewBox="0 0 174 174" fill="none" xmlns="http://www.w3.org/2000/svg">
<rect width="174" height="174" rx="4" fill="#E3E6FA"/>
<path d="M75.9999 69.9996C74.5863 69.9996 73.2306 69.4381 72.231 68.4385C71.2315 67.439 70.6699 66.0833 70.6699 64.6696V62.4697C70.6699 61.056 71.2315 59.7003 72.231 58.7008C73.2306 57.7012 74.5863 57.1396 75.9999 57.1396C77.4135 57.1396 78.7692 57.7012 79.7688 58.7008C80.7684 59.7003 81.3299 61.056 81.3299 62.4697V64.6596C81.297 66.0638 80.7252 67.4015 79.7329 68.3956C78.7407 69.3898 77.404 69.9641 75.9999 69.9996V69.9996ZM75.9999 58.8496C75.0372 58.8496 74.1139 59.2321 73.4331 59.9129C72.7524 60.5936 72.3699 61.5169 72.3699 62.4796V64.6696C72.3752 65.6298 72.7596 66.549 73.4396 67.2271C74.1195 67.9051 75.0397 68.287 75.9999 68.2896C76.9582 68.2592 77.8684 67.863 78.5435 67.1823C79.2186 66.5015 79.6074 65.5881 79.6299 64.6297V62.4697C79.6299 61.5069 79.2475 60.5836 78.5667 59.9029C77.886 59.2221 76.9627 58.8396 75.9999 58.8396V58.8496Z" fill="#242364"/>
<path d="M74.7002 82.8796H67.0002C66.7765 82.877 66.5628 82.7863 66.4056 82.6272C66.2483 82.468 66.1601 82.2533 66.1602 82.0296V75.9296C66.1758 74.5235 66.7413 73.1794 67.7356 72.1851C68.7299 71.1907 70.074 70.6252 71.4802 70.6096H72.1902C72.3162 70.6098 72.4406 70.6377 72.5546 70.6912C72.6687 70.7448 72.7696 70.8228 72.8502 70.9196C73.2375 71.3943 73.7256 71.7769 74.279 72.0397C74.8325 72.3024 75.4375 72.4387 76.0502 72.4387C76.6628 72.4387 77.2678 72.3024 77.8213 72.0397C78.3748 71.7769 78.8628 71.3943 79.2502 70.9196C79.3303 70.8222 79.4311 70.7439 79.5452 70.6903C79.6594 70.6366 79.784 70.6091 79.9102 70.6096H80.3202C81.1505 70.603 81.9768 70.7245 82.7702 70.9696C82.8847 70.9996 82.9917 71.0531 83.0843 71.1268C83.1769 71.2004 83.2531 71.2926 83.3081 71.3975C83.363 71.5023 83.3954 71.6175 83.4033 71.7356C83.4111 71.8537 83.3943 71.9721 83.3537 72.0833C83.3131 72.1945 83.2498 72.296 83.1678 72.3813C83.0857 72.4666 82.9867 72.5338 82.8772 72.5786C82.7677 72.6235 82.65 72.6449 82.5317 72.6417C82.4134 72.6384 82.297 72.6105 82.1902 72.5596C81.5814 72.3901 80.9521 72.3059 80.3202 72.3096C79.7743 72.8874 79.1163 73.3476 78.3863 73.6622C77.6564 73.9767 76.87 74.1389 76.0752 74.1389C75.2803 74.1389 74.4939 73.9767 73.764 73.6622C73.034 73.3476 72.376 72.8874 71.8302 72.3096H71.5102C70.5524 72.32 69.6366 72.7044 68.9583 73.3808C68.2801 74.0571 67.8931 74.9719 67.8802 75.9296V81.1796H74.7002C74.9256 81.1796 75.1418 81.2692 75.3012 81.4286C75.4606 81.588 75.5502 81.8042 75.5502 82.0296C75.5502 82.2551 75.4606 82.4713 75.3012 82.6307C75.1418 82.7901 74.9256 82.8796 74.7002 82.8796V82.8796Z" fill="#242364"/>
<path d="M96.9999 69.9996C95.6025 69.9645 94.2716 69.3958 93.2804 68.4101C92.2892 67.4245 91.7129 66.0968 91.6699 64.6996V62.4697C91.6699 61.056 92.2315 59.7003 93.231 58.7008C94.2306 57.7012 95.5863 57.1396 96.9999 57.1396C98.4135 57.1396 99.7692 57.7012 100.769 58.7008C101.768 59.7003 102.33 61.056 102.33 62.4697V64.6596C102.331 65.3604 102.194 66.0546 101.927 66.7024C101.66 67.3502 101.267 67.939 100.772 68.435C100.277 68.931 99.6893 69.3245 99.0419 69.593C98.3946 69.8615 97.7007 69.9997 96.9999 69.9996V69.9996ZM96.9999 58.8496C96.0372 58.8496 95.1139 59.2321 94.4331 59.9129C93.7524 60.5936 93.3699 61.5169 93.3699 62.4796V64.6696C93.4001 65.6219 93.7925 66.5267 94.4671 67.1994C95.1417 67.8722 96.0476 68.2621 96.9999 68.2896C97.9618 68.287 98.8836 67.9037 99.5638 67.2235C100.244 66.5433 100.627 65.6216 100.63 64.6596V62.4697C100.63 61.5069 100.247 60.5836 99.5667 59.9029C98.886 59.2221 97.9627 58.8396 96.9999 58.8396V58.8496Z" fill="#242364"/>
<path d="M106 82.8799H98.2798C98.0544 82.8799 97.8382 82.7903 97.6788 82.6309C97.5194 82.4715 97.4298 82.2553 97.4298 82.0299C97.4298 81.8044 97.5194 81.5882 97.6788 81.4288C97.8382 81.2694 98.0544 81.1799 98.2798 81.1799H105.17V75.9299C105.157 74.9738 104.771 74.0605 104.095 73.3844C103.419 72.7083 102.506 72.3228 101.55 72.3099H101.22C100.674 72.8876 100.016 73.3478 99.286 73.6624C98.5561 73.9769 97.7696 74.1392 96.9748 74.1392C96.18 74.1392 95.3936 73.9769 94.6636 73.6624C93.9337 73.3478 93.2757 72.8876 92.7298 72.3099C92.0946 72.3063 91.462 72.3904 90.8498 72.5599C90.6547 72.5961 90.453 72.5628 90.2797 72.4659C90.1065 72.369 89.9726 72.2145 89.9014 72.0293C89.8301 71.844 89.826 71.6396 89.8896 71.4516C89.9532 71.2636 90.0807 71.1038 90.2498 70.9999C91.0467 70.7554 91.8763 70.634 92.7098 70.6399H93.1198C93.2445 70.6394 93.3677 70.667 93.4802 70.7207C93.5927 70.7744 93.6917 70.8527 93.7698 70.9499C94.1581 71.4247 94.6471 71.8074 95.2014 72.0702C95.7557 72.3329 96.3614 72.4692 96.9748 72.4692C97.5882 72.4692 98.194 72.3329 98.7483 72.0702C99.3026 71.8074 99.7915 71.4247 100.18 70.9499C100.259 70.8513 100.36 70.7722 100.474 70.7185C100.588 70.6648 100.713 70.6379 100.84 70.6399H101.55C102.955 70.658 104.298 71.2243 105.292 72.2181C106.285 73.2119 106.852 74.5545 106.87 75.9599V81.9999C106.874 82.1157 106.854 82.2311 106.812 82.3391C106.77 82.4471 106.706 82.5453 106.625 82.6277C106.543 82.7101 106.446 82.775 106.338 82.8184C106.231 82.8617 106.116 82.8827 106 82.8799V82.8799Z" fill="#242364"/>
<path d="M86.7499 75.1703C86.1374 75.177 85.5297 75.0613 84.9625 74.83C84.3953 74.5986 83.8801 74.2564 83.4469 73.8232C83.0138 73.3901 82.6715 72.8748 82.4402 72.3076C82.2089 71.7405 82.0932 71.1328 82.0999 70.5203V68.6903C82.1553 67.4956 82.6689 66.3683 83.534 65.5425C84.399 64.7166 85.549 64.2559 86.7449 64.2559C87.9408 64.2559 89.0908 64.7166 89.9558 65.5425C90.8208 66.3683 91.3344 67.4956 91.3899 68.6903V70.5203C91.3899 71.7518 90.9014 72.933 90.0315 73.8048C89.1616 74.6766 87.9814 75.1676 86.7499 75.1703V75.1703ZM86.7499 65.7503C86.3566 65.7338 85.9641 65.7981 85.5966 65.9392C85.2292 66.0803 84.8945 66.2953 84.6134 66.5708C84.3323 66.8463 84.1106 67.1766 83.9621 67.5411C83.8136 67.9056 83.7413 68.2967 83.7499 68.6903V70.5203C83.7414 70.9143 83.8136 71.3058 83.962 71.6708C84.1104 72.0359 84.3319 72.3667 84.6129 72.643C84.8939 72.9193 85.2284 73.1352 85.5959 73.2775C85.9634 73.4198 86.3561 73.4854 86.7499 73.4703C87.5265 73.4548 88.2669 73.1388 88.8152 72.5886C89.3635 72.0384 89.6771 71.297 89.6899 70.5203V68.6903C89.6939 68.3031 89.6206 67.919 89.4743 67.5605C89.3279 67.2019 89.1115 66.8762 88.8377 66.6024C88.5639 66.3286 88.2382 66.1122 87.8797 65.9659C87.5212 65.8196 87.1371 65.7463 86.7499 65.7503V65.7503Z" fill="#1890FF"/>
<path d="M93.4598 87.4899H79.8998C79.6744 87.4899 79.4582 87.4004 79.2988 87.241C79.1394 87.0816 79.0498 86.8654 79.0498 86.6399V79.9999C79.0864 78.8257 79.5869 77.7139 80.4415 76.9079C81.2962 76.102 82.4355 75.6676 83.6098 75.6999H83.9998C84.1245 75.6995 84.2476 75.7271 84.3602 75.7808C84.4727 75.8344 84.5717 75.9128 84.6498 76.0099C84.9311 76.3125 85.2694 76.5566 85.6452 76.7281C86.021 76.8997 86.4269 76.9955 86.8398 77.0099C87.2498 76.9982 87.6529 76.9025 88.0245 76.7287C88.396 76.555 88.7279 76.307 88.9998 75.9999C89.0807 75.9067 89.1804 75.8317 89.2925 75.78C89.4046 75.7282 89.5264 75.701 89.6498 75.6999H89.9198C90.4906 75.6933 91.0571 75.7994 91.5868 76.012C92.1165 76.2247 92.5991 76.5397 93.0069 76.9392C93.4147 77.3386 93.7397 77.8145 93.9632 78.3398C94.1868 78.865 94.3046 79.4291 94.3098 79.9999V86.6799C94.2995 86.8984 94.2054 87.1044 94.0471 87.2553C93.8888 87.4061 93.6785 87.4902 93.4598 87.4899V87.4899ZM80.7498 85.7899H92.6098V79.9999C92.6072 79.3085 92.3313 78.6462 91.8424 78.1573C91.3535 77.6684 90.6912 77.3926 89.9998 77.3899C89.1426 78.2411 87.9877 78.7253 86.7798 78.7399C85.5755 78.7082 84.4267 78.2265 83.5598 77.3899C82.8424 77.3682 82.1452 77.6299 81.6193 78.1184C81.0934 78.6069 80.781 79.2828 80.7498 79.9999V85.7899Z" fill="#1890FF"/>
<path d="M86.0596 101.55C81.1369 101.513 76.3651 99.8459 72.4896 96.8101C68.6618 94.0704 65.55 90.4491 63.4178 86.2524C61.2855 82.0557 60.1954 77.4072 60.2396 72.7001C60.1696 68.7001 60.1896 64.7001 60.2396 60.8501V60.7001C60.2396 58.4601 60.2396 56.2101 60.2396 53.9701C60.1974 53.644 60.2758 53.3136 60.4599 53.0411C60.644 52.7686 60.9213 52.5727 61.2396 52.4901L78.7396 44.6601L85.9996 41.3701H86.3996L94.9996 45.2101L111.35 52.4501C111.688 52.5457 111.98 52.7602 112.173 53.0541C112.366 53.348 112.447 53.7017 112.4 54.0501C112.4 58.7501 112.4 63.4501 112.4 68.1501V72.6901C112.394 78.0183 110.958 83.2472 108.24 87.8301C108.149 88.0237 108.009 88.1897 107.833 88.311C107.658 88.4323 107.453 88.5045 107.24 88.5201C107.064 88.516 106.892 88.4679 106.74 88.3801C106.623 88.3189 106.52 88.2352 106.436 88.134C106.352 88.0327 106.288 87.9159 106.25 87.7901C106.21 87.62 106.205 87.4435 106.236 87.2715C106.267 87.0995 106.333 86.9357 106.43 86.7901C109.071 82.2677 110.42 77.1067 110.33 71.8701C110.33 67.5101 110.33 63.0801 110.33 58.7901V55.8601C110.356 55.38 110.229 54.9039 109.966 54.501C109.704 54.0982 109.32 53.7896 108.87 53.6201C101.683 50.4468 94.503 47.2601 87.3296 44.0601C86.9768 43.8911 86.5909 43.8023 86.1996 43.8001C85.8116 43.8025 85.429 43.8913 85.0796 44.0601C77.9796 47.2601 70.8696 50.4435 63.7496 53.6101C63.2999 53.7849 62.9172 54.0979 62.6567 54.504C62.3961 54.9101 62.2711 55.3884 62.2996 55.8701C62.2996 57.5801 62.2996 59.2901 62.2996 61.0101V61.9101C62.2996 65.2601 62.2996 69.0501 62.2996 72.7301C62.5296 83.1101 66.9996 91.0001 75.6196 96.3101C78.8241 98.3579 82.537 99.4697 86.3396 99.5201C90.6896 99.4157 94.9108 98.0237 98.4696 95.5201C98.7822 95.2618 99.1528 95.0833 99.5496 95.0001C100.24 95.1201 100.44 95.3701 100.55 95.8101C100.607 96.0203 100.594 96.2435 100.513 96.4457C100.431 96.6478 100.286 96.8179 100.1 96.9301C97.872 98.575 95.3698 99.8109 92.7096 100.58C90.5481 101.208 88.3104 101.534 86.0596 101.55Z" fill="#1890FF"/>
</svg>
