<svg width="80" height="80" viewBox="0 0 80 80" fill="none" xmlns="http://www.w3.org/2000/svg">
<path d="M28.4444 32C27.1111 32.8889 26 34 24.8889 35.1111C21.7778 38.4444 20 43.1111 20 48.2222C20 53.3333 21.7778 58 24.8889 61.3333C28.4444 65.5555 33.7778 68.2222 39.7778 68.2222C29.3333 65.1111 24.2222 56.6667 24.2222 48.2222C24.2222 42.6667 26.8889 36.6667 31.5556 32.6667L28.4444 32Z" fill="#1890FF" fill-opacity="0.2"/>
<path d="M51.7778 32C52.2222 32.2222 52.4444 32.6667 52.8889 32.8889C53.3333 33.3333 53.7778 33.5556 54.2222 34C54.4444 34.4444 54.8889 34.6667 55.1111 35.1111C58.2222 38.4444 60 43.1111 60 48.2222C60 53.3333 58.2222 58 55.1111 61.3333C51.5556 65.5555 46 68.2222 40 68.2222C34 68.2222 28.6667 65.5555 24.8889 61.3333C21.7778 57.7778 20 53.1111 20 48.2222C20 43.1111 21.7778 38.4444 25.1111 35.1111C26.2222 34 27.3333 32.8889 28.6667 32" stroke="#242364" stroke-width="2" stroke-miterlimit="10" stroke-linecap="round" stroke-linejoin="round"/>
<path d="M55.1111 61.3333C51.5556 65.5556 46 68.2222 40 68.2222C34 68.2222 28.6667 65.5556 24.8889 61.3333C28.6667 57.1111 34 54.4445 40 54.4445C46 54.4445 51.3334 57.1111 55.1111 61.3333Z" stroke="#242364" stroke-width="2" stroke-miterlimit="10" stroke-linecap="round" stroke-linejoin="round"/>
<path d="M51.7778 32C52.2222 32.2222 52.4444 32.6667 52.8889 32.8889C53.3333 33.3333 53.7778 33.5556 54.2222 34C54.4444 34.2222 54.6666 34.4444 54.8889 34.8889C51.1111 39.1111 45.7778 41.5556 40 41.5556C34 41.5556 28.8889 38.8889 25.1111 35.1111C26.2222 34 27.3333 32.8889 28.6666 32" stroke="#242364" stroke-width="2" stroke-miterlimit="10" stroke-linecap="round" stroke-linejoin="round"/>
<path d="M47.5554 33.1111C49.9998 36.6666 51.3332 42.2222 51.3332 48.2222C51.3332 59.3333 46.2221 68.2222 39.9998 68.2222C33.7776 68.2222 28.6665 59.3333 28.6665 48.2222C28.6665 42.2222 30.2221 36.6666 32.6665 33.1111" stroke="#242364" stroke-width="2" stroke-miterlimit="10" stroke-linecap="round" stroke-linejoin="round"/>
<path d="M40 35.1111V48.2222V68.2222" stroke="#242364" stroke-width="2" stroke-miterlimit="10" stroke-linecap="round" stroke-linejoin="round"/>
<path d="M20 48.2222H40H60" stroke="#242364" stroke-width="2" stroke-miterlimit="10" stroke-linecap="round" stroke-linejoin="round"/>
<path d="M28 21.1111V31.7778L40 35.1111L52.8889 31.7778V21.1111" stroke="#1890FF" stroke-width="2" stroke-miterlimit="10" stroke-linecap="round" stroke-linejoin="round"/>
<path d="M47.5555 21.7778L47.1111 22" stroke="#1890FF" stroke-width="2" stroke-miterlimit="10" stroke-linecap="round" stroke-linejoin="round"/>
<path d="M44.2223 23.1111L40.0001 24.6667L21.5557 17.7778L41.5557 12L58.889 17.5556L50.2223 20.8889" stroke="#1890FF" stroke-width="2" stroke-miterlimit="10" stroke-linecap="round" stroke-linejoin="round"/>
<path d="M23.7778 27.1111V20L34.0001 16.8889" stroke="#1890FF" stroke-width="2" stroke-miterlimit="10" stroke-linecap="round" stroke-linejoin="round"/>
</svg>
