<svg width="22" height="22" viewBox="0 0 22 22" fill="none" xmlns="http://www.w3.org/2000/svg" class="sm-icon">
<path d="M19.863 6.68124C19.6573 5.90698 19.0515 5.2972 18.2822 5.09026C16.8879 4.71423 11.2969 4.71423 11.2969 4.71423C11.2969 4.71423 5.70586 4.71423 4.31151 5.09026C3.54226 5.29723 2.93641 5.90698 2.73079 6.68124C2.35718 8.08462 2.35718 11.0126 2.35718 11.0126C2.35718 11.0126 2.35718 13.9407 2.73079 15.3441C2.93641 16.1183 3.54226 16.7027 4.31151 16.9096C5.70586 17.2857 11.2969 17.2857 11.2969 17.2857C11.2969 17.2857 16.8879 17.2857 18.2822 16.9096C19.0515 16.7027 19.6573 16.1183 19.863 15.3441C20.2366 13.9407 20.2366 11.0126 20.2366 11.0126C20.2366 11.0126 20.2366 8.08462 19.863 6.68124ZM9.46829 13.6711V8.35422L14.1413 11.0127L9.46829 13.6711Z" fill="white"/>
</svg>