<svg width="22" height="22" viewBox="0 0 22 22" fill="none" xmlns="http://www.w3.org/2000/svg" class="sm-icon">
<path d="M18.9032 9.30247C17.2747 9.30635 15.6861 8.80067 14.3619 7.85688V14.4392C14.3615 15.6583 13.9872 16.8482 13.2893 17.8499C12.5913 18.8515 11.6028 19.6171 10.456 20.0442C9.30925 20.4714 8.05884 20.5398 6.87197 20.2403C5.68511 19.9407 4.61837 19.2876 3.81439 18.3681C3.01042 17.4486 2.50753 16.3067 2.37297 15.0949C2.23841 13.8832 2.4786 12.6594 3.06141 11.5873C3.64422 10.5152 4.54188 9.64572 5.63436 9.09525C6.72684 8.54479 7.96206 8.33954 9.17486 8.50694V11.8176C8.61988 11.6438 8.02393 11.649 7.47212 11.8326C6.92031 12.0161 6.44085 12.3686 6.10222 12.8396C5.76359 13.3106 5.5831 13.8762 5.58652 14.4555C5.58995 15.0347 5.77712 15.5981 6.1213 16.0651C6.46548 16.5322 6.94907 16.879 7.50302 17.056C8.05696 17.2331 8.65293 17.2313 9.20581 17.051C9.7587 16.8707 10.2402 16.5211 10.5816 16.052C10.923 15.583 11.1068 15.0185 11.1068 14.4392V1.57141H14.3619C14.3597 1.84511 14.3827 2.11844 14.4307 2.38794C14.5438 2.98956 14.779 3.56187 15.1219 4.06989C15.4648 4.5779 15.9081 5.01092 16.4249 5.34247C17.16 5.82646 18.0219 6.08442 18.9032 6.08424V9.30247Z" fill="white"/>
</svg>