<svg width="22" height="22" viewBox="0 0 22 22" fill="none" xmlns="http://www.w3.org/2000/svg" class="sm-icon">
<path d="M10.9845 6.16525C8.31392 6.16525 6.15984 8.32384 6.15984 11C6.15984 13.6761 8.31392 15.8347 10.9845 15.8347C13.655 15.8347 15.8091 13.6761 15.8091 11C15.8091 8.32384 13.655 6.16525 10.9845 6.16525ZM10.9845 14.1432C9.25869 14.1432 7.84783 12.7336 7.84783 11C7.84783 9.26638 9.25449 7.85677 10.9845 7.85677C12.7145 7.85677 14.1211 9.26638 14.1211 11C14.1211 12.7336 12.7103 14.1432 10.9845 14.1432ZM17.1318 5.96748C17.1318 6.59444 16.6279 7.09517 16.0065 7.09517C15.3808 7.09517 14.8811 6.59023 14.8811 5.96748C14.8811 5.34473 15.385 4.8398 16.0065 4.8398C16.6279 4.8398 17.1318 5.34473 17.1318 5.96748ZM20.3272 7.112C20.2558 5.60141 19.9115 4.26334 18.8072 3.1609C17.707 2.05846 16.3718 1.71342 14.8643 1.63768C13.3107 1.54932 8.65404 1.54932 7.10042 1.63768C5.59718 1.70922 4.26191 2.05425 3.15758 3.15669C2.05324 4.25913 1.71313 5.5972 1.63755 7.10779C1.54937 8.66467 1.54937 13.3311 1.63755 14.888C1.70893 16.3986 2.05324 17.7366 3.15758 18.8391C4.26191 19.9415 5.59298 20.2865 7.10042 20.3623C8.65404 20.4506 13.3107 20.4506 14.8643 20.3623C16.3718 20.2907 17.707 19.9457 18.8072 18.8391C19.9073 17.7366 20.2516 16.3986 20.3272 14.888C20.4154 13.3311 20.4154 8.66888 20.3272 7.112ZM18.3201 16.5585C17.9926 17.3832 17.3585 18.0186 16.5313 18.351C15.2926 18.8433 12.3533 18.7297 10.9845 18.7297C9.6156 18.7297 6.67212 18.8391 5.43762 18.351C4.61462 18.0228 3.98058 17.3874 3.64886 16.5585C3.15758 15.3172 3.27095 12.3717 3.27095 11C3.27095 9.62825 3.16177 6.6786 3.64886 5.44151C3.97638 4.61679 4.61042 3.98141 5.43762 3.649C6.67632 3.15669 9.6156 3.2703 10.9845 3.2703C12.3533 3.2703 15.2968 3.1609 16.5313 3.649C17.3543 3.97721 17.9884 4.61258 18.3201 5.44151C18.8114 6.68281 18.698 9.62825 18.698 11C18.698 12.3717 18.8114 15.3214 18.3201 16.5585Z" fill="white"/>
</svg>