<svg version="1.1" id="Capa_1" xmlns="http://www.w3.org/2000/svg" xmlns:xlink="http://www.w3.org/1999/xlink" x="0px" y="0px"
	 viewBox="0 0 22 22" style="enable-background:new 0 0 22 22;" xml:space="preserve">
<path class="st0" d="M19.9,6.7c-0.2-0.8-0.8-1.4-1.6-1.6c-1.4-0.4-7-0.4-7-0.4s-5.6,0-7,0.4C3.5,5.3,2.9,5.9,2.7,6.7
	C2.4,8.1,2.4,11,2.4,11s0,2.9,0.4,4.3c0.2,0.8,0.8,1.4,1.6,1.6c1.4,0.4,7,0.4,7,0.4s0.4,0,1.1,0c0.2-0.3,0.5-0.5,1-0.5
	c0.3,0,0.5,0.1,0.7,0.2c0-0.2,0-0.5,0-0.8c-0.3,0-0.6-0.1-0.8-0.3c-0.2-0.2-0.4-0.5-0.4-0.8c0-0.6,0.4-1.1,1.3-1.1
	c0.1,0,0.2,0,0.3,0c0.1,0,0.2,0,0.3,0c0.1,0,0.3,0,0.5,0c0.3,0,0.4,0,0.6,0c0.4,0,0.7,0.1,0.9,0.2c0.2-0.1,0.4-0.2,0.7-0.2l0.1,0
	l0,0c0.7,0.1,0.7,0.1,0.7,0.1c0.4,0,0.7,0.1,0.9,0.3c0.4,0.2,0.6,0.4,0.8,0.6c0.2-1.5,0.2-3.7,0.2-3.7S20.2,8.1,19.9,6.7z M9.5,13.7
	V8.4l4.7,2.7L9.5,13.7z" fill="white"/>
<path class="st0" d="M13.5,18.9c0.3,0.2,0.7,0.4,1,0.4c0.4,0,0.6-0.2,0.8-0.7c0.2-0.6,0.3-1.6,0.3-3c0-0.1,0-0.2,0-0.2c0,0,0,0,0,0
	h0.2c0,0,0.1,0,0.2,0c0.1,0,0.1,0,0.2,0c0.1,0,0.2,0,0.3-0.1c0.1-0.1,0.1-0.2,0.1-0.3c0-0.3-0.3-0.4-0.8-0.4c-0.1,0-0.3,0-0.5,0
	c-0.2,0-0.4,0-0.5,0c-0.1,0-0.2,0-0.3,0c-0.1,0-0.2,0-0.3,0c-0.3,0-0.5,0.1-0.5,0.4c0,0.1,0,0.2,0.1,0.3c0.1,0.1,0.2,0.1,0.3,0.1
	c0.1,0,0.2,0,0.3,0c0.1,0,0.2,0,0.2,0c0,0,0.1,0,0.1,0l0.1,0c0,0.1,0,0.2,0,0.2c0,0.6,0,1.2,0,1.6c0,0.5-0.1,0.8-0.1,0.9
	c0,0.3-0.1,0.4-0.1,0.4c-0.2,0-0.3-0.1-0.5-0.2c-0.2-0.1-0.3-0.2-0.3-0.4c0-0.3-0.1-0.4-0.4-0.4s-0.4,0.1-0.4,0.4
	C12.9,18.3,13.1,18.6,13.5,18.9z" fill="white"/>
<path class="st0" d="M19.8,18.9c0.1,0,0.2,0,0.3-0.1c0.1-0.1,0.1-0.2,0.1-0.3c0-0.1,0-0.2-0.1-0.3c-0.3-0.3-0.6-0.6-1.1-0.9
	c0.3-0.1,0.6-0.3,0.8-0.5c0.2-0.2,0.3-0.4,0.3-0.7c0-0.6-0.4-1.1-1.2-1.5c-0.2-0.1-0.4-0.2-0.7-0.2c0,0-0.2,0-0.7-0.1c0,0,0,0,0,0
	c-0.1,0-0.3,0.1-0.4,0.2c-0.1,0.1-0.1,0.2-0.1,0.3l0,2.3c0,0.1,0,0.4,0,0.6c0,0.3,0,0.5,0,0.6c0,0.1,0,0.2,0.1,0.3s0.2,0.1,0.3,0.1
	s0.2,0,0.3-0.1c0.1-0.1,0.1-0.2,0.1-0.3c0-0.1,0-0.4,0-0.9c0.7,0.2,1.3,0.6,1.9,1.1C19.6,18.9,19.7,18.9,19.8,18.9z M17.8,16.9
	c0,0-0.1,0-0.1,0v-1.5c0.2,0,0.3,0,0.3,0c0.3,0,0.5,0.1,0.8,0.3c0.3,0.2,0.4,0.4,0.4,0.6c0,0,0,0.1-0.1,0.2
	c-0.1,0.1-0.2,0.1-0.3,0.2C18.6,16.8,18.3,16.9,17.8,16.9z" fill="white"/>
</svg>