<svg width="22" height="22" viewBox="0 0 22 22" fill="none" xmlns="http://www.w3.org/2000/svg" class="sm-icon">
<path d="M18.9074 2.40625H3.09485C2.71458 2.40625 2.40735 2.71348 2.40735 3.09375V18.9063C2.40735 19.2865 2.71458 19.5938 3.09485 19.5938H18.9074C19.2876 19.5938 19.5949 19.2865 19.5949 18.9063V3.09375C19.5949 2.71348 19.2876 2.40625 18.9074 2.40625ZM7.50559 17.0521H4.9554V8.84941H7.50559V17.0521ZM6.23157 7.72793C5.93922 7.72793 5.65344 7.64124 5.41037 7.47882C5.16729 7.3164 4.97783 7.08555 4.86596 6.81546C4.75408 6.54537 4.72481 6.24817 4.78184 5.96144C4.83888 5.67471 4.97966 5.41133 5.18638 5.20461C5.3931 4.99789 5.65647 4.85712 5.9432 4.80008C6.22993 4.74305 6.52713 4.77232 6.79722 4.8842C7.06731 4.99607 7.29817 5.18553 7.46058 5.4286C7.623 5.67168 7.70969 5.95746 7.70969 6.2498C7.70754 7.06621 7.04583 7.72793 6.23157 7.72793ZM17.0532 17.0521H14.5052V13.0625C14.5052 12.1107 14.488 10.8883 13.1796 10.8883C11.854 10.8883 11.6499 11.9238 11.6499 12.9938V17.0521H9.10403V8.84941H11.549V9.9709H11.5833C11.9228 9.32637 12.7542 8.64531 13.996 8.64531C16.5784 8.64531 17.0532 10.3447 17.0532 12.5533V17.0521Z" fill="white"/>
</svg>