<svg width="22" height="22" viewBox="0 0 22 22" fill="none" xmlns="http://www.w3.org/2000/svg" class="sm-icon">
<path d="M19.9379 5.46349C19.2805 5.74708 18.5651 5.95118 17.8282 6.03067C18.5933 5.57614 19.1662 4.85805 19.4395 4.01114C18.7216 4.43823 17.9351 4.73771 17.1149 4.8963C16.7721 4.52983 16.3575 4.23789 15.8969 4.03866C15.4364 3.83943 14.9397 3.73718 14.4379 3.73829C12.4077 3.73829 10.7749 5.38399 10.7749 7.40353C10.7749 7.68712 10.8092 7.97071 10.8651 8.24356C7.82505 8.08458 5.11372 6.63224 3.31118 4.4086C2.98274 4.96959 2.81062 5.60835 2.81274 6.25841C2.81274 7.53028 3.45942 8.65177 4.44556 9.31134C3.86441 9.28845 3.29688 9.12872 2.78911 8.84513V8.89024C2.78911 10.6713 4.0481 12.1473 5.72603 12.4867C5.41098 12.5686 5.08688 12.6104 4.76138 12.6113C4.5229 12.6113 4.29731 12.5877 4.06958 12.5555C4.53364 14.0078 5.88501 15.0627 7.49419 15.0971C6.23521 16.0832 4.65825 16.6633 2.94595 16.6633C2.63872 16.6633 2.35513 16.6526 2.06079 16.6182C3.68501 17.6602 5.61216 18.2617 7.68755 18.2617C14.425 18.2617 18.1118 12.6801 18.1118 7.83536C18.1118 7.67638 18.1118 7.51739 18.101 7.35841C18.8143 6.83634 19.4395 6.18966 19.9379 5.46349Z" fill="white"/>
</svg>