<svg width="174" height="174" viewBox="0 0 174 174" fill="none" xmlns="http://www.w3.org/2000/svg">
<g clip-path="url(#clip0_682_1642)">
<path d="M184.614 -12.3398H-20.6143V202.801H184.614V-12.3398Z" fill="#FFDE80"/>
<path d="M113.23 94.4485C110.098 88.3075 94.4866 88.2725 94.4866 88.2725L72.8879 88.7479C72.8879 88.7479 57.8891 87.4425 54.7641 93.5818C51.6391 99.721 48.2948 110.268 49.2309 129.64C50.167 149.012 43.7969 213.987 43.7969 213.987H122.464C122.464 213.987 116.259 150.256 117.195 130.891C118.131 111.526 116.355 100.586 113.23 94.4485Z" fill="#20228C"/>
<path d="M33.2491 155.259C37.1485 139.994 36.8544 140.407 51.9367 126.707C56.0101 123.008 61.0735 89.8507 55.7873 91.3877C40.4614 95.8426 29.2506 116.066 25.2155 123.819C20.9195 132.066 16.6199 140.707 14.4971 149.943C13.5991 153.932 13.084 157.999 12.959 162.088H32.5166C32.755 158.67 33.0073 156.212 33.2491 155.259Z" fill="#F09D71"/>
<path d="M13.6584 154.372C13.6584 154.372 11.8123 166.926 13.6584 171.254C15.5045 175.583 21.1404 174.79 21.1404 174.79L27.3766 160.159L13.6584 154.372Z" fill="#F09D71"/>
<path d="M94.7387 90.4199C94.7387 90.4199 93.6199 99.8121 83.6671 99.8121C73.7143 99.8121 73.1122 91.5762 73.1122 91.5762L73.0044 77.6134C70.1838 77.6134 65.0282 71.876 64.0051 66.8491C63.069 62.2364 63.5614 52.9776 63.8972 42.1098C64.0645 36.7704 66.2859 31.7062 70.0913 27.9896C73.8966 24.2729 78.9871 22.1955 84.2848 22.1973H84.3892C89.7343 22.1959 94.8664 24.3101 98.6814 28.0852C102.496 31.8603 104.69 36.9946 104.789 42.3835C104.979 52.574 105.25 60.6485 104.441 66.8491C103.792 71.8005 97.8289 78.2257 94.7422 77.766L94.7387 90.4199Z" fill="#F09D71"/>
<path d="M73.0045 77.6133C80.0567 79.6211 87.5137 79.6865 94.5996 77.8028L94.7388 77.7659V80.9119L89.7241 83.8507C88.4262 84.6265 86.9796 85.1151 85.4803 85.2842C84.2294 85.4144 82.968 85.4015 81.7201 85.2456C80.5065 85.0843 79.3294 84.7139 78.2401 84.1508L73.001 81.4926L73.0045 77.6133Z" fill="#E55C47"/>
<path d="M93.6378 53.4617C93.6482 52.4722 93.7057 51.6107 92.5729 51.4598C92.3687 51.4519 92.1663 51.5024 91.9893 51.6054C91.8123 51.7085 91.6678 51.86 91.5724 52.0423C91.5428 52.1016 91.5217 52.1648 91.5098 52.23C91.3532 53.1705 91.1844 54.2443 91.3654 55.1917C91.5202 55.9953 92.4094 56.5077 93.1054 55.9357C93.7405 55.4146 93.6308 54.2162 93.6378 53.4617Z" fill="#1E1B2E"/>
<path d="M76.5421 53.4617C76.5525 52.4722 76.5943 51.6423 75.4616 51.4914C75.2623 51.4786 75.0637 51.5238 74.8891 51.6214C74.7146 51.7191 74.5715 51.8651 74.4767 52.0423C74.4471 52.1016 74.4261 52.1648 74.4141 52.23C74.2575 53.1705 74.0887 54.2443 74.2697 55.1917C74.4245 55.9953 75.3137 56.5077 76.0097 55.9357C76.6448 55.4146 76.5351 54.2162 76.5421 53.4617Z" fill="#1E1B2E"/>
<path d="M72.4027 48.1682C73.2203 47.7815 74.1062 47.5632 75.0085 47.5261C75.9108 47.4891 76.8114 47.634 77.6575 47.9524C78.7624 48.3437 78.6371 46.5049 77.5914 45.9925C75.7557 45.096 74.428 45.3574 72.8359 46.0662C71.7693 46.5435 71.3517 48.6665 72.4027 48.1717V48.1682Z" fill="#1E1B2E"/>
<path d="M95.1773 48.1682C94.3597 47.7815 93.4738 47.5632 92.5715 47.5261C91.6691 47.4891 90.7686 47.634 89.9225 47.9524C88.8176 48.3437 88.9429 46.5049 89.9886 45.9925C91.826 45.096 93.1519 45.3574 94.744 46.0662C95.8124 46.5435 96.23 48.6665 95.1773 48.1717V48.1682Z" fill="#1E1B2E"/>
<path d="M84.1757 51.1685C84.1089 54.3163 84.4909 57.4575 85.3101 60.4958C85.5085 61.2221 85.7306 61.9362 85.9766 62.6381C86.1888 63.2329 86.4063 63.2662 85.9331 63.5557C85.3989 63.8821 83.8451 64.2207 83.283 63.9242C82.547 63.5294 82.3278 63.9944 82.761 64.3558C84.0573 65.4296 87.2659 65.7594 87.7757 63.7575C87.9358 63.1276 87.6017 62.5609 87.4034 61.9819C87.0235 60.8839 86.708 59.7643 86.4585 58.6289C85.9104 56.1725 85.0665 53.6284 85.0665 51.1159C85.0665 50.0824 84.1844 50.1544 84.167 51.172L84.1757 51.1685Z" fill="#E55C47"/>
<path d="M90.6621 66.5488C90.5384 66.862 90.3618 67.1511 90.1401 67.4033C89.1761 68.4718 87.0081 68.8438 85.409 68.8842H84.9566C83.3645 68.8438 81.1878 68.4718 80.2238 67.4033C80.0021 67.1511 79.8255 66.862 79.7018 66.5488C79.6638 66.5971 79.6323 66.6502 79.6078 66.7067C79.3561 67.4626 79.2893 68.2686 79.413 69.0561C80.7789 68.8245 83.067 68.6806 85.1828 69.6913C86.323 70.2089 87.2787 71.0661 87.9216 72.1476C88.8194 71.916 89.6424 71.5511 90.1401 71.0002C91.1353 69.9053 91.1841 67.777 90.756 66.7085C90.7331 66.6507 90.7014 66.5968 90.6621 66.5488Z" fill="#E55C47"/>
<path d="M84.957 68.8841H85.4093C86.9997 68.8437 89.1764 68.4718 90.1404 67.4032C90.3621 67.151 90.5387 66.8619 90.6624 66.5488C90.5526 66.4232 90.4146 66.3258 90.26 66.2648C90.1053 66.2038 89.9385 66.1808 89.7733 66.1978C89.0999 66.2417 87.0328 67.047 85.0091 67.047C83.0951 67.047 81.2281 66.24 80.5913 66.1978C80.4261 66.1808 80.2592 66.2038 80.1046 66.2648C79.95 66.3258 79.812 66.4232 79.7021 66.5488C79.8258 66.8619 80.0024 67.151 80.2241 67.4032C81.1881 68.4718 83.3649 68.8437 84.957 68.8841Z" fill="white"/>
<path d="M85.1829 69.6915C83.0653 68.6809 80.779 68.8247 79.4131 69.0563C79.5175 69.7862 79.7715 70.5003 80.2239 70.9986C81.1879 72.0672 83.3646 72.4374 84.9567 72.4795H85.4091C86.256 72.4591 87.0984 72.3473 87.9217 72.1461C87.2786 71.0653 86.3229 70.2087 85.1829 69.6915Z" fill="#9C0038"/>
<path d="M101.094 62.7327C100.443 52.6422 99.7712 55.4284 100.653 52.9773C101.417 50.8578 103.806 50.3771 106.435 50.3981C109.065 50.4192 112.23 52.8124 112.134 56.0022C112.056 58.5919 111.186 61.2501 108.924 62.5836C106.662 63.917 103.771 63.9591 101.332 63.0029" fill="#F09D71"/>
<path d="M103.942 60.3573C104.039 60.1713 104.845 60.5538 105.999 60.166C107.166 59.8572 108.336 58.5027 108.383 56.6358C108.423 55.7147 108.198 54.8813 107.73 54.4742C107.262 54.0672 106.512 53.9478 105.91 53.9987C104.675 54.1338 103.822 54.4847 103.731 54.2777C103.681 54.1444 104.271 53.5022 105.741 53.0495C106.475 52.874 107.54 52.7968 108.536 53.5039C109.526 54.2637 109.813 55.562 109.754 56.6885C109.725 57.8164 109.32 58.9017 108.605 59.7695C107.995 60.4977 107.141 60.9747 106.206 61.11C104.575 61.3153 103.801 60.4625 103.944 60.359" fill="#E55C47"/>
<path d="M66.6173 62.7327C67.2681 52.6422 67.9397 55.4284 67.0576 52.9773C66.2937 50.8578 63.9047 50.3771 61.2755 50.3981C58.6464 50.4192 55.4918 52.8124 55.584 56.0022C55.6606 58.5919 56.5323 61.2501 58.7891 62.5836C61.0459 63.917 63.9412 63.9591 66.3807 63.0029" fill="#F09D71"/>
<path d="M63.776 60.3573C63.6786 60.1713 62.8729 60.5538 61.7193 60.166C60.5518 59.8572 59.3825 58.5027 59.3355 56.6358C59.2955 55.7147 59.52 54.8813 59.9863 54.4742C60.4526 54.0672 61.213 53.9478 61.8081 53.9987C63.0435 54.1338 63.8961 54.4847 63.9865 54.2777C64.037 54.1444 63.4471 53.5022 61.9768 53.0495C61.2426 52.874 60.1777 52.7968 59.1824 53.5039C58.1923 54.2637 57.9052 55.562 57.9644 56.6885C57.9932 57.8164 58.3977 58.9017 59.1128 59.7695C59.7227 60.4977 60.5766 60.9747 61.5123 61.11C63.1426 61.3153 63.9169 60.4625 63.7743 60.359" fill="#E55C47"/>
<path d="M94.1632 41.5415C91.945 41.5443 89.8099 42.3925 88.1858 43.916C86.5617 45.4394 85.5687 47.5256 85.4058 49.7564C84.7652 49.5782 84.0864 49.5978 83.457 49.8125C83.3076 47.5383 82.2945 45.4098 80.6285 43.8696C78.9625 42.3294 76.7718 41.496 74.5121 41.5429C72.2523 41.5898 70.0974 42.5132 68.4957 44.1213C66.8939 45.7293 65.9685 47.898 65.9119 50.1765C65.8554 52.4549 66.672 54.6676 68.192 56.3544C69.712 58.0412 71.8184 59.0722 74.073 59.233C76.3276 59.3938 78.5569 58.672 80.2972 57.2178C82.0375 55.7635 83.1549 53.6887 83.417 51.425C83.7056 51.215 84.0469 51.0912 84.402 51.0676C84.7571 51.044 85.1116 51.1216 85.425 51.2916C85.5963 52.9966 86.2545 54.6148 87.3197 55.9501C88.385 57.2854 89.8115 58.2804 91.4263 58.8144C93.0411 59.3485 94.7749 59.3988 96.4175 58.959C98.0601 58.5193 99.5409 57.6085 100.68 56.3371C101.82 55.0657 102.569 53.4882 102.837 51.796C103.105 50.1037 102.881 48.3694 102.191 46.8032C101.501 45.2371 100.376 43.9064 98.9506 42.9724C97.5257 42.0385 95.8627 41.5414 94.1632 41.5415ZM74.6944 57.8291C73.2369 57.8291 71.8122 57.3933 70.6004 56.5768C69.3886 55.7603 68.4441 54.5999 67.8864 53.2421C67.3287 51.8843 67.1827 50.3903 67.4671 48.9489C67.7514 47.5075 68.4532 46.1835 69.4838 45.1443C70.5143 44.1051 71.8273 43.3974 73.2568 43.1107C74.6862 42.824 76.1678 42.9712 77.5143 43.5336C78.8608 44.096 80.0117 45.0484 80.8214 46.2703C81.6311 47.4923 82.0633 48.9289 82.0633 50.3985C82.061 52.3685 81.2839 54.2572 79.9024 55.6502C78.521 57.0432 76.648 57.8268 74.6944 57.8291ZM94.1632 57.8291C92.7058 57.8291 91.2811 57.3933 90.0693 56.5768C88.8575 55.7603 87.913 54.5999 87.3553 53.2421C86.7975 51.8843 86.6516 50.3903 86.9359 48.9489C87.2203 47.5075 87.9221 46.1835 88.9526 45.1443C89.9832 44.1051 91.2962 43.3974 92.7256 43.1107C94.1551 42.824 95.6367 42.9712 96.9832 43.5336C98.3297 44.096 99.4805 45.0484 100.29 46.2703C101.1 47.4923 101.532 48.9289 101.532 50.3985C101.53 52.3685 100.753 54.2572 99.3713 55.6502C97.9899 57.0432 96.1169 57.8268 94.1632 57.8291Z" fill="#070628"/>
<g style="mix-blend-mode:color-dodge" opacity="0.4">
<path d="M74.6941 57.8289C73.2367 57.8289 71.812 57.3931 70.6002 56.5766C69.3883 55.7602 68.4439 54.5997 67.8861 53.2419C67.3284 51.8841 67.1825 50.3901 67.4668 48.9487C67.7511 47.5073 68.4529 46.1833 69.4835 45.1441C70.5141 44.105 71.8271 43.3973 73.2565 43.1106C74.6859 42.8238 76.1676 42.971 77.5141 43.5334C78.8605 44.0958 80.0114 45.0482 80.8211 46.2701C81.6308 47.4921 82.063 48.9287 82.063 50.3983C82.0607 52.3683 81.2836 54.257 79.9022 55.65C78.5207 57.043 76.6477 57.8266 74.6941 57.8289Z" fill="#CCCCCC"/>
</g>
<g style="mix-blend-mode:color-dodge" opacity="0.4">
<path d="M94.1628 57.8289C92.7054 57.8289 91.2807 57.3931 90.0689 56.5766C88.8571 55.7602 87.9126 54.5997 87.3549 53.2419C86.7971 51.8841 86.6512 50.3901 86.9355 48.9487C87.2199 47.5073 87.9217 46.1833 88.9522 45.1441C89.9828 44.105 91.2958 43.3973 92.7252 43.1106C94.1547 42.8238 95.6363 42.971 96.9828 43.5334C98.3293 44.0958 99.4802 45.0482 100.29 46.2701C101.1 47.4921 101.532 48.9287 101.532 50.3983C101.529 52.3683 100.752 54.257 99.3709 55.65C97.9895 57.043 96.1165 57.8266 94.1628 57.8289Z" fill="#CCCCCC"/>
</g>
<g style="mix-blend-mode:color-dodge" opacity="0.4">
<path d="M90.6621 56.9339C90.6621 56.9339 93.9002 52.1387 94.8381 52.1387C95.776 52.1387 97.6865 51.7457 97.9597 50.7228C98.2328 49.6999 99.1063 44.8906 99.1063 44.8906L99.8876 45.7205C99.8876 45.7205 100.38 51.6667 98.7792 52.9651C97.1784 54.2635 94.9947 54.6969 94.7598 55.6601C94.5249 56.6234 93.8602 57.8217 93.8602 57.8217C92.7232 57.9212 91.5885 57.6062 90.6621 56.9339Z" fill="#CCCCCC"/>
</g>
<g style="mix-blend-mode:color-dodge" opacity="0.4">
<path d="M71.165 56.9339C71.165 56.9339 74.4032 52.1387 75.341 52.1387C76.2789 52.1387 78.1894 51.7457 78.4626 50.7228C78.7358 49.6999 79.6093 44.8906 79.6093 44.8906L80.3905 45.7205C80.3905 45.7205 80.8829 51.6667 79.2821 52.9651C77.6813 54.2635 75.4976 54.6969 75.2627 55.6601C75.0278 56.6234 74.3632 57.8217 74.3632 57.8217C73.2261 57.9211 72.0915 57.6061 71.165 56.9339Z" fill="#CCCCCC"/>
</g>
<g style="mix-blend-mode:color-dodge" opacity="0.4">
<path d="M77.3793 43.4796L68.4653 54.3579C67.908 53.6566 67.5657 52.8066 67.4805 51.912L76.224 43.127C76.224 43.127 77.1218 43.3743 77.3793 43.4796Z" fill="#CCCCCC"/>
</g>
<g style="mix-blend-mode:color-dodge" opacity="0.4">
<path d="M96.8902 43.4798L87.9779 54.3581C87.423 53.6567 87.0832 52.8073 87 51.914L95.7435 43.1289C95.7435 43.1289 96.6326 43.3745 96.8902 43.4798Z" fill="#CCCCCC"/>
</g>
<path opacity="0.5" d="M53.5997 167.169L70.3368 165.872V167.578L72.8424 170.283H107.021V152.439L64.172 156.75L53.25 164.307L53.5997 167.169Z" fill="#0A0819"/>
<path d="M73.7549 120.74H106.185C106.554 120.74 106.908 120.888 107.169 121.151C107.43 121.415 107.577 121.772 107.577 122.144V166.798C107.577 167.17 107.43 167.527 107.169 167.79C106.908 168.053 106.554 168.201 106.185 168.201H73.7549V120.74Z" fill="#C2000B"/>
<path d="M73.7542 120.74L71.9307 119.787V166.295L73.7542 168.188V120.74Z" fill="#0A0819"/>
<path d="M71.9307 119.787H104.051C104.302 119.787 104.542 119.887 104.719 120.066C104.896 120.245 104.996 120.487 104.996 120.74H73.7542L71.9307 119.787Z" fill="#20228C"/>
<path d="M72.8428 120.263H104.084L105.489 120.74H73.7545L72.8428 120.263Z" fill="white"/>
<path opacity="0.5" d="M73.7542 164.02L97.6827 156.677L92.4557 155.949L101.048 152.17H93.9974L102.915 147.206L93.2509 147.529L100.437 142.851L83.3903 144.464L86.5136 135.531L73.5176 148.982L73.7542 164.02Z" fill="#0A0819"/>
<path d="M21.1318 174.789C26.6058 173.875 31.9563 172.382 37.5034 170.768C46.6088 168.12 54.7294 166.218 63.8418 163.574L76.4516 160.258C81.2 160.002 85.9015 158.581 89.7539 158.188C89.7539 158.188 98.092 157.438 98.0154 156.258C97.9528 155.3 92.9694 155.608 91.5078 155.052C90.201 154.543 90.3385 154.103 94.2692 153.515C100.109 152.603 101.177 152.717 101.174 151.74C101.174 150.848 95.395 150.996 92.1133 150.653C92.0457 150.647 91.9827 150.616 91.936 150.566C91.8893 150.516 91.8622 150.451 91.8596 150.383C91.8571 150.314 91.8793 150.247 91.9221 150.194C91.9649 150.141 92.0255 150.105 92.0924 150.094C96.693 148.985 103.201 147.658 103.072 146.986C102.84 145.758 99.1046 146.697 90.683 146.755C89.4755 146.55 89.5625 146.253 90.3716 145.909C93.1103 144.739 101.347 143.514 100.535 142.44C99.9137 141.619 95.8108 141.961 93.481 142.061C89.0213 142.237 85.9468 143.114 84.4103 143.158C82.1692 143.207 82.813 142.168 85.637 137.305C90.2115 128.899 81.113 138.224 71.1307 144.535C66.9216 147.197 32.5027 153.447 17.2324 155.468L21.1318 174.789Z" fill="#F09D71"/>
<path d="M105.743 37.3069C104.45 31.6431 100.871 30.5413 100.871 30.5413C100.871 30.5413 101.996 29.0411 99.0662 24.5758C93.6392 16.3048 80.5753 21.6807 69.3906 25.7408C66.8484 26.6637 66.7562 30.5413 66.7562 30.5413C66.7562 30.5413 63.177 31.6431 61.8842 37.3069C61.028 41.0591 60.7707 44.925 61.1221 48.7589L61.2735 50.3977H62.8795C62.8795 50.3977 64.569 52.2487 64.569 52.9225V55.5017H65.9088V41.5406C65.9088 41.5406 66.0602 35.9541 68.745 35.4523C71.4298 34.9505 77.5407 34.7505 79.359 35.4523C80.7023 35.9787 83.7282 37.8596 83.7282 37.8596C83.7282 37.8596 86.8149 36.0173 88.273 35.4523C90.0896 34.7505 96.2005 34.9522 98.887 35.4523C101.574 35.9523 101.721 41.5406 101.721 41.5406V55.5017H103.063V52.9225C103.063 52.2487 104.753 50.3977 104.753 50.3977H106.359L106.508 48.7589C106.858 44.9248 106.6 41.0589 105.743 37.3069Z" fill="#070628"/>
<path opacity="0.5" d="M49.1824 141.751L54.4024 125.85C54.4024 125.85 53.8473 135.987 53.2435 140.014C52.6397 144.041 48.8135 150.147 48.8135 150.147L49.1824 141.751Z" fill="#0A0819"/>
<g style="mix-blend-mode:multiply">
<path d="M19.373 135.752C19.373 135.752 21.6733 142.316 26.2217 144.751C29.0382 146.249 32.026 147.393 35.1183 148.158L36.5869 143.835L19.373 135.752Z" fill="#FCB38B"/>
</g>
<path d="M63.4643 89.0615C63.4643 89.0615 51.5732 89.044 41.73 96.5009C31.8868 103.958 17.2256 133.954 17.2256 133.954C17.2256 133.954 28.3024 144.306 39.4871 143.988C50.6719 143.671 50.1133 140.046 50.1133 140.046L53.2453 124.618C53.2453 124.618 59.3353 115.926 60.1479 107.806C60.9605 99.6854 63.4643 89.0615 63.4643 89.0615Z" fill="#20228C"/>
<path d="M41.4916 141.133C38.8091 141.117 36.1385 140.773 33.538 140.109C23.7436 137.677 19.016 130.994 18.8037 130.687L19.4597 129.567C19.5102 129.639 24.4674 136.638 33.8182 138.96C44.119 141.516 50.4578 138.124 50.5222 138.082L50.2438 139.454C50.0558 139.568 47.291 141.133 41.4916 141.133Z" fill="white"/>
<path d="M131.747 155.259C127.847 139.994 128.141 140.407 113.061 126.707C108.987 123.008 103.922 89.8507 109.208 91.3877C124.536 95.8426 135.747 116.066 139.782 123.819C144.076 132.066 148.376 140.707 150.499 149.943C151.442 154.05 155.256 173.291 155.402 177.314H135.844C135.606 173.889 131.99 156.212 131.747 155.259Z" fill="#F09D71"/>
<path d="M145.623 135.752C145.623 135.752 143.323 142.316 138.775 144.751C135.958 146.249 132.97 147.393 129.878 148.158L128.411 143.842L145.623 135.752Z" fill="#E55C47"/>
<path d="M101.532 89.0615C101.532 89.0615 113.425 89.044 123.267 96.5079C133.108 103.972 147.764 133.954 147.764 133.954C147.764 133.954 136.687 144.306 125.504 143.988C114.321 143.671 114.878 140.046 114.878 140.046L111.746 124.618C111.746 124.618 105.656 115.926 104.842 107.806C104.027 99.6854 101.532 89.0615 101.532 89.0615Z" fill="#20228C"/>
<path d="M123.506 141.133C126.188 141.117 128.859 140.773 131.46 140.109C141.254 137.677 145.98 130.994 146.194 130.687L145.536 129.567C145.486 129.639 140.528 136.638 131.178 138.96C120.877 141.516 114.54 138.124 114.474 138.082L114.752 139.454C114.942 139.568 117.705 141.133 123.506 141.133Z" fill="white"/>
</g>
<defs>
<clipPath id="clip0_682_1642">
<rect width="174" height="174" fill="white"/>
</clipPath>
</defs>
</svg>
