<svg width="174" height="174" viewBox="0 0 174 174" fill="none" xmlns="http://www.w3.org/2000/svg">
<g clip-path="url(#clip0_682_1686)">
<path d="M187.097 -12.2734H-11.4941V200.853H187.097V-12.2734Z" fill="#BDE0F4"/>
<path d="M42.3036 205.582C40.3304 199.916 43.0291 149.624 44.4577 144.474C48.6093 129.564 60.149 124.398 75.0608 111.064C80.1538 106.502 78.2572 82.152 67.1525 79.9395C64.3354 79.3763 41.3587 105.907 37.2349 113.436C32.8432 121.444 28.441 129.829 26.1616 138.851C23.7395 148.443 24.0979 157.614 24.6687 167.422C25.2115 176.79 25.2568 185.05 25.7997 194.418L26.219 207.314C25.4325 211.955 25.7649 216.802 25.3038 220.608C25.3038 220.608 24.2093 228.823 25.3473 229.005C26.2712 229.153 27.0577 224.268 27.9016 222.982C28.6689 221.829 29.0569 222.059 28.7716 225.981C28.3714 231.818 28.0321 232.823 28.9612 233.034C29.8069 233.229 30.9205 227.614 31.9558 224.519C31.9749 224.453 32.0175 224.397 32.0753 224.362C32.1331 224.326 32.202 224.314 32.2685 224.326C32.3351 224.339 32.3946 224.376 32.4355 224.43C32.4764 224.485 32.4958 224.553 32.49 224.621C32.5474 229.304 32.3977 235.876 33.0642 235.896C34.2822 235.939 34.1986 232.127 35.9682 223.982C36.4241 222.861 36.6868 223.008 36.8382 223.865C37.3602 226.763 36.7338 234.985 37.9309 234.432C38.8444 234.008 39.4065 229.972 39.8171 227.702C40.614 223.354 40.447 220.196 40.741 218.703C41.1795 216.529 42.0269 217.376 46.0359 221.159C53.0289 227.396 46.1437 216.585 42.3088 205.582" fill="#F09D71"/>
<path d="M59.0363 87.7772C62.1057 81.7486 76.0727 82.9575 76.0727 82.9575L97.2798 83.4259C97.2798 83.4259 112.009 82.1433 115.077 88.1632C118.144 94.1831 121.429 104.547 120.511 123.57C119.592 142.593 114.769 162.346 115.077 177.646C115.384 192.946 125.847 206.393 125.847 206.393H48.6016C48.6016 206.393 57.7679 192.947 58.0776 177.646C58.3873 162.344 54.6933 143.821 53.7746 124.799C52.8559 105.776 55.9687 93.8042 59.0363 87.7772Z" fill="#328781"/>
<path d="M136.204 148.734C132.376 133.738 132.664 134.151 117.854 120.7C113.852 117.066 108.883 84.5087 114.073 86.0176C129.123 90.3918 140.132 110.25 144.094 117.863C148.311 125.966 152.533 134.445 154.617 143.515C155.499 147.434 156.004 151.429 156.127 155.446H136.925C136.69 152.084 136.443 149.664 136.204 148.734Z" fill="#F09D71"/>
<path d="M155.44 147.862C155.44 147.862 157.253 160.19 155.44 164.439C153.627 168.689 148.102 167.912 148.102 167.912L141.984 153.544L155.44 147.862Z" fill="#F09D71"/>
<path d="M117.854 120.699L118.931 140.294C118.931 140.294 120.533 127.514 120.531 123.131L117.854 120.699Z" fill="#1C665F"/>
<path d="M112.027 96.7484L95.6621 98.6784V90.36C95.6621 90.36 96.7252 88.351 97.0541 86.1999L97.075 83.4189L112.027 96.7484Z" fill="#1C665F"/>
<path d="M75.8245 85.0675C75.8245 85.0675 76.9241 94.2895 86.696 94.2895C96.4678 94.2895 97.0612 86.201 97.0612 86.201L97.1673 72.4908C99.9374 72.4908 104.997 66.8587 106.003 61.9213C106.923 57.3928 106.44 48.3007 106.109 37.6312C105.947 32.387 103.766 27.4126 100.03 23.7615C96.293 20.1105 91.2936 18.0696 86.0905 18.0713H85.9843C80.7357 18.0709 75.6967 20.1481 71.9516 23.856C68.2064 27.564 66.0544 32.6062 65.9587 37.8978C65.7707 47.8989 65.5045 55.833 66.3067 61.9213C66.9435 66.7832 72.7986 73.0926 75.8279 72.6417L75.8245 85.0675Z" fill="#F09D71"/>
<path d="M97.1671 72.4912C90.2421 74.4625 82.9199 74.5274 75.9617 72.679L75.8242 72.6421V75.7301L80.7484 78.6164C82.0262 79.3772 83.4496 79.8556 84.9244 80.02C86.152 80.1482 87.3901 80.1358 88.615 79.9832C89.8062 79.8235 90.9614 79.4591 92.0306 78.9059L97.174 76.2986L97.1671 72.4912Z" fill="#E55C47"/>
<path d="M76.9084 48.7762C76.8979 47.8042 76.8405 46.9585 77.9524 46.8093C78.1532 46.8019 78.352 46.8518 78.5259 46.9533C78.6999 47.0548 78.8418 47.2038 78.9355 47.3831C78.9638 47.4415 78.9843 47.5034 78.9964 47.5673C79.1495 48.4902 79.3165 49.5447 79.1373 50.4746C78.9859 51.2642 78.1194 51.7677 77.4321 51.2063C76.8074 50.6939 76.9084 49.5113 76.9084 48.7762Z" fill="#1E1B2E"/>
<path d="M93.692 48.7762C93.6833 47.8042 93.6415 46.9883 94.7534 46.8462C94.9493 46.8326 95.145 46.8766 95.3167 46.9728C95.4884 47.069 95.6288 47.2133 95.7208 47.3883C95.7499 47.4464 95.7704 47.5085 95.7817 47.5726C95.9348 48.4955 96.1019 49.5499 95.9244 50.4799C95.7713 51.2694 94.9047 51.773 94.2192 51.2115C93.5928 50.6939 93.7007 49.5113 93.692 48.7762Z" fill="#1E1B2E"/>
<path d="M97.7568 43.5776C96.9539 43.1987 96.0842 42.9847 95.1985 42.9483C94.3127 42.9118 93.4286 43.0536 92.5977 43.3653C91.5137 43.7495 91.6355 41.9458 92.6621 41.4352C94.4665 40.558 95.768 40.8106 97.3323 41.5089C98.3763 41.9757 98.7904 44.0618 97.7568 43.5706V43.5776Z" fill="#1E1B2E"/>
<path d="M75.3976 43.5776C76.2013 43.1982 77.0719 42.9841 77.9586 42.9476C78.8452 42.9112 79.7302 43.0532 80.5619 43.3653C81.6459 43.7495 81.5224 41.9458 80.4958 41.4352C78.6931 40.558 77.3899 40.8106 75.8274 41.5089C74.7834 41.9757 74.3692 44.0618 75.4011 43.5706L75.3976 43.5776Z" fill="#1E1B2E"/>
<path d="M86.198 46.525C86.2639 49.6161 85.8883 52.7007 85.0826 55.6838C84.8895 56.3856 84.6737 57.0875 84.4284 57.7893C84.2213 58.3718 84.0073 58.4051 84.4719 58.6894C84.9939 59.0105 86.5268 59.3421 87.0732 59.0508C87.797 58.6648 88.011 59.1193 87.5813 59.4754C86.3076 60.5282 83.1582 60.8457 82.6571 58.8877C82.5005 58.2683 82.8311 57.7121 83.0242 57.1454C83.3959 56.0665 83.7055 54.9669 83.9516 53.8521C84.4893 51.443 85.314 48.9393 85.314 46.4829C85.314 45.4688 86.184 45.5389 86.198 46.539V46.525Z" fill="#E55C47"/>
<path d="M79.8284 61.627C79.9526 61.9356 80.1293 62.22 80.3504 62.4674C81.2952 63.5201 83.4337 63.8798 84.9962 63.9202H85.4347C87.0007 63.8798 89.1357 63.5166 90.0822 62.4674C90.2998 62.2192 90.4729 61.9349 90.5938 61.627C90.6318 61.6743 90.6629 61.7269 90.686 61.7831C90.934 62.5253 90.9997 63.317 90.8774 64.0904C89.5359 63.8623 87.2913 63.7201 85.2137 64.7132C84.0938 65.2199 83.1549 66.0607 82.5237 67.1222C81.6415 66.8959 80.8341 66.538 80.3452 65.9958C79.3673 64.9203 79.3273 62.8376 79.7397 61.7849C79.7616 61.7282 79.7915 61.675 79.8284 61.627Z" fill="#E55C47"/>
<path d="M85.4347 63.9201H84.991C83.425 63.8797 81.2901 63.5165 80.3452 62.4673C80.1241 62.2199 79.9474 61.9355 79.8232 61.6269C79.9325 61.5066 80.0679 61.4136 80.2189 61.3551C80.3699 61.2967 80.5323 61.2744 80.6932 61.29C81.3544 61.3339 83.3833 62.1252 85.3721 62.1252C87.2461 62.1252 89.0853 61.3321 89.7082 61.29C89.8692 61.2744 90.0315 61.2967 90.1825 61.3551C90.3335 61.4136 90.469 61.5066 90.5782 61.6269C90.4572 61.9348 90.2841 62.2192 90.0666 62.4673C89.1322 63.5148 87.0007 63.8797 85.4347 63.9201Z" fill="white"/>
<path d="M85.2096 64.7131C87.2871 63.72 89.5317 63.8621 90.8733 64.0902C90.7706 64.8061 90.5253 65.5061 90.0781 65.9957C89.1315 67.0484 86.9931 67.4098 85.4306 67.4502H84.9868C84.155 67.4316 83.3277 67.3216 82.5195 67.1221C83.1508 66.0606 84.0897 65.2198 85.2096 64.7131Z" fill="#9C0038"/>
<path d="M70.9155 19.1243C78.6063 14.3308 82.7649 14.1764 86.6747 14.494C90.5827 14.1764 94.7413 14.3308 102.434 19.1243C113.297 25.8951 115.077 96.7461 115.077 96.7461H97.1669L96.8032 72.4893C105.943 59.7705 101.306 39.0579 101.306 39.0579L70.1099 38.5315C70.1099 38.5315 65.8434 49.6431 69.6297 62.2865C70.8477 66.3729 72.6486 69.9803 76.2051 72.6841L75.8241 96.7532H60.7574C60.7574 96.7532 60.051 25.8969 70.9155 19.1243Z" fill="#C2000B"/>
<path d="M72.21 57.881C72.8485 47.9712 73.508 50.7083 72.6432 48.3011C71.8915 46.2201 69.546 45.7482 66.9639 45.7692C64.3817 45.7903 61.2845 48.1396 61.375 51.2715C61.4515 53.8139 62.3076 56.4247 64.5226 57.7336C66.7377 59.0425 69.5808 59.0846 71.9785 58.1442" fill="#F09D71"/>
<path d="M69.4264 55.5452C69.3307 55.3698 68.5408 55.7382 67.408 55.3575C66.2596 55.0539 65.113 53.724 65.0677 51.8905C65.0277 50.9869 65.2417 50.1605 65.7063 49.7692C66.1709 49.3779 66.9104 49.2428 67.4933 49.3025C68.7113 49.4341 69.5535 49.7797 69.6335 49.5762C69.684 49.4446 69.1115 48.8147 67.6603 48.3673C66.94 48.1919 65.8925 48.1182 64.9164 48.8147C63.9454 49.5604 63.6636 50.8342 63.7123 51.9414C63.7425 53.0483 64.1394 54.1132 64.8398 54.9662C65.4392 55.6814 66.2782 56.1497 67.1975 56.2821C68.7983 56.4857 69.5587 55.647 69.4264 55.5452Z" fill="#E55C47"/>
<path d="M67.7645 45.7679C67.7632 47.9994 68.6126 50.146 70.137 51.7637C71.6613 53.3814 73.744 54.3464 75.9541 54.4591C78.1643 54.5718 80.3328 53.8235 82.0112 52.3691C83.6896 50.9147 84.7494 48.8654 84.9713 46.6452C85.279 46.478 85.6271 46.4016 85.9758 46.4249C86.3245 46.4482 86.6597 46.5702 86.9428 46.7768C87.2007 48.9989 88.2983 51.0353 90.0072 52.4622C91.7161 53.8891 93.9048 54.5968 96.1179 54.438C98.3311 54.2792 100.398 53.2661 101.89 51.6096C103.381 49.9531 104.182 47.7805 104.125 45.544C104.068 43.3074 103.159 41.1789 101.585 39.6013C100.012 38.0238 97.8962 37.1185 95.6779 37.0739C93.4596 37.0293 91.3096 37.8488 89.6752 39.3619C88.0408 40.875 87.0478 42.9652 86.9027 45.1977C86.2844 44.9872 85.6176 44.9688 84.9887 45.145C84.8333 42.8946 83.8165 40.7931 82.1532 39.2844C80.4899 37.7757 78.3103 36.9779 76.0745 37.0594C73.8387 37.1409 71.7219 38.0954 70.171 39.7213C68.6201 41.3472 67.7566 43.5173 67.7627 45.7732L67.7645 45.7679ZM88.2721 45.7679C88.2721 44.3246 88.6966 42.9137 89.4918 41.7136C90.2871 40.5136 91.4174 39.5783 92.7398 39.026C94.0623 38.4737 95.5174 38.3293 96.9212 38.611C98.325 38.8927 99.6145 39.5879 100.626 40.6086C101.638 41.6293 102.328 42.9297 102.607 44.3454C102.886 45.761 102.742 47.2283 102.194 48.5617C101.646 49.895 100.718 51.0346 99.528 51.8362C98.3377 52.6378 96.9384 53.0655 95.507 53.0651C93.5885 53.0633 91.7491 52.2938 90.3926 50.9257C89.0361 49.5575 88.2735 47.7025 88.2721 45.7679ZM69.1547 45.7679C69.1547 44.3244 69.5793 42.9134 70.3747 41.7132C71.1701 40.5131 72.3006 39.5778 73.6232 39.0257C74.9459 38.4735 76.4012 38.3293 77.8051 38.6113C79.209 38.8933 80.4985 39.5888 81.5103 40.6099C82.5222 41.6309 83.211 42.9317 83.4896 44.3475C83.7683 45.7634 83.6242 47.2308 83.0757 48.5641C82.5272 49.8974 81.5988 51.0367 80.4081 51.8379C79.2173 52.6391 77.8177 53.0662 76.3862 53.0651C74.4682 53.0624 72.6297 52.2925 71.274 50.9244C69.9183 49.5564 69.1561 47.7019 69.1547 45.7679Z" fill="#070628"/>
<g style="mix-blend-mode:color-dodge" opacity="0.4">
<path d="M95.5074 53.0652C96.9387 53.0655 98.338 52.6378 99.5283 51.8362C100.719 51.0346 101.646 49.895 102.194 48.5617C102.742 47.2283 102.886 45.761 102.607 44.3454C102.328 42.9298 101.639 41.6293 100.627 40.6086C99.6148 39.5879 98.3254 38.8928 96.9216 38.611C95.5177 38.3293 94.0626 38.4737 92.7402 39.026C91.4177 39.5783 90.2874 40.5136 89.4922 41.7136C88.6969 42.9137 88.2725 44.3246 88.2725 45.7679C88.2748 47.7023 89.0377 49.5567 90.394 50.9247C91.7502 52.2926 93.5891 53.0624 95.5074 53.0652Z" fill="#CCCCCC"/>
</g>
<g style="mix-blend-mode:color-dodge" opacity="0.4">
<path d="M76.3863 53.0652C77.8176 53.0655 79.2169 52.6378 80.4072 51.8362C81.5975 51.0346 82.5253 49.895 83.0733 48.5617C83.6213 47.2283 83.7649 45.761 83.4859 44.3454C83.2068 42.9298 82.5177 41.6293 81.5057 40.6086C80.4937 39.5879 79.2043 38.8928 77.8005 38.611C76.3966 38.3293 74.9415 38.4737 73.6191 39.026C72.2966 39.5783 71.1663 40.5136 70.3711 41.7136C69.5758 42.9137 69.1514 44.3246 69.1514 45.7679C69.1537 47.7023 69.9166 49.5567 71.2729 50.9247C72.6291 52.2926 74.468 53.0624 76.3863 53.0652Z" fill="#CCCCCC"/>
</g>
<g style="mix-blend-mode:color-dodge" opacity="0.4">
<path d="M79.8283 52.1873C79.8283 52.1873 76.6493 47.478 75.7306 47.478C74.8119 47.478 72.9327 47.0903 72.6647 46.0867C72.3968 45.083 71.539 40.3545 71.539 40.3545L70.7734 41.1704C70.7734 41.1704 70.2966 47.0218 71.8626 48.2886C73.4286 49.5554 75.5792 49.9888 75.8089 50.9363C76.0386 51.8837 76.6911 53.0575 76.6911 53.0575C77.8063 53.1535 78.9188 52.8449 79.8283 52.1873Z" fill="#CCCCCC"/>
</g>
<g style="mix-blend-mode:color-dodge" opacity="0.4">
<path d="M98.9664 52.1873C98.9664 52.1873 95.7875 47.478 94.8687 47.478C93.95 47.478 92.0708 47.0903 91.8029 46.0867C91.5349 45.083 90.6771 40.3545 90.6771 40.3545L89.9115 41.1704C89.9115 41.1704 89.4365 47.0218 91.0025 48.2886C92.5685 49.5554 94.7191 49.9888 94.9488 50.9363C95.1785 51.8837 95.8327 53.0575 95.8327 53.0575C96.9467 53.1527 98.0578 52.8441 98.9664 52.1873Z" fill="#CCCCCC"/>
</g>
<g style="mix-blend-mode:color-dodge" opacity="0.4">
<path d="M92.8711 38.9759L101.616 49.6542C102.164 48.9656 102.5 48.1308 102.584 47.2522L94.0004 38.625C94.0004 38.625 93.1251 38.8724 92.8711 38.9759Z" fill="#CCCCCC"/>
</g>
<g style="mix-blend-mode:color-dodge" opacity="0.4">
<path d="M73.7139 38.9759L82.4661 49.6542C83.0136 48.9656 83.3499 48.1308 83.4335 47.2522L74.8483 38.625C74.8483 38.625 73.9662 38.8724 73.7139 38.9759Z" fill="#CCCCCC"/>
</g>
<path d="M68.8223 58.792C68.8223 58.792 68.8658 67.6631 70.256 71.3529C71.6463 75.0428 75.998 85.9386 75.998 85.9386L76.2068 72.6794C76.2068 72.6794 70.9642 68.6719 68.8223 58.792Z" fill="#930311"/>
<path d="M116.22 160.428L99.7854 159.156V160.83L97.325 163.488H63.7656V145.967L105.839 150.199L116.564 157.619L116.22 160.428Z" fill="#1C665F"/>
<path d="M96.4297 161.429H64.5877C64.2268 161.429 63.8807 161.284 63.6255 161.027C63.3704 160.77 63.227 160.421 63.227 160.057L63.227 116.21C63.227 115.846 63.3704 115.497 63.6255 115.24C63.8807 114.983 64.2268 114.838 64.5877 114.838H96.4297V161.429Z" fill="#20228C"/>
<path d="M96.4297 114.839L98.2219 113.902V159.572L96.4297 161.428V114.839Z" fill="#0A0819"/>
<path d="M98.2212 113.902H66.6889C66.4425 113.902 66.2062 114.001 66.0319 114.177C65.8577 114.352 65.7598 114.591 65.7598 114.839H96.429L98.2212 113.902Z" fill="#20228C"/>
<path d="M97.3256 114.371H66.6494L65.2695 114.84H96.4295L97.3256 114.371Z" fill="white"/>
<path opacity="0.5" d="M96.4295 157.335L72.9343 150.126L78.0673 149.412L69.6301 145.701H76.5535L67.7979 140.827L77.2861 141.144L70.2304 136.551L86.9674 138.135L83.9015 129.362L96.6627 142.571L96.4295 157.335Z" fill="#0A0819"/>
<path d="M148.102 167.911C142.727 167.013 137.472 165.548 132.026 163.962C123.086 161.363 115.104 159.494 106.162 156.896L93.7858 153.638C89.1226 153.387 84.5064 151.992 80.7236 151.606C80.7236 151.606 72.5369 150.871 72.61 149.711C72.6727 148.771 77.5708 149.072 79.0011 148.527C80.2852 148.027 80.1495 147.595 76.2901 147.018C70.5568 146.121 69.5041 146.233 69.5041 145.275C69.5041 144.398 75.1765 144.544 78.4007 144.207C78.468 144.202 78.531 144.172 78.5778 144.123C78.6245 144.074 78.6517 144.01 78.6541 143.942C78.6565 143.874 78.6339 143.808 78.5906 143.755C78.5474 143.703 78.4866 143.669 78.4199 143.659C73.8959 142.57 67.5118 141.268 67.6406 140.608C67.8668 139.398 71.5347 140.324 79.8049 140.38C80.9899 140.178 80.9046 139.887 80.1112 139.549C77.4211 138.401 69.3319 137.197 70.1288 136.143C70.7413 135.338 74.7694 135.674 77.0557 135.771C81.4371 135.946 84.4559 136.808 85.9645 136.848C88.1639 136.896 87.5305 135.876 84.7587 131.1C80.2678 122.845 89.2061 132.002 99.0023 138.201C103.137 140.814 136.934 146.951 151.926 148.935L148.102 167.911Z" fill="#F09D71"/>
</g>
<defs>
<clipPath id="clip0_682_1686">
<rect width="174" height="174" fill="white"/>
</clipPath>
</defs>
</svg>
