<svg width="174" height="174" viewBox="0 0 174 174" fill="none" xmlns="http://www.w3.org/2000/svg">
<g clip-path="url(#clip0_682_1725)">
<path d="M181.006 -5.63867H-8.61816V183.986H181.006V-5.63867Z" fill="#FFDE80"/>
<path d="M73.3491 36.763C73.3491 36.763 72.9544 47.7749 74.6009 57.2096C74.7749 58.1908 75.4065 68.584 75.4065 68.584L75.6723 84.0282C75.8769 89.6767 81.163 94.0783 87.4012 93.7947C93.4171 93.524 98.1151 88.9839 98.0232 83.5416C97.9362 78.6761 98.1151 71.0345 98.1151 71.0345C98.1151 71.0345 102.003 64.9268 102.626 56.9373C103.25 48.9478 103.023 37.7877 103.023 37.7877L91.7447 34.5654L73.3491 36.763Z" fill="#F9B189"/>
<path d="M98.1325 71.0194V71.0049C88.3047 75.922 79.4033 71.2272 79.4033 71.2272L96.183 89.2314C97.4112 87.578 98.0611 85.5665 98.0326 83.5071C97.9553 78.7737 98.1164 71.4141 98.1325 71.0194Z" fill="#E97C63"/>
<path d="M79.3166 80.2529L52.9395 87.0857V205.591C63.452 209.008 112.522 208.75 123.574 204.897V87.0003L95.0765 80.3947L87.2271 97.843L79.3166 80.2529Z" fill="white"/>
<path d="M148.568 147.193C148.6 135.931 149.58 123.896 146.74 112.852C143.591 100.607 134.956 87.4607 119.623 86.2588C112.302 85.6836 106.033 92.2698 106.033 98.4436C106.033 104.174 110.142 108.244 115.61 109.883C116.199 110.728 116.75 111.59 117.255 112.48C117.472 112.865 117.627 113.124 117.738 113.311C117.806 113.514 117.917 113.818 118.1 114.287C118.948 116.437 119.619 118.652 120.106 120.911C120.161 121.16 120.196 121.302 120.227 121.407C120.227 121.526 120.227 121.665 120.242 121.851C120.293 123.011 120.303 124.17 120.321 125.331C120.469 135.742 119.391 141.343 118.271 151.694C117.524 158.622 113.401 178.132 119.583 182.524C124.356 185.908 131.11 187.026 136.66 185.908C136.66 185.908 144.913 183.974 146.309 171.425C146.885 166.267 148.544 156.6 148.568 147.193Z" fill="#151F46"/>
<path d="M75.9986 57.7568L75.4444 53.4068C75.4444 53.4068 74.4133 49.1889 71.2668 49.5949C68.1203 50.0009 66.3755 52.4949 68.0446 56.5678C68.0623 56.6097 68.0768 56.65 68.0961 56.6886C69.1482 59.1359 72.4848 59.993 74.8515 58.4866L75.9986 57.7568Z" fill="#F9B189"/>
<path opacity="0.5" d="M71.0205 50.7967C70.1683 50.9578 69.5431 51.6232 69.1339 52.3079C68.7355 53.0235 68.542 53.8352 68.5749 54.6537C68.5679 55.0523 68.6463 55.4479 68.8047 55.8138C68.9631 56.1798 69.1978 56.5076 69.4932 56.7755C69.7558 57.0123 70.2392 56.9366 70.4599 56.6869C70.7128 56.4033 70.5437 55.957 70.2794 55.7202C69.9475 55.4189 69.9572 54.9952 69.9443 54.5667C69.9293 54.0148 70.0516 53.4678 70.3004 52.9749C70.5501 52.4915 70.9819 51.9405 71.4137 51.9744C71.9647 52.0163 72.0082 52.4432 72.3803 52.73C73.0586 53.2472 73.8787 52.6204 73.4485 51.9244C73.2117 51.5329 72.4383 50.5292 71.0189 50.7967" fill="#F0584A"/>
<path d="M72.6445 80.253L75.3705 74.6641L85.0904 86.8972L87.3862 92.1076L89.1423 86.8972L98.1323 75.0781L99.1231 81.4468L98.1114 86.8972L94.9133 99.6282H77.4054L73.5178 84.7029L72.6445 80.253Z" fill="white"/>
<path d="M87.3867 92.1074L81.9814 98.6211L87.224 96.451L92.3973 97.8317L87.3867 92.1074Z" fill="#CBCBCA"/>
<path d="M101.339 57.7568L101.893 53.4068C101.893 53.4068 102.924 49.1889 106.069 49.5949C109.214 50.0009 110.962 52.4949 109.291 56.5678C109.274 56.6097 109.259 56.65 109.24 56.6886C108.191 59.1279 104.854 59.9914 102.488 58.4834L101.339 57.7568Z" fill="#F9B189"/>
<path opacity="0.5" d="M106.324 50.7967C107.176 50.9578 107.801 51.6232 108.209 52.3079C108.608 53.0234 108.802 53.8351 108.769 54.6537C108.776 55.0523 108.698 55.4479 108.539 55.8138C108.381 56.1798 108.146 56.5076 107.851 56.7755C107.588 57.0123 107.105 56.9366 106.884 56.6869C106.631 56.4033 106.8 55.957 107.065 55.7202C107.397 55.4189 107.387 54.9952 107.4 54.5667C107.415 54.0145 107.292 53.4674 107.042 52.9749C106.792 52.4915 106.362 51.9405 105.929 51.9744C105.379 52.0163 105.334 52.4432 104.962 52.73C104.286 53.2472 103.465 52.6204 103.894 51.9244C104.132 51.5329 104.904 50.5292 106.325 50.7967" fill="#F0584A"/>
<path d="M87.3867 92.1074L83.6602 96.5992L86.1509 101.373H88.6127L90.7942 96.0015L87.3867 92.1074Z" fill="#2E2F84"/>
<path d="M86.1501 101.373L83.1535 107.916L78.9082 186.641L88.2591 194.64L96.1342 186.652L91.8696 107.856L88.6119 101.373H86.1501Z" fill="#2E2F84"/>
<path d="M73.3653 78.7822L81.9815 98.6231L72.832 79.91L73.3653 78.7822Z" fill="#CBCBCA"/>
<path d="M98.7217 79.3585L92.3965 97.8314L98.4527 77.9648L98.7217 79.3585Z" fill="#CBCBCA"/>
<path d="M104.788 49.7257L104.702 43.974V37.4055C104.702 37.4055 98.4189 32.2757 92.3966 32.15C86.3742 32.0244 70.2744 36.529 70.2744 36.529L71.5875 38.5059C72.036 39.1706 72.2842 39.9501 72.3028 40.7518L72.3656 43.982L72.2786 49.6016L75.6104 51.9748V46.2569L74.676 41.9069L77.0105 43.286C77.0105 43.286 83.0167 44.1593 88.6105 43.974C94.2042 43.7887 99.9801 43.1604 99.9801 43.1604L102.318 41.9102L101.338 44.5379L101.449 46.2569V52.0972L104.788 49.7257Z" fill="#5A3011"/>
<path d="M140.488 143.584C140.488 143.584 144.126 159.031 143.34 169.162L142.298 169.338L140.488 143.584Z" fill="#0B1533"/>
<path d="M89.764 50.5034C88.4751 51.86 88.4961 53.8706 88.9585 55.659C89.0745 56.1068 89.2098 56.5515 89.35 56.993C89.4901 57.4344 89.6819 57.8549 89.7334 58.298C89.8269 59.1035 88.8811 59.1535 88.2947 59.1712C87.6406 59.1921 87.7405 59.5707 88.3688 59.7431C89.0648 59.9332 89.843 60.075 90.3618 59.5127C91.0449 58.7732 90.6759 57.7856 90.4085 56.9559C89.7818 55.0097 89.1486 52.7928 90.0315 50.8192C90.2925 50.2182 89.8994 50.3665 89.764 50.5034Z" fill="#DB7C5A"/>
<path d="M94.0626 53.4246C94.0626 52.8736 94.0932 52.3919 93.4568 52.3081C93.3432 52.3035 93.2305 52.3314 93.1321 52.3884C93.0337 52.4455 92.9535 52.5294 92.901 52.6303C92.8847 52.6634 92.8733 52.6987 92.8672 52.735C92.7785 53.2587 92.6835 53.8628 92.785 54.3848C92.872 54.8327 93.3682 55.1195 93.7613 54.8005C94.119 54.5121 94.0578 53.8419 94.0626 53.4246Z" fill="#1E1B2E"/>
<path d="M84.4559 53.4246C84.4559 52.8736 84.4688 52.3918 83.8324 52.3081C83.7211 52.3037 83.611 52.3319 83.5154 52.3891C83.4199 52.4463 83.343 52.5301 83.2943 52.6303C83.2775 52.6633 83.2656 52.6986 83.2589 52.735C83.1719 53.2586 83.0752 53.8628 83.1783 54.3848C83.2653 54.8327 83.7615 55.1194 84.1547 54.8004C84.5123 54.5121 84.4511 53.8418 84.4559 53.4246Z" fill="#1E1B2E"/>
<path d="M82.1294 50.4731C82.5891 50.2584 83.087 50.1373 83.594 50.1168C84.101 50.0964 84.607 50.1769 85.0825 50.3539C85.7028 50.5714 85.9702 49.587 85.3532 49.3695C84.7461 49.1573 84.103 49.0679 83.461 49.1063C82.8191 49.1448 82.1912 49.3104 81.6138 49.5934C81.0209 49.8721 81.5381 50.7518 82.1294 50.4731Z" fill="#1E1B2E"/>
<path d="M95.3342 49.5934C94.7568 49.3104 94.1289 49.1448 93.487 49.1063C92.8451 49.0679 92.2019 49.1573 91.5948 49.3695C90.9794 49.5854 91.2436 50.5714 91.8655 50.3539C92.3411 50.1769 92.8471 50.0964 93.3541 50.1168C93.8611 50.1373 94.3589 50.2584 94.8187 50.4731C95.41 50.7518 95.9271 49.8721 95.3342 49.5934Z" fill="#1E1B2E"/>
<path d="M83.9099 63.5662C86.1203 65.2047 89.407 66.1601 91.9461 64.694C92.3827 64.4427 91.9896 63.7676 91.5514 64.0189C89.2507 65.3465 86.2814 64.3557 84.3014 62.8912C83.897 62.5915 83.5071 63.2698 83.9067 63.5662H83.9099Z" fill="#DB7C5A"/>
<path d="M127.354 88.0987L98.7218 79.3584L92.1162 145.217L95.5946 183.989L95.6961 185.131L96.5452 194.595C97.8543 195.7 99.1037 196.874 100.288 198.112H128.663L127.354 88.0987Z" fill="#151F46"/>
<path d="M53.3868 156.568C53.5049 146.156 53.6338 135.745 53.7734 125.334C53.7734 125.21 53.7734 125.086 53.7734 124.962V114.343L53.0742 183.989H53.1064C53.1999 174.415 53.2901 165.048 53.3868 156.568Z" fill="#2F2F83"/>
<path d="M54.4749 86.2588C53.159 86.3585 51.8525 86.5572 50.5664 86.8533C49.5997 87.1015 47.6519 87.7104 47.6519 87.7104C47.3458 87.8179 47.0434 87.9344 46.7448 88.0601C36.4079 92.2747 30.7143 102.863 28.1446 112.852C25.3058 123.894 26.4481 135.931 26.3159 147.193C26.1323 162.811 25.976 180.741 25.7939 198.104H52.9669C52.9788 196.948 52.9906 195.792 53.0024 194.635H52.9686L53.0749 183.981L53.7806 124.956C53.7918 124.088 53.8063 123.221 53.8305 122.353C53.8434 121.942 53.8949 121.462 53.9272 121.181C54.4086 118.845 55.0927 116.555 55.9717 114.337C56.455 113.1 56.9174 112.565 58.1612 110.334C58.2482 110.173 58.3142 110.055 58.3771 109.937C58.398 109.92 58.4157 109.91 58.4431 109.886C63.9209 108.236 68.0631 104.121 68.0631 98.4388C68.0631 92.2957 61.8281 85.6821 54.4749 86.2588Z" fill="#151F46"/>
<path d="M135.563 129.456C135.905 126.967 138.592 122.045 136.458 114.934C136.095 113.726 135.832 109.508 135.579 106.841C135.407 105.009 133.807 106.439 133.324 106.97C130.983 109.574 131.358 113.576 131.358 113.576C131.249 115.48 123.897 113.009 121.581 113.415C118.748 113.669 120.087 116.11 118.402 116.928C116.565 117.823 117.989 120.02 117.224 121.357C116.204 123.13 119.399 123.774 117.189 125.137C116.407 125.712 116.705 126.566 116.997 127.153C117.885 128.925 119.75 129.862 121.856 131.034C122.388 131.329 122.895 131.528 123.016 132.115C123.406 134.019 122.049 141.239 122.049 141.239L134.983 142.1C134.983 142.1 135.03 130.886 135.563 129.456Z" fill="#F9B189"/>
<path d="M134.94 142.003C134.94 142.003 134.921 137.249 135.169 133.518L123.023 133.679C122.881 136.498 122.008 141.154 122.008 141.154L134.94 142.003Z" fill="#E97C63"/>
<path d="M117.227 135.359H139.138C139.138 135.359 145.251 135.326 140.479 143.584L142.288 169.338L115.774 174.14L114.646 143.495C110.594 135.334 117.227 135.359 117.227 135.359Z" fill="#151F46"/>
<path d="M47.9094 87.6306L72.8316 79.9102L83.1009 144.667L79.6096 184.532L78.5817 194.557L74.8649 198.109H46.6865L47.9094 87.6306Z" fill="#151F46"/>
<path d="M53.8104 194.641V185.135V183.99L53.7798 124.965C53.7798 125.089 53.7798 125.213 53.7798 125.337C53.6305 135.748 53.5016 146.16 53.3932 156.572C53.2965 165.051 53.2063 174.418 53.1128 183.99C53.079 187.534 53.0435 191.088 53.0081 194.644C52.9963 195.801 52.9845 196.957 52.9727 198.113H53.8249L53.8104 194.641Z" fill="#0B1533"/>
</g>
<defs>
<clipPath id="clip0_682_1725">
<rect width="174" height="174" fill="white"/>
</clipPath>
</defs>
</svg>
