<svg width="174" height="174" viewBox="0 0 174 174" fill="none" xmlns="http://www.w3.org/2000/svg">
<g clip-path="url(#clip0_682_1761)">
<path d="M181.812 -5.63867H-7.8125V183.986H181.812V-5.63867Z" fill="#E55757"/>
<path d="M122.736 143.296H60.1846C60.1846 143.296 71.3995 71.0666 73.7179 60.8344C76.0363 50.6022 84.137 46.8838 90.0207 46.8838C95.9045 46.8838 105.326 52.9915 107.496 62.3601C112.431 83.6719 122.736 143.298 122.736 143.298" fill="#7F4F20"/>
<path d="M78.4236 52.6292C78.4236 52.6292 78.0885 62.2959 79.495 70.5851C79.6416 71.447 80.1765 80.574 80.1765 80.574L80.4036 94.1363C80.5776 99.0969 85.0936 102.962 90.4231 102.712C95.5626 102.475 99.5759 98.4879 99.4969 93.7077C99.4228 89.4367 99.5759 82.7264 99.5759 82.7264C99.5759 82.7264 102.896 77.363 103.425 70.3466C103.953 63.3302 103.763 53.5282 103.763 53.5282L94.1351 47.8604L78.4236 52.6292Z" fill="#F9B189"/>
<path d="M99.5966 82.7131V82.7002C91.2076 87.018 83.5967 82.8951 83.5967 82.8951L97.9356 98.705C98.989 97.2428 99.5437 95.4803 99.5177 93.6783C99.4452 89.5216 99.5886 83.0595 99.5966 82.7131Z" fill="#E97C63"/>
<path d="M78.4238 91.6127L80.2766 86.4717L88.4868 97.8268L90.4234 102.665L91.9072 97.8268L99.481 87.8814L101.078 92.5568L100.775 98.7049L98.3726 105.107H82.6498L78.7122 95.7903L78.4238 91.6127Z" fill="#7BD1F2"/>
<path d="M92.3666 62.8331C91.0777 64.1897 91.0986 66.2004 91.561 67.9887C91.677 68.4366 91.8123 68.8813 91.9525 69.3227C92.0927 69.7641 92.2844 70.1846 92.336 70.6277C92.4294 71.4333 91.4837 71.4832 90.8972 71.5009C90.2431 71.5219 90.343 71.9005 90.9714 72.0729C91.6674 72.2614 92.4471 72.4048 92.9643 71.8425C93.6474 71.1014 93.2865 70.1154 93.011 69.284C92.3843 67.3394 91.7511 65.1209 92.634 63.1489C92.895 62.5431 92.4987 62.6914 92.3666 62.8331Z" fill="#DB7C5A"/>
<path d="M96.6661 65.7498C96.6661 65.1972 96.6967 64.7171 96.0603 64.6333C95.9467 64.6287 95.834 64.6566 95.7356 64.7136C95.6372 64.7707 95.557 64.8546 95.5045 64.9555C95.4882 64.9886 95.4768 65.0239 95.4707 65.0602C95.3821 65.5839 95.287 66.188 95.3885 66.71C95.4755 67.1579 95.9717 67.4447 96.3648 67.1257C96.7209 66.8373 96.6661 66.1671 96.6661 65.7498Z" fill="#1E1B2E"/>
<path d="M87.0578 65.7497C87.0578 65.1971 87.0707 64.717 86.4343 64.6332C86.323 64.6289 86.2128 64.6571 86.1173 64.7143C86.0217 64.7715 85.9449 64.8553 85.8962 64.9555C85.8793 64.9885 85.8674 65.0237 85.8607 65.0602C85.7737 65.5838 85.6787 66.188 85.7802 66.71C85.8672 67.1579 86.3634 67.4446 86.7565 67.1256C87.1142 66.8372 87.0529 66.167 87.0578 65.7497Z" fill="#1E1B2E"/>
<path d="M84.6119 62.5952C85.0986 62.3636 85.6266 62.2315 86.1649 62.2066C86.7033 62.1817 87.2412 62.2645 87.7472 62.4502C88.079 62.5678 88.2305 62.0393 87.8921 61.9233C87.3156 61.719 86.7043 61.6313 86.0936 61.6653C85.4829 61.6994 84.8851 61.8544 84.3348 62.1215C84.0126 62.2713 84.2945 62.7434 84.6119 62.5952Z" fill="#1E1B2E"/>
<path d="M97.8167 62.1215C97.2665 61.8544 96.6687 61.6994 96.058 61.6653C95.4473 61.6313 94.8359 61.719 94.2594 61.9233C93.9372 62.0393 94.0709 62.5678 94.4044 62.4502C94.9104 62.2645 95.4483 62.1817 95.9866 62.2066C96.525 62.2315 97.053 62.3636 97.5396 62.5952C97.8618 62.7434 98.1341 62.2729 97.8167 62.1215Z" fill="#1E1B2E"/>
<path d="M92.5277 75.9032C92.3198 76.0047 91.9493 76.1626 91.6851 76.2738C91.5908 76.3141 91.4873 76.3281 91.3857 76.3142C91.2841 76.3003 91.1882 76.259 91.1083 76.1948L90.3027 75.5504C90.0428 75.3609 89.7248 75.268 89.4037 75.2878L86.71 75.5617C89.1266 77.4144 92.3827 77.8011 94.345 76.5992C94.345 76.5992 93.7876 76.1964 93.4428 75.9709C93.3092 75.8812 93.1546 75.8279 92.9942 75.816C92.8338 75.8042 92.673 75.8342 92.5277 75.9032Z" fill="#D33531"/>
<path d="M67.4912 133.102C67.4396 132.867 67.3881 132.619 67.3301 132.374L67.4912 133.102Z" fill="#7BD1F2"/>
<path d="M67.9643 135.277C67.9482 135.201 67.9305 135.116 67.9111 135.03L67.9643 135.277Z" fill="#7BD1F2"/>
<path d="M67.7583 134.327C67.6858 134.005 67.6069 133.631 67.5215 133.239L67.7583 134.327Z" fill="#7BD1F2"/>
<path d="M83.1332 185.481H99.1218C96.2218 148.103 97.0483 121.652 99.7663 104.764C100.485 100.367 101.358 97.1112 102.157 93.6972L96.8824 91.8686L90.4234 102.663L83.6165 91.6592H83.5988L78.7461 93.2123C79.5742 96.731 80.3411 100.335 81.0838 104.875C83.8002 121.8 85.8495 148.069 83.1332 185.481Z" fill="#7BD1F2"/>
<path d="M71.5334 151.748C71.5334 151.724 71.5221 151.703 71.5173 151.679L62.3018 185.481H62.3356L71.5334 151.748Z" fill="#7BD1F2"/>
<path d="M66.6494 129.24L67.3309 132.366C67.1086 131.349 66.8685 130.246 66.6494 129.24Z" fill="#7BD1F2"/>
<path d="M67.9648 135.277L68.1082 135.931C69.1828 141.731 69.9803 144.657 71.5093 151.678L71.5254 151.622L67.9648 135.277Z" fill="#221F22"/>
<path d="M67.5215 133.238L67.4912 133.103C67.5055 133.149 67.5055 133.193 67.5215 133.238Z" fill="#221F22"/>
<path d="M67.9109 135.03L67.7578 134.326L67.9109 135.03Z" fill="#221F22"/>
<path d="M61.3328 104.82V98.7852L60.1035 99.1783L61.3328 104.82Z" fill="#221F22"/>
<path d="M50.3278 124.483C49.7221 120.904 52.3965 125.011 52.9813 123.888C53.7112 122.488 57.5633 118.555 57.3313 117.653C56.5822 114.716 56.1053 116.511 53.4437 115.881C53.4437 115.881 52.2322 116.055 50.1506 116.163C49.8 118.93 49.8597 121.733 50.3278 124.483Z" fill="#221F22"/>
<path d="M81.0758 104.883C80.3331 100.343 79.5662 96.7393 78.7381 93.2206C78.6103 92.6782 78.4809 92.1353 78.3498 91.5918C73.7308 91.885 58.9875 93.741 54.1509 102.794C51.7697 108.13 50.6065 112.498 50.1538 116.166C52.2353 116.058 53.4469 115.884 53.4469 115.884C56.1084 116.512 56.5853 114.718 57.3345 117.656C57.5633 118.559 53.7111 122.49 52.9845 123.891C52.3997 125.019 49.7252 120.908 50.331 124.486C49.8624 121.735 49.8027 118.93 50.1538 116.161C47.6561 116.287 45.1533 116.272 42.6573 116.116C38.5054 115.865 39.5849 120.995 40.4501 122.656C41.2443 124.181 39.7138 147.391 42.3109 157.496C44.6679 166.665 60.104 166.404 61.6056 158.453C61.6056 158.453 66.6499 129.242 66.6499 129.24C66.8691 130.246 67.1091 131.349 67.3314 132.366C67.3862 132.614 67.4378 132.859 67.4926 133.094L67.5232 133.231C67.6086 133.622 67.6843 133.988 67.76 134.318L67.9131 135.023C67.9324 135.11 67.9501 135.193 67.9662 135.269L71.5332 151.622L71.5171 151.678C71.5171 151.702 71.5268 151.723 71.5332 151.747L62.3499 185.481H83.1332C85.8496 148.069 83.8002 121.8 81.0758 104.883Z" fill="#221F22"/>
<path d="M133.638 171.38C133.527 161.192 133.542 124.98 132.909 117.279C132.155 108.083 129.511 94.8479 111.909 92.3361C109.414 91.9801 108.159 91.8093 102.157 91.5918C101.352 95.0057 100.485 100.363 99.7664 104.759C97.0452 121.652 96.2219 148.098 99.1219 185.476H134.727C134.073 180.805 133.709 176.097 133.638 171.38ZM115.813 170.204L110.722 151.677L115.355 126.911C115.355 126.94 115.355 126.967 115.355 126.999C115.399 128.048 115.407 129.094 115.422 130.147C115.547 139.568 115.655 148.988 115.744 158.408C115.781 161.902 115.887 166.877 115.923 170.652" fill="#221F22"/>
<path d="M91.0987 106.934L94.656 107.98L90.4237 102.665L85.8594 108.712L89.8888 106.878L91.3919 185.481H91.4451L91.0987 106.934Z" fill="#55A3D9"/>
<path d="M44.4185 109.493C44.296 107.457 42.4481 103.331 44.5796 97.6661C44.9405 96.6995 45.4013 93.2968 45.7621 91.146C46.0103 89.6686 47.2041 90.9091 47.5537 91.3651C49.2647 93.5948 48.7266 96.8187 48.7266 96.8187C48.7008 98.3702 54.7086 96.7365 56.5292 97.1844C58.7719 97.534 57.5587 99.44 58.8524 100.196C60.2654 101.012 58.9974 102.725 59.5291 103.848C60.2348 105.341 57.6505 105.696 59.3309 106.909C59.919 107.415 59.6338 108.093 59.3648 108.554C58.5495 109.954 57.0061 110.613 55.258 111.454C54.8182 111.667 54.4009 111.804 54.2704 112.274C53.8451 113.798 54.4928 119.724 54.4928 119.724L44.1349 119.764C44.1349 119.764 44.7584 110.684 44.4185 109.493Z" fill="#F9B189"/>
<path d="M54.4695 119.728C54.4695 119.728 53.9572 115.04 54.1473 112.931L44.4806 112.91C44.2518 116.034 43.9844 119.743 43.9844 119.743L54.4695 119.728Z" fill="#E97C63"/>
<path d="M64.5728 138.394C63.851 133.142 60.7835 128.244 60.0359 122.892C59.7927 121.5 63.2727 117.928 60.1842 116.319C59.7008 116.066 56.5044 115.399 54.8449 115.483C53.121 115.57 41.919 115.57 41.919 115.57C37.7623 115.285 39.5249 120.84 40.3917 122.498C41.1859 124.023 39.6538 147.233 42.2509 157.338C44.6079 166.52 60.044 166.267 61.5439 158.308C61.1524 158.554 64.3505 146.128 64.5728 138.394Z" fill="#221F22"/>
<path d="M78.8105 90.543L85.8591 108.711L78.4238 91.6127L78.8105 90.543Z" fill="#55A3D9"/>
<path d="M101.705 89.8037L94.6562 107.974L102.092 90.8751L101.705 89.8037Z" fill="#55A3D9"/>
<path d="M81.7383 57.2898L97.3113 51.3013L103.303 64.7203C103.303 64.7203 104.046 76.9244 99.032 82.9548L103.144 139.133H115.465C115.465 139.133 117.671 77.8492 104.571 49.2053C100.983 41.3575 88.2279 42.9461 84.6609 44.5508C78.5241 47.3106 76.0189 51.4995 73.7053 61.0953C71.3918 70.691 71.7124 84.4322 71.7124 84.4322L80.2803 86.4719L81.7383 57.2898Z" fill="#7F4F20"/>
</g>
<defs>
<clipPath id="clip0_682_1761">
<rect width="174" height="174" fill="white"/>
</clipPath>
</defs>
</svg>
