<svg width="174" height="174" viewBox="0 0 174 174" fill="none" xmlns="http://www.w3.org/2000/svg">
<g clip-path="url(#clip0_682_1555)">
<path d="M217.024 -38.9014H-19.7754V199.801H217.024V-38.9014Z" fill="#95D8C6"/>
<path d="M36.8664 216.135C37.8339 195.613 46.8558 185.996 62.2095 164.276C67.4504 156.861 55.8203 125.143 40.938 127.232C23.1796 129.725 17.0878 167.728 13.968 178.699C10.6516 190.372 7.4343 202.539 7.15068 214.891C6.84966 228.021 10.0217 239.775 13.6583 252.286C15.7306 259.428 17.4567 266.114 19.2506 272.89H41.554C37.0422 250.97 36.6541 220.762 36.8664 216.135Z" fill="#20228C"/>
<path d="M137.132 216.135C136.165 195.613 127.143 185.996 111.789 164.276C106.548 156.861 118.179 125.143 133.061 127.232C150.819 129.725 156.911 167.728 160.031 178.699C163.347 190.372 166.565 202.539 166.848 214.891C167.149 228.021 163.977 239.775 160.341 252.286C158.268 259.428 156.542 266.114 154.748 272.89H132.445C136.957 250.97 137.345 220.762 137.132 216.135Z" fill="#20228C"/>
<path d="M134.996 127.232L102.508 118.569L71.3624 119.257L40.9384 127.232C36.4335 136.079 35.9098 150.271 37.26 178.194C38.6103 206.118 45.6938 235.111 45.238 257.569C44.7821 280.027 29.4248 299.764 29.4248 299.764H142.854C142.854 299.764 129.393 280.028 128.934 257.569C128.475 235.109 133.903 207.908 135.254 179.987C136.604 152.065 139.501 136.079 134.996 127.232Z" fill="#20228C"/>
<path d="M111.412 57.5058C111.295 51.1784 108.72 45.1497 104.24 40.7166C99.7592 36.2835 93.7316 33.8002 87.4535 33.8008H87.3283C81.1058 33.7985 75.1266 36.2373 70.6566 40.6009C66.1865 44.9644 63.5765 50.9103 63.3789 57.1796C63.097 66.281 62.7229 74.4195 62.93 80.3041C63.0135 82.672 63.191 84.6768 63.5059 86.2308C64.1062 89.1863 65.9245 92.3504 68.0073 94.7727C70.0901 97.1949 72.4217 98.87 74.0764 98.87L74.2034 115.266C74.2034 115.266 74.668 121.865 85.2385 122.342C85.6109 122.358 86.8463 123.57 86.8463 123.57C86.8463 123.57 87.9599 122.422 88.1774 122.415C99.2646 122.087 99.6074 113.905 99.6074 113.905V99.0542C103.232 99.5944 110.237 92.0488 110.999 86.2361C111.954 78.9535 111.636 69.4715 111.412 57.5058Z" fill="#E6B699"/>
<path d="M116.883 50.0732C116.883 31.4407 96.9475 24.6633 96.9475 24.6633C96.9475 24.6633 96.5821 22.5463 95.2892 21.2764C94.2035 20.21 89.5316 19.7416 87.1112 19.6189V19.582L86.7319 19.5996L86.3526 19.582V19.6189C83.9305 19.7416 79.2586 20.21 78.1746 21.2764C76.8818 22.5463 76.5164 24.6633 76.5164 24.6633C76.5164 24.6633 56.5795 33.1333 56.5795 50.0732C56.5795 62.351 55.4346 68.7811 55.4346 68.7811L63.3794 69.4178V60.0989C63.3794 60.0989 68.0931 51.5675 86.3474 51.9587C86.4796 51.9587 86.5962 51.9587 86.7267 51.9587C86.8572 51.9587 86.9738 51.9587 87.106 51.9587C105.36 51.5675 110.074 60.0989 110.074 60.0989V69.4178L117.163 68.6583C117.163 68.6583 116.883 62.3475 116.883 50.0732Z" fill="#FDA401"/>
<path d="M142.422 66.6691C142.505 66.663 142.583 66.6255 142.639 66.5642C142.696 66.5028 142.727 66.4222 142.727 66.3384C142.727 66.2547 142.696 66.174 142.639 66.1127C142.583 66.0514 142.505 66.0139 142.422 66.0078C142.339 66.0139 142.262 66.0514 142.205 66.1127C142.149 66.174 142.117 66.2547 142.117 66.3384C142.117 66.4222 142.149 66.5028 142.205 66.5642C142.262 66.6255 142.339 66.663 142.422 66.6691Z" fill="#D9E9F8"/>
<path d="M89.1245 127.133C89.7433 127.133 90.245 126.627 90.245 126.004C90.245 125.38 89.7433 124.874 89.1245 124.874C88.5056 124.874 88.0039 125.38 88.0039 126.004C88.0039 126.627 88.5056 127.133 89.1245 127.133Z" fill="#D2E4F0"/>
<path d="M86.8467 123.666C86.8467 123.666 88.3483 121.402 89.8551 123.666L91.3637 125.929L93.0585 129.181L89.8551 116.798L86.8467 123.666Z" fill="#0A0819"/>
<path d="M83.3129 116.798L86.8469 123.666C86.8469 123.666 85.5749 122.309 84.2108 123.347C82.8466 124.386 81.4268 129.725 81.4268 129.725L83.3129 116.798Z" fill="#0A0819"/>
<path d="M96.8912 103.183C98.2241 103.183 98.2276 101.094 96.8912 101.094C95.5549 101.094 95.5567 103.183 96.8912 103.183Z" fill="#E6B699"/>
<path d="M74.0771 98.876C82.3612 101.234 91.1208 101.312 99.4446 99.1005L99.6082 99.0566V102.749L93.7183 106.201C92.1954 107.109 90.4988 107.683 88.7401 107.883C87.2718 108.036 85.7908 108.022 84.3258 107.839C82.9009 107.648 81.519 107.213 80.2402 106.551L74.0858 103.431L74.0771 98.876Z" fill="#DB7C5A"/>
<g style="mix-blend-mode:multiply">
<path d="M110.01 60.3369C110.01 60.3369 111.849 63.4151 111.866 65.2902L110.081 66.1847L110.01 60.3369Z" fill="#D9E9F8"/>
</g>
<g style="mix-blend-mode:multiply">
<path d="M63.454 60.3369C63.454 60.3369 61.6148 63.4169 61.5957 65.2919L63.3809 66.1864L63.454 60.3369Z" fill="#D9E9F8"/>
</g>
<path d="M111.648 53.3512L113.502 64.9748L115.656 64.8643L113.533 43.6377L111.648 53.3512Z" fill="#1E1B2E"/>
<path d="M61.8221 53.3512L59.969 64.9748L58.0254 65.5326L60.0577 44.2568L61.8221 53.3512Z" fill="#1E1B2E"/>
<path d="M109.38 79.3484C108.616 67.4985 107.826 70.7697 108.858 67.8932C109.754 65.4043 112.56 64.8395 115.644 64.864C118.727 64.8886 122.43 67.6985 122.329 71.445C122.238 74.4863 121.215 77.6067 118.565 79.173C115.915 80.7393 112.512 80.7884 109.646 79.6641" fill="#E6B699"/>
<path d="M112.719 76.5554C112.832 76.3379 113.778 76.7869 115.134 76.3309C116.506 75.9678 117.879 74.3769 117.933 72.1844C117.982 71.104 117.716 70.1148 117.169 69.6482C116.609 69.1501 115.729 69.029 115.031 69.0887C113.58 69.2465 112.567 69.6605 112.471 69.4167C112.411 69.2588 113.103 68.5064 114.833 67.9714C115.692 67.7592 116.945 67.675 118.114 68.5064C119.277 69.3991 119.614 70.9233 119.553 72.2458C119.518 73.5702 119.043 74.8444 118.205 75.8643C117.489 76.7209 116.486 77.2826 115.386 77.4429C113.472 77.6867 112.562 76.6852 112.719 76.5659" fill="#DB7C5A"/>
<path d="M65.6131 79.3484C66.3787 67.4985 67.1669 70.7697 66.1351 67.8932C65.2372 65.4043 62.4306 64.8395 59.3491 64.864C56.2676 64.8886 52.5474 67.7037 52.6536 71.445C52.7441 74.4863 53.7672 77.6067 56.4172 79.173C59.0672 80.7393 62.4707 80.7884 65.3364 79.6641" fill="#E6B699"/>
<path d="M62.2761 76.5554C62.1612 76.3379 61.2164 76.7869 59.861 76.3309C58.4881 75.9678 57.1152 74.3769 57.0613 72.1844C57.0126 71.104 57.2771 70.1148 57.8252 69.6482C58.3854 69.1501 59.2641 69.029 59.9636 69.0887C61.4148 69.2465 62.4275 69.6605 62.5232 69.4167C62.5841 69.2588 61.8915 68.5064 60.162 67.9714C59.3007 67.7592 58.0479 67.675 56.8803 68.5064C55.718 69.3991 55.3805 70.9233 55.4414 72.2458C55.4755 73.5703 55.9504 74.8448 56.7899 75.8643C57.5059 76.7209 58.5089 77.2826 59.6087 77.4429C61.5227 77.6867 62.4327 76.6852 62.2761 76.5659" fill="#DB7C5A"/>
<path d="M76.5146 24.6633C76.5146 24.6633 77.3029 28.4028 78.1172 31.3688C78.1172 31.3688 79.6675 23.4583 78.1729 21.2764C78.1729 21.2764 76.8505 21.9902 76.5146 24.6633Z" fill="#DC8023"/>
<path d="M96.9322 24.6633C96.9322 24.6633 96.0796 28.0941 95.3279 31.3688C95.3279 31.3688 93.7776 23.4583 95.2722 21.2764C95.2722 21.2764 96.5946 21.9902 96.9322 24.6633Z" fill="#DC8023"/>
<g style="mix-blend-mode:color-dodge" opacity="0.49">
<path d="M58.9863 43.6372C58.9863 43.6372 64.2289 30.5753 77.0406 26.9832L76.6717 25.3643C76.6717 25.3643 63.961 29.9702 58.9863 43.6372Z" fill="#FDA401"/>
</g>
<g style="mix-blend-mode:color-dodge" opacity="0.25">
<path d="M93.7001 22.9418C93.7001 22.9418 92.6352 20.7335 86.8637 20.6072C81.0921 20.481 79.9941 22.9418 79.9941 22.9418C80.7096 22.6606 81.4462 22.4377 82.197 22.2753C82.0795 22.55 82.0372 22.8514 82.0744 23.1481C82.1116 23.4449 82.2269 23.7262 82.4085 23.9629C82.59 24.1995 82.8311 24.3828 83.1066 24.4938C83.3822 24.6047 83.6822 24.6393 83.9755 24.5938C84.2688 24.5483 84.5447 24.4245 84.7745 24.2353C85.0042 24.046 85.1796 23.7981 85.2822 23.5175C85.3848 23.2368 85.411 22.9335 85.358 22.6392C85.305 22.3449 85.1749 22.0702 84.981 21.8438C85.5326 21.7964 86.1172 21.7684 86.7314 21.7684C89.1031 21.7637 91.4587 22.1604 93.7001 22.9418Z" fill="#FDA401"/>
</g>
<g style="mix-blend-mode:color-dodge" opacity="0.49">
<path d="M79.3037 29.8358C79.3037 29.8358 79.911 26.591 81.0437 26.3279C82.1764 26.0648 92.6008 25.3755 93.3977 26.3279C94.1946 27.2803 94.4417 29.8358 94.4417 29.8358H79.3037Z" fill="#FDA401"/>
</g>
<path d="M113.677 45.0477C113.677 45.0477 114.507 42.1133 107.519 35.6113C100.532 29.1093 92.2405 29.5829 86.8639 29.5829C81.4873 29.5829 73.1736 29.1321 66.2084 35.606C59.2432 42.08 60.0506 45.0424 60.0506 45.0424L59.4068 49.9887C59.3369 50.5106 59.3826 51.0417 59.5407 51.5437C59.6988 52.0457 59.9653 52.5062 60.321 52.892C60.6768 53.2777 61.1129 53.5792 61.5981 53.7748C62.0832 53.9703 62.6054 54.055 63.1269 54.0228C69.6762 53.6106 81.6109 52.5232 83.2082 50.0185C83.3683 49.7677 83.6554 49.5396 83.6554 49.2344C83.6554 43.6743 90.0725 43.6743 90.0725 49.2344C90.0725 49.5396 90.3596 49.7606 90.5196 50.0185C92.117 52.5197 104.052 53.6071 110.601 54.0228C112.823 54.1614 114.392 52.1724 114.104 49.9466L113.677 45.0477Z" fill="#1E1B2E"/>
<g style="mix-blend-mode:soft-light">
<path d="M110.721 52.0604C97.5524 51.2307 92.837 49.6908 92.1236 48.9032C92.0873 48.8427 92.0478 48.7841 92.0053 48.7278C91.8017 45.0234 89.3187 43.0888 86.8636 43.0888C84.4084 43.0888 81.9237 45.0182 81.7219 48.7296C81.6627 48.8067 81.614 48.8769 81.5688 48.9453C80.8902 49.6802 76.1747 51.2255 63.0064 52.0498H62.996C62.7565 52.0601 62.5178 52.017 62.2967 51.9236C62.0757 51.8302 61.8777 51.6889 61.7171 51.5096C61.5665 51.3371 61.4546 51.1339 61.3888 50.9139C61.3231 50.6939 61.305 50.4621 61.336 50.2345L62.032 44.8919L61.9676 44.6639C61.9955 44.2762 62.3818 41.8312 67.5356 37.0428C73.0062 31.9563 79.3033 31.5283 84.7756 31.5283H86.8636H88.9516C94.4239 31.5283 100.721 31.9545 106.192 37.0428C111.338 41.8312 111.725 44.2762 111.76 44.6639L111.695 44.8919L112.391 50.2345C112.422 50.4621 112.404 50.6939 112.338 50.9139C112.273 51.1339 112.161 51.3371 112.01 51.5096C111.863 51.6806 111.681 51.8177 111.476 51.9115C111.272 52.0053 111.05 52.0537 110.825 52.0534L110.721 52.0604Z" fill="#D9E9F8"/>
</g>
<g style="mix-blend-mode:soft-light">
<path d="M108.792 52.0617C96.8733 51.311 92.6104 49.9149 91.9596 49.2098C91.9265 49.1558 91.8905 49.1037 91.8517 49.0537C91.6673 45.7001 89.4157 43.9496 87.199 43.9496C84.9822 43.9496 82.7254 45.7036 82.5445 49.0537C82.4888 49.1256 82.4453 49.187 82.4053 49.2501C81.791 49.9149 77.5211 51.311 65.6021 52.0565C65.3852 52.0659 65.1689 52.0268 64.9689 51.9418C64.7688 51.8569 64.5899 51.7283 64.445 51.5654C64.3081 51.4099 64.2061 51.2264 64.1461 51.0275C64.086 50.8286 64.0693 50.619 64.097 50.413L64.7269 45.5808L64.6695 45.3756C64.6938 45.0248 65.0436 42.8112 69.7033 38.4772C74.6553 33.8695 80.3555 33.4854 85.3093 33.4854H87.2059H89.1008C94.0546 33.4854 99.753 33.8695 104.705 38.4772C109.365 42.8112 109.715 45.023 109.741 45.3756L109.681 45.5808L110.311 50.4183C110.339 50.6226 110.322 50.8304 110.264 51.028C110.205 51.2255 110.105 51.4081 109.971 51.5638C109.837 51.7194 109.671 51.8445 109.486 51.9306C109.3 52.0168 109.098 52.0621 108.893 52.0635L108.792 52.0617Z" fill="#D9E9F8"/>
</g>
<mask id="mask0_682_1555" style="mask-type:alpha" maskUnits="userSpaceOnUse" x="61" y="31" width="52" height="22">
<g style="mix-blend-mode:soft-light">
<path d="M110.721 52.0594C97.5524 51.2298 92.837 49.6898 92.1236 48.9022C92.0873 48.8417 92.0478 48.7831 92.0053 48.7268C91.8017 45.0224 89.3187 43.0878 86.8636 43.0878C84.4084 43.0878 81.9237 45.0172 81.7219 48.7286C81.6627 48.8058 81.614 48.8759 81.5688 48.9443C80.8902 49.6792 76.1747 51.2245 63.0064 52.0489H62.996C62.7565 52.0591 62.5178 52.016 62.2967 51.9226C62.0757 51.8293 61.8777 51.6879 61.7171 51.5086C61.5665 51.3361 61.4546 51.1329 61.3888 50.9129C61.3231 50.6929 61.305 50.4612 61.336 50.2335L62.032 44.8909L61.9676 44.6629C61.9955 44.2752 62.3818 41.8302 67.5356 37.0418C73.0062 31.9553 79.3033 31.5273 84.7756 31.5273H86.8636H88.9516C94.4239 31.5273 100.721 31.9536 106.192 37.0418C111.338 41.8302 111.725 44.2752 111.76 44.6629L111.695 44.8909L112.391 50.2335C112.422 50.4612 112.404 50.6929 112.338 50.9129C112.273 51.1329 112.161 51.3361 112.01 51.5086C111.863 51.6797 111.681 51.8167 111.476 51.9105C111.272 52.0043 111.05 52.0527 110.825 52.0524L110.721 52.0594Z" fill="#D9E9F8"/>
</g>
</mask>
<g mask="url(#mask0_682_1555)">
<g style="mix-blend-mode:hard-light" opacity="0.79">
<path d="M58.4287 64.4638L83.3438 23.1331L99.2927 23.1016L70.7984 63.8921L58.4287 64.4638Z" fill="#D9E9F8"/>
</g>
<g style="mix-blend-mode:hard-light" opacity="0.79">
<path d="M77.5107 64.4638L102.428 23.1331L109.269 23.1016L80.775 63.8921L77.5107 64.4638Z" fill="#D9E9F8"/>
</g>
</g>
<g style="mix-blend-mode:multiply">
<path d="M60.4268 64.8974C60.4268 64.8974 63.3047 53.2773 68.7283 49.408C74.1519 45.5387 86.2066 45.8579 86.2066 45.8579C86.2066 45.8579 100.795 45.0143 105.237 49.408C109.679 53.8017 112.468 65.0482 112.468 65.0482C112.468 65.0482 108.741 54.6892 103.072 53.3439C97.4036 51.9986 74.8618 49.9885 69.5217 53.0142C64.1817 56.0398 60.4268 64.8974 60.4268 64.8974Z" fill="#D9E9F8"/>
</g>
<path d="M61.7144 64.9749C61.8222 63.9558 63.2403 53.3775 75.9475 52.2567C89.2985 51.0798 99.9943 50.5028 104.743 54.0265C109.345 57.4468 111.905 62.3632 111.877 65.0415L113.036 64.9047C112.789 62.9087 110.13 54.6299 103.589 51.0623C96.0671 46.9597 77.3952 46.9597 69.8732 51.0623C63.336 54.6299 60.6721 62.9087 60.4268 64.8977L61.7074 65.0485V65.0362C61.7091 65.0275 61.7109 65.0029 61.7144 64.9749Z" fill="#FDA401"/>
<path d="M104.748 54.0223C99.9995 50.4915 90.5548 50.1635 77.2038 51.3422C64.5018 52.463 61.8274 63.9516 61.7178 64.9707C61.8048 64.2007 62.7165 59.3299 67.0422 56.7954C74.0022 52.7156 99.4654 52.7156 106.427 56.7954C110.941 59.4404 111.736 64.6322 111.758 65.0514L111.88 65.0373C111.905 62.3625 109.345 57.4461 104.748 54.0223Z" fill="#DC8023"/>
<path d="M56.3597 178.409C56.7564 154.029 53.3251 131.431 51.8201 122.785C48.0666 123.932 44.4243 125.42 40.9381 127.232C40.9381 127.232 46.2799 166.393 41.1817 186.165C38.3525 197.144 36.569 201.851 35.5424 203.868C34.7804 205.376 34.3895 207.047 34.4027 208.739C34.4218 212.473 34.4496 218.891 34.4496 225.823C38.3873 226.647 45.095 227.964 53.2068 229.201C54.8546 208.7 56.1822 189.347 56.3597 178.409Z" fill="#FDA401"/>
<path d="M120.564 178.409C120.738 189.352 122.071 208.723 123.72 229.24C130.9 228.112 137.146 226.895 141.484 225.986C141.484 220.184 141.503 214.729 141.521 210.891C141.532 208.077 140.964 205.291 139.852 202.709C138.78 200.222 137.138 195.423 134.752 186.169C129.654 166.393 134.996 127.235 134.996 127.235C131.803 125.572 128.477 124.185 125.052 123.089C123.522 131.941 120.171 154.304 120.564 178.409Z" fill="#FDA401"/>
<path d="M69.1562 187.53C68.7091 197.527 67.6233 213.638 66.3514 230.939C72.9111 231.662 79.8329 232.197 86.6154 232.332C94.3183 232.486 102.634 231.914 110.58 231.02C109.305 213.689 108.216 197.548 107.769 187.53C106.551 160.366 111.637 128.258 113.027 120.109C108.329 119.277 105.162 119.07 105.162 119.07C102.312 143.68 87.9465 156.142 87.9465 156.142C87.9465 156.142 73.628 143.68 70.7727 119.07C70.7727 119.07 68.0287 119.246 63.8701 119.947C65.2169 127.816 70.376 160.178 69.1562 187.53Z" fill="#FDA401"/>
<path d="M123.714 229.245C122.064 208.724 120.735 189.358 120.557 178.415C120.164 154.31 123.515 131.947 125.045 123.091C121.108 121.822 117.091 120.826 113.02 120.109C111.628 128.258 106.55 160.366 107.761 187.53C108.208 197.549 109.298 213.689 110.573 231.02C102.627 231.915 94.3111 232.487 86.6082 232.332C79.8222 232.197 72.9039 231.662 66.3442 230.94C67.6161 213.638 68.7019 197.533 69.149 187.53C70.367 160.179 65.2097 127.816 63.8629 119.944C59.7905 120.617 55.7674 121.564 51.8204 122.779C53.3255 131.424 56.7568 154.022 56.3601 178.403C56.1861 189.34 54.855 208.694 53.2072 229.198C45.0953 227.97 38.3876 226.644 34.45 225.82C34.45 229.731 34.4413 233.805 34.4187 237.655C38.1301 238.532 44.3732 239.899 52.2206 241.163C51.5507 249.121 50.8582 257.04 50.1883 264.507C42.7394 263.304 36.7538 262.095 33.4547 261.392C33.0893 264.851 32.6178 268.811 32.1045 272.874C34.7475 273.538 40.848 274.991 49.106 276.431C47.9141 289.393 46.9032 299.904 46.3916 305.149C50.5432 305.575 55.2656 305.897 60.4229 305.98C60.8736 300.558 61.6984 290.564 62.6728 278.442C70.6189 279.432 78.6102 280.011 86.6151 280.175C96.0198 280.351 105.581 279.649 114.265 278.597C115.231 290.629 116.051 300.55 116.5 305.959C121.678 305.845 126.4 305.492 130.522 305.043C130.011 299.792 129.014 289.417 127.837 276.629C134.757 275.455 140.395 274.247 143.903 273.44C143.369 269.231 142.876 265.125 142.495 261.539C138.723 262.341 133.202 263.444 126.738 264.521C126.073 257.109 125.386 249.251 124.719 241.353C131.589 240.264 137.421 239.087 141.519 238.196C141.495 234.237 141.484 230.02 141.484 225.972C137.146 226.895 130.9 228.112 123.714 229.245ZM86.6151 268.122C78.8878 267.969 70.9812 267.296 63.6332 266.417C64.2266 258.896 64.8512 250.94 65.4498 242.995C72.0496 243.731 79.2184 244.271 86.6151 244.398C95.0263 244.549 103.564 244.003 111.487 243.144C112.087 251.061 112.705 258.991 113.298 266.486C104.549 267.564 95.2003 268.294 86.6151 268.122Z" fill="#D2E4F0"/>
<path d="M70.9938 172.776H46.2649C44.3728 172.776 42.8389 174.323 42.8389 176.23V208.58C42.8389 210.488 44.3728 212.034 46.2649 212.034H70.9938C72.8859 212.034 74.4198 210.488 74.4198 208.58V176.23C74.4198 174.323 72.8859 172.776 70.9938 172.776Z" fill="#DC8023"/>
<path d="M68.8116 188.425H48.3717C47.9407 188.426 47.5139 188.34 47.1156 188.174C46.7174 188.008 46.3555 187.764 46.0508 187.457C45.746 187.15 45.5043 186.785 45.3394 186.384C45.1746 185.982 45.0899 185.552 45.0901 185.117L42.8438 176.086C42.8438 175.208 43.1897 174.366 43.8054 173.746C44.4212 173.125 45.2563 172.776 46.1271 172.776H71.1379C71.569 172.776 71.9959 172.862 72.3942 173.028C72.7924 173.195 73.1543 173.439 73.459 173.746C73.7638 174.053 74.0055 174.418 74.1703 174.82C74.3351 175.221 74.4198 175.652 74.4196 176.086L72.0932 185.117C72.0932 185.995 71.7475 186.836 71.132 187.457C70.5166 188.077 69.6819 188.425 68.8116 188.425Z" fill="#FDA401"/>
<path d="M89.8545 116.797L93.0578 129.18C102.087 127.449 106.334 120.016 106.334 120.016C106.334 120.016 104.691 114.717 104.281 113.086C103.87 111.455 103.526 108.145 100.371 108.436C100.371 108.436 97.561 114.27 89.8545 116.797Z" fill="#121B6B"/>
<path d="M83.3128 116.797L81.4318 129.724C72.4047 127.993 67.3691 120.016 67.3691 120.016C67.3691 120.016 69.0082 114.71 69.4258 113.086C69.8434 111.462 70.1827 108.145 73.3356 108.436C73.3286 108.436 75.6063 114.27 83.3128 116.797Z" fill="#121B6B"/>
<path d="M62.9304 80.31L62.8695 80.3188C62.8695 80.3188 53.517 78.5648 49.602 95.2066C47.3992 104.561 50.2719 115.202 54.4479 122.786C58.6239 130.37 54.5506 138.028 54.5506 138.028C54.5506 138.028 63.2749 135.534 64.3468 128.362C65.4186 121.19 63.4541 124.007 63.4541 110.38C63.4541 103.431 66.5131 101.628 68.0077 94.7786C65.9197 92.3564 64.1066 89.1922 63.5063 86.2367C63.1914 84.6827 63.0139 82.6779 62.9304 80.31Z" fill="#1F1F40"/>
<path d="M86.676 299.764H88.8945L88.8945 155.339H86.676L86.676 299.764Z" fill="#DC8023"/>
<path d="M89.9782 61.9684C87.3455 64.7432 87.403 68.8598 88.3339 72.5063C88.5688 73.4254 88.8419 74.334 89.1273 75.2373C89.4005 76.1038 89.8007 77.0035 89.9051 77.9103C90.0965 79.5591 88.1755 79.6643 86.9854 79.6977C85.656 79.7398 85.8578 80.5168 87.1333 80.8676C88.5479 81.2569 90.1295 81.5499 91.184 80.3975C92.576 78.8821 91.8208 76.8615 91.2779 75.1619C90.0043 71.1786 88.7184 66.6393 90.5106 62.5998C91.0517 61.3896 90.2444 61.6878 89.9782 61.9684Z" fill="#DB7C5A"/>
<path d="M98.7066 68.5564C98.7187 67.4269 98.7709 66.4516 97.4781 66.2762C97.2465 66.2675 97.0172 66.3256 96.8171 66.4437C96.6171 66.5617 96.4546 66.7349 96.3488 66.9428C96.3151 67.0101 96.2916 67.0823 96.2792 67.1568C96.1052 68.2284 95.9069 69.4545 96.1052 70.5349C96.2792 71.4522 97.2884 72.0381 98.0871 71.3856C98.8318 70.784 98.6979 69.4106 98.7066 68.5564Z" fill="#1E1B2E"/>
<path d="M79.1958 68.5562C79.2079 67.4266 79.2236 66.4514 77.9308 66.276C77.7042 66.2686 77.4803 66.3276 77.2863 66.4459C77.0924 66.5642 76.9366 66.7367 76.8381 66.9425C76.8043 67.0099 76.7808 67.0821 76.7685 67.1565C76.5945 68.2282 76.3961 69.4542 76.6032 70.5347C76.7772 71.452 77.7864 72.0378 78.585 71.3854C79.3123 70.7837 79.1871 69.4104 79.1958 68.5562Z" fill="#1E1B2E"/>
<path d="M90.1102 85.1012C89.7326 85.3643 89.8074 85.2766 89.3237 85.5748C89.1516 85.6822 88.9539 85.7409 88.7515 85.7446C88.5491 85.7483 88.3495 85.6969 88.1736 85.5959L87.4028 85.1012C86.9364 84.7943 85.1669 84.7329 84.6188 84.8592L79.8877 84.9767C85.1843 87.8848 92.5653 87.7392 96.0349 84.7715C96.0349 84.7715 93.9469 85.0434 92.7063 84.9381C92.066 84.8925 90.6409 84.7294 90.1102 85.1012Z" fill="#D33531"/>
<path d="M74.9675 61.9929C75.8044 59.4742 79.0965 59.3848 80.7564 61.0773C81.6943 62.0333 83.1594 60.5511 82.2215 59.6005C79.4149 56.7397 74.2941 57.4501 72.9699 61.4369C72.5454 62.7156 74.5446 63.2628 74.9675 61.9929Z" fill="#1E1B2E"/>
<path d="M102.808 61.4369C101.483 57.4501 96.3696 56.7397 93.556 59.6005C92.6182 60.5564 94.078 62.035 95.0211 61.0773C96.6811 59.3848 99.9731 59.4742 100.81 61.9929C101.231 63.261 103.234 62.7173 102.808 61.4369Z" fill="#1E1B2E"/>
<path d="M71.0558 55.2979C71.0558 55.2979 69.8882 66.5707 67.1808 67.1162C64.4734 67.6616 63.1127 65.2868 63.1127 65.2868C63.1127 65.2868 60.701 57.2798 71.0558 55.2979Z" fill="#1F1F40"/>
<path d="M104.272 55.7666C104.272 55.7666 105.44 67.0377 108.146 67.5832C110.851 68.1286 112.216 65.7555 112.216 65.7555C112.216 65.7555 111.412 57.5065 104.272 55.7666Z" fill="#1F1F40"/>
<path d="M87.1891 123.189L86.4932 123.2L86.9942 155.35L87.6901 155.339L87.1891 123.189Z" fill="#0A0819"/>
</g>
<defs>
<clipPath id="clip0_682_1555">
<rect width="174" height="174" fill="white"/>
</clipPath>
</defs>
</svg>
