<svg width="174" height="174" viewBox="0 0 174 174" fill="none" xmlns="http://www.w3.org/2000/svg">
<g clip-path="url(#clip0_682_1322)">
<path d="M181.812 -5.41992H-7.8125V184.205H181.812V-5.41992Z" fill="#FFDE80"/>
<path d="M147.153 104.896C148.898 101.737 148.65 96.1831 144.576 95.819C128.152 94.3464 136.635 66.2905 128.273 53.5949C124.58 47.6451 112.484 42.4251 107.862 45.5103C79.2661 49.0919 96.7902 93.3975 76.2131 95.9124C72.1595 96.407 72.0902 101.965 73.935 105.067C72.2191 108.175 67.2456 108.175 67.5324 115.136C67.6291 117.511 68.9985 118.874 71.0027 119.741C71.4957 121.537 72.7524 123.266 73.5225 124.574C77.415 126.072 83.7885 124.196 87.8211 126C89.3425 126.278 90.8772 126.476 92.4192 126.594C94.4235 127.4 96.5034 127.975 98.68 128.062C100.892 128.679 103.191 128.436 105.519 127.88C106.325 128.057 107.13 128.268 107.912 128.525C113.067 129.399 118.761 132.353 123.805 130.769C128.086 130.46 131.929 128.291 135.549 126.124C140.881 122.096 154.455 124.494 154.523 116.842C154.584 109.878 148.969 107.944 147.153 104.896Z" fill="#5A3011"/>
<path d="M73.4247 118.094L71.9216 111.36L71.9135 111.329C61.1416 116.219 58.1015 123.913 57.4747 134.257C57.138 139.815 56.8384 157.389 56.7369 173.502C56.7191 176.466 56.703 179.382 56.6885 182.163C56.6862 182.661 56.7823 183.155 56.9714 183.616C57.1604 184.077 57.4387 184.496 57.7902 184.85C58.1417 185.203 58.5595 185.483 59.0197 185.674C59.4798 185.865 59.9731 185.964 60.4714 185.964H77.2785C77.6058 185.963 77.9195 185.833 78.152 185.603C78.3844 185.373 78.5169 185.06 78.5207 184.733V184.722L78.6415 173.502C78.7264 165.684 78.8198 157.865 78.9219 150.046C78.9396 148.757 78.9492 147.468 79.0024 146.179C79.0121 145.973 79.0153 145.82 79.0185 145.686C79.0491 145.57 79.0878 145.414 79.1426 145.135C79.1909 144.89 79.2441 144.652 79.3037 144.402L73.4247 118.094Z" fill="#D171A3" stroke="#D171A3" stroke-width="0.5" stroke-miterlimit="10"/>
<path d="M145.184 117.495L146.687 110.76V110.729C157.459 115.619 160.499 123.314 161.126 133.657C161.461 139.216 161.77 156.79 161.864 172.902C161.881 175.867 161.898 178.783 161.912 181.564C161.914 182.062 161.818 182.556 161.629 183.017C161.44 183.478 161.162 183.897 160.81 184.25C160.459 184.603 160.041 184.883 159.581 185.075C159.121 185.266 158.627 185.364 158.129 185.364H141.33C141.003 185.364 140.688 185.235 140.456 185.004C140.223 184.774 140.091 184.461 140.088 184.133V184.122L139.967 172.902C139.885 165.084 139.791 157.265 139.684 149.446C139.666 148.157 139.655 146.868 139.603 145.579C139.593 145.373 139.59 145.22 139.587 145.086C139.556 144.97 139.518 144.814 139.463 144.535C139.413 144.291 139.414 144.224 139.361 143.98L145.184 117.495Z" fill="#D171A3" stroke="#D171A3" stroke-width="0.5" stroke-miterlimit="10"/>
<path d="M146.674 110.683L116.513 102.126H116.503H100.757H100.735L71.917 111.284L73.425 118.094L85.5083 172.227L74.8911 215.59C74.8911 215.999 74.8873 216.409 74.8798 216.821H145.313L143.057 208.604L133.059 172.232L146.582 111.087L146.674 110.683Z" fill="#E79DC1"/>
<path d="M80.6713 192.004L74.8584 215.553C96.5005 208.98 123.272 191.246 133.053 172.24C119.336 184.103 101.016 189.996 80.6713 192.004Z" fill="#E882BC"/>
<path d="M132.77 171.955C130.11 174.25 127.277 176.334 124.294 178.189C121.26 180.071 118.099 181.74 114.833 183.183C111.506 184.654 108.092 185.921 104.611 186.979C101.012 188.074 97.3598 188.985 93.6682 189.708C89.845 190.462 85.988 191.036 82.1133 191.455C81.6299 191.506 81.1466 191.556 80.6713 191.604C80.5653 191.607 80.4643 191.65 80.3892 191.725C80.3142 191.8 80.271 191.901 80.2686 192.007C80.2694 192.114 80.3121 192.216 80.3875 192.291C80.4628 192.366 80.5648 192.409 80.6713 192.41C84.6057 192.02 88.5287 191.484 92.418 190.765C96.1752 190.076 99.8952 189.197 103.564 188.133C107.11 187.104 110.593 185.866 113.994 184.427C117.315 183.021 120.535 181.388 123.632 179.54C126.684 177.716 129.593 175.66 132.332 173.392C132.672 173.111 133.01 172.825 133.345 172.534C133.738 172.194 133.166 171.627 132.776 171.963L132.77 171.955Z" fill="#D171A3"/>
<path d="M133.664 169.603C126.131 170.602 96.2061 171.486 84.7285 168.739L85.5099 172.24C95.2716 174.531 123.063 173.851 132.917 173.031L133.664 169.603Z" fill="#D171A3"/>
<path d="M133.664 169.12C128.194 169.837 122.602 169.916 117.095 170.027C109.64 170.177 102.157 170.14 94.7167 169.592C91.4155 169.349 88.0821 169.038 84.8551 168.272C84.7727 168.25 84.6858 168.249 84.6032 168.271C84.5205 168.293 84.4452 168.336 84.3847 168.396C84.3243 168.457 84.281 168.532 84.2592 168.615C84.2374 168.697 84.2378 168.784 84.2606 168.867L85.042 172.369C85.0644 172.452 85.1082 172.527 85.1691 172.587C85.2299 172.647 85.3056 172.69 85.3884 172.711C87.8469 173.281 90.3828 173.536 92.8929 173.742C96.2376 174.014 99.5936 174.145 102.948 174.225C110.011 174.386 117.084 174.291 124.144 174.019C127.073 173.905 130.003 173.766 132.924 173.525C133.029 173.522 133.131 173.487 133.215 173.423C133.299 173.36 133.36 173.271 133.39 173.17L134.137 169.74C134.27 169.134 133.332 168.875 133.205 169.484L132.459 172.912L132.916 172.55C127.102 173.033 121.252 173.194 115.421 173.278C108.395 173.386 101.346 173.365 94.3349 172.88C91.4349 172.679 88.4833 172.435 85.6349 171.776L85.9716 172.113L85.1902 168.612L84.5957 169.207C90.879 170.697 97.5684 170.836 104.002 170.979C111.266 171.15 118.534 171.053 125.806 170.689C128.424 170.557 131.059 170.422 133.661 170.08C134.271 170.006 134.279 169.039 133.664 169.12Z" fill="#D171A3"/>
<path d="M98.0216 166.892H95.2715V176.035H98.0216V166.892Z" fill="#E79DC1"/>
<path d="M94.7881 169.603V174.531C94.7881 175.153 95.7548 175.155 95.7548 174.531V169.603C95.7548 168.981 94.7881 168.979 94.7881 169.603Z" fill="#D171A3"/>
<path d="M97.5381 169.603V174.531C97.5381 175.153 98.5048 175.155 98.5048 174.531V169.603C98.5048 168.981 97.5381 168.979 97.5381 169.603Z" fill="#D171A3"/>
<path d="M120.565 168.104H117.814V177.247H120.565V168.104Z" fill="#E79DC1"/>
<path d="M117.331 169.776V174.706C117.331 175.328 118.298 175.329 118.298 174.706V169.776C118.298 169.154 117.331 169.154 117.331 169.776Z" fill="#D171A3"/>
<path d="M120.08 169.776V174.706C120.08 175.328 121.047 175.329 121.047 174.706V169.776C121.047 169.154 120.08 169.154 120.08 169.776Z" fill="#D171A3"/>
<path d="M132.756 172.674C129.907 192.109 116.717 207.453 100.273 216.834H74.5947L74.896 215.603C96.5397 209.032 122.975 191.68 132.754 172.674" fill="#E882BC"/>
<path d="M132.665 172.134C132.121 175.833 131.191 179.466 129.891 182.972C128.617 186.384 127.011 189.664 125.096 192.762C123.188 195.849 121.01 198.76 118.589 201.462C116.148 204.187 113.494 206.715 110.654 209.02C107.81 211.331 104.802 213.431 101.653 215.304C101.258 215.539 100.862 215.769 100.462 215.998C100.013 216.256 100.419 216.952 100.87 216.694C104.099 214.845 107.191 212.767 110.122 210.475C113.035 208.202 115.763 205.703 118.281 202.999C120.789 200.309 123.058 197.406 125.062 194.322C127.069 191.23 128.772 187.951 130.147 184.531C131.544 181.056 132.573 177.444 133.218 173.755C133.298 173.286 133.379 172.817 133.442 172.348C133.467 172.245 133.452 172.137 133.4 172.044C133.348 171.952 133.262 171.883 133.161 171.852C133.058 171.824 132.948 171.838 132.855 171.891C132.762 171.944 132.694 172.031 132.665 172.134Z" fill="#D171A3"/>
<path d="M122.562 102.895C122.47 97.6526 122.659 89.4263 122.659 89.4263C122.659 89.4263 129.796 86.494 130.437 77.8843C131.078 69.2745 127.797 53.5952 127.797 53.5952L115.984 46.6465L97.5045 54.6328L91.4854 77.8843L99.1413 103.42C99.3492 109.512 104.89 114.255 111.436 113.949C117.735 113.657 122.659 108.766 122.562 102.895Z" fill="#F9B189"/>
<g style="mix-blend-mode:multiply">
<g style="mix-blend-mode:multiply">
<g style="mix-blend-mode:multiply" opacity="0.5">
<path d="M122.66 89.4248C122.66 89.4248 113.544 94.6867 103.028 89.6649L127.499 116.645L122.66 89.4248Z" fill="#F0584A"/>
</g>
</g>
</g>
<path d="M132.707 172.037C130.685 175.957 128.107 179.571 125.24 182.914C122.094 186.542 118.659 189.908 114.969 192.979C111.12 196.2 107.065 199.166 102.831 201.861C98.61 204.562 94.23 207.006 89.7146 209.178C85.4792 211.232 81.1102 212.998 76.6372 214.464C76.1228 214.63 75.6077 214.791 75.0922 214.948C74.5976 215.099 74.8086 215.877 75.3065 215.726C79.8053 214.339 84.2033 212.644 88.4692 210.653C93.0127 208.551 97.4245 206.175 101.68 203.539C106.02 200.863 110.183 197.912 114.145 194.704C117.939 191.653 121.486 188.307 124.751 184.696C127.755 181.346 130.492 177.725 132.686 173.79C132.934 173.346 133.175 172.897 133.408 172.443C133.646 171.984 132.95 171.577 132.714 172.037H132.707Z" fill="#D171A3"/>
<path d="M97.5041 54.6327C97.5041 54.6327 96.2957 64.3606 98.0212 74.5267C98.2033 75.5852 98.859 86.7841 98.859 86.7841L99.1378 103.433C99.352 109.518 104.893 114.26 111.432 113.955C117.738 113.664 122.662 108.773 122.565 102.906C122.473 97.6655 122.662 89.4327 122.662 89.4327C122.662 89.4327 126.736 82.8514 127.385 74.2416C128.035 65.6318 126.614 54.8954 126.614 54.8954L115.677 48.2979L97.5041 54.6327Z" fill="#F9B189"/>
<path d="M122.688 89.4165V89.4004C112.395 94.6993 103.057 89.6404 103.057 89.6404L120.653 109.038C121.944 107.244 122.622 105.081 122.587 102.871C122.503 97.7637 122.678 89.8338 122.688 89.4165Z" fill="#E97C63"/>
<path d="M113.241 65.6657C111.65 67.3284 111.685 69.7966 112.247 71.9829C112.389 72.5323 112.554 73.0768 112.731 73.6198C112.908 74.1627 113.138 74.6766 113.201 75.2212C113.317 76.2104 112.156 76.27 111.429 76.2926C110.623 76.3184 110.747 76.7759 111.519 76.9934C112.373 77.227 113.33 77.4026 113.966 76.7115C114.804 75.8028 114.352 74.5929 114.023 73.573C113.253 71.187 112.476 68.4658 113.559 66.0443C113.889 65.3145 113.403 65.4965 113.241 65.6657Z" fill="#DB7C5A"/>
<path d="M118.515 69.2489C118.515 68.5722 118.553 67.9826 117.772 67.8795C117.632 67.874 117.494 67.9088 117.373 67.9796C117.252 68.0504 117.154 68.1543 117.091 68.279C117.069 68.3189 117.055 68.3618 117.047 68.4063C116.939 69.0507 116.823 69.7838 116.947 70.4315C117.055 70.9808 117.662 71.3321 118.146 70.9406C118.578 70.5845 118.51 69.7612 118.515 69.2489Z" fill="#1E1B2E"/>
<path d="M106.726 69.2489C106.726 68.5722 106.744 67.9825 105.962 67.8794C105.825 67.8742 105.69 67.9093 105.572 67.9803C105.455 68.0513 105.361 68.1551 105.302 68.279C105.281 68.3189 105.267 68.3619 105.26 68.4062C105.15 69.0507 105.034 69.7837 105.16 70.4314C105.266 70.9808 105.875 71.332 106.357 70.9405C106.797 70.5845 106.721 69.7612 106.726 69.2489Z" fill="#1E1B2E"/>
<path d="M103.726 65.3776C104.323 65.0941 104.971 64.9326 105.631 64.9024C106.292 64.8723 106.951 64.9741 107.572 65.202C107.981 65.3454 108.157 64.6961 107.751 64.5575C107.043 64.307 106.293 64.1994 105.544 64.2412C104.795 64.283 104.061 64.4732 103.386 64.8008C102.996 64.9861 103.336 65.5645 103.726 65.3808V65.3776Z" fill="#1E1B2E"/>
<path d="M119.928 64.7969C119.253 64.4693 118.519 64.2791 117.77 64.2373C117.021 64.1955 116.271 64.3031 115.563 64.5536C115.157 64.6954 115.333 65.3447 115.742 65.1981C116.363 64.9702 117.022 64.8684 117.683 64.8985C118.343 64.9287 118.991 65.0902 119.588 65.3737C119.978 65.5573 120.318 64.9789 119.928 64.7937V64.7969Z" fill="#1E1B2E"/>
<g opacity="0.5">
<path d="M113.438 81.707C113.181 81.831 112.729 82.0292 112.403 82.1613C112.288 82.2104 112.161 82.2273 112.036 82.2103C111.912 82.1933 111.794 82.1429 111.696 82.0646L110.713 81.2816C110.394 81.0486 110.004 80.9345 109.61 80.9594L106.299 81.2816C109.273 83.5565 113.259 84.0302 115.667 82.556C115.667 82.556 114.984 82.0614 114.562 81.7843C114.398 81.6751 114.207 81.6106 114.01 81.597C113.813 81.5835 113.616 81.6213 113.438 81.707Z" fill="#F0584A"/>
</g>
<path d="M113.551 53.0565C116.261 58.1654 120.696 56.6316 124.587 60.7721C128.997 65.4621 125.971 78.2591 122.122 85.4221C121.384 86.7948 120.145 90.3795 120.914 94.3654C122.562 102.904 112.148 114.208 118.641 116.438C128.444 119.813 126.535 114.169 127.049 110.995C127.159 109.097 129.517 107.061 136.73 107.48L131.879 96.8723C132.161 95.7756 132.269 94.6417 132.201 93.5115L128.28 53.5946L121.212 48.771L113.016 44.9043L96.2156 54.6322L87.8056 92.9412C88.2052 93.8966 82.8692 106.636 85.8723 113.277C87.5269 116.942 95.2312 115.532 94.6577 111.666C94.5433 110.891 91.5966 107.166 94.6577 106.737C109.589 104.804 100.988 88.0337 100.988 88.0337C102.921 79.3547 99.425 73.2598 98.41 70.2471C94.5562 58.7389 105.103 64.8144 113.554 53.0533" fill="#5A3011"/>
<path d="M27.7785 172.189C27.6705 172.392 27.5948 172.53 27.5384 172.629C27.482 172.727 27.4498 172.896 27.3596 173.144C26.9401 174.285 26.6089 175.456 26.3687 176.647C26.343 176.779 26.3252 176.853 26.3107 176.909C26.2962 176.966 26.3107 177.046 26.3027 177.143C26.2769 177.757 26.2721 178.371 26.264 178.984C26.2189 182.35 26.1786 185.716 26.1432 189.085C22.6745 188.857 19.1767 188.998 15.708 188.762C15.7563 181.496 15.8466 173.953 16.0496 171.47C16.491 166.096 17.0678 158.657 28.0991 157.873C31.716 157.615 33.3175 161.509 33.3175 164.773C33.3175 167.803 31.2891 169.954 28.5905 170.823C28.2989 171.261 28.033 171.718 27.7785 172.189Z" fill="#85D0F1"/>
<path d="M75.8046 172.189C75.9126 172.392 75.9883 172.53 76.0447 172.629C76.1011 172.727 76.1333 172.896 76.2235 173.144C76.6432 174.285 76.9744 175.456 77.2144 176.647C77.2401 176.779 77.2579 176.853 77.2724 176.909C77.2869 176.966 77.2724 177.045 77.2804 177.143C77.3062 177.757 77.311 178.369 77.3191 178.983C77.3642 182.35 77.4045 185.717 77.4399 189.085C80.9086 188.857 84.4064 188.996 87.8751 188.762C87.8267 181.495 87.7365 173.953 87.5335 171.47C87.0921 166.096 86.5153 158.657 75.484 157.873C71.8671 157.615 70.2656 161.509 70.2656 164.773C70.2656 167.803 72.294 169.954 74.9926 170.823C75.2842 171.261 75.5614 171.718 75.8046 172.189Z" fill="#85D0F1"/>
<path d="M77.7178 187.772L77.634 158.124L56.949 154.707H45.4715L26.1559 158.089L25.8514 187.772L25.5518 216.835H28.0957H75.4864H77.8016L77.7178 187.772Z" fill="#1F8CC8"/>
<path d="M50.7367 109.192C52.7457 108.666 53.3144 115.741 56.5737 118.604C59.9844 121.604 64.2458 118.797 63.6739 123.302C63.3516 125.789 65.7039 127.945 63.5128 129.282C62.7072 129.765 63.4451 131.043 64.2539 130.548C68.794 127.777 69.4481 121.815 68.1495 117.089C66.8171 112.256 62.8442 108.067 57.9158 106.87C55.2394 106.191 52.4044 106.568 49.9988 107.924C49.1771 108.391 49.9166 109.659 50.7383 109.192H50.7367Z" fill="#2D2D2D"/>
<path d="M54.3812 110.396C51.4136 107.335 46.7478 107.923 43.3322 109.863C39.4398 112.073 36.4608 116.209 36.4318 120.788C36.4125 123.87 37.7562 126.688 39.6686 129.038C40.2647 129.771 41.2974 128.729 40.7061 128.002C39.1885 126.137 42.8924 125.246 42.7506 122.813C42.633 120.784 42.2544 122.329 43.6174 120.836C45.5362 118.732 46.1001 118.742 49.7976 118.477C51.6359 118.344 52.3432 115.398 53.6466 116.742C54.3039 117.422 55.0402 111.074 54.3812 110.396Z" fill="#2D2D2D"/>
<path d="M62.9941 135.141L63.4372 131.627C63.4372 131.627 64.2718 128.218 66.8205 128.547C69.3693 128.875 70.7742 130.894 69.4225 134.186C69.408 134.218 69.3951 134.252 69.3806 134.284C68.5299 136.261 65.8361 136.954 63.9205 135.734L62.9941 135.141Z" fill="#F9B189"/>
<path opacity="0.5" d="M67.0216 129.515C67.7095 129.646 68.2154 130.182 68.5457 130.737C68.8677 131.315 69.0243 131.971 68.9984 132.633C69.0043 132.955 68.941 133.275 68.8129 133.57C68.6848 133.866 68.4948 134.131 68.2557 134.347C68.1396 134.432 67.9967 134.471 67.8536 134.459C67.7104 134.446 67.5768 134.382 67.4775 134.278C67.2729 134.047 67.4099 133.686 67.6225 133.496C67.8916 133.253 67.8867 132.91 67.8948 132.564C67.9068 132.117 67.8078 131.674 67.6064 131.275C67.4034 130.88 67.0554 130.438 66.7058 130.469C66.2611 130.505 66.2225 130.849 65.9196 131.081C65.3718 131.499 64.7096 130.993 65.0576 130.426C65.2486 130.087 65.5408 129.818 65.8932 129.655C66.2455 129.491 66.6401 129.443 67.0216 129.515Z" fill="#F0584A"/>
<path d="M41.0166 121.848C41.0166 121.848 39.1026 127.028 40.9425 134.747C41.1262 135.523 41.6014 143.84 41.6014 143.84L41.8206 156.182C41.9897 160.694 46.3542 164.216 51.5049 163.988C56.472 163.772 60.3515 160.144 60.2742 155.793C60.2033 151.905 60.3515 145.804 60.3515 145.804C60.3515 145.804 63.5609 140.922 64.0716 134.536C64.5823 128.149 65.3975 122.828 65.3975 122.828L55.0993 114.066L41.0166 121.848Z" fill="#F9B189"/>
<path d="M42.5026 135.141L42.0499 131.627C42.0499 131.627 41.2153 128.218 38.6666 128.547C36.1178 128.875 34.7113 130.894 36.0646 134.186C36.0791 134.218 36.0904 134.252 36.1065 134.284C36.9572 136.261 39.6509 136.954 41.5666 135.734L42.5026 135.141Z" fill="#F9B189"/>
<path opacity="0.5" d="M38.4782 129.515C37.7886 129.646 37.2827 130.182 36.954 130.736C36.6315 131.315 36.4744 131.971 36.4997 132.633C36.4947 132.955 36.5583 133.274 36.6864 133.57C36.8145 133.865 37.004 134.13 37.2424 134.347C37.3588 134.432 37.5019 134.471 37.6453 134.459C37.7887 134.446 37.9227 134.382 38.0222 134.278C38.2268 134.047 38.0899 133.686 37.8756 133.496C37.6082 133.253 37.613 132.91 37.6049 132.563C37.5929 132.116 37.692 131.674 37.8933 131.274C38.0947 130.88 38.4443 130.438 38.7939 130.469C39.2386 130.504 39.2773 130.849 39.5785 131.081C40.1263 131.498 40.7885 130.993 40.4421 130.425C40.2504 130.103 39.6253 129.298 38.4782 129.517" fill="#F0584A"/>
<path d="M50.1231 111.105C52.7654 116.583 45.0981 118.318 41.233 119.67C39.8991 120.137 40.8577 122.372 39.485 122.705C38.5667 122.928 39.485 124.856 40.3985 124.639C43.2831 123.955 46.0815 122.949 48.7408 121.639C51.3186 120.35 54.159 118.528 55.1997 115.705C55.7765 114.142 55.6025 111.481 54.3813 110.388C53.6176 109.707 53.1472 110.918 53.5548 111.766L50.1231 111.105Z" fill="#2D2D2D"/>
<path d="M53.8109 115.989C55.2609 121.281 59.1534 126.669 65.1709 126.611C66.1134 126.601 67.4152 118.088 66.4694 118.098C61.127 118.149 58.836 118.42 57.5535 113.761C57.3038 112.852 53.5596 115.075 53.8109 115.989Z" fill="#2D2D2D"/>
<path d="M53.2989 127.953C51.9811 129.331 52.01 131.375 52.4757 133.184C52.5933 133.64 52.7302 134.091 52.872 134.541C53.0138 134.99 53.2087 135.417 53.2619 135.867C53.3569 136.685 52.3967 136.735 51.8006 136.755C51.1352 136.775 51.2367 137.161 51.8747 137.335C52.582 137.528 53.3747 137.673 53.9015 137.103C54.5959 136.349 54.2237 135.346 53.9482 134.502C53.3038 132.525 52.6593 130.271 53.5648 128.267C53.8354 127.663 53.4311 127.814 53.2989 127.953Z" fill="#DB7C5A"/>
<path d="M57.6647 130.92C57.6647 130.36 57.6969 129.871 57.0492 129.793C56.9345 129.788 56.8206 129.815 56.7209 129.872C56.6211 129.929 56.5395 130.013 56.4853 130.115C56.4685 130.149 56.4566 130.185 56.4499 130.223C56.3613 130.754 56.2646 131.362 56.3677 131.898C56.4563 132.354 56.9606 132.644 57.3602 132.32C57.7227 132.027 57.6615 131.344 57.6647 130.92Z" fill="#1E1B2E"/>
<path d="M47.903 130.92C47.903 130.36 47.9175 129.871 47.2698 129.793C47.1574 129.788 47.0461 129.816 46.9491 129.873C46.8522 129.93 46.7739 130.014 46.7237 130.115C46.7061 130.149 46.6942 130.185 46.6882 130.223C46.598 130.754 46.5013 131.362 46.6061 131.898C46.6931 132.354 47.1973 132.644 47.5969 132.32C47.961 132.027 47.8982 131.344 47.903 130.92Z" fill="#1E1B2E"/>
<path d="M45.4723 127.806C45.9548 127.578 46.4779 127.449 47.0109 127.425C47.544 127.402 48.0763 127.485 48.5769 127.67C49.0425 127.831 49.2439 127.093 48.7799 126.931C48.1805 126.72 47.5451 126.63 46.9106 126.666C46.2761 126.703 45.6552 126.865 45.084 127.143C44.6377 127.353 45.0276 128.015 45.4723 127.806Z" fill="#1E1B2E"/>
<path d="M58.8892 127.143C58.3179 126.865 57.697 126.703 57.0626 126.666C56.4281 126.63 55.7927 126.72 55.1933 126.931C54.7293 127.092 54.929 127.835 55.3963 127.67C55.8968 127.485 56.4291 127.402 56.9622 127.425C57.4952 127.449 58.0183 127.578 58.5009 127.806C58.9455 128.015 59.3354 127.353 58.8892 127.143Z" fill="#1E1B2E"/>
<path d="M55.9816 139.597C55.8897 139.362 55.6046 139.262 55.3532 139.275C54.9214 139.304 53.6003 139.815 52.3034 139.815C51.0822 139.815 49.8867 139.302 49.4775 139.275C49.2262 139.259 48.9426 139.359 48.8492 139.597C48.5801 140.274 48.6059 141.624 49.2423 142.32C49.8787 143.016 51.2529 143.234 52.2712 143.259H52.5596C53.5778 143.234 54.9762 142.998 55.5884 142.32C56.2007 141.642 56.2506 140.274 55.9816 139.597Z" fill="white"/>
<path d="M48.7967 139.749C48.7967 139.749 48.6791 140.701 49.8342 141.146L48.6871 140.853C48.6566 140.481 48.6937 140.107 48.7967 139.749Z" fill="#B8C5CC"/>
<path d="M60.371 145.786V145.773C52.2622 149.705 44.9043 145.952 44.9043 145.952L58.7599 160.341C59.7706 159.032 60.3094 157.421 60.2888 155.767C60.226 151.984 60.3629 146.102 60.371 145.786Z" fill="#E97C63"/>
</g>
<defs>
<clipPath id="clip0_682_1322">
<rect width="174" height="174" fill="white"/>
</clipPath>
</defs>
</svg>
