<svg width="174" height="174" viewBox="0 0 174 174" fill="none" xmlns="http://www.w3.org/2000/svg">
<g clip-path="url(#clip0_682_1379)">
<path d="M217.024 -38.9014H-19.7754V199.801H217.024V-38.9014Z" fill="#BDE0F4"/>
<path d="M154.9 142.109L141.747 143.665L141.585 139.013L130.312 138.238L130.545 144.989L121.944 146.006C122.679 134.223 133.662 125.867 148.826 132.213C151.24 133.597 153.528 135.193 155.664 136.984L154.721 136.919L154.9 142.109Z" fill="#1F1F40"/>
<path d="M130.943 156.51L124.246 157.301L124.233 157.276L130.943 156.481V156.51Z" fill="#1F1F40"/>
<path d="M166.897 163.797L170.602 163.358C171.313 166.814 171.808 170.311 172.084 173.83L167.265 174.4L166.897 163.797Z" fill="#1F1F40"/>
<path d="M166.499 152.277L167.066 152.21C167.07 152.218 167.074 152.227 167.078 152.235L166.501 152.303L166.499 152.277Z" fill="#1F1F40"/>
<path d="M156.064 175.724L142.911 177.28L142.544 166.677L155.697 165.121L156.064 175.724Z" fill="#1F1F40"/>
<path d="M131.717 178.605L130.574 178.74C130.299 175.214 129.707 171.72 128.805 168.302L131.35 168.002L131.717 178.605Z" fill="#1F1F40"/>
<path d="M155.298 153.628L142.145 155.184L142.144 155.157L155.298 153.602V153.628Z" fill="#1F1F40"/>
<path d="M155.696 165.121L166.897 163.797L167.264 174.4L156.063 175.724L155.696 165.121Z" fill="#20228C"/>
<path d="M155.298 153.602L166.498 152.277L166.5 152.304L155.298 153.628V153.602Z" fill="#20228C"/>
<path d="M154.899 142.109L154.644 136.146L155.663 136.977C157.305 138.356 158.84 139.86 160.253 141.476L154.899 142.109Z" fill="#20228C"/>
<path d="M142.911 177.281L131.709 178.605L131.342 168.002L142.544 166.678L142.911 177.281Z" fill="#20228C"/>
<path d="M142.144 155.157L142.145 155.184L130.943 156.508V156.481L142.144 155.157Z" fill="#20228C"/>
<path d="M130.312 138.238L141.585 139.014L141.747 143.665L130.545 144.989L130.312 138.238Z" fill="#20228C"/>
<path d="M167.264 174.4L172.083 173.83C172.4 177.638 172.52 181.486 172.55 185.315L167.662 185.892L167.264 174.4Z" fill="#20228C"/>
<path d="M166.501 152.303L167.079 152.234C168.64 155.806 169.821 159.535 170.602 163.358L166.898 163.797L166.501 152.303Z" fill="#1F1F40"/>
<g style="mix-blend-mode:soft-light">
<path d="M166.501 152.303L167.079 152.234C168.64 155.806 169.821 159.535 170.602 163.358L166.898 163.797L166.501 152.303Z" fill="#D2E4F0"/>
</g>
<path d="M155.697 165.122L142.544 166.678L142.146 155.184L155.298 153.628L155.697 165.122Z" fill="#1F1F40"/>
<g style="mix-blend-mode:soft-light">
<path d="M155.697 165.122L142.544 166.678L142.146 155.184L155.298 153.628L155.697 165.122Z" fill="#D2E4F0"/>
</g>
<path d="M124.246 157.3L130.943 156.509L131.342 168.001L128.796 168.301C127.917 165.013 126.653 161.843 125.033 158.856C124.751 158.339 124.489 157.82 124.246 157.3Z" fill="#1F1F40"/>
<g style="mix-blend-mode:soft-light">
<path d="M124.246 157.3L130.943 156.509L131.342 168.001L128.796 168.301C127.917 165.013 126.653 161.843 125.033 158.856C124.751 158.339 124.489 157.82 124.246 157.3Z" fill="#D2E4F0"/>
</g>
<path d="M155.298 153.628L166.5 152.304L166.897 163.798L155.696 165.122L155.298 153.628Z" fill="#20228C"/>
<g style="mix-blend-mode:soft-light">
<path d="M155.298 153.628L166.5 152.304L166.897 163.798L155.696 165.122L155.298 153.628Z" fill="#D2E4F0"/>
</g>
<path d="M142.544 166.677L131.342 168.002L130.943 156.508L142.146 155.184L142.544 166.677Z" fill="#20228C"/>
<g style="mix-blend-mode:soft-light">
<path d="M142.544 166.677L131.342 168.002L130.943 156.508L142.146 155.184L142.544 166.677Z" fill="#D2E4F0"/>
</g>
<path d="M166.451 150.892C166.662 151.329 166.867 151.769 167.065 152.211L166.498 152.277L166.451 150.892Z" fill="#20228C"/>
<path d="M142.144 155.157L141.747 143.665L154.9 142.109L155.298 153.601L142.144 155.157Z" fill="#20228C"/>
<path d="M130.943 156.481L124.235 157.276C122.431 153.417 121.724 149.558 121.945 146.007L130.546 144.989L130.943 156.481Z" fill="#20228C"/>
<path d="M154.899 142.11L160.253 141.477C162.73 144.32 164.816 147.487 166.453 150.892L166.5 152.278L155.3 153.602L154.899 142.11Z" fill="#20228C"/>
<path d="M130.943 156.481L130.545 144.989L141.747 143.665L142.144 155.157L130.943 156.481Z" fill="#20228C"/>
<path d="M23.5387 141.65L36.8549 144.002L37.2986 139.285L48.8401 139.159L48.198 146L56.9067 147.54C56.8649 135.518 46.1692 126.38 30.3247 131.94C27.7805 133.205 25.3514 134.694 23.0654 136.388L24.0329 136.377L23.5387 141.65Z" fill="#1F1F40"/>
<path d="M47.0996 157.692L53.8856 158.892L53.8995 158.866L47.1014 157.666L47.0996 157.692Z" fill="#1F1F40"/>
<path d="M10.0032 162.989L6.25348 162.326C5.32067 165.796 4.60585 169.322 4.11328 172.883L8.98529 173.745L10.0032 162.989Z" fill="#1F1F40"/>
<path d="M11.101 151.304L10.5268 151.202L10.5146 151.227L11.0975 151.33L11.101 151.304Z" fill="#1F1F40"/>
<path d="M20.335 175.748L33.6529 178.102L34.6621 167.345L21.3442 164.991L20.335 175.748Z" fill="#1F1F40"/>
<path d="M44.9941 180.108L46.1495 180.311C46.643 176.742 47.4584 173.226 48.5855 169.807L46.0086 169.351L44.9941 180.108Z" fill="#1F1F40"/>
<path d="M22.4404 153.335L35.7584 155.689L35.7601 155.66L22.4422 153.307L22.4404 153.335Z" fill="#1F1F40"/>
<path d="M21.3444 164.992L10.0031 162.989L8.99219 173.745L20.3352 175.749L21.3444 164.992Z" fill="#20228C"/>
<path d="M22.4424 153.307L11.1011 151.304L11.0977 151.33L22.4407 153.335L22.4424 153.307Z" fill="#20228C"/>
<path d="M23.5383 141.649L24.156 135.608L23.065 136.394C21.3104 137.698 19.6567 139.135 18.1182 140.691L23.5383 141.649Z" fill="#20228C"/>
<path d="M33.6533 178.103L44.9946 180.108L46.0038 169.35L34.6625 167.346L33.6533 178.103Z" fill="#20228C"/>
<path d="M35.7605 155.66L35.7588 155.688L47.1001 157.691L47.1019 157.665L35.7605 155.66Z" fill="#20228C"/>
<path d="M48.8396 139.159L37.2982 139.285L36.8545 144.002L48.1976 146.007L48.8396 139.159Z" fill="#20228C"/>
<path d="M8.99211 173.744L4.12011 172.883C3.56853 176.742 3.21531 180.639 2.95605 184.529L7.90461 185.406L8.99211 173.744Z" fill="#20228C"/>
<path d="M20.335 175.749L8.99192 173.744L7.89746 185.403L19.2388 187.408L20.335 175.749Z" fill="#20228C"/>
<path d="M11.0971 151.33L10.5142 151.227C8.70716 154.763 7.2787 158.484 6.25293 162.326L10.0026 162.989L11.0971 151.33Z" fill="#1F1F40"/>
<g style="mix-blend-mode:soft-light">
<path d="M11.0971 151.33L10.5142 151.227C8.70716 154.763 7.2787 158.484 6.25293 162.326L10.0026 162.989L11.0971 151.33Z" fill="#D2E4F0"/>
</g>
<path d="M21.3447 164.992L34.6627 167.346L35.7589 155.689L22.4409 153.335L21.3447 164.992Z" fill="#1F1F40"/>
<g style="mix-blend-mode:soft-light">
<path d="M21.3447 164.992L34.6627 167.346L35.7589 155.689L22.4409 153.335L21.3447 164.992Z" fill="#D2E4F0"/>
</g>
<path d="M53.8824 158.892L47.0964 157.692L46.002 169.351L48.5789 169.807C49.6728 166.515 51.1511 163.367 52.9828 160.427C53.3042 159.917 53.604 159.405 53.8824 158.892Z" fill="#1F1F40"/>
<g style="mix-blend-mode:soft-light">
<path d="M53.8824 158.892L47.0964 157.692L46.002 169.351L48.5789 169.807C49.6728 166.515 51.1511 163.367 52.9828 160.427C53.3042 159.917 53.604 159.405 53.8824 158.892Z" fill="#D2E4F0"/>
</g>
<path d="M22.4404 153.335L11.0974 151.33L10.0029 162.989L21.3442 164.992L22.4404 153.335Z" fill="#20228C"/>
<g style="mix-blend-mode:soft-light">
<path d="M22.4404 153.335L11.0974 151.33L10.0029 162.989L21.3442 164.992L22.4404 153.335Z" fill="#D2E4F0"/>
</g>
<path d="M34.6621 167.345L46.0034 169.35L47.0996 157.692L35.7583 155.688L34.6621 167.345Z" fill="#20228C"/>
<g style="mix-blend-mode:soft-light">
<path d="M34.6621 167.345L46.0034 169.35L47.0996 157.692L35.7583 155.688L34.6621 167.345Z" fill="#D2E4F0"/>
</g>
<path d="M11.2328 149.898C10.9909 150.328 10.7543 150.763 10.5264 151.202L11.1006 151.303L11.2328 149.898Z" fill="#20228C"/>
<path d="M35.7604 155.66L36.8548 144.001L23.5386 141.649L22.4424 153.306L35.7604 155.66Z" fill="#20228C"/>
<path d="M47.1016 157.665L53.8963 158.864C55.9669 155.044 56.9186 151.164 56.9065 147.546L48.1978 146.006L47.1016 157.665Z" fill="#20228C"/>
<path d="M23.5381 141.65L18.118 140.692C15.4223 143.435 13.1063 146.532 11.2328 149.899L11.1006 151.302L22.4454 153.307L23.5381 141.65Z" fill="#20228C"/>
<path d="M47.1011 157.665L48.1973 146.007L36.8542 144.002L35.7598 155.661L47.1011 157.665Z" fill="#20228C"/>
<path d="M99.8257 117.031C99.8257 117.031 100.282 128.06 88.5905 128.06C76.8994 128.06 74.4217 118.394 74.4217 118.394L74.2981 101.992C70.9834 101.992 64.9265 95.2553 63.7259 89.3531C62.6262 83.9369 63.2039 73.0639 63.5989 60.302C63.7951 54.0323 66.404 48.0857 70.8735 43.7212C75.3429 39.3566 81.322 36.9167 87.5447 36.918H87.67C93.9483 36.9173 99.976 39.4006 104.457 43.8337C108.937 48.2667 111.513 54.2954 111.63 60.623C111.853 72.5886 112.173 82.0706 111.217 89.3531C110.454 95.1658 103.45 102.711 99.8257 102.171V117.031Z" fill="#E6B699"/>
<path d="M117.102 53.1894C117.102 34.5534 97.1634 27.7813 97.1634 27.7813C97.1634 27.7813 96.798 25.6625 95.5052 24.3926C94.4211 23.3262 89.7492 22.8579 87.3272 22.7351V22.6982L86.9478 22.7158L86.5685 22.6982V22.7351C84.1447 22.8579 79.4745 23.3262 78.3905 24.3926C77.0977 25.6625 76.7323 27.7813 76.7323 27.7813C76.7323 27.7813 56.7953 36.2495 56.7953 53.1894C56.7953 65.4672 55.6504 71.8973 55.6504 71.8973L63.5952 72.534V63.2151C63.5952 63.2151 68.3089 54.6838 86.5633 55.0749C86.6955 55.0749 86.8104 55.0749 86.9426 55.0749C87.0749 55.0749 87.188 55.0749 87.3219 55.0749C105.576 54.6838 110.29 63.2151 110.29 63.2151V72.534L117.377 71.7745C117.377 71.7745 117.102 65.4637 117.102 53.1894Z" fill="#FDA401"/>
<path d="M142.638 69.7853C142.721 69.7792 142.798 69.7417 142.855 69.6804C142.911 69.619 142.943 69.5384 142.943 69.4546C142.943 69.3709 142.911 69.2903 142.855 69.2289C142.798 69.1676 142.721 69.1301 142.638 69.124C142.555 69.1301 142.478 69.1676 142.421 69.2289C142.364 69.2903 142.333 69.3709 142.333 69.4546C142.333 69.5384 142.364 69.619 142.421 69.6804C142.478 69.7417 142.555 69.7792 142.638 69.7853Z" fill="#D9E9F8"/>
<path d="M146.137 133.774C138.552 126.532 106.55 123.129 106.55 123.129C105.585 120.494 104.763 117.808 104.088 115.082C103.161 111.146 100.589 111.683 100.589 111.683C99.0403 118.122 90.0724 119.911 90.0724 119.911L88.2471 125.613C88.1344 125.966 87.9133 126.275 87.6156 126.494C87.3179 126.712 86.959 126.83 86.5906 126.83C86.222 126.831 85.8627 126.713 85.5647 126.494C85.2666 126.275 85.0452 125.967 84.9324 125.613L83.1072 119.911C83.1072 119.911 75.0875 118.122 73.5371 111.683C73.5371 111.683 70.9637 111.146 70.0363 115.082C69.3616 117.807 68.5402 120.494 67.5759 123.129C67.5759 123.129 35.5738 126.532 27.9891 133.774C20.4045 141.016 27.9891 225.523 27.9891 238.803C27.9891 252.082 28.5946 296.188 28.5946 296.188H145.531C145.531 296.188 146.137 252.082 146.137 238.803C146.137 225.523 153.722 141.02 146.137 133.774Z" fill="#1F1F40"/>
<path d="M45.48 144.02H33.8516V156.464H45.48V144.02Z" fill="#20228C"/>
<path d="M45.48 132.298V126.836C41.2866 127.808 37.1767 128.978 33.8516 130.344V132.293L45.48 132.298Z" fill="#20228C"/>
<g style="mix-blend-mode:soft-light">
<path d="M69.0268 144.02H57.3984V156.464H69.0268V144.02Z" fill="#D2E4F0"/>
</g>
<g style="mix-blend-mode:soft-light">
<path d="M69.0268 132.298V118.792C68.2821 121.248 67.5757 123.133 67.5757 123.133C67.5757 123.133 63.2466 123.594 57.3984 124.536V132.299L69.0268 132.298Z" fill="#D2E4F0"/>
</g>
<path d="M93.2757 118.894C92.239 119.326 91.1672 119.668 90.0723 119.914L87.0639 126.783L83.5299 119.914C82.8897 119.824 82.2589 119.675 81.6455 119.469V132.297H93.2757V118.894Z" fill="#20228C"/>
<path d="M93.2739 144.02H81.6455V156.464H93.2739V144.02Z" fill="#20228C"/>
<g style="mix-blend-mode:soft-light">
<path d="M117.523 132.297V124.664C111.276 123.636 106.551 123.133 106.551 123.133C106.551 123.133 106.279 122.403 105.895 121.267V132.297H117.523Z" fill="#D2E4F0"/>
</g>
<g style="mix-blend-mode:soft-light">
<path d="M117.523 144.02H105.895V156.464H117.523V144.02Z" fill="#D2E4F0"/>
</g>
<path d="M141.772 144.02H130.144V156.464H141.772V144.02Z" fill="#20228C"/>
<path d="M141.772 132.297V131.006C138.596 129.519 134.464 128.249 130.144 127.191V132.297H141.772Z" fill="#20228C"/>
<g style="mix-blend-mode:soft-light">
<path d="M130.141 132.298H117.522V144.02H130.141V132.298Z" fill="#D2E4F0"/>
</g>
<g style="mix-blend-mode:soft-light">
<path d="M96.9538 132.298H93.2754V134.418V144.02H105.894V132.298H96.9538Z" fill="#D2E4F0"/>
</g>
<g style="mix-blend-mode:soft-light">
<path d="M141.771 144.02H148.86C148.338 138.742 147.477 135.053 146.137 133.775C145.536 133.217 144.88 132.722 144.18 132.298H141.771V144.02Z" fill="#D2E4F0"/>
</g>
<g style="mix-blend-mode:soft-light">
<path d="M33.8517 132.298H29.9472C29.2471 132.723 28.5913 133.217 27.9897 133.775C26.6516 135.057 25.7851 138.74 25.2666 144.02H33.8517V132.298Z" fill="#D2E4F0"/>
</g>
<g style="mix-blend-mode:soft-light">
<path d="M76.4119 132.298H69.0273V144.02H81.6458V134.952V132.298H76.4119Z" fill="#D2E4F0"/>
</g>
<g style="mix-blend-mode:soft-light">
<path d="M57.3968 132.298H45.4795V144.02H57.3968V132.298Z" fill="#D2E4F0"/>
</g>
<path d="M45.48 132.298H33.8516V144.02H45.48V132.298Z" fill="#20228C"/>
<g style="mix-blend-mode:soft-light">
<path d="M45.48 132.298H33.8516V144.02H45.48V132.298Z" fill="#D2E4F0"/>
</g>
<g style="mix-blend-mode:soft-light">
<path d="M69.0268 132.298H57.3984V144.02H69.0268V132.298Z" fill="#D2E4F0"/>
</g>
<g style="mix-blend-mode:soft-light">
<path d="M69.0268 132.298H57.3984V144.02H69.0268V132.298Z" fill="#D2E4F0"/>
</g>
<path d="M86.8986 135.758C89.0925 135.757 91.2629 135.302 93.2757 134.422V132.298H81.6455V134.952C83.3455 135.489 85.117 135.761 86.8986 135.758Z" fill="#20228C"/>
<path d="M93.2757 134.418C91.2632 135.299 89.0928 135.755 86.8986 135.758C85.1172 135.762 83.3457 135.491 81.6455 134.955V144.023H93.2757V134.418Z" fill="#20228C"/>
<g style="mix-blend-mode:soft-light">
<path d="M81.6455 132.298V134.952V144.02H93.2757V134.418V132.298H81.6455Z" fill="#D2E4F0"/>
</g>
<g style="mix-blend-mode:soft-light">
<path d="M117.523 132.298H105.895V144.02H117.523V132.298Z" fill="#D2E4F0"/>
</g>
<g style="mix-blend-mode:soft-light">
<path d="M117.523 132.298H105.895V144.02H117.523V132.298Z" fill="#D2E4F0"/>
</g>
<path d="M141.772 132.298H130.144V144.02H141.772V132.298Z" fill="#20228C"/>
<g style="mix-blend-mode:soft-light">
<path d="M141.772 132.298H130.144V144.02H141.772V132.298Z" fill="#D2E4F0"/>
</g>
<g style="mix-blend-mode:soft-light">
<path d="M141.771 168.188V179.909H149.137C149.276 175.919 149.386 171.981 149.448 168.188H141.771Z" fill="#D2E4F0"/>
</g>
<g style="mix-blend-mode:soft-light">
<path d="M81.6458 168.188H69.0273V179.909H81.6458V168.188Z" fill="#D2E4F0"/>
</g>
<g style="mix-blend-mode:soft-light">
<path d="M33.8512 168.188H24.6797C24.7423 171.981 24.8537 175.919 24.9911 179.909H33.8512V168.188Z" fill="#D2E4F0"/>
</g>
<g style="mix-blend-mode:soft-light">
<path d="M105.894 168.188H93.2754V179.909H105.894V168.188Z" fill="#D2E4F0"/>
</g>
<g style="mix-blend-mode:soft-light">
<path d="M57.3968 168.188H45.4795V179.909H57.3968V168.188Z" fill="#D2E4F0"/>
</g>
<g style="mix-blend-mode:soft-light">
<path d="M130.141 168.188H117.522V179.909H130.141V168.188Z" fill="#D2E4F0"/>
</g>
<path d="M45.48 168.188H33.8516V179.909H45.48V168.188Z" fill="#20228C"/>
<g style="mix-blend-mode:soft-light">
<path d="M45.48 168.188H33.8516V179.909H45.48V168.188Z" fill="#D2E4F0"/>
</g>
<g style="mix-blend-mode:soft-light">
<path d="M69.0268 168.188H57.3984V179.909H69.0268V168.188Z" fill="#D2E4F0"/>
</g>
<g style="mix-blend-mode:soft-light">
<path d="M69.0268 168.188H57.3984V179.909H69.0268V168.188Z" fill="#D2E4F0"/>
</g>
<path d="M93.2739 168.188H81.6455V179.909H93.2739V168.188Z" fill="#20228C"/>
<g style="mix-blend-mode:soft-light">
<path d="M93.2739 168.188H81.6455V179.909H93.2739V168.188Z" fill="#D2E4F0"/>
</g>
<g style="mix-blend-mode:soft-light">
<path d="M117.523 168.188H105.895V179.909H117.523V168.188Z" fill="#D2E4F0"/>
</g>
<g style="mix-blend-mode:soft-light">
<path d="M117.523 168.188H105.895V179.909H117.523V168.188Z" fill="#D2E4F0"/>
</g>
<path d="M141.772 168.188H130.144V179.909H141.772V168.188Z" fill="#20228C"/>
<g style="mix-blend-mode:soft-light">
<path d="M141.772 168.188H130.144V179.909H141.772V168.188Z" fill="#D2E4F0"/>
</g>
<path d="M24.6794 168.187H33.8509V156.464H24.655C24.5976 160.126 24.6115 164.073 24.6794 168.187Z" fill="#20228C"/>
<path d="M141.771 168.187H149.448C149.516 164.073 149.53 160.119 149.471 156.464H141.771V168.187Z" fill="#20228C"/>
<path d="M57.3968 156.464H45.4795V168.186H57.3968V156.464Z" fill="#20228C"/>
<path d="M130.141 156.464H117.522V168.186H130.141V156.464Z" fill="#20228C"/>
<path d="M81.6458 156.464H69.0273V168.186H81.6458V156.464Z" fill="#20228C"/>
<path d="M105.894 156.464H93.2754V168.186H105.894V156.464Z" fill="#20228C"/>
<path d="M45.48 156.464H33.8516V168.186H45.48V156.464Z" fill="#20228C"/>
<path d="M69.0268 156.464H57.3984V168.186H69.0268V156.464Z" fill="#20228C"/>
<path d="M93.2739 156.464H81.6455V168.186H93.2739V156.464Z" fill="#20228C"/>
<path d="M117.523 156.464H105.895V168.186H117.523V156.464Z" fill="#20228C"/>
<path d="M141.772 156.464H130.144V168.186H141.772V156.464Z" fill="#20228C"/>
<path d="M90.0723 119.914L93.2756 132.298C102.311 130.566 106.55 123.129 106.55 123.129C106.55 123.129 104.909 117.831 104.499 116.199C104.088 114.568 103.742 111.262 100.589 111.553C100.589 111.553 97.7874 117.387 90.0723 119.914Z" fill="#20228C"/>
<path d="M83.5301 119.914L81.6457 132.841C72.6186 131.11 67.583 123.129 67.583 123.129C67.583 123.129 69.2256 117.83 69.6345 116.199C70.0434 114.568 70.3914 111.258 73.546 111.549C73.546 111.553 75.8219 117.387 83.5301 119.914Z" fill="#20228C"/>
<path d="M87.0639 130.697C87.6828 130.697 88.1845 130.191 88.1845 129.567C88.1845 128.943 87.6828 128.438 87.0639 128.438C86.4451 128.438 85.9434 128.943 85.9434 129.567C85.9434 130.191 86.4451 130.697 87.0639 130.697Z" fill="#D2E4F0"/>
<path d="M87.0645 126.783C87.0645 126.783 88.5643 124.518 90.0729 126.783L91.5797 129.045L93.2762 132.297L90.0729 119.914L87.0645 126.783Z" fill="#0A0819"/>
<path d="M83.5297 119.914L87.0637 126.783C87.0637 126.783 85.7917 125.425 84.4276 126.463C83.0634 127.502 81.6436 132.841 81.6436 132.841L83.5297 119.914Z" fill="#0A0819"/>
<path d="M97.109 106.3C98.4418 106.3 98.4436 104.211 97.109 104.211C95.7744 104.211 95.7727 106.3 97.109 106.3Z" fill="#E6B699"/>
<path d="M74.2979 101.992C82.5815 104.35 91.3405 104.427 99.6636 102.215L99.8376 102.171V105.865L93.9459 109.317C92.421 110.228 90.721 110.801 88.9591 110.999C87.4907 111.153 86.0098 111.138 84.5447 110.955C83.1199 110.764 81.738 110.329 80.4592 109.668L74.2979 106.547V101.992Z" fill="#DB7C5A"/>
<g style="mix-blend-mode:multiply">
<path d="M110.226 63.4551C110.226 63.4551 112.067 66.5351 112.082 68.4083L110.297 69.3029L110.226 63.4551Z" fill="#D9E9F8"/>
</g>
<g style="mix-blend-mode:multiply">
<path d="M63.672 63.4551C63.672 63.4551 61.8311 66.5351 61.8154 68.4048L63.6007 69.2993L63.672 63.4551Z" fill="#D9E9F8"/>
</g>
<path d="M111.864 56.4674L113.717 68.0911L115.871 67.9806L113.75 46.7539L111.864 56.4674Z" fill="#1E1B2E"/>
<path d="M62.0379 56.4674L60.1865 68.091L58.2412 68.6488L60.2735 47.373L62.0379 56.4674Z" fill="#1E1B2E"/>
<path d="M109.598 82.4646C108.832 70.6147 108.044 73.8876 109.076 71.0094C109.974 68.5205 112.78 67.9557 115.862 67.9802C118.943 68.0048 122.67 70.8147 122.557 74.5612C122.467 77.6026 121.444 80.7229 118.794 82.2892C116.144 83.8555 112.742 83.9046 109.874 82.7803" fill="#E6B699"/>
<path d="M112.934 79.6743C113.049 79.4551 113.994 79.9041 115.349 79.4498C116.722 79.085 118.095 77.4941 118.149 75.3034C118.198 74.2212 117.933 73.2319 117.385 72.7654C116.825 72.2673 115.946 72.1462 115.247 72.2059C113.796 72.3637 112.783 72.7777 112.687 72.5339C112.626 72.376 113.319 71.6235 115.048 71.0886C115.91 70.8763 117.163 70.7922 118.33 71.6235C119.492 72.5163 119.83 74.0405 119.769 75.363C119.735 76.6876 119.26 77.9622 118.421 78.9815C117.705 79.8388 116.702 80.4007 115.602 80.5601C113.688 80.8039 112.778 79.8023 112.934 79.6831" fill="#DB7C5A"/>
<path d="M65.831 82.4646C66.5949 70.6147 67.3848 73.8876 66.353 71.0094C65.4569 68.5205 62.6503 67.9557 59.567 67.9802C56.4837 68.0048 52.781 70.8147 52.8819 74.5612C52.9724 77.6026 53.9955 80.7229 56.6455 82.2892C59.2955 83.8555 62.699 83.9046 65.5648 82.7803" fill="#E6B699"/>
<path d="M62.4919 79.6743C62.3788 79.4551 61.4322 79.9041 60.0768 79.4498C58.7039 79.085 57.3311 77.4941 57.2771 75.3034C57.2284 74.2212 57.4946 73.2319 58.0427 72.7654C58.6013 72.2673 59.4817 72.1462 60.1794 72.2059C61.6306 72.3637 62.6433 72.7777 62.739 72.5339C62.7999 72.376 62.1074 71.6235 60.3778 71.0886C59.5182 70.8763 58.2655 70.7922 57.0962 71.6235C55.9339 72.5163 55.5963 74.0405 55.6572 75.363C55.6917 76.6874 56.1666 77.9618 57.0057 78.9815C57.721 79.8388 58.7244 80.4007 59.8245 80.5601C61.7385 80.8039 62.6485 79.8023 62.4919 79.6831" fill="#DB7C5A"/>
<path d="M76.7334 27.7813C76.7334 27.7813 77.5216 31.519 78.3359 34.485C78.3359 34.485 79.8863 26.5745 78.3916 24.3926C78.3881 24.3926 77.0675 25.1064 76.7334 27.7813Z" fill="#DC8023"/>
<path d="M97.147 27.7813C97.147 27.7813 96.2944 31.2103 95.5445 34.485C95.5445 34.485 93.9924 26.5745 95.4888 24.3926C95.4888 24.3926 96.8095 25.1064 97.147 27.7813Z" fill="#DC8023"/>
<g style="mix-blend-mode:color-dodge" opacity="0.49">
<path d="M59.1963 46.7544C59.1963 46.7544 64.4389 33.6925 77.2558 30.1004L76.8869 28.4814C76.8869 28.4814 64.1762 33.0874 59.1963 46.7544Z" fill="#FDA401"/>
</g>
<g style="mix-blend-mode:color-dodge" opacity="0.25">
<path d="M93.9163 26.059C93.9163 26.059 92.8532 23.8507 87.0799 23.7244C81.3066 23.5981 80.2139 26.059 80.2139 26.059C80.9295 25.7793 81.6661 25.5576 82.4167 25.396C82.2993 25.6707 82.2569 25.9721 82.2941 26.2688C82.3313 26.5656 82.4467 26.8469 82.6282 27.0836C82.8097 27.3202 83.0508 27.5035 83.3263 27.6145C83.6019 27.7254 83.9019 27.76 84.1952 27.7145C84.4885 27.669 84.7644 27.5453 84.9942 27.356C85.224 27.1667 85.3993 26.9188 85.5019 26.6382C85.6045 26.3575 85.6307 26.0542 85.5777 25.7599C85.5248 25.4656 85.3946 25.1909 85.2007 24.9645C85.7523 24.9171 86.3369 24.8891 86.9529 24.8891C89.3226 24.8836 91.6765 25.279 93.9163 26.059Z" fill="#FDA401"/>
</g>
<g style="mix-blend-mode:color-dodge" opacity="0.49">
<path d="M79.5176 32.9535C79.5176 32.9535 80.1248 29.7069 81.2576 29.4456C82.3903 29.1842 92.8147 28.4932 93.6116 29.4456C94.4085 30.398 94.6556 32.9535 94.6556 32.9535H79.5176Z" fill="#FDA401"/>
</g>
<path d="M113.895 48.1649C113.895 48.1649 114.723 45.2305 107.735 38.7285C100.747 32.2265 92.4562 32.7 87.0796 32.7C81.703 32.7 73.3892 32.2493 66.4257 38.7285C59.4361 45.2305 60.2661 48.1649 60.2661 48.1649L59.6223 53.1076C59.5528 53.6295 59.5987 54.1605 59.7569 54.6624C59.9151 55.1642 60.1817 55.6245 60.5373 56.0102C60.893 56.3959 61.329 56.6974 61.814 56.8931C62.299 57.0887 62.821 57.1737 63.3425 57.1418C69.8936 56.7296 81.8265 55.6421 83.4238 53.1374C83.5839 52.8866 83.871 52.6586 83.871 52.3534C83.871 46.7933 90.2882 46.7933 90.2882 52.3534C90.2882 52.6586 90.5752 52.8796 90.7353 53.1374C92.3326 55.6421 104.267 56.7296 110.817 57.1418C113.039 57.2821 114.61 55.2913 114.319 53.0673L113.895 48.1649Z" fill="#1E1B2E"/>
<g style="mix-blend-mode:soft-light">
<path d="M110.937 55.1768C97.7702 54.3489 93.0531 52.8072 92.3414 52.0197C92.3118 51.9741 92.2718 51.9127 92.2213 51.8443C92.0195 48.1399 89.5348 46.2052 87.0814 46.2052C84.628 46.2052 82.1398 48.1346 81.9379 51.846C81.8788 51.9232 81.83 51.9934 81.7865 52.0618C81.1079 52.7967 76.3925 54.3419 63.2225 55.1663H63.212C62.975 55.1768 62.7387 55.1348 62.5195 55.0433C62.3004 54.9518 62.1038 54.8129 61.9436 54.6366C61.7923 54.4645 61.6798 54.2614 61.6137 54.0413C61.5476 53.8212 61.5296 53.5893 61.5608 53.3615L62.2568 48.0188L62.1924 47.7908C62.2202 47.4032 62.6065 44.9581 67.7604 40.1698C73.231 35.0832 79.528 34.6553 85.0021 34.6553H87.0901H89.1781C94.6504 34.6553 100.947 35.0815 106.418 40.1698C111.565 44.9581 111.951 47.4032 111.986 47.7908L111.922 48.0188L112.618 53.3615C112.649 53.5893 112.631 53.8212 112.565 54.0413C112.499 54.2614 112.386 54.4645 112.235 54.6366C112.088 54.8076 111.906 54.9447 111.701 55.0385C111.497 55.1323 111.275 55.1807 111.05 55.1803L110.937 55.1768Z" fill="#D9E9F8"/>
</g>
<g style="mix-blend-mode:soft-light">
<path d="M109.009 55.1783C97.0897 54.4276 92.8267 53.0315 92.1759 52.3264C92.1498 52.2843 92.1133 52.2299 92.0681 52.1703C91.8941 48.8167 89.632 47.0662 87.4153 47.0662C85.1985 47.0662 82.9435 48.8202 82.7608 52.1703C82.7068 52.2422 82.6616 52.3036 82.6216 52.3667C82.0074 53.0315 77.7374 54.4276 65.8201 55.1731H65.8097C65.593 55.1824 65.3769 55.1433 65.1769 55.0587C64.9769 54.9741 64.7978 54.8461 64.6526 54.6837C64.5161 54.5276 64.4144 54.3438 64.3544 54.1447C64.2944 53.9456 64.2774 53.7359 64.3046 53.5296L64.9362 48.6921L64.877 48.4869C64.9031 48.1361 65.2529 45.9226 69.9109 41.5885C74.8629 36.9826 80.5632 36.5967 85.5169 36.5967H87.4135H89.3084C94.2622 36.5967 99.9624 36.9826 104.914 41.5885C109.572 45.9226 109.922 48.1344 109.948 48.4869L109.889 48.6921L110.519 53.5296C110.547 53.7359 110.53 53.9457 110.47 54.1449C110.41 54.344 110.308 54.5278 110.171 54.6837C110.038 54.8384 109.873 54.9623 109.688 55.047C109.503 55.1318 109.302 55.1754 109.099 55.1748L109.009 55.1783Z" fill="#D9E9F8"/>
</g>
<mask id="mask0_682_1379" style="mask-type:alpha" maskUnits="userSpaceOnUse" x="61" y="34" width="52" height="22">
<g style="mix-blend-mode:soft-light">
<path d="M110.937 55.1768C97.7702 54.3489 93.0531 52.8072 92.3414 52.0197C92.3118 51.9741 92.2718 51.9127 92.2213 51.8443C92.0195 48.1399 89.5348 46.2052 87.0814 46.2052C84.628 46.2052 82.1398 48.1346 81.9379 51.846C81.8788 51.9232 81.83 51.9934 81.7865 52.0618C81.1079 52.7967 76.3925 54.3419 63.2225 55.1663H63.212C62.975 55.1768 62.7387 55.1348 62.5195 55.0433C62.3004 54.9518 62.1038 54.8129 61.9436 54.6366C61.7923 54.4645 61.6798 54.2614 61.6137 54.0413C61.5476 53.8212 61.5296 53.5893 61.5608 53.3615L62.2568 48.0188L62.1924 47.7908C62.2202 47.4032 62.6065 44.9581 67.7604 40.1698C73.231 35.0832 79.528 34.6553 85.0021 34.6553H87.0901H89.1781C94.6504 34.6553 100.947 35.0815 106.418 40.1698C111.565 44.9581 111.951 47.4032 111.986 47.7908L111.922 48.0188L112.618 53.3615C112.649 53.5893 112.631 53.8212 112.565 54.0413C112.499 54.2614 112.386 54.4645 112.235 54.6366C112.088 54.8076 111.906 54.9447 111.701 55.0385C111.497 55.1323 111.275 55.1807 111.05 55.1803L110.937 55.1768Z" fill="#D9E9F8"/>
</g>
</mask>
<g mask="url(#mask0_682_1379)">
<g style="mix-blend-mode:hard-light" opacity="0.79">
<path d="M58.6445 67.581L83.5596 26.2503L99.5101 26.2188L71.0142 67.0092L58.6445 67.581Z" fill="#D9E9F8"/>
</g>
<g style="mix-blend-mode:hard-light" opacity="0.79">
<path d="M77.7285 67.581L102.644 26.2503L109.485 26.2188L80.991 67.0092L77.7285 67.581Z" fill="#D9E9F8"/>
</g>
</g>
<g style="mix-blend-mode:multiply">
<path d="M60.6416 68.0214C60.6416 68.0214 63.5196 56.4013 68.9449 52.532C74.3702 48.6627 86.4215 48.9819 86.4215 48.9819C86.4215 48.9819 101.01 48.1383 105.452 52.532C109.894 56.9257 112.683 68.1722 112.683 68.1722C112.683 68.1722 108.958 57.8132 103.287 56.4679C97.6167 55.1226 75.0819 53.1056 69.7401 56.1312C64.3983 59.1568 60.6416 68.0214 60.6416 68.0214Z" fill="#D9E9F8"/>
</g>
<path d="M61.9294 68.091C62.0373 67.072 63.4554 56.4937 76.1626 55.3729C89.5136 54.196 100.209 53.619 104.96 57.1427C109.56 60.563 112.121 65.4794 112.094 68.1577L113.252 68.0209C113.007 66.0249 110.347 57.7461 103.806 54.1785C96.2839 50.0759 77.612 50.0759 70.09 54.1785C63.5494 57.7461 60.8906 66.0249 60.6436 68.0209L61.9242 68.1717V68.1595C61.9242 68.1437 61.9259 68.1191 61.9294 68.091Z" fill="#FDA401"/>
<path d="M104.96 57.1429C100.209 53.6121 90.7665 53.2841 77.4137 54.4645C64.7117 55.5853 62.0374 67.0721 61.9277 68.0912C62.0165 67.3212 62.9265 62.4504 67.2521 59.9159C74.2121 55.8362 99.677 55.8362 106.637 59.9159C111.151 62.5609 111.948 67.7527 111.968 68.1719L112.09 68.1578C112.122 65.4795 109.56 60.5631 104.96 57.1429Z" fill="#DC8023"/>
<path d="M51.4397 181.526C51.8921 157.146 47.9789 134.548 46.2615 125.902C42.1551 127.027 37.8834 128.477 33.8518 130.349C33.8518 130.349 39.9418 169.51 34.1285 189.283C28.3151 209.055 26.375 208.489 26.375 208.489C26.375 208.489 26.4498 218.083 26.4498 228.942C30.9408 229.764 38.5916 231.082 47.8519 232.318C49.7224 211.818 51.2362 192.464 51.4397 181.526Z" fill="#FDA401"/>
<path d="M124.662 181.527C124.864 192.47 126.381 211.841 128.26 232.357C136.449 231.229 143.572 230.012 148.521 229.103C148.521 218.179 148.598 208.492 148.598 208.492C148.598 208.492 146.657 209.062 140.842 189.286C135.027 169.51 141.121 130.352 141.121 130.352C137.451 128.679 133.66 127.293 129.779 126.206C128.034 135.057 124.215 157.422 124.662 181.527Z" fill="#FDA401"/>
<path d="M66.0313 190.658C65.5232 200.655 64.2913 216.764 62.8331 234.065C70.3152 234.788 78.2095 235.323 85.9439 235.458C94.7291 235.612 104.214 235.04 113.276 234.146C111.821 216.815 110.579 200.675 110.069 190.658C108.687 163.483 114.482 131.373 116.058 123.228C110.708 122.394 107.09 122.188 107.09 122.188C103.84 146.798 87.4611 159.261 87.4611 159.261C87.4611 159.261 71.133 146.808 67.8757 122.189C67.8757 122.189 64.7437 122.365 60.0039 123.066C61.5403 130.933 67.4233 163.296 66.0313 190.658Z" fill="#FDA401"/>
<path d="M128.26 232.356C126.381 211.835 124.864 192.469 124.662 181.526C124.215 157.421 128.034 135.056 129.779 126.202C125.272 124.928 120.692 123.933 116.064 123.22C114.481 131.368 108.687 163.476 110.068 190.641C110.578 200.658 111.821 216.799 113.275 234.13C104.212 235.024 94.7286 235.596 85.9434 235.442C78.2091 235.307 70.3147 234.772 62.8327 234.049C64.2839 216.748 65.5228 200.643 66.0308 190.641C67.4228 163.29 61.5399 130.926 60.0035 123.054C55.3696 123.725 50.7795 124.674 46.2575 125.895C47.9749 134.541 51.8881 157.139 51.4357 181.519C51.2321 192.457 49.7183 211.81 47.8391 232.314C38.5876 231.086 30.9368 229.76 26.4459 228.938C26.4459 232.847 26.4459 236.922 26.4111 240.772C30.6427 241.649 37.7646 243.015 46.7134 244.29C45.9495 252.246 45.1595 260.166 44.3957 267.632C35.901 266.429 29.0837 265.221 25.3114 264.517C24.8955 267.978 24.3561 271.937 23.7715 275.999C26.7852 276.664 33.7434 278.116 43.1603 279.556C41.8014 292.518 40.6477 303.029 40.0666 308.274C44.8011 308.7 50.1881 309.023 56.0746 309.105C56.5966 303.684 57.5309 293.689 58.6411 281.568C67.0174 282.467 76.3125 283.146 85.9469 283.301C96.6722 283.476 107.577 282.774 117.481 281.722C118.584 293.754 119.518 303.675 120.03 309.084C125.936 308.97 131.321 308.618 136.022 308.169C135.439 302.917 134.301 292.542 132.96 279.754C140.853 278.581 147.282 277.372 151.282 276.565C150.675 272.356 150.111 268.25 149.678 264.665C145.375 265.466 139.078 266.569 131.705 267.646C130.948 260.234 130.164 252.387 129.405 244.478C137.235 243.389 143.896 242.212 148.564 241.321C148.535 237.362 148.524 233.146 148.524 229.097C143.574 230.011 136.449 231.229 128.26 232.356ZM85.9434 271.24C77.132 271.086 68.1136 270.412 59.732 269.535C60.4106 262.013 61.124 254.057 61.8044 246.113C69.3316 246.848 77.5079 247.388 85.9434 247.516C95.536 247.667 105.273 247.121 114.305 246.262C114.991 254.179 115.697 262.109 116.371 269.604C106.397 270.681 95.7361 271.41 85.9434 271.24Z" fill="#D2E4F0"/>
<path d="M86.3508 302.879H88.5693L88.5693 158.454H86.3508L86.3508 302.879Z" fill="#DC8023"/>
<path d="M90.1957 63.4561C87.5614 66.2308 87.6188 70.3474 88.5497 73.994C88.7846 74.913 89.0577 75.8216 89.3431 76.7249C89.6163 77.5914 90.0165 78.4912 90.1226 79.398C90.3123 81.0485 88.3826 81.1519 87.2012 81.1853C85.8718 81.2274 86.0737 82.0044 87.3491 82.3552C88.7637 82.7446 90.3471 83.0375 91.3998 81.8851C92.7918 80.3697 92.0366 78.3491 91.4938 76.6495C90.2201 72.6662 88.936 68.1269 90.7282 64.0875C91.2676 62.8702 90.4619 63.1754 90.1957 63.4561Z" fill="#DB7C5A"/>
<path d="M96.0334 85.8411C95.8299 85.3149 95.2017 85.0992 94.6501 85.1395C93.7001 85.2026 90.7908 86.3375 87.939 86.3357C85.2489 86.3357 82.6111 85.1991 81.7167 85.1395C81.1634 85.1027 80.537 85.3272 80.3247 85.8411C79.7331 87.346 79.7905 90.3418 81.1947 91.8836C82.5519 93.3885 85.6178 93.9112 87.8589 93.969H88.4958C90.7386 93.9112 93.8045 93.3885 95.1617 91.8836C96.5694 90.3418 96.6268 87.3478 96.0334 85.8411Z" fill="white"/>
<path d="M98.9241 69.4333C98.9346 68.3038 98.9868 67.3286 97.6939 67.1532C97.4628 67.1446 97.234 67.2026 97.0343 67.3203C96.8346 67.438 96.6723 67.6106 96.5664 67.8179C96.5328 67.8856 96.5088 67.9576 96.4951 68.0319C96.3211 69.1036 96.1227 70.3296 96.3211 71.4101C96.4951 72.3274 97.506 72.9133 98.3029 72.2608C99.039 71.6609 98.9154 70.2875 98.9241 69.4333Z" fill="#1E1B2E"/>
<path d="M79.4133 69.4333C79.4238 68.3038 79.4412 67.3286 78.1483 67.1532C77.9218 67.1447 77.6977 67.203 77.5035 67.3211C77.3094 67.4392 77.1537 67.6119 77.0556 67.8179C77.0221 67.8855 76.998 67.9576 76.9843 68.0319C76.8103 69.1036 76.6119 70.3296 76.819 71.4101C76.993 72.3274 78.0039 72.9132 78.8008 72.2607C79.5282 71.6609 79.4046 70.2875 79.4133 69.4333Z" fill="#1E1B2E"/>
<path d="M74.6897 63.3926C75.6215 62.9479 76.6327 62.697 77.6629 62.6548C78.6931 62.6126 79.7211 62.78 80.6857 63.1471C81.942 63.6049 82.4831 61.5878 81.2373 61.1335C80.0058 60.6931 78.6991 60.5065 77.3947 60.5848C76.0903 60.6631 74.8148 61.0048 73.6439 61.5895C72.4433 62.1736 73.4925 63.975 74.6879 63.3926H74.6897Z" fill="#1E1B2E"/>
<path d="M101.505 61.5896C100.334 61.0042 99.0585 60.6621 97.754 60.5838C96.4495 60.5054 95.1427 60.6924 93.9114 61.1336C92.6673 61.5878 93.2032 63.6067 94.4612 63.1471C95.4261 62.7801 96.4544 62.6127 97.4849 62.6549C98.5153 62.6971 99.5268 62.948 100.459 63.3927C101.654 63.975 102.707 62.1737 101.503 61.5896H101.505Z" fill="#1E1B2E"/>
<path d="M80.2139 86.1797C80.2139 86.1797 79.9564 88.2932 82.5003 89.279L79.9738 88.63C79.9738 88.63 79.852 87.1602 80.2139 86.1797Z" fill="#B8C5CC"/>
</g>
<defs>
<clipPath id="clip0_682_1379">
<rect width="174" height="174" fill="white"/>
</clipPath>
</defs>
</svg>
