<svg width="174" height="174" viewBox="0 0 174 174" fill="none" xmlns="http://www.w3.org/2000/svg">
<g clip-path="url(#clip0_682_1138)">
<path d="M181.007 -5.41992H-8.61816V184.205H181.007V-5.41992Z" fill="#F58A9D"/>
<path d="M64.5912 168.121H59.4775V173.288H64.5912V168.121Z" fill="#8AE9FF"/>
<path d="M106.15 168.121H100.962V173.288H106.15V168.121Z" fill="#8AE9FF"/>
<path d="M116.543 168.121H111.347V173.288H116.543V168.121Z" fill="#8AE9FF"/>
<path d="M85.3736 168.121H80.1777V173.288H85.3736V168.121Z" fill="#8AE9FF"/>
<path d="M74.981 168.121H69.7852V173.288H74.981V168.121Z" fill="#8AE9FF"/>
<path d="M54.2798 168.121H49.084V173.288H54.2798V168.121Z" fill="#8AE9FF"/>
<path d="M95.7661 168.121H90.5703V173.288H95.7661V168.121Z" fill="#8AE9FF"/>
<path d="M74.981 157.794H69.7852V162.961H74.981V157.794Z" fill="#8AE9FF"/>
<path d="M85.3736 157.794H80.1777V162.961H85.3736V157.794Z" fill="#8AE9FF"/>
<path d="M64.5912 157.794H59.4775V162.961H64.5912V157.794Z" fill="#8AE9FF"/>
<path d="M106.15 157.794H100.962V162.961H106.15V157.794Z" fill="#8AE9FF"/>
<path d="M116.543 157.794H111.347V162.961H116.543V157.794Z" fill="#8AE9FF"/>
<path d="M95.7661 157.794H90.5703V162.961H95.7661V157.794Z" fill="#8AE9FF"/>
<path d="M54.2798 157.794H49.084V162.961H54.2798V157.794Z" fill="#8AE9FF"/>
<path d="M54.2798 147.46H49.084V152.627H54.2798V147.46Z" fill="#8AE9FF"/>
<path d="M95.7661 147.46H90.5703V152.627H95.7661V147.46Z" fill="#8AE9FF"/>
<path d="M64.5912 147.46H59.4775V152.627H64.5912V147.46Z" fill="#8AE9FF"/>
<path d="M116.543 147.46H111.347V152.627H116.543V147.46Z" fill="#8AE9FF"/>
<path d="M74.981 147.46H69.7852V152.627H74.981V147.46Z" fill="#8AE9FF"/>
<path d="M85.3736 147.46H80.1777V152.627H85.3736V147.46Z" fill="#8AE9FF"/>
<path d="M106.15 147.46H100.962V152.627H106.15V147.46Z" fill="#8AE9FF"/>
<path d="M116.543 137.208H111.347V142.375H116.543V137.208Z" fill="#8AE9FF"/>
<path d="M64.5912 137.208H59.4775V142.375H64.5912V137.208Z" fill="#8AE9FF"/>
<path d="M95.7661 137.208H90.5703V142.375H95.7661V137.208Z" fill="#8AE9FF"/>
<path d="M54.2798 137.208H49.084V142.375H54.2798V137.208Z" fill="#8AE9FF"/>
<path d="M85.3736 137.208H80.1777V142.375H85.3736V137.208Z" fill="#8AE9FF"/>
<path d="M74.981 137.208H69.7852V142.375H74.981V137.208Z" fill="#8AE9FF"/>
<path d="M106.15 137.208H100.962V142.375H106.15V137.208Z" fill="#8AE9FF"/>
<path d="M54.2798 126.873H49.084V132.04H54.2798V126.873Z" fill="#8AE9FF"/>
<path d="M74.981 126.873H69.7852V132.04H74.981V126.873Z" fill="#8AE9FF"/>
<path d="M116.543 126.873H111.347V132.04H116.543V126.873Z" fill="#8AE9FF"/>
<path d="M85.3736 126.873H80.1777V132.04H85.3736V126.873Z" fill="#8AE9FF"/>
<path d="M64.5912 126.873H59.4775V132.04H64.5912V126.873Z" fill="#8AE9FF"/>
<path d="M95.7661 126.873H90.5703V132.04H95.7661V126.873Z" fill="#8AE9FF"/>
<path d="M106.15 126.873H100.962V132.04H106.15V126.873Z" fill="#8AE9FF"/>
<path d="M74.981 116.54H69.7852V121.707H74.981V116.54Z" fill="#8AE9FF"/>
<path d="M64.5912 116.54H59.4775V121.707H64.5912V116.54Z" fill="#8AE9FF"/>
<path d="M106.15 116.54H100.962V121.707H106.15V116.54Z" fill="#8AE9FF"/>
<path d="M95.7661 116.54H90.5703V121.707H95.7661V116.54Z" fill="#8AE9FF"/>
<path d="M85.3736 116.54H80.1777V121.707H85.3736V116.54Z" fill="#8AE9FF"/>
<path d="M116.543 116.54H111.347V121.707H116.543V116.54Z" fill="#8AE9FF"/>
<path d="M54.2798 116.54H49.084V121.707H54.2798V116.54Z" fill="#8AE9FF"/>
<path d="M116.543 106.204H111.347V111.371H116.543V106.204Z" fill="#8AE9FF"/>
<path d="M64.5912 106.204H59.4775V111.371H64.5912V106.204Z" fill="#8AE9FF"/>
<path d="M74.981 106.204H69.7852V111.371H74.981V106.204Z" fill="#8AE9FF"/>
<path d="M85.3736 106.204H80.1777V111.371H85.3736V106.204Z" fill="#8AE9FF"/>
<path d="M106.15 106.204H100.962V111.371H106.15V106.204Z" fill="#8AE9FF"/>
<path d="M54.2798 106.204H49.084V111.371H54.2798V106.204Z" fill="#8AE9FF"/>
<path d="M95.7661 106.204H90.5703V111.371H95.7661V106.204Z" fill="#8AE9FF"/>
<path d="M106.15 95.874H100.962V101.041H106.15V95.874Z" fill="#8AE9FF"/>
<path d="M95.7661 95.874H90.5703V101.041H95.7661V95.874Z" fill="#8AE9FF"/>
<path d="M64.5912 95.874H59.4775V101.041H64.5912V95.874Z" fill="#8AE9FF"/>
<path d="M54.2798 95.874H49.084V101.041H54.2798V95.874Z" fill="#8AE9FF"/>
<path d="M85.3736 95.874H80.1777V101.041H85.3736V95.874Z" fill="#8AE9FF"/>
<path d="M74.981 95.874H69.7852V101.041H74.981V95.874Z" fill="#8AE9FF"/>
<path d="M116.543 95.874H111.347V101.041H116.543V95.874Z" fill="#8AE9FF"/>
<path d="M106.151 90.7066V90.0009L100.962 88.7217V90.7066H106.151Z" fill="#30CDFC"/>
<path d="M74.9826 90.7068V86.2021H74.5605L69.7852 87.5925V90.7068H74.9826Z" fill="#8AE9FF"/>
<path d="M85.3736 86.2021H80.1777V90.7068H85.3736V86.2021Z" fill="#8AE9FF"/>
<path d="M95.7661 90.7068V87.4411L90.7475 86.2021H90.5703V90.7068H95.7661Z" fill="#8AE9FF"/>
<path d="M64.5896 90.7069V89.1055L59.4775 90.5925V90.7069H64.5896Z" fill="#30CDFC"/>
<path d="M59.082 90.7072H59.4768V90.5928L59.082 90.7072Z" fill="#30CDFC"/>
<path d="M117.61 93.3009C117.442 93.1717 117.254 93.071 117.053 93.0029C116.987 92.969 116.476 92.7934 116.409 92.7757L111.354 91.2838L109.012 90.7054L106.151 89.9998V90.7054H100.963V88.7222L95.7654 87.4333V90.7054H90.5695V86.1943H85.3737V90.7054H80.1779V86.1943H74.982V90.7054H69.7846V87.5928L64.5887 89.104V90.7151H59.082C59.082 90.7151 53.9876 91.9814 53.8458 92.0491L51.6821 92.6227C50.8315 92.4374 49.9808 92.5743 49.0834 92.5727C48.7612 92.5727 48.433 92.5845 48.099 92.6082C47.5625 92.65 47.0341 92.708 46.5137 92.7693V195.236V198.123H119.104V93.4604C118.613 93.396 118.115 93.3428 117.61 93.3009ZM111.35 101.034V95.8739H116.546V101.042H111.346L111.35 101.034ZM111.35 111.365V106.204H116.546V111.373H111.346L111.35 111.365ZM111.35 121.698V116.54H116.546V121.706H111.346L111.35 121.698ZM111.35 132.032V126.873H116.546V132.04H111.346L111.35 132.032ZM111.35 142.367V137.208H116.546V142.375H111.346L111.35 142.367ZM111.35 152.619V147.46H116.546V152.627H111.346L111.35 152.619ZM111.35 162.952V157.794H116.546V162.96H111.346L111.35 162.952ZM111.35 173.28V168.113H116.546V173.28H111.346H111.35ZM111.35 183.613V178.446H116.546V183.613H111.346H111.35ZM111.35 193.948V188.79H116.546V193.956H111.346L111.35 193.948ZM100.963 101.042V95.8739H106.151V101.042H100.963ZM100.963 111.373V106.204H106.151V111.373H100.963ZM100.963 121.706V116.54H106.151V121.706H100.963ZM100.963 132.04V126.873H106.151V132.04H100.963ZM100.963 142.375V137.208H106.151V142.375H100.963ZM100.963 152.627V147.46H106.151V152.627H100.963ZM100.963 162.96V157.794H106.151V162.96H100.963ZM100.963 173.288V168.121H106.151V173.288H100.963ZM100.963 183.621V178.454H106.151V183.621H100.963ZM100.963 193.956V188.79H106.151V193.956H100.963ZM90.5695 101.042V95.8739H95.7654V101.042H90.5695ZM90.5695 111.373V106.204H95.7654V111.373H90.5695ZM90.5695 121.706V116.54H95.7654V121.706H90.5695ZM90.5695 132.04V126.873H95.7654V132.04H90.5695ZM90.5695 142.375V137.208H95.7654V142.375H90.5695ZM90.5695 152.627V147.46H95.7654V152.627H90.5695ZM90.5695 162.96V157.794H95.7654V162.96H90.5695ZM90.5695 173.288V168.121H95.7654V173.288H90.5695ZM90.5695 183.621V178.454H95.7654V183.621H90.5695ZM90.5695 193.956V188.79H95.7654V193.956H90.5695ZM80.1779 101.042V95.8739H85.3737V101.042H80.1779ZM80.1779 111.373V106.204H85.3737V111.373H80.1779ZM80.1779 121.706V116.54H85.3737V121.706H80.1779ZM80.1779 132.04V126.873H85.3737V132.04H80.1779ZM80.1779 142.375V137.208H85.3737V142.375H80.1779ZM80.1779 152.627V147.46H85.3737V152.627H80.1779ZM80.1779 162.96V157.794H85.3737V162.96H80.1779ZM80.1779 173.288V168.121H85.3737V173.288H80.1779ZM80.1779 183.621V178.454H85.3737V183.621H80.1779ZM80.1779 193.956V188.79H85.3737V193.956H80.1779ZM69.7846 101.042V95.8739H74.982V101.042H69.7846ZM69.7846 111.373V106.204H74.982V111.373H69.7846ZM69.7846 121.706V116.54H74.982V121.706H69.7846ZM69.7846 132.04V126.873H74.982V132.04H69.7846ZM69.7846 142.375V137.208H74.982V142.375H69.7846ZM69.7846 152.627V147.46H74.982V152.627H69.7846ZM69.7846 162.96V157.794H74.982V162.96H69.7846ZM69.7846 173.288V168.121H74.982V173.288H69.7846ZM69.7846 183.621V178.454H74.982V183.621H69.7846ZM69.7846 193.956V188.79H74.982V193.956H69.7846ZM59.4735 101.042V95.8739H64.5887V101.042H59.4767H59.4735ZM59.4735 111.373V106.204H64.5887V111.373H59.4767H59.4735ZM59.4735 121.706V116.54H64.5887V121.706H59.4767H59.4735ZM59.4735 132.04V126.873H64.5887V132.04H59.4767H59.4735ZM59.4735 142.375V137.208H64.5887V142.375H59.4767H59.4735ZM59.4735 152.627V147.46H64.5887V152.627H59.4767H59.4735ZM59.4735 162.96V157.794H64.5887V162.96H59.4767H59.4735ZM59.4735 173.288V168.121H64.5887V173.288H59.4767H59.4735ZM59.4735 183.621V178.454H64.5887V183.621H59.4767H59.4735ZM59.4735 193.956V188.79H64.5887V193.956H59.4767H59.4735ZM49.0834 101.042V95.8739H54.2808V101.042H49.0834ZM49.0834 111.373V106.204H54.2808V111.373H49.0834ZM49.0834 121.706V116.54H54.2808V121.706H49.0834ZM49.0834 132.04V126.873H54.2808V132.04H49.0834ZM49.0834 142.375V137.208H54.2808V142.375H49.0834ZM49.0834 152.627V147.46H54.2808V152.627H49.0834ZM49.0834 162.96V157.794H54.2808V162.96H49.0834ZM49.0834 173.288V168.121H54.2808V173.288H49.0834ZM49.0834 183.621V178.454H54.2808V183.621H49.0834ZM49.0834 193.956V188.79H54.2808V193.956H49.0834Z" fill="#30CDFC"/>
<path d="M68.1849 44.1785C68.1849 44.1785 67.7612 56.0427 69.535 66.2168C69.7219 67.2753 70.3954 78.4742 70.3954 78.4742L70.6821 95.1153C70.9029 101.2 76.5981 105.942 83.3197 105.637C89.8028 105.346 94.8649 100.455 94.7586 94.5901C94.6651 89.3475 94.8585 81.1148 94.8585 81.1148C94.8585 81.1148 99.0473 74.5334 99.7127 65.9236C100.378 57.3138 100.14 45.2901 100.14 45.2901L87.9951 38.335L68.1849 44.1785Z" fill="#F9B189"/>
<path d="M94.8946 81.0903V81.0742C84.3129 86.3732 74.7139 81.3143 74.7139 81.3143L92.8002 100.712C94.124 98.931 94.8249 96.7637 94.7948 94.5447C94.6997 89.4456 94.8801 81.5221 94.8946 81.0903Z" fill="#E97C63"/>
<path d="M127.25 95.8744L126.853 95.6875V95.8744H127.25Z" fill="#30CDFC"/>
<g style="mix-blend-mode:screen">
<path d="M147.637 145.18C147.644 144.245 147.649 143.311 147.65 142.375H147.637V145.18Z" fill="#1F8CC8"/>
</g>
<path d="M147.635 168.121H142.439V173.288H147.635V168.121Z" fill="#8AE9FF"/>
<path d="M23.1033 168.121H17.9864C17.9682 169.827 17.9499 171.549 17.9316 173.288H23.1033V168.121Z" fill="#8AE9FF"/>
<path d="M126.852 168.121H121.738V173.288H126.852V168.121Z" fill="#8AE9FF"/>
<path d="M33.4966 168.121H28.3008V173.288H33.4966V168.121Z" fill="#8AE9FF"/>
<path d="M137.244 168.121H132.048V173.288H137.244V168.121Z" fill="#8AE9FF"/>
<path d="M43.8882 168.121H38.6924V173.288H43.8882V168.121Z" fill="#8AE9FF"/>
<path d="M33.4966 157.794H28.3008V162.961H33.4966V157.794Z" fill="#8AE9FF"/>
<path d="M43.8882 157.794H38.6924V162.961H43.8882V157.794Z" fill="#8AE9FF"/>
<path d="M137.244 157.794H132.048V162.961H137.244V157.794Z" fill="#8AE9FF"/>
<path d="M126.852 157.794H121.738V162.961H126.852V157.794Z" fill="#8AE9FF"/>
<path d="M23.1035 157.794H18.101C18.0816 159.492 18.0623 161.214 18.043 162.961H23.1035V157.794Z" fill="#8AE9FF"/>
<path d="M142.439 162.961H147.577C147.56 161.35 147.542 159.763 147.524 158.202C147.524 158.066 147.524 157.931 147.524 157.794H142.439V162.961Z" fill="#8AE9FF"/>
<path d="M33.4966 147.46H28.3008V152.627H33.4966V147.46Z" fill="#8AE9FF"/>
<path d="M23.1033 147.46H18.0283C18.0541 149.19 18.0831 150.914 18.1008 152.627H23.1033V147.46Z" fill="#8AE9FF"/>
<path d="M126.852 147.46H121.738V152.627H126.852V147.46Z" fill="#8AE9FF"/>
<path d="M43.8882 147.46H38.6924V152.627H43.8882V147.46Z" fill="#8AE9FF"/>
<path d="M142.439 152.627H147.534C147.555 150.913 147.584 149.189 147.61 147.46H142.439V152.627Z" fill="#8AE9FF"/>
<path d="M137.244 147.46H132.048V152.627H137.244V147.46Z" fill="#8AE9FF"/>
<path d="M137.244 137.208H132.048V142.375H137.244V137.208Z" fill="#8AE9FF"/>
<path d="M142.439 142.375H147.637V140.295C147.624 139.265 147.601 138.236 147.568 137.208H142.439V142.375Z" fill="#8AE9FF"/>
<path d="M126.852 137.208H121.738V142.375H126.852V137.208Z" fill="#8AE9FF"/>
<path d="M33.4966 137.208H28.3008V142.375H33.4966V137.208Z" fill="#8AE9FF"/>
<path d="M23.1029 137.208H18.044C17.9957 138.927 17.9796 140.651 17.9828 142.375H23.1029V137.208Z" fill="#8AE9FF"/>
<path d="M43.8882 137.208H38.6924V142.375H43.8882V137.208Z" fill="#8AE9FF"/>
<path d="M147.637 140.296V142.376H147.65" fill="#8AE9FF"/>
<path d="M126.852 126.873H121.738V132.04H126.852V126.873Z" fill="#8AE9FF"/>
<path d="M33.4966 126.873H28.3008V132.04H33.4966V126.873Z" fill="#8AE9FF"/>
<path d="M137.244 126.873H132.048V132.04H137.244V126.873Z" fill="#8AE9FF"/>
<path d="M142.439 132.04H147.273C147.126 130.306 146.925 128.582 146.654 126.873H142.439V132.04Z" fill="#8AE9FF"/>
<path d="M43.8882 126.873H38.6924V132.04H43.8882V126.873Z" fill="#8AE9FF"/>
<path d="M23.1029 126.873H18.8721C18.6208 128.582 18.4355 130.306 18.3018 132.04H23.1029V126.873Z" fill="#8AE9FF"/>
<path d="M23.1029 116.54H21.3693C20.865 118.001 20.4268 119.472 20.0531 120.929C19.9854 121.188 19.9242 121.447 19.8613 121.707H23.1029V116.54Z" fill="#8AE9FF"/>
<path d="M43.8882 116.54H38.6924V121.707H43.8882V116.54Z" fill="#8AE9FF"/>
<path d="M126.852 116.54H121.738V121.707H126.852V116.54Z" fill="#8AE9FF"/>
<path d="M33.4966 116.54H28.3008V121.707H33.4966V116.54Z" fill="#8AE9FF"/>
<path d="M142.439 121.707H145.596C145.596 121.679 145.583 121.65 145.575 121.623C145.141 119.935 144.623 118.23 144.015 116.54H142.439V121.707Z" fill="#8AE9FF"/>
<path d="M137.244 116.54H132.048V121.707H137.244V116.54Z" fill="#8AE9FF"/>
<path d="M126.852 106.204H121.738V111.371H126.852V106.204Z" fill="#8AE9FF"/>
<path d="M137.244 106.204H132.048V111.371H137.244V106.204Z" fill="#8AE9FF"/>
<path d="M33.4966 106.204H28.3008V111.371H33.4966V106.204Z" fill="#8AE9FF"/>
<path d="M43.8882 106.204H38.6924V111.371H43.8882V106.204Z" fill="#8AE9FF"/>
<path d="M134.54 101.042C133.751 100.269 132.919 99.5412 132.048 98.8623V101.042H134.54Z" fill="#8AE9FF"/>
<path d="M126.852 95.874H121.738V101.041H126.852V95.874Z" fill="#8AE9FF"/>
<path d="M43.8882 95.874H38.6924V101.041H43.8882V95.874Z" fill="#8AE9FF"/>
<path d="M33.496 98.2324C32.3988 99.0949 31.3641 100.034 30.3994 101.042H33.496V98.2324Z" fill="#8AE9FF"/>
<path d="M43.8882 93.2461C42.0983 93.6576 40.3568 94.2565 38.6923 95.0328C38.1285 95.2959 37.5785 95.5763 37.0426 95.8738C35.8006 96.5651 34.6154 97.3538 33.4981 98.2325V101.042H30.3999C29.6621 101.811 28.9628 102.618 28.3055 103.459C27.6063 104.342 26.9506 105.262 26.3351 106.207C25.2624 107.863 24.3042 109.59 23.4673 111.376C23.3449 111.634 23.2251 111.893 23.108 112.154C22.4636 113.596 21.882 115.065 21.3745 116.543H23.1032V121.71H19.8617C19.4524 123.413 19.127 125.136 18.8724 126.876H23.1032V132.043H18.3021C18.17 133.759 18.0878 135.483 18.0395 137.212H23.1032V142.378H17.9783C17.9783 144.075 18.004 145.771 18.0282 147.463H23.1032V152.63H18.1007C18.1168 154.268 18.1233 155.899 18.1007 157.512C18.1007 157.607 18.1007 157.702 18.1007 157.797H23.1032V162.964H18.0443C18.025 164.663 18.0062 166.381 17.9879 168.119H23.1032V173.286H17.9315C17.923 174.082 17.9149 174.88 17.9074 175.68C17.8977 176.602 17.8886 177.526 17.88 178.453C17.8617 180.165 17.8445 181.887 17.8284 183.62C17.8112 185.338 17.7941 187.061 17.7769 188.788C17.7597 190.515 17.743 192.238 17.7269 193.955C17.7108 195.673 17.6936 197.396 17.6754 199.122C17.6571 200.848 17.6399 202.57 17.6238 204.289C17.6077 205.987 17.59 215.141 17.5723 216.833H17.909L23.1032 216.858H43.8866L46.5127 216.833V92.7676C45.6137 92.8879 44.7389 93.0474 43.8882 93.2461ZM23.1032 204.289H17.9074V199.122H23.1032V204.289ZM23.1032 193.955H17.9074V188.79H23.1032V193.955ZM23.1032 183.62H17.9074V178.453H23.1032V183.62ZM33.4965 204.289H28.3007V199.122H33.4965V204.289ZM33.4965 193.955H28.3007V188.79H33.4965V193.955ZM33.4965 183.62H28.3007V178.453H33.4965V183.62ZM33.4965 173.286H28.3007V168.119H33.4965V173.286ZM33.4965 162.959H28.3007V157.794H33.4965V162.959ZM33.4965 152.625H28.3007V147.46H33.4965V152.625ZM33.4965 142.374H28.3007V137.208H33.4965V142.374ZM33.4965 132.038H28.3007V126.873H33.4965V132.038ZM33.4965 121.705H28.3007V116.54H33.4965V121.705ZM33.4965 111.371H28.3007V106.204H33.4965V111.371ZM43.8882 204.289H38.6923V199.122H43.8882V204.289ZM43.8882 193.955H38.6923V188.79H43.8882V193.955ZM43.8882 183.62H38.6923V178.453H43.8882V183.62ZM43.8882 173.286H38.6923V168.119H43.8882V173.286ZM43.8882 162.959H38.6923V157.794H43.8882V162.959ZM43.8882 152.625H38.6923V147.46H43.8882V152.625ZM43.8882 142.374H38.6923V137.208H43.8882V142.374ZM43.8882 132.038H38.6923V126.873H43.8882V132.038ZM43.8882 121.705H38.6923V116.54H43.8882V121.705ZM43.8882 111.371H38.6923V106.204H43.8882V111.371ZM43.8882 101.041H38.6923V95.8738H43.8882V101.041Z" fill="#30CDFC"/>
<path d="M148.006 204.289C147.988 202.484 147.971 200.744 147.953 199.122C147.935 197.245 147.918 195.507 147.901 193.955C147.88 191.846 147.863 190.088 147.85 188.788C147.835 187.246 147.827 186.372 147.827 186.372C147.839 185.444 147.848 184.528 147.855 183.62C147.868 181.861 147.871 180.139 147.864 178.453C147.858 176.692 147.842 174.97 147.816 173.286C147.79 171.522 147.753 169.8 147.705 168.119C147.684 167.367 147.662 166.627 147.637 165.899C147.624 165.545 147.611 165.192 147.599 164.841C147.592 164.211 147.585 163.584 147.578 162.959H142.44V157.794H147.521C147.505 156.086 147.521 154.362 147.534 152.627H142.44V147.46H147.61C147.619 146.701 147.629 145.941 147.637 145.18C147.645 144.246 147.649 143.311 147.65 142.375H142.44V137.208H147.568C147.51 135.478 147.407 133.754 147.268 132.04H142.435V126.873H146.645C146.371 125.133 146.026 123.409 145.591 121.706H142.44V116.539H144.015C143.545 115.233 143.021 113.934 142.44 112.658C142.244 112.229 142.042 111.799 141.832 111.369C140.958 109.578 139.957 107.851 138.837 106.201C138.331 105.462 137.8 104.742 137.244 104.04C136.406 102.984 135.503 101.982 134.541 101.039H132.048V98.8623C130.559 97.6995 128.951 96.6978 127.25 95.8737H126.852V101.042H121.739V95.8737H126.852V95.6868C125.212 94.9305 123.499 94.3453 121.739 93.9404C120.886 93.7422 120.008 93.5795 119.104 93.457V204.289L119.241 216.833L121.877 216.859H142.583L147.781 216.833H148.203C148.18 215.096 148.024 205.935 148.006 204.289ZM126.852 204.289H121.739V199.122H126.852V204.289ZM126.852 193.955H121.739V188.79H126.852V193.955ZM126.852 183.62H121.739V178.453H126.852V183.62ZM126.852 173.286H121.739V168.119H126.852V173.286ZM126.852 162.959H121.739V157.794H126.852V162.959ZM126.852 152.625H121.739V147.46H126.852V152.625ZM126.852 142.374H121.739V137.208H126.852V142.374ZM126.852 132.038H121.739V126.873H126.852V132.038ZM126.852 121.705H121.739V116.539H126.852V121.705ZM126.852 111.371H121.739V106.204H126.852V111.371ZM137.244 204.289H132.048V199.122H137.244V204.289ZM137.244 193.955H132.048V188.79H137.244V193.955ZM137.244 183.62H132.048V178.453H137.244V183.62ZM137.244 173.286H132.048V168.119H137.244V173.286ZM137.244 162.959H132.048V157.794H137.244V162.959ZM137.244 152.625H132.048V147.46H137.244V152.625ZM137.244 142.374H132.048V137.208H137.244V142.374ZM137.244 132.038H132.048V126.873H137.244V132.038ZM137.244 121.705H132.048V116.539H137.244V121.705ZM137.244 111.371H132.048V106.204H137.244V111.371ZM142.44 168.119H147.637V173.286H142.44V168.119ZM142.44 178.453H147.637V183.62H142.44V178.453ZM142.44 188.788H147.637V193.955H142.44V188.788ZM142.44 204.289V199.122H147.637V204.289H142.44Z" fill="#30CDFC"/>
<path d="M71.1918 67.3551L70.6021 62.7184C70.6021 62.7184 69.5017 58.225 66.1522 58.6584C62.8027 59.0917 60.9403 61.7517 62.7222 66.0856C62.7415 66.1307 62.7576 66.1742 62.7786 66.2161C63.9063 68.8213 67.4508 69.7348 69.9738 68.1301L71.1918 67.3551Z" fill="#F9B189"/>
<path opacity="0.5" d="M65.8936 59.9416C64.9866 60.1124 64.3196 60.8213 63.8846 61.5527C63.4496 62.2842 63.2788 63.2041 63.2885 64.0499C63.2821 64.4738 63.366 64.8941 63.5346 65.283C63.7033 65.6719 63.9527 66.0204 64.2664 66.3055C64.5468 66.5601 65.0607 66.4666 65.2927 66.2137C65.5634 65.9108 65.3829 65.4355 65.101 65.1842C64.7481 64.8619 64.753 64.4124 64.7433 63.9549C64.7284 63.3672 64.859 62.785 65.1235 62.26C65.3894 61.7412 65.8485 61.158 66.3109 61.1934C66.8957 61.2385 66.9425 61.6929 67.3453 61.999C68.067 62.55 68.9386 61.883 68.4827 61.1354C68.2297 60.7182 67.4065 59.65 65.8936 59.9384" fill="#F0584A"/>
<path d="M98.1885 67.3551L98.7798 62.7184C98.7798 62.7184 99.8785 58.225 103.23 58.6584C106.581 59.0917 108.44 61.7517 106.658 66.0856C106.639 66.1307 106.623 66.1742 106.603 66.2161C105.476 68.8213 101.931 69.7348 99.4065 68.1301L98.1885 67.3551Z" fill="#F9B189"/>
<path opacity="0.5" d="M103.493 59.9416C104.401 60.1124 105.067 60.8213 105.502 61.5527C105.937 62.2842 106.107 63.2041 106.099 64.0499C106.105 64.4739 106.021 64.8942 105.852 65.2831C105.683 65.672 105.434 66.0205 105.12 66.3055C104.839 66.5601 104.325 66.4666 104.093 66.2137C103.824 65.9108 104.003 65.4355 104.285 65.1842C104.64 64.8619 104.633 64.4124 104.643 63.9549C104.659 63.3671 104.529 62.7844 104.263 62.26C103.997 61.7412 103.538 61.158 103.077 61.1934C102.49 61.2385 102.444 61.6929 102.043 61.999C101.321 62.55 100.448 61.883 100.903 61.1354C101.158 60.7182 101.98 59.65 103.493 59.9384" fill="#F0584A"/>
<path d="M102.861 45.324C102.861 45.324 97.7051 28.8118 92.2693 34.1155C89.9911 36.0682 70.777 39.7947 70.777 39.7947C66.4512 40.7243 66.1596 46.5855 66.1757 48.8653C66.1757 48.8653 65.9437 52.6594 67.2197 58.6222V58.743C67.2121 58.8231 67.2247 58.9038 67.2562 58.9777C67.2877 59.0517 67.3372 59.1167 67.4001 59.1667L69.9779 60.6167C70.0537 60.6702 70.1427 60.7018 70.2353 60.7081C70.3278 60.7144 70.4203 60.6951 70.5026 60.6523C70.5849 60.6096 70.6539 60.545 70.702 60.4657C70.7501 60.3864 70.7755 60.2954 70.7754 60.2027V55.1003C70.7753 55.0562 70.7693 55.0123 70.7577 54.9698C70.5381 53.4487 70.2113 51.945 69.7797 50.4699C68.7792 47.1333 70.7754 48.1564 70.7754 48.1564C70.7754 48.1564 78.6699 52.8657 84.631 52.6675C90.5921 52.4693 98.4865 47.8471 98.4865 47.8471C98.4865 47.8471 100.628 46.4663 99.2276 50.4699C98.3786 52.9011 98.1885 53.2684 98.1885 53.2684L98.3077 55.1003V60.417C98.3079 60.5169 98.3359 60.6148 98.3885 60.6998C98.4411 60.7848 98.5163 60.8535 98.6057 60.8983C98.6951 60.9431 98.7951 60.9621 98.8947 60.9534C98.9943 60.9446 99.0895 60.9084 99.1696 60.8487L101.789 59.0249C101.844 58.9722 101.886 58.9084 101.914 58.8378C101.942 58.7672 101.954 58.6915 101.95 58.6157V58.5497C102.363 57.1947 104.019 51.1804 102.861 45.324Z" fill="#2D2D2D"/>
<path d="M62.793 89.6271L70.4764 83.1504L80.8761 98.3947L83.3201 103.945L85.9124 98.5349L94.8493 83.1504L102.513 89.1051L88.6578 110.043L83.4297 107.415L77.5636 110.884L62.793 89.6271Z" fill="#8AE9FF"/>
<path d="M83.32 103.945L77.5635 110.884L83.1492 108.572L88.6576 110.043L83.32 103.945Z" fill="#1F8CC8"/>
<path d="M85.8795 58.7292C84.2894 60.3918 84.3232 62.8601 84.8855 65.0463C85.0273 65.5957 85.1932 66.1403 85.3688 66.6832C85.5444 67.2262 85.7748 67.7401 85.8377 68.2847C85.9537 69.2739 84.7937 69.3335 84.0735 69.3561C83.2679 69.3818 83.392 69.8394 84.1637 70.0569C85.0176 70.2905 85.9746 70.4661 86.611 69.775C87.4488 68.8663 86.996 67.6563 86.6674 66.6365C85.8973 64.2488 85.1223 61.5293 86.205 59.1078C86.5272 58.3779 86.0407 58.56 85.8795 58.7292Z" fill="#DB7C5A"/>
<path d="M89.4162 72.1472C89.2922 71.8363 88.9136 71.7025 88.5785 71.7251C88.0049 71.7621 86.2472 72.442 84.5249 72.442C82.8993 72.442 81.3027 71.7605 80.7646 71.7251C80.4311 71.7025 80.0525 71.8363 79.9284 72.1472C79.5708 73.0494 79.6062 74.8458 80.452 75.769C81.2721 76.6712 83.1249 76.9838 84.4798 77.0192H84.8649C86.2198 76.9838 88.0726 76.6712 88.8926 75.769C89.7385 74.8458 89.7659 73.0494 89.4162 72.1472Z" fill="white"/>
<path d="M91.1529 62.3124C91.1529 61.6357 91.1915 61.046 90.4101 60.9429C90.2703 60.9375 90.1317 60.9723 90.011 61.0431C89.8902 61.1139 89.7922 61.2178 89.7286 61.3425C89.7083 61.3827 89.6936 61.4255 89.6851 61.4698C89.5772 62.1142 89.4612 62.8473 89.5869 63.4949C89.6932 64.0443 90.3006 64.3955 90.7839 64.004C91.2238 63.648 91.148 62.8328 91.1529 62.3124Z" fill="#1E1B2E"/>
<path d="M79.3644 62.3123C79.3725 61.6357 79.3821 61.046 78.6007 60.9429C78.4637 60.9377 78.328 60.9728 78.2107 61.0438C78.0933 61.1148 77.9992 61.2186 77.9402 61.3424C77.9202 61.3827 77.9061 61.4255 77.8983 61.4697C77.7904 62.1142 77.6727 62.8472 77.7984 63.4949C77.9047 64.0443 78.5137 64.3955 78.9955 64.004C79.4353 63.6479 79.3596 62.8327 79.3644 62.3123Z" fill="#1E1B2E"/>
<path d="M76.5114 58.6922C77.0752 58.4279 77.686 58.2786 78.3082 58.2532C78.9303 58.2277 79.5513 58.3266 80.1348 58.544C80.8953 58.8114 81.2239 57.6031 80.4667 57.3373C79.722 57.0772 78.9332 56.9675 78.1458 57.0145C77.3585 57.0615 76.5883 57.2643 75.8799 57.6112C75.1516 57.9543 75.7864 59.0338 76.5114 58.6922Z" fill="#1E1B2E"/>
<path d="M92.713 57.6115C92.0044 57.2644 91.2339 57.0615 90.4463 57.0145C89.6586 56.9675 88.8695 57.0773 88.1246 57.3376C87.3706 57.6034 87.6944 58.8134 88.4581 58.5443C89.0416 58.3269 89.6626 58.2281 90.2847 58.2535C90.9069 58.279 91.5177 58.4282 92.0815 58.6926C92.8065 59.0341 93.4413 57.9547 92.713 57.6115Z" fill="#1E1B2E"/>
<path d="M79.8509 72.3496C79.8509 72.3496 79.6898 73.6176 81.2332 74.2072L79.7059 73.8189C79.7059 73.8189 79.6302 72.9377 79.8509 72.3496Z" fill="#B8C5CC"/>
<path d="M143.351 170.024C141.397 168.203 138.436 167.269 138.748 163.695C139.623 155.64 142.625 155.514 146.287 158.218C148.06 157.067 150.184 156.584 152.28 156.856C154.376 157.128 156.307 158.138 157.727 159.703C159.147 161.269 159.964 163.289 160.031 165.401C160.098 167.514 159.411 169.581 158.093 171.234C158.804 173.206 159.116 175.618 158.338 177.034C157.513 178.534 154.149 179.871 144.908 178.967C140.545 178.539 145.691 175.328 144.487 171.622C144.051 171.133 143.67 170.597 143.351 170.024Z" fill="#6F53AA"/>
<path d="M154.062 171.994C153.869 172.055 153.672 172.104 153.472 172.141L153.579 172.126C153.4 172.15 153.218 172.155 153.037 172.165C152.931 172.167 152.829 172.209 152.752 172.282C152.696 172.339 152.657 172.411 152.642 172.489C152.626 172.567 152.634 172.648 152.664 172.722C152.695 172.795 152.747 172.858 152.813 172.903C152.88 172.947 152.958 172.97 153.037 172.97C153.278 172.964 153.519 172.943 153.757 172.906C153.933 172.874 154.104 172.816 154.276 172.771C154.379 172.742 154.466 172.673 154.518 172.581C154.571 172.488 154.585 172.379 154.558 172.276C154.528 172.174 154.459 172.088 154.367 172.035C154.274 171.983 154.165 171.968 154.062 171.994Z" fill="#A189F7"/>
<path d="M150.961 172.419C150.813 172.419 150.663 172.439 150.515 172.443C150.402 172.445 150.29 172.437 150.178 172.421L150.286 172.435L149.922 172.381C149.817 172.355 149.706 172.369 149.611 172.421C149.521 172.474 149.455 172.56 149.426 172.661C149.398 172.766 149.413 172.877 149.466 172.972C149.492 173.017 149.527 173.057 149.568 173.089C149.61 173.121 149.657 173.144 149.708 173.157C149.945 173.203 150.185 173.234 150.426 173.249C150.603 173.249 150.784 173.233 150.961 173.225C151.068 173.225 151.17 173.182 151.246 173.107C151.321 173.031 151.364 172.929 151.364 172.822C151.364 172.715 151.321 172.613 151.246 172.537C151.17 172.462 151.068 172.419 150.961 172.419Z" fill="#A189F7"/>
<path d="M158.965 171.827C158.992 171.386 159.059 170.948 159.165 170.519C159.186 170.44 159.21 170.358 159.234 170.282C159.247 170.244 159.262 170.207 159.274 170.168C159.287 170.129 159.326 170.039 159.308 170.081C159.291 170.123 159.324 170.046 159.331 170.033L159.376 169.944C159.405 169.891 159.439 169.841 159.469 169.791C159.5 169.741 159.469 169.791 159.469 169.791L159.511 169.741L159.561 169.691C159.593 169.657 159.655 169.641 159.561 169.691C159.595 169.674 159.627 169.654 159.658 169.632C159.708 169.594 159.611 169.648 159.621 169.648L159.682 169.628H159.705C159.735 169.611 159.771 169.688 159.642 169.636H159.687C159.687 169.636 159.735 169.636 159.74 169.636C159.745 169.636 159.637 169.607 159.7 169.636C159.732 169.65 159.766 169.66 159.801 169.667C159.774 169.667 159.708 169.615 159.763 169.651C159.781 169.663 159.8 169.673 159.819 169.683C159.835 169.694 159.851 169.704 159.867 169.714C159.925 169.746 159.825 169.677 159.838 169.693C159.851 169.709 159.904 169.751 159.935 169.781C159.966 169.812 159.987 169.843 160.014 169.87C160.041 169.897 159.958 169.786 159.996 169.849L160.038 169.912C160.086 169.988 160.122 170.073 160.164 170.147C160.101 170.025 160.164 170.162 160.182 170.202C160.199 170.242 160.209 170.294 160.222 170.34C160.235 170.387 160.238 170.429 160.248 170.472C160.265 170.555 160.248 170.389 160.248 170.456C160.248 170.481 160.248 170.505 160.248 170.529C160.25 170.577 160.25 170.625 160.248 170.672C160.248 170.693 160.248 170.714 160.248 170.733C160.248 170.817 160.248 170.733 160.248 170.733C160.227 170.824 160.202 170.909 160.175 170.998C160.215 170.87 160.165 171.009 160.143 171.048L160.109 171.101C160.064 171.181 160.146 171.07 160.109 171.101C160.072 171.131 160.037 171.18 159.996 171.217C159.987 171.228 159.974 171.236 159.962 171.247C159.927 171.28 160.032 171.199 159.99 171.227C159.948 171.254 159.94 171.262 159.912 171.278C159.861 171.311 159.807 171.34 159.751 171.365C159.856 171.317 159.671 171.391 159.629 171.402C159.551 171.423 159.472 171.441 159.392 171.454C159.345 171.454 159.415 171.454 159.419 171.454H159.352C159.305 171.454 159.26 171.454 159.213 171.463C158.998 171.471 158.782 171.461 158.569 171.433C158.462 171.434 158.36 171.476 158.285 171.552C158.21 171.627 158.167 171.729 158.166 171.835C158.168 171.942 158.212 172.043 158.287 172.118C158.362 172.193 158.463 172.236 158.569 172.238C159.263 172.322 160.061 172.269 160.594 171.755C160.783 171.56 160.92 171.322 160.995 171.061C161.07 170.8 161.08 170.525 161.024 170.26C160.95 169.775 160.693 169.336 160.306 169.035C160.111 168.888 159.869 168.817 159.626 168.836C159.383 168.854 159.155 168.961 158.984 169.135C158.732 169.41 158.55 169.742 158.453 170.102C158.292 170.664 158.196 171.242 158.166 171.826C158.166 171.933 158.208 172.035 158.284 172.111C158.36 172.186 158.462 172.229 158.569 172.229C158.676 172.229 158.778 172.186 158.854 172.111C158.929 172.035 158.972 171.933 158.972 171.826L158.965 171.827Z" fill="#A189F7"/>
<path d="M158.736 171.378C158.313 170.974 157.852 170.611 157.361 170.294C157.051 170.086 156.707 169.937 156.344 169.852C155.761 169.743 155.195 169.963 155.008 170.56C154.696 171.552 155.492 172.834 156.505 173.013C157.399 173.174 158.181 172.59 158.736 171.948C158.81 171.871 158.85 171.769 158.85 171.663C158.85 171.557 158.81 171.455 158.736 171.378C158.66 171.304 158.558 171.262 158.451 171.262C158.345 171.262 158.242 171.304 158.166 171.378C158.031 171.536 157.884 171.685 157.728 171.823C157.696 171.85 157.662 171.879 157.628 171.905C157.696 171.85 157.609 171.919 157.586 171.935C157.517 171.986 157.445 172.032 157.37 172.074L157.275 172.124C157.248 172.137 157.146 172.18 157.256 172.135C157.193 172.161 157.129 172.183 157.064 172.201L156.977 172.222C156.961 172.222 156.855 172.243 156.934 172.232C157.013 172.221 156.908 172.232 156.893 172.232H156.8H156.721C156.653 172.232 156.663 172.216 156.721 172.232C156.666 172.216 156.608 172.209 156.56 172.193L156.487 172.167C156.397 172.142 156.545 172.204 156.497 172.167C156.449 172.13 156.395 172.116 156.349 172.087L156.288 172.045C156.21 171.998 156.328 172.085 156.288 172.045C156.247 172.005 156.205 171.976 156.168 171.939C156.131 171.902 156.099 171.866 156.065 171.827C156.056 171.816 155.998 171.739 156.044 171.802C156.091 171.865 156.03 171.782 156.02 171.766C155.96 171.678 155.906 171.585 155.859 171.489C155.83 171.431 155.841 171.438 155.859 171.5C155.859 171.476 155.84 171.454 155.832 171.431C155.814 171.38 155.796 171.328 155.783 171.27C155.77 171.212 155.761 171.178 155.751 171.133C155.741 171.088 155.751 171.086 155.74 171.064C155.754 171.131 155.74 171.148 155.74 171.078C155.74 171.035 155.74 170.99 155.74 170.946C155.74 170.903 155.74 170.904 155.74 170.882C155.74 170.801 155.754 170.853 155.74 170.896C155.754 170.862 155.754 170.816 155.766 170.78C155.777 170.745 155.778 170.743 155.782 170.724C155.804 170.637 155.745 170.78 155.772 170.748C155.794 170.719 155.813 170.688 155.827 170.655C155.836 170.626 155.751 170.725 155.806 170.682L155.853 170.635C155.894 170.582 155.798 170.663 155.825 170.656C155.841 170.647 155.857 170.638 155.872 170.627C155.882 170.577 156.018 170.659 155.84 170.637C155.854 170.637 155.886 170.619 155.902 170.614C155.923 170.612 155.943 170.607 155.962 170.601C156.031 170.574 155.853 170.601 155.944 170.601H156.096C156.205 170.601 156.044 170.584 156.096 170.601C156.147 170.619 156.167 170.616 156.202 170.624C156.271 170.642 156.341 170.664 156.408 170.687L156.457 170.706C156.545 170.738 156.375 170.667 156.457 170.706L156.574 170.761C156.666 170.806 156.756 170.856 156.845 170.908C157.314 171.198 157.751 171.538 158.147 171.923C158.527 172.274 159.099 171.705 158.717 171.352L158.736 171.378Z" fill="#A189F7"/>
<path d="M158.174 171.936C158.433 172.685 158.788 173.386 159.102 174.119C159.113 174.145 159.123 174.169 159.134 174.193C159.134 174.193 159.113 174.147 159.134 174.193L159.187 174.324C159.223 174.412 159.258 174.503 159.291 174.591C159.361 174.78 159.424 174.97 159.481 175.162C159.606 175.587 159.697 176.023 159.751 176.463C159.827 177.159 159.849 177.859 159.817 178.558C159.8 179.075 160.605 179.075 160.623 178.558C160.689 177.416 160.586 176.27 160.318 175.158C160.092 174.392 159.801 173.647 159.448 172.93C159.263 172.535 159.098 172.13 158.954 171.717C158.923 171.615 158.854 171.529 158.762 171.477C158.67 171.424 158.561 171.409 158.458 171.435C158.355 171.464 158.268 171.533 158.215 171.626C158.163 171.718 158.148 171.828 158.176 171.931L158.174 171.936Z" fill="#A189F7"/>
<path d="M158.037 171.846C158.253 173.08 158.299 174.338 158.174 175.585C157.998 176.877 157.642 178.137 157.115 179.329C157.088 179.433 157.102 179.543 157.155 179.635C157.207 179.728 157.295 179.797 157.397 179.826C157.5 179.851 157.609 179.836 157.701 179.783C157.793 179.731 157.861 179.645 157.892 179.544C159.016 177.067 159.339 174.301 158.814 171.632C158.785 171.529 158.717 171.441 158.624 171.388C158.531 171.336 158.421 171.322 158.318 171.35C158.215 171.379 158.128 171.447 158.075 171.54C158.022 171.633 158.009 171.743 158.037 171.846Z" fill="#A189F7"/>
<path d="M158.562 172.213C158.823 172.213 159.035 172.001 159.035 171.739C159.035 171.478 158.823 171.266 158.562 171.266C158.3 171.266 158.088 171.478 158.088 171.739C158.088 172.001 158.3 172.213 158.562 172.213Z" fill="#7D66BC"/>
<path d="M113.278 170.024C115.232 168.203 118.194 167.269 117.881 163.695C117.006 155.64 114.005 155.514 110.343 158.218C108.57 157.068 106.446 156.587 104.351 156.86C102.255 157.132 100.325 158.141 98.9057 159.706C97.486 161.271 96.6692 163.29 96.6013 165.402C96.5333 167.514 97.2187 169.581 98.5348 171.234C97.8259 173.206 97.5134 175.618 98.2915 177.034C99.1164 178.534 102.48 179.871 111.722 178.967C116.083 178.539 110.939 175.328 112.142 171.622C112.579 171.133 112.959 170.597 113.278 170.024Z" fill="#6F53AA"/>
<path d="M102.35 172.759C102.523 172.804 102.694 172.86 102.869 172.893C103.108 172.931 103.349 172.953 103.591 172.959C103.697 172.958 103.799 172.915 103.875 172.84C103.95 172.764 103.993 172.662 103.994 172.556C103.992 172.45 103.949 172.348 103.873 172.273C103.798 172.198 103.697 172.155 103.591 172.153C103.41 172.143 103.227 172.137 103.048 172.113L103.154 172.127C102.955 172.09 102.758 172.042 102.565 171.982C102.462 171.954 102.352 171.968 102.259 172.02C102.166 172.073 102.098 172.16 102.069 172.263C102.041 172.366 102.054 172.476 102.107 172.569C102.16 172.662 102.247 172.73 102.35 172.759Z" fill="#A189F7"/>
<path d="M105.665 173.212C105.843 173.22 106.023 173.241 106.2 173.238C106.442 173.222 106.682 173.191 106.919 173.144C107.02 173.117 107.107 173.051 107.161 172.961C107.214 172.866 107.228 172.755 107.201 172.65C107.172 172.549 107.106 172.462 107.016 172.408C106.92 172.359 106.81 172.345 106.705 172.368C106.584 172.387 106.463 172.407 106.341 172.423L106.448 172.408C106.337 172.425 106.224 172.433 106.112 172.431C105.964 172.431 105.815 172.415 105.665 172.407C105.559 172.407 105.457 172.45 105.382 172.526C105.306 172.601 105.264 172.703 105.263 172.809C105.265 172.916 105.308 173.017 105.383 173.092C105.458 173.167 105.559 173.21 105.665 173.212Z" fill="#A189F7"/>
<path d="M98.4681 171.817C98.4052 170.999 98.3215 170.002 97.8123 169.315C97.4821 168.871 96.9488 168.671 96.4381 168.95C95.5552 169.444 95.3022 170.839 95.9257 171.614C96.4268 172.239 97.3258 172.309 98.0653 172.22C98.1712 172.217 98.272 172.174 98.347 172.099C98.4219 172.024 98.4652 171.923 98.4681 171.817C98.4676 171.711 98.4251 171.608 98.3496 171.533C98.2742 171.458 98.172 171.415 98.0653 171.415C97.8762 171.439 97.6856 171.45 97.495 171.447C97.4176 171.447 97.3419 171.439 97.2662 171.434C97.1905 171.429 97.2662 171.434 97.242 171.434C97.2179 171.434 97.1598 171.421 97.1196 171.411C97.0581 171.398 96.9973 171.382 96.9375 171.363L96.8489 171.331C96.8054 171.316 96.8843 171.347 96.8843 171.345C96.8646 171.338 96.8452 171.329 96.8263 171.319C96.7796 171.294 96.7329 171.268 96.6878 171.241L96.6314 171.2C96.6975 171.247 96.662 171.226 96.6314 171.191C96.6008 171.155 96.567 171.123 96.5331 171.089C96.4993 171.055 96.567 171.152 96.5331 171.089C96.5196 171.065 96.5045 171.042 96.488 171.02C96.4735 170.994 96.4171 170.878 96.4445 170.939C96.4719 171 96.4445 170.939 96.4445 170.922L96.4203 170.844C96.4091 170.801 96.4042 170.757 96.393 170.715C96.3817 170.673 96.393 170.815 96.393 170.73C96.393 170.707 96.393 170.683 96.393 170.659C96.393 170.635 96.393 170.564 96.393 170.516C96.393 170.495 96.393 170.474 96.393 170.454C96.393 170.356 96.3801 170.511 96.393 170.454C96.4155 170.359 96.43 170.266 96.4606 170.174C96.4703 170.145 96.517 170.027 96.4912 170.089C96.4655 170.15 96.5202 170.029 96.5347 170.002C96.5492 169.974 96.5766 169.927 96.5992 169.892C96.6217 169.857 96.7055 169.757 96.6233 169.849C96.6781 169.787 96.7442 169.731 96.7973 169.67C96.8505 169.608 96.72 169.715 96.7684 169.691C96.7851 169.681 96.8012 169.67 96.8167 169.658C96.8392 169.646 96.9504 169.592 96.8747 169.623C96.799 169.654 96.9117 169.623 96.9359 169.608C97.0197 169.578 96.8312 169.608 96.9472 169.608C96.9649 169.61 96.9827 169.61 97.0004 169.608C96.9891 169.608 96.915 169.584 96.9311 169.599H96.9536C96.9649 169.599 96.9955 169.612 97.0068 169.613C97.068 169.613 96.9456 169.573 96.9778 169.6C97.0101 169.625 97.0446 169.646 97.0809 169.663C97.0439 169.644 97.0165 169.6 97.0583 169.647L97.1147 169.704C97.1357 169.724 97.1534 169.747 97.1727 169.768C97.1228 169.715 97.1421 169.726 97.1727 169.768C97.2034 169.81 97.2468 169.887 97.2791 169.948C97.2952 169.979 97.3081 170.01 97.3226 170.04C97.3371 170.071 97.3532 170.111 97.3226 170.029L97.3467 170.089C97.3773 170.172 97.4063 170.25 97.4321 170.338C97.5648 170.812 97.6458 171.298 97.6738 171.788C97.6759 171.895 97.719 171.996 97.794 172.071C97.8691 172.146 97.9704 172.189 98.0766 172.191C98.183 172.19 98.2847 172.147 98.36 172.072C98.4353 171.996 98.4781 171.895 98.4794 171.788L98.4681 171.817Z" fill="#A189F7"/>
<path d="M98.4614 171.936C98.825 171.587 99.2204 171.272 99.6423 170.996C99.7938 170.9 99.9509 170.814 100.113 170.737C100.19 170.701 100.163 170.716 100.145 170.724L100.242 170.687C100.306 170.664 100.369 170.647 100.435 170.631C100.462 170.631 100.491 170.631 100.519 170.614C100.546 170.598 100.417 170.614 100.519 170.614H100.68C100.767 170.614 100.607 170.589 100.654 170.614C100.672 170.614 100.696 170.614 100.715 170.629C100.734 170.637 100.752 170.643 100.772 170.647C100.797 170.647 100.67 170.605 100.752 170.647C100.768 170.658 100.784 170.667 100.801 170.676C100.841 170.689 100.725 170.597 100.772 170.655C100.783 170.669 100.796 170.682 100.81 170.693C100.868 170.742 100.797 170.705 100.794 170.669C100.808 170.703 100.827 170.734 100.851 170.763C100.889 170.814 100.825 170.668 100.838 170.73C100.838 170.751 100.852 170.772 100.857 170.793C100.862 170.814 100.872 170.872 100.883 170.909C100.894 170.946 100.883 170.788 100.883 170.887C100.883 170.911 100.883 170.935 100.883 170.959C100.883 170.983 100.883 171.046 100.883 171.09C100.883 171.133 100.875 171.135 100.883 171.157C100.883 171.03 100.893 171.101 100.883 171.157C100.864 171.254 100.838 171.349 100.806 171.443C100.806 171.465 100.786 171.488 100.778 171.512C100.77 171.536 100.823 171.42 100.778 171.501C100.752 171.551 100.728 171.602 100.701 171.65C100.673 171.699 100.649 171.737 100.62 171.779C100.591 171.821 100.59 171.82 100.577 171.841C100.594 171.812 100.63 171.779 100.577 171.841C100.524 171.902 100.424 171.989 100.35 172.066C100.306 172.108 100.437 172.01 100.35 172.066L100.287 172.106C100.242 172.135 100.193 172.156 100.147 172.184C100.1 172.211 100.237 172.156 100.156 172.184L100.076 172.211C100.024 172.227 99.9694 172.234 99.9146 172.248C99.9516 172.237 99.9984 172.248 99.9146 172.248H99.8131H99.7213C99.6069 172.248 99.7648 172.264 99.7116 172.248C99.6584 172.232 99.5714 172.219 99.5037 172.197L99.4006 172.16C99.3378 172.137 99.4216 172.16 99.428 172.172L99.3588 172.139C99.2814 172.098 99.2057 172.056 99.1332 172.01L99.0236 171.934C98.9318 171.868 99.0446 171.955 98.956 171.881C98.7832 171.732 98.6216 171.57 98.4726 171.397C98.3959 171.329 98.2958 171.292 98.1929 171.295C98.0901 171.298 97.9922 171.34 97.9194 171.413C97.8466 171.486 97.8045 171.584 97.8016 171.686C97.7987 171.789 97.8353 171.889 97.9039 171.966C98.3872 172.53 99.0704 173.081 99.8582 173.062C100.151 173.045 100.436 172.958 100.688 172.808C100.941 172.659 101.153 172.451 101.308 172.201C101.611 171.767 101.737 171.232 101.659 170.708C101.617 170.453 101.482 170.223 101.28 170.063C101.077 169.902 100.823 169.822 100.565 169.838C100.16 169.874 99.7691 170.006 99.4248 170.223C98.8739 170.555 98.3625 170.949 97.9007 171.397C97.5189 171.749 98.0892 172.317 98.4694 171.966L98.4614 171.936Z" fill="#A189F7"/>
<path d="M97.6762 171.708C97.4249 172.433 97.0946 173.073 96.782 173.803C96.4248 174.635 96.1872 175.513 96.0764 176.411C95.9964 177.118 95.9727 177.83 96.0055 178.541C96.0248 179.058 96.8304 179.061 96.811 178.541C96.746 177.459 96.8432 176.373 97.0994 175.319C97.3112 174.602 97.585 173.905 97.9179 173.236C98.1128 172.804 98.2981 172.369 98.4528 171.921C98.4812 171.818 98.4675 171.708 98.4148 171.615C98.3621 171.522 98.2746 171.454 98.1716 171.426C98.0686 171.397 97.9586 171.411 97.8657 171.464C97.7728 171.516 97.7046 171.604 97.6762 171.707V171.708Z" fill="#A189F7"/>
<path d="M97.8137 171.62C97.2887 174.289 97.611 177.056 98.7352 179.533C98.7666 179.633 98.8352 179.718 98.9271 179.77C99.019 179.823 99.1272 179.838 99.2298 179.813C99.3325 179.784 99.4198 179.716 99.4726 179.624C99.5254 179.531 99.5395 179.421 99.5118 179.318C98.9854 178.126 98.6291 176.866 98.4533 175.574C98.3277 174.327 98.3743 173.069 98.5918 171.835C98.6167 171.732 98.6013 171.623 98.549 171.531C98.4966 171.439 98.4111 171.37 98.3099 171.338C98.2067 171.312 98.0972 171.326 98.0045 171.379C97.9118 171.431 97.8434 171.518 97.8137 171.62Z" fill="#A189F7"/>
<path d="M98.0645 172.2C98.3261 172.2 98.5382 171.988 98.5382 171.727C98.5382 171.465 98.3261 171.253 98.0645 171.253C97.8029 171.253 97.5908 171.465 97.5908 171.727C97.5908 171.988 97.8029 172.2 98.0645 172.2Z" fill="#7D66BC"/>
<path d="M147.684 157.477L134.052 154.707H122.574L108.245 157.216L108.007 176.955L107.528 216.835H110.865H144.962H147.93L147.764 176.956L147.684 157.477Z" fill="#7D66BC"/>
<path d="M127.679 109.192C129.688 108.666 130.256 115.741 133.516 118.604C136.925 121.604 141.188 118.797 140.616 123.302C140.294 125.789 142.646 127.945 140.463 129.282C139.657 129.765 140.395 131.043 141.204 130.548C145.729 127.777 146.39 121.815 145.09 117.089C143.757 112.256 139.783 108.067 134.856 106.87C132.179 106.191 129.344 106.568 126.937 107.924C126.117 108.391 126.855 109.659 127.679 109.192Z" fill="#2D2D2D"/>
<path d="M131.484 110.396C128.516 107.335 123.85 107.923 120.435 109.863C116.542 112.073 113.563 116.209 113.534 120.788C113.515 123.87 114.859 126.688 116.771 129.038C117.367 129.771 118.4 128.729 117.809 128.002C116.291 126.137 119.995 125.246 119.853 122.813C119.736 120.784 119.357 122.329 120.72 120.836C122.639 118.732 123.203 118.742 126.9 118.477C128.738 118.344 129.446 115.398 130.749 116.742C131.406 117.422 132.143 111.074 131.484 110.396Z" fill="#2D2D2D"/>
<path d="M119.444 135.141L118.994 131.627C118.994 131.627 118.162 128.218 115.611 128.547C113.061 128.875 111.656 130.894 113.009 134.186C113.024 134.218 113.035 134.252 113.051 134.284C113.902 136.261 116.596 136.954 118.511 135.734L119.444 135.141Z" fill="#F9B189"/>
<path opacity="0.5" d="M115.418 129.515C114.73 129.646 114.224 130.182 113.894 130.736C113.573 131.315 113.416 131.971 113.441 132.633C113.436 132.955 113.5 133.274 113.628 133.57C113.756 133.865 113.945 134.13 114.184 134.347C114.3 134.432 114.443 134.471 114.587 134.459C114.73 134.446 114.864 134.382 114.964 134.278C115.168 134.047 115.031 133.686 114.817 133.496C114.55 133.253 114.55 132.916 114.55 132.563C114.537 132.116 114.636 131.673 114.838 131.274C115.039 130.88 115.389 130.438 115.739 130.469C116.183 130.504 116.222 130.849 116.523 131.081C117.071 131.498 117.733 130.993 117.387 130.425C117.193 130.103 116.57 129.298 115.421 129.517" fill="#F0584A"/>
<path d="M139.931 135.141L140.379 131.627C140.379 131.627 141.213 128.218 143.762 128.547C146.311 128.875 147.716 130.894 146.364 134.186C146.349 134.218 146.336 134.252 146.322 134.284C145.471 136.261 142.778 136.954 140.86 135.734L139.931 135.141Z" fill="#F9B189"/>
<path opacity="0.5" d="M143.956 129.515C144.644 129.646 145.15 130.182 145.48 130.736C145.802 131.315 145.959 131.971 145.933 132.633C145.939 132.955 145.875 133.275 145.747 133.57C145.619 133.866 145.429 134.131 145.19 134.347C145.074 134.432 144.931 134.471 144.788 134.458C144.645 134.446 144.511 134.381 144.412 134.278C144.207 134.047 144.343 133.686 144.557 133.496C144.826 133.253 144.821 132.91 144.829 132.563C144.841 132.116 144.741 131.673 144.539 131.274C144.338 130.88 143.99 130.438 143.64 130.469C143.196 130.504 143.157 130.849 142.854 131.081C142.306 131.498 141.644 130.993 141.99 130.425C142.184 130.103 142.807 129.298 143.956 129.517" fill="#F0584A"/>
<path d="M119.237 113.33C120.137 113.62 120.526 112.202 119.627 111.915C117.344 111.179 114.856 110.414 112.426 110.518C111.15 110.575 109.849 110.944 109.003 111.954C107.553 113.67 107.699 116.27 106.641 118.015C105.869 119.289 104.461 119.961 102.866 120.271C102.417 120.356 102.177 120.976 102.428 121.348C104.513 124.435 107.93 125.85 112.483 125.097C114.598 124.749 116.002 123.586 117.413 122.009C118.04 121.306 121.154 117.971 118.175 117.432" fill="#2D2D2D"/>
<path d="M139.955 113.33C139.055 113.62 138.666 112.202 139.565 111.915C141.848 111.179 144.336 110.414 146.765 110.518C148.041 110.575 149.343 110.944 150.189 111.954C151.639 113.67 151.492 116.27 152.551 118.015C153.324 119.289 154.731 119.961 156.326 120.271C156.775 120.356 157.015 120.976 156.764 121.348C154.679 124.435 151.264 125.85 146.709 125.097C144.594 124.749 143.19 123.586 141.781 122.009C141.152 121.306 138.04 117.971 141.017 117.432" fill="#2D2D2D"/>
<path d="M128.647 160.013C128.054 157.101 121.018 157.686 120.19 152.205C107.838 160.067 126.838 171.817 128.927 163.567C129.25 162.46 128.647 160.013 128.647 160.013Z" fill="#A189F7"/>
<path d="M128.806 160.013C129.401 157.101 136.436 157.686 137.264 152.205C149.617 160.067 130.615 171.817 128.526 163.567C128.205 162.46 128.806 160.013 128.806 160.013Z" fill="#A189F7"/>
<path d="M116.629 158.227C116.639 158.459 116.664 158.69 116.705 158.919C116.748 159.136 116.801 159.351 116.866 159.563C116.895 159.666 116.963 159.753 117.056 159.806C117.149 159.859 117.259 159.873 117.362 159.844C117.465 159.816 117.552 159.748 117.605 159.655C117.658 159.562 117.671 159.452 117.643 159.349C117.559 159.089 117.494 158.823 117.45 158.553L117.464 158.661C117.446 158.517 117.437 158.372 117.429 158.229C117.429 158.122 117.386 158.02 117.311 157.944C117.235 157.869 117.133 157.826 117.026 157.826C116.919 157.826 116.817 157.869 116.741 157.944C116.665 158.02 116.623 158.122 116.623 158.229L116.629 158.227Z" fill="#6F53AA"/>
<path d="M117.632 161.172C117.721 161.352 117.822 161.525 117.934 161.691C118.079 161.897 118.244 162.087 118.408 162.279C118.483 162.354 118.585 162.396 118.692 162.397C118.798 162.396 118.9 162.354 118.977 162.279C119.052 162.203 119.094 162.101 119.094 161.994C119.09 161.888 119.049 161.787 118.977 161.709C118.867 161.582 118.758 161.454 118.655 161.322L118.717 161.403C118.568 161.203 118.438 160.99 118.328 160.766C118.272 160.674 118.182 160.608 118.078 160.582C117.974 160.556 117.864 160.573 117.772 160.628C117.681 160.683 117.616 160.772 117.589 160.874C117.562 160.977 117.575 161.086 117.627 161.179L117.632 161.172Z" fill="#6F53AA"/>
<path d="M119.791 163.671C119.957 163.831 120.134 163.979 120.321 164.116C120.503 164.241 120.691 164.357 120.885 164.464C120.93 164.49 120.981 164.508 121.033 164.515C121.086 164.522 121.139 164.519 121.19 164.505C121.241 164.492 121.289 164.468 121.331 164.436C121.373 164.404 121.409 164.364 121.436 164.319C121.462 164.273 121.48 164.222 121.487 164.17C121.494 164.118 121.491 164.064 121.477 164.013C121.464 163.962 121.44 163.914 121.408 163.872C121.376 163.83 121.336 163.794 121.291 163.768C121.067 163.646 120.852 163.509 120.646 163.358L120.728 163.421C120.601 163.321 120.482 163.212 120.364 163.099C120.287 163.026 120.185 162.984 120.079 162.981C119.972 162.983 119.87 163.025 119.794 163.099C119.72 163.176 119.679 163.278 119.679 163.384C119.679 163.491 119.72 163.593 119.794 163.669L119.791 163.671Z" fill="#6F53AA"/>
<path d="M122.605 165.261C122.814 165.363 123.029 165.452 123.25 165.525C123.461 165.59 123.677 165.644 123.894 165.686C123.999 165.713 124.11 165.698 124.205 165.646C124.273 165.606 124.329 165.547 124.363 165.475C124.398 165.404 124.412 165.324 124.401 165.246C124.391 165.167 124.358 165.093 124.305 165.033C124.253 164.974 124.185 164.931 124.108 164.91C123.793 164.854 123.484 164.767 123.185 164.652L123.282 164.692C123.192 164.653 123.103 164.613 123.016 164.571C122.921 164.52 122.81 164.505 122.705 164.531C122.629 164.553 122.561 164.596 122.509 164.656C122.458 164.715 122.425 164.789 122.415 164.867C122.404 164.946 122.417 165.025 122.452 165.096C122.486 165.167 122.541 165.227 122.608 165.267L122.605 165.261Z" fill="#6F53AA"/>
<path d="M126.072 165.548C126.295 165.488 126.514 165.411 126.726 165.32C126.928 165.229 127.125 165.128 127.316 165.017C127.408 164.962 127.474 164.874 127.501 164.771C127.528 164.668 127.514 164.558 127.461 164.466C127.406 164.375 127.317 164.309 127.215 164.282C127.112 164.255 127.003 164.269 126.91 164.321C126.715 164.434 126.514 164.537 126.307 164.63L126.404 164.59C126.226 164.661 126.045 164.721 125.86 164.77C125.756 164.798 125.669 164.866 125.616 164.959C125.563 165.052 125.549 165.162 125.577 165.266C125.605 165.369 125.673 165.456 125.766 165.51C125.859 165.563 125.969 165.576 126.072 165.548Z" fill="#6F53AA"/>
<path d="M139.946 158.227C139.946 158.37 139.929 158.515 139.91 158.658L139.925 158.55C139.88 158.82 139.816 159.086 139.731 159.346C139.717 159.397 139.713 159.451 139.72 159.503C139.726 159.556 139.743 159.606 139.769 159.652C139.795 159.698 139.83 159.739 139.872 159.771C139.914 159.804 139.961 159.828 140.012 159.842C140.063 159.856 140.117 159.86 140.169 159.853C140.222 159.847 140.272 159.83 140.318 159.804C140.364 159.778 140.405 159.743 140.437 159.701C140.47 159.659 140.494 159.612 140.508 159.561C140.571 159.348 140.635 159.135 140.669 158.916C140.709 158.688 140.734 158.457 140.743 158.225C140.743 158.118 140.7 158.016 140.625 157.941C140.549 157.865 140.447 157.823 140.34 157.822C140.234 157.825 140.133 157.868 140.058 157.943C139.983 158.018 139.94 158.119 139.938 158.225L139.946 158.227Z" fill="#6F53AA"/>
<path d="M139.053 160.766C138.943 160.99 138.812 161.203 138.663 161.403L138.726 161.322C138.623 161.454 138.513 161.581 138.404 161.709C138.331 161.786 138.289 161.888 138.286 161.994C138.286 162.047 138.296 162.099 138.316 162.148C138.337 162.197 138.366 162.242 138.404 162.279C138.441 162.317 138.486 162.346 138.535 162.366C138.583 162.387 138.636 162.397 138.689 162.397C138.796 162.396 138.898 162.354 138.974 162.279C139.135 162.087 139.296 161.897 139.446 161.691C139.559 161.525 139.66 161.352 139.749 161.172C139.801 161.077 139.816 160.966 139.789 160.861C139.761 160.76 139.694 160.674 139.604 160.621C139.558 160.594 139.507 160.577 139.453 160.57C139.4 160.563 139.346 160.567 139.295 160.581C139.193 160.609 139.106 160.675 139.053 160.766Z" fill="#6F53AA"/>
<path d="M137.021 163.101C136.904 163.212 136.785 163.322 136.656 163.423L136.738 163.36C136.532 163.511 136.317 163.648 136.093 163.77C136.004 163.824 135.938 163.91 135.908 164.011C135.881 164.116 135.895 164.227 135.948 164.321C136.003 164.412 136.092 164.478 136.195 164.505C136.297 164.532 136.407 164.518 136.499 164.466C136.693 164.36 136.882 164.243 137.063 164.118C137.25 163.982 137.427 163.833 137.593 163.673C137.668 163.597 137.71 163.494 137.71 163.388C137.71 163.281 137.668 163.179 137.593 163.103C137.517 163.029 137.415 162.988 137.309 162.988C137.203 162.988 137.101 163.029 137.025 163.103L137.021 163.101Z" fill="#6F53AA"/>
<path d="M134.367 164.565L134.101 164.686L134.196 164.646C133.898 164.762 133.588 164.848 133.273 164.904C133.17 164.933 133.083 165.002 133.031 165.094C132.979 165.187 132.965 165.297 132.993 165.4C133.023 165.501 133.092 165.587 133.184 165.639C133.276 165.691 133.385 165.706 133.487 165.68C133.705 165.638 133.92 165.584 134.132 165.519C134.352 165.446 134.568 165.358 134.776 165.255C134.867 165.202 134.933 165.116 134.961 165.015C134.976 164.964 134.979 164.91 134.973 164.858C134.966 164.805 134.95 164.754 134.923 164.708C134.897 164.662 134.862 164.622 134.82 164.589C134.778 164.557 134.731 164.533 134.679 164.519C134.575 164.495 134.465 164.51 134.37 164.559L134.367 164.565Z" fill="#6F53AA"/>
<path d="M131.522 164.77C131.337 164.721 131.154 164.661 130.976 164.59L131.073 164.63C130.867 164.537 130.666 164.434 130.47 164.321C130.424 164.294 130.374 164.276 130.322 164.269C130.269 164.262 130.216 164.265 130.165 164.279C130.113 164.292 130.065 164.316 130.023 164.348C129.981 164.38 129.946 164.42 129.919 164.466C129.892 164.511 129.875 164.562 129.868 164.614C129.861 164.667 129.864 164.72 129.878 164.771C129.891 164.822 129.914 164.87 129.946 164.912C129.978 164.954 130.018 164.99 130.064 165.017C130.255 165.128 130.452 165.229 130.654 165.319C130.866 165.411 131.085 165.487 131.308 165.548C131.411 165.577 131.521 165.563 131.614 165.51C131.707 165.457 131.776 165.369 131.804 165.266C131.833 165.163 131.819 165.053 131.766 164.96C131.713 164.867 131.625 164.798 131.522 164.77Z" fill="#6F53AA"/>
<path d="M118.357 111.489C118.314 110.742 118.199 110.001 118.014 109.276C117.903 108.824 117.712 108.395 117.45 108.01C116.986 107.382 116.24 107.089 115.516 107.491C114.946 107.814 114.569 108.458 114.411 109.077C114.307 109.439 114.288 109.821 114.358 110.191C114.427 110.562 114.582 110.911 114.811 111.211C115.507 112.081 116.768 112.178 117.791 112.051C118.093 112.014 118.354 111.819 118.354 111.489C118.354 111.213 118.094 110.891 117.791 110.926C117.524 110.961 117.255 110.976 116.986 110.971C116.879 110.971 116.775 110.962 116.664 110.952C116.502 110.938 116.775 110.975 116.62 110.952C116.568 110.942 116.517 110.934 116.459 110.923C116.365 110.902 116.273 110.876 116.182 110.846C116.146 110.834 116.114 110.82 116.08 110.809C115.98 110.775 116.208 110.873 116.117 110.825C116.095 110.812 116.071 110.802 116.048 110.791C115.983 110.758 115.92 110.722 115.86 110.681L115.811 110.648C115.742 110.602 115.845 110.631 115.861 110.688C115.861 110.665 115.794 110.631 115.776 110.615C115.724 110.567 115.682 110.515 115.634 110.465C115.56 110.388 115.716 110.59 115.652 110.486C115.629 110.451 115.605 110.417 115.584 110.382C115.563 110.346 115.534 110.264 115.5 110.221C115.594 110.351 115.537 110.312 115.513 110.24C115.502 110.208 115.492 110.175 115.483 110.143C115.465 110.08 115.455 110.018 115.442 109.953C115.418 109.848 115.455 110.114 115.442 109.992C115.442 109.952 115.442 109.91 115.442 109.869C115.442 109.829 115.442 109.745 115.442 109.684C115.442 109.65 115.442 109.615 115.442 109.581C115.454 109.436 115.425 109.671 115.442 109.608C115.467 109.473 115.499 109.339 115.539 109.207C115.549 109.178 115.56 109.151 115.57 109.122C115.615 108.996 115.595 109.136 115.555 109.152C115.581 109.143 115.628 108.991 115.642 108.972C115.671 108.917 115.702 108.864 115.736 108.811L115.784 108.74L115.811 108.701C115.869 108.616 115.716 108.811 115.776 108.748C115.835 108.685 115.937 108.587 116.013 108.506C116.055 108.463 115.868 108.603 115.979 108.534L116.042 108.492L116.104 108.456L116.14 108.439C116.219 108.389 115.995 108.484 116.071 108.468C116.114 108.458 116.159 108.44 116.203 108.427C116.314 108.394 116.093 108.427 116.142 108.427C116.167 108.429 116.192 108.429 116.217 108.427C116.242 108.429 116.267 108.429 116.291 108.427C116.169 108.458 116.13 108.395 116.225 108.427C116.247 108.436 116.27 108.442 116.293 108.447C116.423 108.476 116.174 108.377 116.264 108.432C116.306 108.46 116.353 108.49 116.398 108.514C116.443 108.539 116.327 108.466 116.327 108.46C116.327 108.453 116.365 108.492 116.37 108.497C116.375 108.502 116.42 108.543 116.443 108.568C116.465 108.592 116.506 108.658 116.528 108.664C116.528 108.664 116.441 108.54 116.481 108.606L116.523 108.664C116.577 108.743 116.626 108.826 116.67 108.911C116.694 108.957 116.717 109.006 116.739 109.054C116.752 109.076 116.763 109.1 116.77 109.125C116.76 109.065 116.728 109.017 116.762 109.109C116.807 109.23 116.85 109.351 116.887 109.475C116.976 109.777 117.045 110.084 117.095 110.395C117.11 110.477 117.121 110.556 117.134 110.641C117.16 110.802 117.126 110.572 117.134 110.673L117.153 110.834C117.179 111.057 117.2 111.277 117.216 111.5C117.219 111.648 117.28 111.789 117.384 111.894C117.489 111.999 117.63 112.059 117.778 112.062C117.927 112.061 118.069 112.001 118.175 111.896C118.28 111.791 118.339 111.649 118.341 111.5L118.357 111.489Z" fill="#A189F7"/>
<path d="M118.348 111.658C118.648 111.379 118.956 111.11 119.278 110.852C119.294 110.839 119.415 110.744 119.307 110.828C119.341 110.801 119.376 110.775 119.412 110.749C119.479 110.698 119.547 110.648 119.615 110.599C119.742 110.509 119.869 110.422 120 110.34C120.219 110.201 120.447 110.077 120.683 109.968C120.82 109.905 120.564 110.011 120.7 109.968L120.845 109.913C120.934 109.882 121.024 109.857 121.116 109.837L121.24 109.813C121.33 109.792 121.079 109.823 121.171 109.823H121.229C121.301 109.823 121.371 109.823 121.443 109.823C121.556 109.823 121.272 109.782 121.406 109.823C121.434 109.823 121.461 109.834 121.488 109.842C121.516 109.85 121.54 109.861 121.566 109.868C121.64 109.886 121.422 109.791 121.485 109.834C121.5 109.844 121.519 109.85 121.535 109.86C121.557 109.875 121.581 109.89 121.604 109.903C121.657 109.929 121.474 109.782 121.554 109.866L121.612 109.923C121.715 110.018 121.548 109.813 121.593 109.892C121.617 109.936 121.645 109.979 121.669 110.023C121.733 110.132 121.624 109.879 121.651 109.979C121.651 110.006 121.67 110.034 121.678 110.061C121.688 110.12 121.701 110.178 121.717 110.235C121.651 110.074 121.704 110.101 121.707 110.179C121.707 110.216 121.707 110.253 121.707 110.29C121.707 110.327 121.707 110.411 121.707 110.47C121.707 110.504 121.699 110.538 121.698 110.572C121.698 110.657 121.725 110.411 121.707 110.49C121.707 110.512 121.707 110.536 121.696 110.559C121.67 110.697 121.633 110.833 121.585 110.965C121.574 110.997 121.559 111.028 121.55 111.06C121.521 111.142 121.616 110.917 121.577 110.994C121.577 111.01 121.562 111.028 121.554 111.044C121.521 111.112 121.488 111.179 121.451 111.245C121.414 111.311 121.374 111.374 121.332 111.437L121.277 111.514C121.218 111.603 121.384 111.392 121.277 111.514C121.171 111.637 121.066 111.727 120.955 111.837C120.915 111.874 121.086 111.745 120.979 111.816C120.947 111.837 120.918 111.859 120.886 111.879C120.821 111.919 120.755 111.953 120.689 111.986C120.555 112.056 120.815 111.946 120.702 111.986L120.594 112.024C120.521 112.045 120.446 112.063 120.37 112.077C120.283 112.096 120.37 112.036 120.443 112.077C120.427 112.077 120.381 112.077 120.364 112.077H120.243C120.195 112.077 120.146 112.077 120.098 112.077H120.035C119.946 112.077 120.206 112.109 120.079 112.077C119.982 112.058 119.887 112.034 119.793 112.006C119.738 111.991 119.684 111.971 119.632 111.948C119.632 111.948 119.781 112.017 119.674 111.964L119.605 111.932C119.49 111.875 119.379 111.812 119.271 111.742C119.221 111.709 119.173 111.676 119.125 111.64C119.098 111.624 119.074 111.606 119.051 111.585C119.163 111.708 119.078 111.606 119.041 111.574C118.791 111.365 118.559 111.135 118.348 110.886C118.242 110.782 118.099 110.723 117.95 110.723C117.801 110.723 117.658 110.782 117.552 110.886C117.45 110.993 117.393 111.135 117.393 111.283C117.393 111.431 117.45 111.574 117.552 111.68C118.232 112.467 119.183 113.233 120.28 113.208C121.127 113.188 121.838 112.697 122.304 112.014C122.727 111.408 122.904 110.664 122.798 109.932C122.742 109.574 122.554 109.249 122.27 109.023C121.986 108.796 121.628 108.685 121.266 108.709C120.054 108.769 118.948 109.676 118.073 110.422C117.896 110.572 117.723 110.728 117.552 110.886C117.499 110.938 117.456 111 117.427 111.069C117.398 111.137 117.382 111.211 117.382 111.286C117.381 111.36 117.396 111.434 117.424 111.503C117.452 111.572 117.494 111.635 117.547 111.687C117.6 111.74 117.662 111.782 117.731 111.81C117.801 111.838 117.875 111.852 117.949 111.852C118.024 111.851 118.097 111.836 118.166 111.806C118.234 111.777 118.296 111.734 118.348 111.68V111.658Z" fill="#A189F7"/>
<path d="M117.251 111.341C117.156 111.618 117.053 111.894 116.942 112.164C116.931 112.193 116.842 112.406 116.902 112.264C116.877 112.32 116.853 112.378 116.828 112.435C116.771 112.565 116.713 112.696 116.655 112.826C116.442 113.298 116.222 113.767 116.011 114.244C115.506 115.421 115.172 116.663 115.018 117.934C114.908 118.915 114.876 119.903 114.922 120.89C114.922 121.04 114.981 121.183 115.087 121.289C115.193 121.394 115.336 121.454 115.485 121.454C115.635 121.454 115.778 121.394 115.884 121.289C115.99 121.183 116.049 121.04 116.049 120.89C116.01 120.017 116.03 119.143 116.109 118.274C116.117 118.178 116.128 118.083 116.138 117.99C116.138 117.943 116.149 117.897 116.156 117.851C116.169 117.747 116.136 117.984 116.156 117.811C116.175 117.639 116.209 117.466 116.239 117.294C116.297 116.986 116.365 116.682 116.447 116.38C116.595 115.847 116.775 115.322 116.989 114.811C117.002 114.781 117.04 114.69 116.989 114.811C116.998 114.787 117.01 114.763 117.019 114.737L117.1 114.555C117.153 114.433 117.206 114.312 117.261 114.193C117.37 113.949 117.483 113.709 117.593 113.468C117.863 112.868 118.121 112.262 118.336 111.641C118.374 111.497 118.355 111.344 118.281 111.214C118.207 111.085 118.086 110.99 117.942 110.949C117.799 110.913 117.647 110.933 117.518 111.006C117.389 111.079 117.294 111.199 117.251 111.341Z" fill="#A189F7"/>
<path d="M116.34 123.665C116.34 123.665 116.63 128.238 119.328 135.077C119.602 135.77 119.941 143.566 119.941 143.566L120.145 155.092C120.306 159.306 124.353 162.59 129.138 162.379C133.751 162.177 137.355 158.789 137.281 154.728C137.215 151.096 137.354 145.394 137.354 145.394C137.354 145.394 140.328 140.837 140.811 134.874C141.294 128.911 142.47 120.884 142.47 120.884L132.472 115.768L116.34 123.665Z" fill="#F9B189"/>
<path d="M137.371 145.383V145.372C129.841 149.042 123.01 145.533 123.01 145.533L135.883 158.967C136.822 157.743 137.322 156.238 137.302 154.696C137.236 151.17 137.363 145.678 137.371 145.383Z" fill="#E97C63"/>
<path d="M126.214 112.285C128.858 117.763 121.189 119.498 117.324 120.85C115.99 121.317 116.95 123.552 115.576 123.885C114.659 124.107 115.576 126.034 116.49 125.818C119.374 125.138 122.173 124.135 124.834 122.828C127.402 121.539 130.25 119.717 131.293 116.894C131.869 115.332 131.694 112.67 130.474 111.578C129.71 110.896 129.238 112.108 129.648 112.955L126.214 112.285Z" fill="#2D2D2D"/>
<path d="M117.45 111.217C117.195 112.664 117.087 114.133 117.128 115.602C117.191 117.011 117.428 118.406 117.832 119.757C118.087 120.605 118.388 121.439 118.732 122.255C118.85 122.535 119.104 122.738 119.423 122.648C119.688 122.575 119.934 122.238 119.817 121.956C119.236 120.611 118.795 119.208 118.5 117.772C118.374 117.142 118.292 116.503 118.255 115.862C118.218 115.205 118.218 114.547 118.255 113.891C118.303 113.095 118.392 112.302 118.523 111.515C118.558 111.371 118.536 111.22 118.463 111.091C118.39 110.963 118.271 110.867 118.13 110.824C117.862 110.751 117.485 110.915 117.439 111.217H117.45Z" fill="#A189F7"/>
<path d="M117.794 112.027C118.159 112.027 118.455 111.731 118.455 111.367C118.455 111.002 118.159 110.706 117.794 110.706C117.43 110.706 117.134 111.002 117.134 111.367C117.134 111.731 117.43 112.027 117.794 112.027Z" fill="#7D66BC"/>
<path d="M131.074 127.922C129.756 129.3 129.785 131.343 130.251 133.153C130.369 133.609 130.506 134.059 130.647 134.508C130.789 134.958 130.986 135.385 131.037 135.834C131.132 136.654 130.172 136.704 129.576 136.722C128.911 136.743 129.012 137.128 129.65 137.302C130.357 137.495 131.15 137.642 131.677 137.07C132.371 136.318 131.999 135.314 131.724 134.47C131.079 132.493 130.444 130.241 131.34 128.235C131.611 127.631 131.208 127.782 131.074 127.922Z" fill="#DB7C5A"/>
<path d="M135.443 130.889C135.443 130.329 135.473 129.84 134.827 129.761C134.712 129.756 134.598 129.783 134.498 129.84C134.398 129.897 134.316 129.982 134.262 130.084C134.245 130.117 134.233 130.153 134.226 130.19C134.138 130.722 134.041 131.331 134.144 131.866C134.233 132.321 134.737 132.611 135.137 132.288C135.494 131.994 135.438 131.313 135.443 130.889Z" fill="#1E1B2E"/>
<path d="M125.679 130.889C125.679 130.328 125.694 129.84 125.046 129.761C124.934 129.756 124.822 129.784 124.725 129.841C124.628 129.898 124.55 129.983 124.5 130.084C124.483 130.117 124.471 130.153 124.465 130.19C124.374 130.722 124.278 131.331 124.382 131.865C124.471 132.321 124.974 132.611 125.373 132.288C125.737 131.994 125.675 131.313 125.679 130.889Z" fill="#1E1B2E"/>
<path d="M123.176 127.65C123.676 127.412 124.219 127.276 124.772 127.25C125.325 127.224 125.878 127.309 126.398 127.5C126.691 127.603 126.816 127.139 126.527 127.038C125.944 126.83 125.326 126.741 124.708 126.775C124.09 126.809 123.485 126.965 122.928 127.236C122.649 127.368 122.892 127.78 123.171 127.65H123.176Z" fill="#1E1B2E"/>
<path d="M136.593 127.236C136.038 126.967 135.436 126.811 134.821 126.777C134.205 126.743 133.589 126.831 133.008 127.038C132.718 127.139 132.847 127.603 133.136 127.5C133.656 127.309 134.208 127.225 134.762 127.25C135.315 127.276 135.858 127.412 136.358 127.65C136.635 127.78 136.878 127.368 136.599 127.236H136.593Z" fill="#1E1B2E"/>
<path d="M126.068 140.235C127.623 142.21 131.143 142.732 133.021 140.902C133.374 140.555 132.833 140.014 132.478 140.359C130.877 141.918 127.901 141.325 126.611 139.693C126.305 139.305 125.765 139.854 126.068 140.235Z" fill="#DB7C5A"/>
<path d="M130.747 115.988C132.206 121.281 136.09 126.668 142.107 126.61C143.05 126.601 144.355 118.094 143.406 118.094C138.062 118.146 135.773 118.416 134.49 113.757C134.24 112.848 130.496 115.072 130.747 115.985V115.988Z" fill="#2D2D2D"/>
</g>
<defs>
<clipPath id="clip0_682_1138">
<rect width="174" height="174" fill="white"/>
</clipPath>
</defs>
</svg>
