<?xml version="1.0" encoding="utf-8"?>
<!-- Generator: Adobe Illustrator 22.0.0, SVG Export Plug-In . SVG Version: 6.00 Build 0)  -->
<svg version="1.1" id="Capa_1" xmlns="http://www.w3.org/2000/svg" xmlns:xlink="http://www.w3.org/1999/xlink" x="0px" y="0px"
	 viewBox="0 0 750 323.7" style="enable-background:new 0 0 750 323.7;" xml:space="preserve">
<style type="text/css">
	.st0{fill:#C6C6C6;}
	.st1{fill:#8E8E8E;}
	.st2{fill:#292C9B;}
	.st3{fill:#C1C1C1;}
</style>
<g>
	<path class="st0" d="M2.8,322.2c-0.2-0.4-0.1-0.8-0.1-1.2c0-35.6,0-71.1,0-106.7c0-1,0.2-1.5,1.3-1.5c14.8,0.2,29.6,0.1,44.4,0.5
		c14.3,0.4,26.5,6.1,36.1,16.6c10.3,11.2,15,24.6,13.9,39.8c-1.5,20-11.2,35-28.6,44.8c-6.7,3.8-14,5.7-21.8,6.1
		c-6.1,0.3-12.2,0.4-18.3,0.6c-1.3,0-1.3,0-0.8-1.3c2.1-5.4,4.3-10.7,6.3-16.1c0.4-1.1,0.9-1.5,2.1-1.5c3.3,0,6.6-0.1,9.9-0.3
		c15-1,25.5-8.5,31.4-22.2c5.5-12.8,2.2-28.5-7.6-38.1c-6.6-6.4-14.6-9.8-23.9-9.8c-8.1-0.1-16.2,0-24.3-0.1c-1.2,0-1.5,0.4-1.5,1.6
		c0,28.9,0,57.7,0.1,86.6c0,1.3-0.3,1.6-1.6,1.6c-4.4,0.1-8.8,0.3-13.1,0.4c-0.4,0-0.9,0.1-1.3,0.2H2.8z"/>
	<path class="st1" d="M5.4,323.7H1.9l-0.4-0.9c-0.3-0.6-0.3-1.3-0.3-1.7l0-0.2l0-10.2c0-32.2,0-64.3,0-96.5c0-0.5,0-1.5,0.7-2.2
		c0.7-0.6,1.5-0.7,2.1-0.7c5.1,0.1,10.3,0.1,15.4,0.1c9.5,0.1,19.3,0.1,28.9,0.4c14.6,0.4,27.1,6.1,37.2,17.1
		c10.6,11.6,15.5,25.3,14.3,40.9c-1.5,20.4-11.4,35.9-29.4,46c-6.7,3.8-14.3,5.9-22.4,6.2c-4.5,0.2-8.9,0.3-13.4,0.5l-4.9,0.2
		c-0.9,0-1.8,0.1-2.4-0.8c-0.6-0.8-0.2-1.7,0.1-2.6l0.8-2.1c1.8-4.7,3.7-9.4,5.5-14.1c0.4-1.2,1.2-2.5,3.5-2.5c0.1,0,0.3,0,0.4,0
		c3.6,0,6.6-0.1,9.4-0.3c14.4-1,24.5-8.1,30.1-21.3c5.2-12.2,2.2-27.2-7.3-36.4c-6.4-6.2-14-9.4-22.8-9.4c-3.8,0-7.7,0-11.5,0
		c-4.3,0-8.5,0-12.8,0c0,0,0,0,0,0.1c0,13.3,0,26.7,0,40c0,15.5,0,31.1,0,46.6c0,2.1-1,3.1-3,3.1c-3.4,0.1-6.9,0.2-10.2,0.3
		l-2.9,0.1c-0.3,0-0.5,0-0.7,0.1L5.4,323.7z M4.1,320.7l1.3,0c0.4-0.1,0.7-0.1,1.1-0.1l2.9-0.1c3.4-0.1,6.8-0.3,10.3-0.3
		c0,0,0.1,0,0.1,0c0,0,0-0.1,0-0.1c0-15.5,0-31.1,0-46.6c0-13.3,0-26.7,0-40c0-0.8,0.1-1.7,0.8-2.3c0.7-0.7,1.6-0.7,2.2-0.7
		c4.3,0,8.5,0,12.8,0c3.8,0,7.7,0,11.5,0c9.6,0.1,18,3.5,24.9,10.3c10.3,10.1,13.6,26.4,8,39.7c-6.1,14.3-17.1,22.1-32.7,23.1
		c-2.9,0.2-6.1,0.3-10,0.3c-0.5,0-0.5,0-0.7,0.6c-1.8,4.7-3.7,9.4-5.5,14.1l-0.5,1.3l4-0.1c4.5-0.1,8.9-0.3,13.4-0.5
		c7.7-0.3,14.7-2.3,21.1-5.9c17.1-9.6,26.5-24.3,27.9-43.6c1.1-14.7-3.5-27.7-13.5-38.6c-9.5-10.4-21.3-15.8-35-16.1
		c-9.6-0.2-19.4-0.3-28.9-0.4c-5.1,0-10.2-0.1-15.3-0.1c0,32.2,0,64.3,0,96.5L4.1,320.7z"/>
	<path class="st0" d="M107.2,266.1c0-16.9,0-33.9,0-50.8c0-1.2,0.3-1.5,1.5-1.5c20.9,0.2,41.7,0.4,62.6,0.6c1.1,0,1.4,0.4,1.4,1.4
		c-0.1,4.9-0.1,9.8,0,14.7c0,1.2-0.4,1.5-1.5,1.5C156,232,141,232,125.9,232c-1.6,0-1.6,0-1.6,1.6c0,7.3,0,14.6,0,21.9
		c0,1.1,0.3,1.5,1.4,1.5c11.1-0.1,22.1-0.2,33.2-0.3c1.1,0,1.6,0.2,1.9,1.4c1.1,5,2.3,9.9,3.5,14.8c0.3,1.1,0,1.4-1.1,1.4
		c-12.4,0.2-24.9,0.4-37.3,0.6c-1.2,0-1.6,0.3-1.6,1.6c0.1,7.3,0.1,14.6,0,21.9c0,1.2,0.3,1.5,1.5,1.5c15-0.4,30-0.8,45-1.2
		c1.9-0.1,1.9,0,1.9,1.9c0,4.7,0,9.5,0,14.2c0,1-0.2,1.4-1.3,1.5c-20.9,0.7-41.8,1.4-62.7,2.2c-1.1,0-1.5-0.2-1.5-1.4
		C107.2,300.1,107.2,283.1,107.2,266.1"/>
	<path class="st1" d="M108.4,320c-0.7,0-1.4-0.1-2-0.7c-0.7-0.7-0.8-1.5-0.8-2.2c0-13.6,0-27.2,0-40.8l0-10.1l0-9.6
		c0-13.7,0-27.5,0-41.2c0-0.7,0.1-1.6,0.8-2.3c0.7-0.7,1.6-0.7,2.3-0.7c20.9,0.2,41.7,0.4,62.6,0.6c0.6,0,1.5,0.1,2.2,0.8
		c0.6,0.7,0.7,1.5,0.7,2.2c-0.1,5.6-0.1,10.3,0,14.7c0,0.6-0.1,1.6-0.7,2.3c-0.7,0.7-1.6,0.8-2.3,0.8c-12.1-0.1-24.1-0.1-36.2-0.1
		l-9.1,0c0,0-0.1,0-0.1,0c0,0,0,0.1,0,0.1l0,5.4c0,5.5,0,11,0,16.5c5.7-0.1,11.4-0.1,17.1-0.2c5.4-0.1,10.7-0.1,16.1-0.2
		c1.3,0,2.9,0.3,3.4,2.6c1.1,5,2.3,10.1,3.5,14.8c0.1,0.5,0.4,1.5-0.3,2.4c-0.7,0.9-1.8,0.9-2.3,0.9c-5.8,0.1-11.6,0.2-17.4,0.3
		c-6.6,0.1-13.3,0.2-19.9,0.3c0,0-0.1,0-0.1,0c0,0,0,0.1,0,0.1c0.1,7,0.1,14.3,0,21.9c13.2-0.4,26.4-0.7,39.6-1.1l5.3-0.1
		c1.2,0,2.1-0.1,2.8,0.6c0.7,0.7,0.7,1.6,0.7,2.8l0,3.7c0,3.5,0,7.1,0,10.6c0,1.9-0.9,2.9-2.8,3c-20.9,0.7-41.8,1.4-62.7,2.2
		C108.6,320,108.5,320,108.4,320z M108.6,215.3C108.6,215.3,108.6,215.3,108.6,215.3c0,13.8,0,27.5,0,41.3l0,9.6l0,10.1
		c0,13.6,0,27.2,0,40.8c20.8-0.8,41.7-1.5,62.5-2.2c0-3.5,0-7.1,0-10.6l0-3.6c0-0.1,0-0.3,0-0.4c-0.1,0-0.3,0-0.4,0l-5.3,0.1
		c-13.2,0.4-26.4,0.7-39.6,1.1c-0.7,0-1.6,0-2.3-0.7c-0.7-0.7-0.8-1.6-0.8-2.3c0.1-7.6,0.1-14.9,0-21.9c0-2.1,1-3.1,3.1-3.1
		c6.6-0.1,13.3-0.2,19.9-0.3c5.7-0.1,11.3-0.2,17-0.3c-1.1-4.6-2.3-9.5-3.4-14.5c0-0.1,0-0.2-0.1-0.3c-0.1,0-0.2,0-0.4,0
		c-5.4,0.1-10.7,0.1-16.1,0.2c-5.7,0.1-11.4,0.1-17.1,0.2c-0.7,0-1.6-0.1-2.2-0.7c-0.7-0.7-0.7-1.5-0.7-2.2c0-5.5,0-11,0-16.6l0-5.4
		c0-1,0-1.8,0.6-2.5c0.6-0.6,1.4-0.6,2.5-0.6l9.1,0c12.1,0,24.1,0,36.2,0.1c0,0,0,0,0,0c-0.1-4.4-0.1-9.1,0-14.7
		C150.3,215.7,129.5,215.5,108.6,215.3C108.7,215.3,108.7,215.3,108.6,215.3z"/>
	<path class="st0" d="M390.6,254.4c7.1,0,14.3,0,21.4,0c1.2,0,1.6,0.4,1.7,1.6c1.5,17-2.8,32.1-15.1,44.2
		c-7.9,7.7-17.5,11.6-28.7,10.7c-10.7-0.8-19.3-5.9-26-14c-8.8-10.6-12.3-22.9-11.6-36.5c0.5-10.9,3.9-20.9,10.5-29.7
		c5.8-7.7,13.3-13.2,22.8-15.3c12.2-2.7,23,0.5,32.4,8.8c1.4,1.2,2.6,2.6,3.9,4c0.5,0.6,0.5,1,0,1.6c-2.6,3.1-5.2,6.3-7.8,9.5
		c-0.6,0.7-0.9,0.8-1.6,0c-3.4-3.8-7.4-6.5-12.4-7.8c-8-2.1-15.3-0.4-21.6,4.9c-9.3,7.8-13,18-12.1,29.9c0.6,8.6,3.9,16.1,10.3,22
		c10.3,9.4,25.4,8.8,35-1.4c4.1-4.3,6.7-9.4,8.2-15.1c0.4-1.4,0.4-1.4-1.1-1.4c-11.1,0.2-22.1,0.4-33.2,0.5c-1.6,0-1.6,0-1.2-1.5
		c1-4.5,1.9-9,2.8-13.5c0.2-1,0.6-1.3,1.6-1.3c7.3,0,14.5,0,21.8,0V254.4z"/>
	<path class="st1" d="M373,312.5c-1.1,0-2.1,0-3.2-0.1c-10.6-0.8-19.7-5.7-27-14.5c-8.6-10.4-12.7-23-12-37.6
		c0.5-11.4,4.2-21.7,10.8-30.5c6.4-8.4,14.3-13.8,23.6-15.8c12.4-2.8,23.8,0.3,33.7,9.1c1.6,1.4,2.9,2.9,4,4.1c0.7,0.8,1.2,2,0,3.5
		c-2.6,3.1-5.2,6.3-7.8,9.4c-0.2,0.3-0.9,1.1-1.9,1.1c-1,0.1-1.7-0.7-2-1c-3.4-3.8-7.2-6.2-11.7-7.4c-7.5-1.9-14.3-0.4-20.3,4.6
		c-8.5,7.1-12.4,16.8-11.6,28.6c0.6,8.5,3.9,15.6,9.9,21c9.7,8.9,23.8,8.3,32.9-1.3c3.6-3.9,6.2-8.4,7.7-13.9l-32.7,0.5
		c-1.1,0-1.9,0-2.5-0.7c-0.6-0.7-0.4-1.6-0.2-2.5l0.3-1.3c0.9-4,1.7-8.1,2.5-12.1c0.3-1.7,1.3-2.5,3-2.5c5.5,0,10.9,0,16.4,0l4,0
		v-0.4l7,0c5.3,0,10.6,0,15.9,0c1.9,0,3,0.9,3.2,2.9c1.7,18.4-3.6,33.6-15.6,45.4C392,308.7,383.1,312.5,373,312.5z M373.9,216
		c-2.6,0-5.3,0.3-8,0.9c-8.6,1.9-16,6.9-21.9,14.7c-6.3,8.3-9.7,18-10.2,28.8c-0.6,13.8,3.2,25.7,11.3,35.5
		c6.8,8.2,15.2,12.7,25,13.4c10.5,0.8,19.7-2.7,27.5-10.3c11.5-11.3,16.3-25.4,14.7-43c0-0.1,0-0.1,0-0.2c-0.1,0-0.1,0-0.2,0
		c-5.3,0-10.6,0-15.9,0l-4,0v0.4l-6.9,0c-5.5,0-10.9,0-16.4,0c0,0,0,0-0.1,0c0,0,0,0,0,0.1c-0.8,4.1-1.7,8.2-2.5,12.2l-0.2,1
		l32.9-0.5c0.9,0,1.8,0,2.4,0.7c0.6,0.8,0.4,1.6,0.1,2.5c-1.7,6.1-4.6,11.4-8.6,15.7c-10.2,10.9-26.2,11.5-37.1,1.5
		c-6.5-6-10.1-13.7-10.8-23c-0.9-12.9,3.3-23.3,12.6-31.1c6.7-5.6,14.4-7.4,22.9-5.2c4.8,1.2,9.1,3.9,12.8,7.9c2.4-3,4.9-6,7.4-8.9
		c-1.1-1.2-2.2-2.5-3.6-3.7C390,219.1,382.3,216,373.9,216z"/>
	<path class="st0" d="M277.7,263.9c0-15.7,0-31.4,0-47.1c0-1.2,0.4-1.5,1.5-1.4c17.9,0.2,35.8,0.4,53.7,0.5c1,0,1.4,0.3,1.4,1.3
		c-0.1,4.6-0.1,9.2,0,13.7c0,1.1-0.4,1.4-1.4,1.4c-12.9-0.1-25.9-0.1-38.8-0.1c-1.2,0-1.6,0.2-1.6,1.6c0.1,6.7,0.1,13.5,0,20.2
		c0,1.2,0.4,1.5,1.6,1.5c9.4-0.1,18.8-0.2,28.3-0.3c1.1,0,1.5,0.3,1.8,1.4c0.9,4.6,1.9,9.1,3,13.7c0.2,1,0,1.4-1.1,1.4
		c-10.6,0.1-21.2,0.3-31.8,0.5c-1.6,0-1.6,0-1.6,1.7c0,6.7,0,13.4,0,20.1c0,1.2,0.4,1.5,1.5,1.5c12.6-0.4,25.3-0.7,37.9-1.1
		c2.8-0.1,2.3-0.3,2.3,2.3c0,4.3,0,8.5,0,12.8c0,1-0.3,1.3-1.2,1.3c-17.9,0.6-35.8,1.2-53.8,1.9c-1.1,0-1.5-0.2-1.5-1.4
		C277.7,295.4,277.7,279.7,277.7,263.9"/>
	<path class="st1" d="M278.9,314c-0.7,0-1.4-0.1-2-0.7c-0.7-0.7-0.8-1.5-0.8-2.2c0-12.6,0-25.2,0-37.9l0-9.3l0-9.1
		c0-12.7,0-25.3,0-38c0-0.7,0.1-1.6,0.7-2.2c0.7-0.7,1.5-0.7,2.2-0.7c17.9,0.2,35.8,0.4,53.7,0.5c0.7,0,1.5,0.1,2.1,0.7
		c0.6,0.7,0.7,1.5,0.7,2.1c-0.1,4.8-0.1,9.3,0,13.7c0,0.6-0.1,1.5-0.7,2.2c-0.7,0.7-1.5,0.7-2.2,0.7c-5.9,0-11.8,0-17.6-0.1
		c-7.1,0-14.1,0-21.2-0.1c0,0-0.1,0-0.1,0c0,0,0,0,0,0c0.1,6.4,0.1,13,0,20.2c0,0,0,0,0,0c4.6-0.1,9.3-0.1,13.9-0.1
		c4.8,0,9.6-0.1,14.4-0.2c1.8,0,2.9,0.8,3.3,2.6c0.9,4.7,2,9.3,3,13.6c0.1,0.4,0.3,1.5-0.3,2.3c-0.7,0.8-1.7,0.9-2.2,0.9
		c-8,0.1-16,0.2-24.1,0.4l-7.8,0.1c0,0-0.1,0-0.1,0c0,0.1,0,0.1,0,0.2l0,5.1c0,5,0,9.9,0,14.9c11.2-0.3,22.4-0.6,33.7-1l4.9-0.1
		c1.1,0,2-0.1,2.6,0.6c0.6,0.6,0.6,1.4,0.6,2.3c0,0.3,0,0.6,0,0.9c0,1.8,0,3.6,0,5.4c0,2.4,0,4.9,0,7.3c0,2.3-1.5,2.8-2.7,2.8
		c-17.9,0.6-35.8,1.2-53.8,1.9C279.1,314,279,314,278.9,314z M279.1,216.9c0,12.6,0,25.3,0,37.9l0,9.1l0,9.3c0,12.6,0,25.2,0,37.8
		c17.8-0.6,35.7-1.3,53.5-1.9c0-2.4,0-4.8,0-7.2c0-1.8,0-3.6,0-5.4c0-0.3,0-0.6,0-0.9c0,0-0.1,0-0.1,0l-4.9,0.1
		c-11.2,0.3-22.4,0.6-33.7,1c-0.7,0-1.6,0-2.3-0.7c-0.7-0.7-0.8-1.6-0.8-2.3c0-5,0-9.9,0-14.9l0-5.1c0-2.4,0.7-3.1,3.1-3.2l7.8-0.1
		c7.9-0.1,15.7-0.3,23.6-0.4c-1-4.2-2-8.7-2.9-13.3c0-0.1,0-0.2-0.1-0.2c-0.1,0-0.1,0-0.2,0c-4.8,0.1-9.6,0.1-14.4,0.2
		c-4.6,0-9.2,0.1-13.9,0.1c-0.8,0-1.7-0.1-2.3-0.7c-0.7-0.7-0.8-1.6-0.7-2.2c0.1-7.1,0.1-13.7,0-20.2c0-0.7,0.1-1.6,0.7-2.3
		c0.7-0.7,1.6-0.8,2.4-0.8c7.1,0,14.1,0.1,21.2,0.1c5.9,0,11.7,0,17.6,0.1c-0.1-4.3-0.1-8.7,0-13.5
		C314.8,217.3,297,217.1,279.1,216.9z"/>
	<path class="st0" d="M240.5,315.7C229,316,219,312,209.9,305.2c-0.8-0.6-0.8-1-0.1-1.7c3.1-3.5,6.2-6.9,9.3-10.5
		c0.6-0.7,1-0.7,1.6-0.1c3.8,3.5,8.2,5.9,13.3,7c5.8,1.2,11.4,0.7,16.4-2.9c5.4-4,7.1-13.8-1-18.7c-3.5-2.1-7.3-3.2-11.1-4.5
		c-8-2.6-15.9-5.5-22.5-11.1c-7-5.9-10.3-13.3-9.5-22.5c0.4-4.8,1.4-9.3,3.7-13.5c4.3-7.6,11-11.9,19.5-13.2
		c11.8-1.8,22.7,1,32.6,7.7c1.3,0.9,2.4,2,3.6,3.1c0.5,0.4,0.5,0.8,0.1,1.2c-3.2,3.6-6.4,7.1-9.5,10.8c-0.6,0.6-0.8,0.3-1.3-0.1
		c-3.2-3.5-7.1-6-11.8-7.2c-4.9-1.2-9.6-0.9-14.1,1.2c-5.9,2.8-8.5,10.2-5.5,15.6c1.7,3,4.4,4.8,7.5,6.3c3.1,1.5,6.4,2.2,9.6,3.2
		c8.3,2.6,16,6.5,22.3,12.7c5.5,5.4,8,12,7.4,19.7c-0.5,6-2,11.7-5.6,16.7c-5.3,7.3-12.8,10.5-21.6,11.2
		C242.3,315.7,241.4,315.7,240.5,315.7"/>
	<path class="st1" d="M242.2,317.2c-0.3,0-0.6,0-0.9,0c-0.3,0-0.5,0-0.8,0c-11.2,0.3-21.5-3.2-31.4-10.7c-0.3-0.2-1.1-0.8-1.2-1.8
		c-0.1-0.9,0.4-1.6,0.8-2c3-3.3,6-6.7,9.3-10.4c0.4-0.4,0.9-1,1.8-1c0.9-0.1,1.5,0.5,1.9,0.8c3.7,3.4,8,5.7,12.6,6.6
		c6.2,1.3,11.1,0.4,15.3-2.7c2.6-1.9,4.1-5.2,4-8.5c-0.1-3.2-1.9-5.9-4.9-7.7c-3.1-1.8-6.4-2.9-9.9-4l-0.9-0.3
		c-7.5-2.4-16-5.5-23-11.4c-7.4-6.3-10.8-14.3-10-23.8c0.5-5.7,1.7-10.2,3.9-14.1c4.5-7.9,11.4-12.5,20.5-13.9
		c11.9-1.8,23.2,0.9,33.6,8c1,0.7,1.8,1.4,2.6,2.2c0.4,0.3,0.7,0.7,1.1,1c0.5,0.5,0.9,1,0.9,1.6c0,0.6-0.2,1.2-0.7,1.8
		c-3.2,3.6-6.4,7.1-9.5,10.7c-0.5,0.6-1.1,0.9-1.7,0.9c0,0,0,0,0,0c-0.9,0-1.4-0.6-1.7-0.9c-3.3-3.5-6.9-5.7-11.1-6.8
		c-4.7-1.2-9-0.8-13.1,1.1c-2.6,1.2-4.6,3.5-5.4,6.3c-0.8,2.5-0.6,5.1,0.6,7.3c1.3,2.3,3.4,4,6.8,5.7c2.1,1,4.3,1.6,6.7,2.3
		c0.9,0.3,1.9,0.5,2.8,0.8c9.5,3,17,7.3,22.9,13c5.8,5.7,8.5,12.7,7.8,20.9c-0.6,7.1-2.5,12.8-5.9,17.5c-5.2,7.2-12.6,11-22.7,11.8
		C242.9,317.2,242.5,317.2,242.2,317.2z M240.4,314.2L240.4,314.2c0.3,0,0.6,0,0.9,0c0.6,0,1.2,0,1.7,0c9.1-0.7,15.8-4.1,20.5-10.6
		c3.1-4.2,4.8-9.3,5.3-15.9c0.6-7.3-1.7-13.4-6.9-18.5c-5.6-5.4-12.6-9.4-21.7-12.3c-0.9-0.3-1.8-0.5-2.7-0.8
		c-2.4-0.7-4.8-1.4-7.1-2.5c-2.7-1.3-6.1-3.2-8.1-6.9c-1.6-2.9-1.9-6.3-0.8-9.6c1.1-3.5,3.7-6.5,7-8c4.7-2.2,9.8-2.7,15.1-1.3
		c4.5,1.1,8.6,3.5,12.1,7.2c2.9-3.3,5.7-6.5,8.6-9.7c-0.2-0.2-0.5-0.4-0.7-0.7c-0.8-0.7-1.5-1.3-2.2-1.9c-9.7-6.7-20.3-9.2-31.5-7.5
		c-8.2,1.3-14.4,5.4-18.4,12.5c-2,3.5-3.1,7.6-3.5,12.9c-0.7,8.6,2.2,15.6,9,21.3c6.6,5.6,14.5,8.4,22,10.8l0.9,0.3
		c3.5,1.1,7.2,2.3,10.5,4.3c3.9,2.3,6.1,5.9,6.3,10.1c0.2,4.3-1.8,8.6-5.2,11c-4.8,3.5-10.6,4.6-17.6,3.2c-5.1-1-9.7-3.4-13.8-7.1
		c-3.1,3.5-6,6.7-8.8,9.9C220.5,311.2,230.1,314.5,240.4,314.2L240.4,314.2z M210.8,304.7L210.8,304.7L210.8,304.7z"/>
	<path class="st0" d="M487.7,261.3c0-14.1,0-28.2,0-42.4c0-1.2,0.3-1.5,1.5-1.5c7.8,0.1,15.6,0.3,23.4,0.2c7.6-0.1,13.5,3.3,18,9
		c5.6,7,7.8,15.2,7.3,24.1c-0.4,7.4-2.6,14.2-7.2,20.1c-1.6,2-3.4,3.8-5.6,5.2c-0.7,0.5-0.8,0.9-0.4,1.6c4.2,8.2,8.4,16.5,12.7,24.7
		c0.6,1.2,0.6,1.2-0.7,1.2c-3.8,0.1-7.5,0.2-11.3,0.4c-0.9,0-1.3-0.3-1.7-1c-3.7-7.2-7.5-14.4-11.3-21.6c-0.4-0.8-0.9-1.1-1.8-1.1
		c-1.9,0.1-3.9,0.1-5.8,0.1c-0.8,0-1-0.2-0.7-1c1.4-4.4,2.8-8.8,4.2-13.2c0.2-0.7,0.6-1,1.3-1c1.9,0,3.8,0.1,5.7-0.2
		c3.8-0.7,6.5-3,8.4-6.2c4.2-6.9,3.5-16.3-1.6-22.1c-2.3-2.6-5.2-4.1-8.8-4c-4,0.1-8.1,0-12.1,0c-1.2,0-1.4,0.4-1.4,1.5
		c0,23,0,46.1,0.1,69.1c0,1.3-0.3,1.7-1.6,1.7c-3.1,0-6.1,0.1-9.2,0.3c-1.1,0.1-1.3-0.3-1.3-1.3
		C487.7,289.7,487.7,275.5,487.7,261.3"/>
	<path class="st1" d="M488.8,306.8c-0.6,0-1.3-0.1-1.8-0.6c-0.7-0.7-0.7-1.7-0.7-2.2c0-11.5,0-22.9,0-34.4l0-16.9
		c0-11.2,0-22.5,0-33.7c0-0.7,0.1-1.6,0.8-2.3c0.7-0.7,1.5-0.7,2.3-0.7l3.1,0.1c6.6,0.1,13.5,0.2,20.3,0.2c0.1,0,0.2,0,0.2,0
		c7.5,0,13.9,3.2,19,9.6c5.6,7,8.1,15.4,7.6,25.1c-0.4,8.1-3,15.1-7.5,20.9c-1.8,2.2-3.6,4-5.7,5.4c3.2,6.3,6.4,12.5,9.7,18.8
		l2.9,5.7c0.4,0.8,0.8,1.6,0.3,2.5c-0.5,0.9-1.4,0.9-2.3,0.9l-3.2,0.1c-2.7,0.1-5.4,0.2-8.1,0.3c-1.4,0.1-2.4-0.5-3.1-1.8
		c-1.8-3.4-3.5-6.8-5.3-10.2c-2-3.8-4-7.6-6-11.5c-0.1-0.2-0.2-0.3-0.2-0.3c0,0,0,0-0.1,0c0,0-0.1,0-0.1,0c-1.1,0.1-2.3,0.1-3.4,0.1
		c-0.8,0-1.6,0-2.5,0.1c-0.4,0-1.4,0.1-2-0.8c-0.6-0.8-0.3-1.8-0.2-2.2c1.4-4.3,2.8-8.7,4.2-13.2c0.4-1.3,1.3-2,2.7-2
		c0.5,0,1,0,1.4,0c1.4,0,2.7,0,4-0.2c3-0.5,5.5-2.3,7.4-5.5c3.8-6.3,3.2-15.1-1.4-20.3c-2.1-2.4-4.6-3.5-7.5-3.5c0,0-0.1,0-0.1,0
		c-4.2,0.1-8.2,0-12.1,0c0,10.4,0,20.8,0,31.2c0,12.6,0,25.2,0,37.9c0,2.1-1,3.2-3.1,3.2c-2.6,0-5.5,0.1-9.1,0.3
		C489,306.7,488.9,306.8,488.8,306.8z M489.2,218.9C489.2,218.9,489.2,218.9,489.2,218.9c0,11.3,0,22.5,0,33.7l0,16.9
		c0,11.4,0,22.8,0,34.2c3.5-0.2,6.4-0.3,9-0.3c0,0,0.1,0,0.1,0c0-0.1,0-0.1,0-0.2c0-12.6,0-25.3,0-37.9c0-10.4,0-20.8,0-31.2
		c0-0.8,0.1-1.6,0.8-2.3c0.7-0.7,1.6-0.7,2.2-0.7c3.9,0.1,7.9,0.1,12.1,0c0.1,0,0.1,0,0.2,0c3.8,0,7.1,1.5,9.8,4.5
		c5.6,6.3,6.3,16.4,1.8,23.9c-2.4,3.9-5.5,6.2-9.4,6.9c-1.6,0.3-3.1,0.2-4.6,0.2c-0.4,0-0.9,0-1.3,0c-1.3,4.2-2.6,8.2-3.9,12.1
		c0.5,0,1,0,1.5,0c1.1,0,2.2,0,3.3-0.1c1.5-0.1,2.5,0.5,3.2,1.9c2,3.8,4,7.6,5.9,11.4c1.8,3.4,3.5,6.8,5.3,10.2
		c0.1,0.1,0.1,0.2,0.1,0.2c0,0,0.1,0,0.2,0c2.7-0.1,5.4-0.2,8.1-0.3l2.2-0.1l-2.4-4.8c-3.2-6.3-6.5-12.7-9.7-19
		c-0.9-1.8,0-2.9,0.9-3.5c1.9-1.2,3.6-2.9,5.2-4.9c4.2-5.4,6.5-11.7,6.9-19.2c0.5-8.9-1.9-16.7-7-23.1c-4.6-5.7-10.1-8.4-16.8-8.4
		c-6.8,0.1-13.7-0.1-20.3-0.2L489.2,218.9z M509.5,266.7L509.5,266.7L509.5,266.7z"/>
	<path class="st0" d="M420,246.4c0-9.4,0-18.8,0-28.1c0-1.1,0.2-1.5,1.4-1.5c3.3,0.1,6.7,0.1,10,0.1c1.1,0,1.4,0.3,1.4,1.4
		c0,17.4,0,34.8,0,52.2c0,5.5,1.2,10.6,4.5,15c3.7,4.9,8.4,7.8,14.7,7.2c5.7-0.5,9.8-3.7,12.9-8.3c2.9-4.3,4.1-9.2,4.1-14.4
		c0-17,0-34,0-51c0-1.7,0-1.7,1.7-1.6c3.1,0,6.3,0.1,9.4,0.1c0.8,0,1.1,0.2,1.1,1.1c0,17.7,0.1,35.4-0.1,53
		c-0.2,11.5-4.2,21.7-12.9,29.6c-6.3,5.7-13.7,8.2-22.2,6.9c-7.1-1.1-12.8-4.9-17.2-10.3c-5.9-7.2-8.7-15.6-8.9-24.8
		C419.9,264,420,255.2,420,246.4L420,246.4z"/>
	<path class="st1" d="M450.5,309.8c-1.5,0-3-0.1-4.6-0.4c-7.1-1.1-13.2-4.8-18.2-10.9c-5.9-7.3-9-16-9.2-25.8
		c-0.1-6.1-0.1-12.4-0.1-18.4c0-2.2,0-4.4,0-6.6l0-1.4l0-6.4c0-7.2,0-14.5,0-21.7c0-0.8,0.1-1.6,0.8-2.3c0.7-0.7,1.6-0.7,2.2-0.7
		c3,0.1,6.2,0.1,10,0.1c0.6,0,1.5,0.1,2.2,0.7c0.7,0.6,0.7,1.5,0.7,2.2c0,9.9,0,19.8,0,29.7c0,7.5,0,15,0,22.5
		c0,5.6,1.4,10.3,4.2,14.1c3.6,4.9,8,7.1,13.4,6.6c4.7-0.4,8.5-2.9,11.8-7.6c2.6-3.8,3.9-8.3,3.9-13.6l0-51c0-1,0-1.9,0.7-2.5
		c0.7-0.6,1.4-0.6,2.5-0.6l2.7,0c2.2,0,4.4,0.1,6.7,0c0.5,0,1.3,0.1,2,0.7c0.7,0.7,0.7,1.6,0.7,1.9c0,5.8,0,11.6,0,17.5
		c0,11.7,0,23.7-0.1,35.6c-0.2,12.5-4.7,22.8-13.4,30.6C463.7,307.2,457.4,309.8,450.5,309.8z M421.5,244.9L421.5,244.9l0,1.5
		c0,2.7,0,5.4,0,8c0,6,0,12.2,0.1,18.3c0.2,9.1,3,17.2,8.5,23.9c4.5,5.5,10,8.8,16.3,9.8c7.8,1.2,14.8-1,20.9-6.5
		c8.1-7.3,12.2-16.9,12.4-28.5c0.2-11.8,0.1-23.9,0.1-35.5c0-5.7,0-11.4,0-17.1c0,0,0,0,0,0c-2.1,0-4.3,0-6.4,0l-2.7,0
		c-0.1,0-0.1,0-0.2,0c0,0,0,0.1,0,0.2l0,51.1c0,5.9-1.4,10.9-4.4,15.3c-3.8,5.6-8.3,8.5-14,8.9c-6.4,0.5-11.8-2.1-16.1-7.8
		c-3.3-4.4-4.8-9.6-4.8-15.9c0-7.5,0-15,0-22.5c0-9.9,0-19.7,0-29.6c-3.7,0-6.9,0-9.9-0.1c0,7.2,0,14.5,0,21.7L421.5,244.9z"/>
	<path class="st0" d="M562.9,260.4c0-13.6,0-27.2,0-40.8c0-1.2,0.3-1.5,1.5-1.5c8,0.1,15.9,0.3,23.9,0.2c8.4-0.1,15.1,3.3,20.7,9.2
		c5.7,6,8.9,13.3,10.5,21.2c2.2,11,1.3,21.7-3.3,32c-3.5,7.9-8.7,14.3-16.5,18.3c-3.1,1.6-6.4,2.4-9.9,2.6c-3.5,0.2-7,0.2-10.5,0.4
		c-0.9,0-1.2,0-0.8-1.1c1.3-4.1,2.6-8.2,3.8-12.3c0.3-1,0.7-1.3,1.7-1.3c2.6-0.1,5.2,0.1,7.8-0.4c6.3-1.2,10.9-5,13.9-10.5
		c6.4-11.9,6.2-23.9-1.3-35.3c-3.6-5.5-9-8.5-15.8-8.4c-4.4,0.1-8.8,0-13.1,0c-1.2,0-1.5,0.3-1.5,1.5c0,22.1,0,44.2,0,66.3
		c0,1.7,0,1.7-1.6,1.7c-2.6,0.1-5.2,0.2-7.8,0.3c-1.6,0.1-1.6,0-1.6-1.5V260.4z"/>
	<path class="st1" d="M564,304.1c-0.7,0-1.4-0.1-1.9-0.6c-0.7-0.6-0.7-1.4-0.7-2.5l0-49.6c0-10.6,0-21.2,0-31.8
		c0-0.8,0.1-1.6,0.8-2.3c0.7-0.7,1.6-0.7,2.3-0.7l3.1,0.1c6.8,0.1,13.8,0.2,20.7,0.2c0.1,0,0.2,0,0.3,0c8.2,0,15.5,3.3,21.6,9.7
		c5.5,5.8,9.1,13,10.9,22c2.3,11.5,1.2,22.5-3.4,32.9c-3.9,8.9-9.5,15.1-17.2,19c-3.2,1.7-6.8,2.6-10.5,2.8c-2,0.1-3.9,0.2-5.9,0.2
		c-1.6,0.1-3.1,0.1-4.7,0.2c-0.5,0-1.5,0.1-2.2-0.8c-0.6-0.8-0.3-1.9-0.2-2.3c1.2-3.7,2.4-7.8,3.7-12.3c0.5-1.6,1.4-2.3,3.1-2.4
		c0.7,0,1.4,0,2.2,0c1.9,0,3.7,0,5.4-0.3c5.6-1.1,9.9-4.3,12.8-9.7c6.3-11.7,5.9-23-1.2-33.8c-3.4-5.2-8.4-7.8-14.5-7.8
		c-3.9,0.1-8.1,0-13.2,0c0,0,0,0,0,0c0,18.3,0,36.6,0,54.9v11.4c0,2.5-0.6,3.2-3.1,3.2l-2.6,0.1c-1.7,0.1-3.5,0.1-5.2,0.2
		C564.4,304.1,564.2,304.1,564,304.1z M564.4,219.6C564.4,219.6,564.4,219.7,564.4,219.6c0,10.6,0,21.2,0,31.8l0,49.6c0,0,0,0,0,0
		c0,0,0.1,0,0.1,0c1.7-0.1,3.5-0.1,5.2-0.2l2.6-0.1c0.1,0,0.1,0,0.2,0c0-0.1,0-0.2,0-0.2v-11.4c0-18.3,0-36.6,0-54.9
		c0-0.7,0.1-1.6,0.8-2.3c0.7-0.7,1.6-0.7,2.3-0.7c5.1,0.1,9.2,0.1,13.1,0c7.2-0.1,13.1,3,17.1,9.1c7.7,11.7,8.1,24.1,1.3,36.8
		c-3.3,6.1-8.4,10-14.9,11.2c-2,0.4-4,0.4-5.9,0.4c-0.7,0-1.4,0-2.1,0c-0.1,0-0.2,0-0.3,0c0,0,0,0.1-0.1,0.2
		c-1.2,4.2-2.4,7.9-3.5,11.4c1.2,0,2.5-0.1,3.7-0.1c1.9-0.1,3.9-0.1,5.8-0.2c3.3-0.2,6.4-1,9.3-2.4c7-3.6,12.2-9.3,15.8-17.6
		c4.3-9.8,5.4-20.2,3.2-31.1c-1.7-8.4-5-15.1-10.1-20.5c-5.6-5.9-11.9-8.7-19.4-8.7c-0.1,0-0.2,0-0.3,0c-6.9,0.1-14-0.1-20.8-0.2
		L564.4,219.6z"/>
	<path class="st0" d="M685.7,258.9c0-12.7,0-25.4,0-38c0-1.2,0.3-1.5,1.5-1.5c7.6,0.1,15.1,0.1,22.7,0.3c5.6,0.1,10.3,2.7,14.3,6.5
		c5.1,4.8,8.2,10.8,10.1,17.5c2.2,7.5,2.6,15.1,1.4,22.8c-1.6,9.9-5.2,18.8-13.1,25.6c-4.1,3.5-8.8,5.5-14.2,5.6
		c-2.8,0-5.5,0.2-8.3,0.3c-0.8,0-1-0.1-0.8-1c1.2-3.9,2.3-7.8,3.3-11.7c0.2-0.8,0.6-1,1.3-1c2.4-0.1,4.7,0.1,7-0.4
		c5-1,8.6-4,11.2-8.2c4.7-7.5,5.7-15.6,4.1-24.2c-0.9-4.6-2.6-8.9-5.7-12.5c-3.4-3.9-7.5-6.1-12.8-5.9c-3.7,0.1-7.4,0.1-11,0
		c-1.1,0-1.4,0.3-1.4,1.4c0,20.6,0,41.3,0,61.9c0,1.7,0,1.7-1.7,1.7c-2.2,0.1-4.5,0.1-6.7,0.2c-1.1,0.1-1.4-0.2-1.4-1.3
		C685.8,284.3,685.7,271.6,685.7,258.9"/>
	<path class="st1" d="M686.8,299.8c-0.6,0-1.3-0.1-1.8-0.6c-0.7-0.6-0.8-1.5-0.8-2.2c0-10.1,0-20.1,0-30.2l0-8l0-8.1
		c0-10,0-20,0-29.9c0-0.7,0.1-1.6,0.8-2.3c0.7-0.7,1.5-0.7,2.3-0.7c3.2,0.1,6.5,0.1,9.7,0.1c4.2,0,8.6,0.1,13,0.2
		c5.5,0.1,10.5,2.4,15.3,6.9c4.8,4.5,8.3,10.5,10.5,18.1c2.2,7.6,2.7,15.4,1.5,23.5c-1.8,11.5-6.3,20.2-13.6,26.5
		c-4.5,3.9-9.6,5.9-15.2,6c-2.4,0-4.8,0.1-7.1,0.2l-1.2,0c-0.4,0-1.4,0.1-2-0.7c-0.6-0.8-0.3-1.8-0.2-2.1c1.2-3.8,2.3-7.8,3.3-11.6
		c0.4-1.4,1.3-2.1,2.7-2.2c0.6,0,1.3,0,1.9,0c1.7,0,3.3,0,4.9-0.3c4.2-0.8,7.5-3.3,10.2-7.5c4.3-6.8,5.6-14.4,3.9-23.1
		c-0.9-4.8-2.7-8.6-5.4-11.8c-3.3-3.8-7.1-5.5-11.6-5.4c-3.7,0.1-7.6,0-11,0c0,16.9,0,33.7,0,50.6v11.3c0,2.5-0.6,3.1-3.1,3.2
		c-0.7,0-1.3,0-2,0c-1.5,0-3.1,0.1-4.6,0.2C687.1,299.8,687,299.8,686.8,299.8z M687.2,220.8C687.2,220.8,687.2,220.8,687.2,220.8
		c0,10,0,20,0,30l0,8.1l0,7.9c0,10,0,20,0,30c1.5-0.1,3.1-0.1,4.6-0.2c0.7,0,1.3,0,2,0c0.1,0,0.2,0,0.2,0c0-0.1,0-0.2,0-0.2v-11.3
		c0-16.9,0-33.8,0-50.7c0-0.4,0-1.5,0.7-2.2c0.7-0.6,1.5-0.7,2.2-0.7c3.4,0.1,7.2,0.2,10.9,0c5.4-0.2,10.1,2,14,6.4
		c3.1,3.5,5,7.8,6.1,13.1c1.8,9.3,0.4,17.8-4.3,25.2c-3.1,4.9-7.1,7.9-12.1,8.9c-1.8,0.4-3.7,0.4-5.4,0.4c-0.6,0-1.2,0-1.8,0
		c-1,3.5-2,7.1-3,10.6l0.1,0c2.4-0.1,4.8-0.2,7.2-0.2c4.9-0.1,9.2-1.8,13.2-5.2c6.7-5.8,10.9-13.9,12.6-24.7
		c1.2-7.6,0.7-15-1.4-22.1c-2.1-7.1-5.3-12.6-9.7-16.8c-4.2-4-8.6-6-13.3-6.1c-4.3-0.1-8.7-0.1-12.9-0.2
		C693.7,220.9,690.4,220.9,687.2,220.8z"/>
	<path class="st0" d="M650.1,236.3c-0.9,2.6-1.7,5.1-2.6,7.7c-3,9-6,18.1-9,27.1c-0.3,1-0.1,1.2,0.9,1.2c4.3-0.1,8.7-0.2,13-0.3
		c0.9,0,1.4,0.2,1.7,1.2c1.2,3.8,2.5,7.6,3.8,11.4c0.4,1,0.1,1.3-0.9,1.3c-7.4,0.2-14.8,0.4-22.2,0.6c-0.9,0-1.3,0.3-1.6,1.1
		c-1.3,3.9-2.6,7.8-3.9,11.7c-0.2,0.7-0.5,1-1.3,1.1c-3.1,0.1-6.3,0.2-9.4,0.3c-1,0.1-1.2-0.2-0.9-1.1c3.9-11.6,7.8-23.1,11.6-34.7
		c4.9-14.8,9.9-29.6,14.8-44.4c0.4-1.2,0.9-1.6,2.2-1.6c2.8,0.1,5.5,0.1,8.3,0.1c1,0,1.4,0.4,1.7,1.3c3.8,11.6,7.6,23.1,11.4,34.7
		c4.6,14,9.3,28,13.9,42.1c0.5,1.5,0.5,1.5-1.1,1.5c-2.6,0.1-5.3,0.1-7.9,0.3c-1.1,0.1-1.5-0.3-1.8-1.3c-3.6-11-7.3-21.9-10.9-32.9
		c-3-9.2-6.1-18.3-9.1-27.5C650.6,236.9,650.6,236.5,650.1,236.3"/>
	<path class="st1" d="M618.2,302.2c-0.5,0-1.3-0.1-1.9-0.8c-0.7-0.9-0.3-1.9-0.2-2.3c3.9-11.6,7.8-23.1,11.6-34.7l1-3.1
		c4.6-13.8,9.2-27.5,13.8-41.3c0.4-1.3,1.2-2.7,3.6-2.6c3,0.1,5.9,0.1,8.2,0.1c2.1,0,2.8,1.3,3.2,2.3c3.1,9.6,6.3,19.1,9.4,28.7
		l15.9,48c0.3,1,0.6,1.8,0,2.6c-0.6,0.8-1.4,0.8-2.5,0.9l-1.9,0.1c-2,0.1-4,0.1-6,0.3c-2.3,0.1-3-1.3-3.3-2.3
		c-2.7-8.2-5.4-16.4-8.2-24.6l-10.9-32.8l-3.3,10c-2.2,6.7-4.4,13.4-6.7,20.1c1.8,0,3.5-0.1,5.3-0.1c2.3,0,4.6-0.1,6.8-0.2
		c1.6,0,2.7,0.7,3.1,2.2c1.1,3.6,2.3,7.3,3.7,11.4c0.2,0.4,0.5,1.5-0.1,2.3c-0.6,0.9-1.7,0.9-2.2,0.9c-3.6,0.1-7.2,0.2-10.7,0.3
		c-3.8,0.1-7.6,0.2-11.4,0.3c-0.1,0-0.1,0-0.2,0c0,0,0,0.1,0,0.1c-0.7,2.1-1.4,4.3-2.1,6.4c-0.6,1.8-1.2,3.6-1.8,5.3
		c-0.2,0.5-0.7,2-2.6,2.1c-3.2,0.1-6.4,0.2-9.4,0.3C618.5,302.2,618.4,302.2,618.2,302.2z M645.7,220.4c0,0-0.1,0.1-0.2,0.5
		c-4.6,13.8-9.2,27.6-13.8,41.3l-1,3.1c-3.8,11.3-7.5,22.6-11.4,33.9c2.7-0.1,5.5-0.2,8.4-0.3c0,0,0,0,0,0c0.6-1.8,1.2-3.6,1.8-5.4
		c0.7-2.1,1.4-4.2,2.1-6.4c0.5-1.4,1.4-2.1,3-2.2c3.8-0.1,7.6-0.2,11.4-0.3c3.4-0.1,6.7-0.2,10.1-0.3c-1.3-3.8-2.5-7.4-3.5-10.8
		c0,0,0-0.1,0-0.1c0,0-0.1,0-0.2,0c-2.3,0.1-4.6,0.1-6.9,0.2c-2,0-4.1,0.1-6.1,0.1c-0.5,0-1.5,0-2.2-0.8c-0.6-0.9-0.3-1.9-0.1-2.3
		c2.3-7,4.7-14,7-21l5.2-15.5l1.5,0.8c1,0.5,1.2,1.3,1.3,1.7l11.9,35.8c2.7,8.2,5.5,16.4,8.2,24.6c0,0.1,0.1,0.2,0.1,0.3
		c0,0,0.1,0,0.2,0c2-0.1,4.1-0.2,6.1-0.3l1.5,0l-15.7-47.6c-3.2-9.6-6.3-19.1-9.4-28.7c0-0.1-0.1-0.2-0.1-0.3c0,0-0.1,0-0.1,0
		c0,0,0,0,0,0c-2.3,0-5.4,0.1-8.4-0.1C645.8,220.4,645.7,220.4,645.7,220.4z M652.7,273.5L652.7,273.5L652.7,273.5z"/>
	<path class="st0" d="M544.7,260.6c0-13.7,0-27.4,0-41.1c0-1.2,0.4-1.5,1.5-1.5c2.8,0.1,5.7,0.1,8.5,0.1c1,0,1.3,0.3,1.3,1.3
		c0,15.2,0,30.4,0,45.6c0,12.2,0,24.4,0,36.5c0,1-0.2,1.5-1.3,1.5c-2.9,0-5.8,0.1-8.7,0.3c-1.1,0.1-1.4-0.3-1.4-1.4
		C544.7,288.1,544.7,274.4,544.7,260.6"/>
	<path class="st1" d="M545.8,304.8c-0.6,0-1.3-0.1-1.9-0.6c-0.7-0.6-0.8-1.5-0.8-2.2c0-11,0-22.1,0-33.1l0-8.3l0-9
		c0-10.7,0-21.4,0-32.1c0-0.7,0.1-1.6,0.8-2.3c0.7-0.7,1.6-0.7,2.3-0.7c2.6,0.1,5.4,0.1,8.5,0.1c0.6,0,1.5,0.1,2.1,0.7
		c0.6,0.6,0.7,1.5,0.7,2.1c0,12.3,0,24.6,0,36.9l0,8.6l0,7.6c0,9.6,0,19.3,0,28.9c0,2-0.9,2.9-2.8,3c-2.7,0-5.6,0.1-8.6,0.3
		C546.1,304.8,545.9,304.8,545.8,304.8z M546.2,219.5c0,10.7,0,21.4,0,32.1l0,9l0,8.3c0,11,0,22,0,32.9c2.9-0.2,5.7-0.3,8.4-0.3
		c0-9.6,0-19.2,0-28.9l0-7.6l0-8.6c0-12.3,0-24.5,0-36.8C551.6,219.6,548.8,219.6,546.2,219.5z"/>
</g>
<g>
	<path class="st2" d="M77.8,191.6c-24.5-0.2-48.9-0.4-73.4-0.7c-1.6,0-1.6-0.1-1.2-1.6c2.1-7.9,4.2-15.9,6.3-23.8
		c1.9-7.1,3.8-14.3,5.7-21.4c1.9-7.1,3.7-14.2,5.6-21.3c1.8-6.9,3.7-13.9,5.5-20.8c2.1-7.8,4.1-15.6,6.1-23.5c2-7.5,4-15,6-22.5
		c1.9-7.1,3.7-14.1,5.6-21.2c1.7-6.3,3.3-12.6,5-18.9c0.9-3.5,1.9-7.1,2.8-10.7c0.1-0.5,0.3-1,0.5-1.5c0.2-0.6,0.5-0.8,1.1-0.7
		c11.5,0.9,23,1.8,34.5,2.6c10.5,0.8,21,1.6,31.5,2.4c11.9,0.9,23.7,1.8,35.6,2.7c10.8,0.8,21.5,1.6,32.3,2.4
		c2.6,0.2,5.3,0.4,7.9,0.6c0.9,0.1,1.1,0.5,0.9,1.3c-1.5,5.7-2.9,11.4-4.4,17.2c-2,7.8-3.9,15.6-5.9,23.4c-0.5,1.9-1,3.8-1.4,5.8
		c-0.2,0.8-0.7,0.9-1.4,0.9c-5.8-0.3-11.6-0.7-17.4-1c-18.2-1-36.5-2.1-54.7-3.1c-4.3-0.2-8.6-0.5-12.9-0.8c-1-0.1-1.4,0.3-1.7,1.2
		c-1.3,5.2-2.7,10.4-4,15.6c-0.4,1.7-0.4,1.7,1.3,1.8c26.1,1.3,52.2,2.6,78.4,3.9c1.7,0.1,1.7,0.2,1.3,1.9
		c-1.9,7.4-3.7,14.8-5.5,22.2c-1.5,6-3,12-4.4,18c-0.2,0.8-0.6,1.2-1.5,1.2c-26.7-0.9-53.4-1.9-80.1-2.8c-0.9,0-1.3,0.2-1.5,1.1
		c-1.5,5.9-3.1,11.7-4.7,17.6c-0.3,1.3-0.2,1.4,1.2,1.4c12.4,0.3,24.9,0.7,37.3,1c16.5,0.4,33,0.9,49.6,1.4c1.3,0,1.5,0.2,1.2,1.5
		c-2.2,8.8-4.4,17.5-6.5,26.3c-1.7,6.8-3.4,13.7-5,20.6c-0.3,1.1-0.8,1.3-1.7,1.2C126.8,192,102.3,191.8,77.8,191.6L77.8,191.6z"/>
	<path class="st3" d="M151.3,195.2C151.3,195.2,151.3,195.2,151.3,195.2c-21-0.2-41.9-0.4-62.8-0.6l-84.1-0.7c-1,0-2.6,0-3.7-1.4
		c-1.1-1.4-0.7-2.9-0.4-4c1.3-5.1,2.7-10.1,4-15.2L9,155.6c1.1-4.1,2.2-8.2,3.3-12.4c1-3.6,1.9-7.3,2.8-10.9c0.9-3.5,1.8-7,2.7-10.4
		c0.9-3.5,1.8-7,2.8-10.5c0.9-3.4,1.8-6.9,2.7-10.3c1-3.8,2-7.6,3-11.4c1-4,2.1-8,3.2-12c1-3.9,2-7.8,3.1-11.6
		c1-3.6,1.9-7.2,2.9-10.9c0.9-3.6,1.9-7.1,2.8-10.7c0.9-3.5,1.8-7,2.7-10.5c0.9-3.3,1.7-6.5,2.6-9.8c0.8-3,1.6-6.1,2.4-9.1
		c0.5-2.1,1.1-4.2,1.6-6.2l1.2-4.4c0.1-0.3,0.2-0.7,0.3-1c0.1-0.2,0.1-0.4,0.2-0.6C49.8,1,51.4-0.2,53.4,0c11.5,0.9,23,1.8,34.5,2.6
		c5.7,0.4,11.4,0.9,17.1,1.3l84.8,6.4c1.8,0.1,3.5,0.3,5.3,0.4c1.7,0.1,2.6,0.9,3.1,1.5c0.7,0.9,0.9,2.1,0.5,3.4
		c-1.5,5.7-2.9,11.4-4.4,17.2c-1.5,6.1-3.1,12.1-4.6,18.2l-1.7,6.6c-0.4,1.4-0.7,2.9-1.1,4.3c-0.2,0.8-1,3.4-4.5,3.2
		c-4-0.2-7.9-0.5-11.9-0.7l-63.9-3.6c-2.7-0.1-5.4-0.3-8.1-0.5c-0.8,3-1.5,5.9-2.3,8.9l-1,3.7l76.5,3.8c1,0,2.6,0.1,3.7,1.5
		c1,1.4,0.7,3,0.4,4c-1.7,6.9-3.5,13.9-5.2,20.9l-0.3,1.4c-1.5,6-3,12-4.4,18c-0.6,2.3-2.2,3.6-4.5,3.5c-13.5-0.5-27-0.9-40.5-1.4
		c-12.8-0.4-25.7-0.9-38.5-1.3c-0.7,2.6-1.4,5.2-2.1,7.8c-0.6,2.1-1.1,4.2-1.7,6.3l35.1,0.9c11.2,0.3,22.5,0.6,33.7,0.9l15.9,0.4
		c0.8,0,2.4,0.1,3.5,1.5c1.1,1.4,0.7,3,0.5,3.7l-3,12c-1.2,4.8-2.4,9.5-3.6,14.3c-1.6,6.3-3.4,13.5-5,20.5
		C155.5,193.3,154.4,195.2,151.3,195.2z M74.8,188.5l13.8,0.1c20.6,0.2,41.2,0.4,61.8,0.6c1.6-6.7,3.3-13.5,4.8-19.5
		c1.2-4.8,2.4-9.5,3.6-14.3l2.4-9.8l-13.7-0.4c-11.2-0.3-22.5-0.6-33.7-0.9l-37.3-1c-0.9,0-2.5-0.1-3.6-1.5c-1-1.4-0.6-3-0.4-3.7
		c0.8-2.9,1.5-5.7,2.3-8.6c0.8-3,1.6-6,2.4-9c0.6-2.2,2.2-3.4,4.5-3.3c13.2,0.5,26.4,0.9,39.7,1.4c13.1,0.5,26.2,0.9,39.3,1.4
		c1.4-5.6,2.8-11.3,4.2-16.9l0.3-1.4c1.6-6.4,3.2-12.7,4.7-19.1l-76.5-3.8c-1.2-0.1-2.7-0.1-3.7-1.5c-1-1.4-0.6-2.9-0.4-4l1.4-5.6
		c0.9-3.3,1.7-6.7,2.6-10c0.6-2.4,2.3-3.6,4.8-3.4c3.1,0.2,6.1,0.4,9.2,0.5l63.9,3.6c3.5,0.2,7,0.4,10.5,0.6c0.2-1,0.5-1.9,0.7-2.9
		l1.7-6.6c1.5-6.1,3.1-12.1,4.6-18.2c1.3-5,2.5-9.9,3.8-14.9c-1-0.1-2-0.2-3.1-0.2l-41.2-3.1l-43.6-3.3C98.9,9.5,93.2,9,87.5,8.6
		C76.5,7.8,65.5,7,54.5,6.1l-1.1,4.3c-0.5,2.1-1.1,4.2-1.6,6.3c-0.8,3-1.6,6.1-2.4,9.1c-0.9,3.3-1.7,6.5-2.6,9.8
		c-0.9,3.5-1.8,7-2.7,10.5c-0.9,3.6-1.9,7.1-2.8,10.7c-1,3.6-1.9,7.2-2.9,10.9c-1,3.9-2.1,7.7-3.1,11.6c-1.1,4-2.1,8-3.2,12
		c-1,3.8-2,7.6-3,11.4c-0.9,3.4-1.8,6.9-2.7,10.3c-0.9,3.5-1.9,7-2.8,10.5c-0.9,3.5-1.8,6.9-2.7,10.4c-0.9,3.6-1.9,7.3-2.9,10.9
		c-1.1,4.1-2.2,8.2-3.3,12.4l-4.7,17.7c-1.1,4.4-2.3,8.7-3.5,13.1L74.8,188.5L74.8,188.5z M55,4.5C55,4.5,55,4.5,55,4.5
		C55,4.5,55,4.5,55,4.5z"/>
	<path class="st2" d="M379.6,194c-7.3,0-14.5,0-21.8,0c-1.4,0-1.5-0.1-1.1-1.5c2.3-9.9,4.6-19.8,6.9-29.8c2.3-9.9,4.6-19.9,6.9-29.8
		c2.5-10.7,5-21.5,7.5-32.2c3-12.7,5.9-25.4,8.8-38.1c2.2-9.5,4.4-19.1,6.6-28.6c0.3-1.4,0.7-2.8,1-4.2c0.2-0.9,0.6-1.2,1.5-1.1
		c6.8,0.6,13.7,1,20.5,1.6c7.3,0.6,14.7,1.1,22,1.7c1.1,0.1,1.3,0.4,1.1,1.4c-2,8.7-4,17.4-6.1,26.2c-2.1,9.3-4.3,18.6-6.4,27.9
		c-0.2,1-0.1,1.5,1.1,1.5c12.5,0.6,25,1.3,37.5,2c1,0.1,1.4-0.3,1.6-1.2c2.6-11.5,5.2-22.9,7.8-34.4c1.4-6.3,2.9-12.6,4.3-19
		c0.2-0.9,0.6-1.2,1.6-1.1c13.2,1,26.4,2,39.5,3c1.1,0.1,1.2,0.5,1,1.4c-4.4,19.7-8.8,39.5-13.1,59.2c-3.1,14.2-6.2,28.4-9.4,42.7
		c-3.8,17.2-7.6,34.3-11.4,51.5c-0.6,2.7-0.3,2.2-2.7,2.2c-13.2-0.1-26.4-0.2-39.7-0.4c-1.4,0-1.4-0.1-1.1-1.4
		c2.2-9.6,4.3-19.2,6.5-28.9c1.9-8.5,3.8-16.9,5.7-25.4c0.5-2.1,0.5-2.1-1.6-2.2c-12.3-0.4-24.5-0.8-36.8-1.2
		c-1.3,0-1.8,0.2-2.1,1.5c-1.6,7.3-3.3,14.5-4.9,21.7c-2,8.6-3.9,17.2-5.9,25.8c-0.6,2.7-1.2,5.4-1.8,8.1c-0.2,1.1-0.7,1.5-1.9,1.5
		c-7.2-0.1-14.5,0-21.7,0V194z"/>
	<path class="st3" d="M486.1,198.2c-0.1,0-0.3,0-0.4,0c-0.2,0-0.5,0-0.9,0c-10.4-0.1-20.9-0.2-31.3-0.3l-8.3-0.1c-1,0-2.5,0-3.5-1.3
		c-1-1.3-0.7-2.8-0.5-3.7c1.4-6.1,2.7-12.3,4.1-18.4l3.3-14.7c1.5-6.6,2.9-13.2,4.4-19.7l-7.3-0.2c-9.1-0.3-18.1-0.6-27.2-0.9
		c-1.2,5.3-2.3,10.4-3.5,15.6l-7.5,33c-0.5,2.1-0.9,4.1-1.4,6.2c-0.5,2.5-2.2,3.9-4.8,3.9c0,0,0,0-0.1,0c-5.4-0.1-10.8,0-16.1,0
		l-8.5,0V197l-3.2,0l-15.6,0c-0.9,0-2.5,0-3.6-1.3c-1.1-1.3-0.7-2.8-0.5-3.8l21.3-91.7c3-12.7,5.9-25.4,8.8-38.1
		c1.3-5.7,2.6-11.4,3.9-17.1l2.7-11.5c0.1-0.5,0.2-1,0.4-1.6c0.2-0.9,0.4-1.7,0.6-2.6c0.5-2.4,2.3-3.7,4.7-3.5
		c4.8,0.4,9.5,0.7,14.3,1.1l12.6,1c5.2,0.4,10.4,0.8,15.6,1.2c0.5,0,2.2,0.2,3.2,1.6c1,1.4,0.7,3,0.5,3.5
		c-1.8,7.9-3.7,15.8-5.5,23.7l-2.6,11.4c-1.3,5.6-2.6,11.3-3.9,16.9c11.2,0.6,22.6,1.2,34.2,1.8c2.4-10.8,4.9-21.6,7.3-32.3l1.8-8
		c0.9-4,1.8-7.9,2.7-11.9c0.5-2.4,2.2-3.7,4.8-3.5c12.8,1,26.1,2,39.5,3c1.4,0.1,2.5,0.6,3.1,1.5c1,1.4,0.7,2.9,0.6,3.5
		c-4.4,19.7-8.8,39.5-13.1,59.2c-1.5,6.7-2.9,13.4-4.4,20.1c-1.6,7.5-3.3,15.1-5,22.6c-1.9,8.8-3.9,17.5-5.8,26.2
		c-1.9,8.4-3.7,16.8-5.6,25.2l-0.1,0.5C489.9,196.3,489.3,198.2,486.1,198.2z M447.5,191.8l6.1,0.1c10.4,0.1,20.8,0.2,31.2,0.3
		c1.8-8.4,3.7-16.7,5.6-25.1c1.9-8.7,3.9-17.5,5.8-26.2c1.7-7.5,3.3-15,5-22.6c1.5-6.7,2.9-13.4,4.4-20.1
		c4.2-19.1,8.4-38.1,12.7-57.2c-12.3-0.9-24.4-1.8-36.1-2.7c-0.8,3.6-1.6,7.1-2.4,10.6l-1.8,8c-2.5,11.2-5.1,22.3-7.6,33.5
		c-0.5,2.4-2.2,3.7-4.7,3.5c-12.7-0.7-25.3-1.4-37.5-2c-1.5-0.1-2.6-0.6-3.3-1.5c-1.1-1.4-0.7-3.1-0.6-3.6
		c1.5-6.3,2.9-12.6,4.4-18.9l2.6-11.4c1.7-7.2,3.3-14.4,5-21.6c-4.5-0.3-9-0.7-13.5-1l-12.6-1c-4.3-0.3-8.7-0.6-13-1
		c-0.1,0.5-0.2,0.9-0.3,1.4c-0.1,0.5-0.2,1-0.4,1.5l-2.7,11.5c-1.3,5.7-2.6,11.4-3.9,17.1c-2.9,12.7-5.9,25.4-8.8,38.1l-20.8,89.6
		l13.3,0l9.2,0v0.4l2.5,0c5.1,0,10.2,0,15.3,0c0.4-1.9,0.8-3.7,1.2-5.5l7.5-33c1.2-5.4,2.5-10.9,3.7-16.4c0.4-1.8,1.6-4,5.1-3.9
		c9.3,0.3,18.6,0.6,27.9,0.9l8.9,0.3c1.5,0,3,0.1,4,1.5c1.1,1.4,0.7,2.8,0.4,4.3c-1.6,7.1-3.2,14.2-4.8,21.2l-3.3,14.7
		C449.9,181.1,448.7,186.5,447.5,191.8z"/>
	<path class="st2" d="M514.1,140.3c0.1-9.8,1.7-19.4,3.9-28.9c3.3-14.8,6.5-29.6,9.8-44.4c1.9-8.8,3.9-17.7,5.8-26.5
		c0.2-1,0.6-1.3,1.7-1.2c12.8,1,25.5,2,38.3,2.9c1.3,0.1,1.2,0.7,1,1.5c-2.2,10.2-4.4,20.5-6.7,30.7c-2.2,10.3-4.5,20.6-6.7,30.8
		c-1.3,6.3-2.8,12.5-4,18.8c-1.1,5.5-1.5,11.1-0.3,16.7c1.3,5.8,4.4,10.2,10.4,12c7.4,2.1,14.2,0,18.6-6.4c3.2-4.6,5-9.8,6.2-15.1
		c4-16.9,7.4-34,11-51.1c2.4-11,4.7-21.9,7.1-32.9c0.5-2.2,0.5-2.3,2.8-2.1c11.6,0.9,23.2,1.7,34.8,2.6c1.3,0.1,1,0.8,0.9,1.5
		c-1,4.7-2,9.4-3,14.2c-1.9,9.3-3.9,18.6-5.8,27.9c-2.5,11.8-5,23.7-7.5,35.5c-1.6,7.8-3.2,15.5-5.5,23.1
		c-3.3,10.6-7.5,20.7-14.3,29.6c-5.7,7.4-13.1,12.5-21.8,15.7c-6.8,2.5-13.9,3.6-21.1,3.7c-5.6,0.1-11.2-0.1-16.8-1.3
		c-16.2-3.4-27.8-12.5-34.1-28C515.4,161,514,152,514.1,140.3"/>
	<path class="st3" d="M567.3,201.9c-4.6,0-9.7-0.2-15-1.4c-17.5-3.7-29.7-13.7-36.2-29.8c-3.6-8.9-5.1-18.3-5-30.5v0
		c0.1-8.7,1.4-18.1,4-29.5c2.3-10.3,4.6-20.6,6.8-30.8c1-4.5,2-9,3-13.5l1.6-7.4c1.4-6.3,2.8-12.7,4.2-19c0.5-2.4,2.3-3.7,4.8-3.5
		c13.6,1.1,26.1,2,38.3,2.9c1.4,0.1,2.4,0.6,3.1,1.5c1,1.4,0.7,2.9,0.6,3.6c-1.7,7.8-3.4,15.5-5,23.2L569,83.9
		c-1.6,7.4-3.2,14.7-4.8,22.1l-1,4.4c-1,4.7-2.1,9.6-3,14.3c-1.2,6.1-1.3,11.1-0.3,15.5c1.2,5.3,3.8,8.4,8.3,9.7
		c6.3,1.8,11.8,0,15.4-5.2c2.6-3.7,4.3-8.1,5.8-14.1c2.8-11.7,5.3-23.7,7.7-35.2c1.1-5.3,2.2-10.5,3.3-15.8l1.4-6.5
		c1.9-8.8,3.8-17.6,5.7-26.5c0.8-3.7,2.2-4.7,5.9-4.4c4.6,0.3,9.2,0.7,13.8,1c7,0.5,14,1,21,1.6c1.7,0.1,2.6,0.9,3,1.5
		c1,1.4,0.7,2.8,0.6,3.5c-0.7,3.4-1.4,6.8-2.1,10.1l-2.8,13.5c-1.3,6.2-2.6,12.4-3.9,18.6l-3.3,15.9c-1.4,6.5-2.8,13.1-4.1,19.6
		l-0.5,2.4c-1.4,6.9-2.9,14.1-5.1,21c-4,12.9-8.7,22.6-14.8,30.5c-5.9,7.7-13.7,13.3-23.2,16.7c-6.9,2.5-14.1,3.7-22.1,3.9
		C569,201.9,568.2,201.9,567.3,201.9z M517.1,140.3c-0.2,11.4,1.2,20.1,4.5,28.2c5.8,14.3,16.2,22.8,31.9,26.2
		c5.6,1.2,11.3,1.3,16.1,1.2c7.3-0.1,13.9-1.3,20.2-3.5c8.4-3,15.3-8,20.5-14.7c5.8-7.5,10-16.3,13.8-28.6
		c2.1-6.7,3.5-13.7,4.9-20.5l0.5-2.4c1.4-6.5,2.8-13.1,4.1-19.6l3.3-15.9c1.3-6.2,2.6-12.4,3.9-18.6l2.8-13.5
		c0.6-2.7,1.1-5.4,1.7-8.1c-6.3-0.5-12.5-0.9-18.8-1.4c-4.5-0.3-9-0.7-13.5-1c-1.9,8.7-3.7,17.4-5.6,26.2l-1.4,6.5
		c-1.1,5.2-2.2,10.5-3.3,15.7c-2.4,11.6-4.9,23.6-7.7,35.4c-1.6,6.7-3.7,11.9-6.7,16.2c-5.1,7.3-13.1,10.1-21.9,7.5
		c-6.6-1.9-10.8-6.7-12.5-14.2c-1.2-5.3-1.1-11,0.3-17.9c0.9-4.9,2-9.7,3-14.5l0.9-4.4c1.6-7.4,3.2-14.7,4.8-22.1l3.5-16.2
		c1.5-7.1,3.1-14.2,4.6-21.3c-11.2-0.8-22.6-1.7-35-2.6c-1.3,6-2.6,11.9-3.9,17.8l-1.6,7.4c-1,4.5-2,9-3,13.5
		c-2.3,10.3-4.5,20.6-6.8,30.9C518.5,123,517.3,132,517.1,140.3L517.1,140.3z"/>
	<path class="st2" d="M230.9,192.9c-20-0.2-39.9-0.4-59.9-0.5c-1.7,0-1.7-0.1-1.3-1.8c1.8-7.3,3.6-14.6,5.5-22
		c2.2-8.7,4.4-17.5,6.5-26.2c2-7.8,3.9-15.7,5.8-23.5c2-8,4-16,6-24c2.4-9.7,4.8-19.4,7.2-29.1c2.4-9.7,4.9-19.4,7.3-29.2
		c1.6-6.5,3.2-13.1,4.8-19.6c0.5-2,0.4-2,2.4-1.8c12.5,0.9,25,1.9,37.6,2.8c3.7,0.3,7.3,0.6,11,0.8c1.1,0.1,1.4,0.4,1.1,1.4
		c-1.9,7.6-3.7,15.2-5.6,22.8c-1.7,7.1-3.4,14.2-5.2,21.3c-1.6,6.4-3.1,12.8-4.7,19.2c-1.8,7.2-3.5,14.4-5.3,21.6
		c-2.1,8.5-4.1,16.9-6.2,25.4c-0.9,3.6-1.8,7.3-2.7,10.9c-0.3,1.1,0.4,1,1.1,1.1c6.1,0.2,12.2,0.3,18.3,0.5
		c15.9,0.4,31.9,0.9,47.8,1.3c1.5,0,1.5,0.1,1.2,1.5c-1.8,7.5-3.6,15-5.4,22.5c-1.8,7.7-3.7,15.4-5.5,23.1c-0.4,1.8-0.4,1.8-2.2,1.8
		C270.7,193.3,250.8,193.1,230.9,192.9"/>
	<path class="st3" d="M290.7,196.4c0,0-0.1,0-0.1,0L171,195.4c-1.2,0-2.7,0-3.8-1.4c-1.1-1.4-0.7-2.9-0.4-4.1
		c1.2-4.6,2.3-9.3,3.5-13.9l4.8-19.4c1.2-4.9,2.5-9.9,3.7-14.8c1-4.1,2.1-8.3,3.1-12.4l2.8-11.1c1-4.1,2.1-8.2,3.1-12.4
		c1-3.9,1.9-7.8,2.9-11.7l3.3-13.3c1.3-5.3,2.6-10.5,3.9-15.8c1.2-4.9,2.5-9.9,3.7-14.8c1.2-4.8,2.4-9.6,3.6-14.4
		c1.6-6.5,3.2-13,4.8-19.6c0.8-3.4,2.2-4.4,5.5-4.1l40,3c2.8,0.2,5.7,0.4,8.5,0.6c0.6,0,2.2,0.1,3.3,1.6c0.7,1,0.9,2.2,0.5,3.6
		c-1.5,6.2-3,12.4-4.5,18.6L240,135c-0.4,1.6-0.8,3.1-1.1,4.7c5.4,0.1,10.7,0.3,16,0.4l47.8,1.3c1.1,0,2.5,0.1,3.6,1.4
		c1,1.3,0.7,2.8,0.4,3.8c-1.1,4.4-2.1,8.9-3.2,13.3l-2.2,9.2c-1.8,7.7-3.7,15.4-5.5,23.1C295,195.5,293.9,196.4,290.7,196.4z
		 M230.9,189.9l59.2,0.5c1.8-7.6,3.6-15.1,5.4-22.6l2.2-9.2c0.9-3.7,1.8-7.5,2.7-11.2l-45.7-1.3c-6.1-0.2-12.2-0.3-18.3-0.5
		c-0.8,0-2.3,0-3.3-1.4c-0.5-0.6-1-1.7-0.6-3.4c0.6-2.4,1.2-4.8,1.8-7.3l23.3-95.5c1.3-5.5,2.7-11,4-16.4c-2.2-0.1-4.3-0.3-6.5-0.5
		l-39.3-3c-1.6,6.5-3.1,12.8-4.7,19.1c-1.2,4.8-2.4,9.6-3.6,14.4c-1.2,4.9-2.5,9.9-3.7,14.8c-1.3,5.3-2.6,10.5-3.9,15.8l-3.3,13.3
		c-1,3.9-1.9,7.8-2.9,11.7c-1,4.1-2.1,8.2-3.1,12.4l-2.8,11.1c-1,4.1-2,8.3-3.1,12.4c-1.2,4.9-2.5,9.9-3.7,14.8l-4.8,19.4
		c-1,4-2,8-3,12L230.9,189.9L230.9,189.9z"/>
	<path class="st2" d="M663.3,196.5c-10.8,0-21.6,0-32.3,0c-1.1,0-1.4-0.2-1.2-1.4c3-14.2,5.9-28.4,8.9-42.7
		c2.7-12.8,5.4-25.7,8.1-38.5c2.7-12.9,5.3-25.8,8-38.7c1.7-8.4,3.5-16.8,5.2-25.2c0.2-1,0.6-1.3,1.7-1.2c9.1,0.7,18.3,1.4,27.4,2.1
		c5.6,0.4,11.2,0.8,16.8,1.3c7.9,0.6,15.8,1.7,23.1,5.1c9.2,4.3,15,11.3,17,21.2c1.9,9.6,1.4,19.2-2.6,28.3
		c-3.8,8.7-10.2,14.7-19.1,18c-0.3,0.1-0.7,0.1-0.8,0.5c-0.1,0.4,0.3,0.4,0.6,0.5c7.4,3.6,12,9.7,13.9,17.5
		c3,12.5,1.5,24.6-5.4,35.6c-4.5,7.3-11.3,11.8-19.3,14.6c-7,2.5-14.4,3.5-21.8,3.5c-9.4,0.1-18.8,0-28.1,0V196.5z M683.3,159.7v0.4
		c2.8,0,5.7,0.1,8.5,0c6.8-0.2,11.4-3.8,12.4-10.2c0.8-5.3-1.1-9.2-6.4-10.7c-1.4-0.4-2.7-0.6-4.2-0.7c-5-0.2-9.9-0.3-14.9-0.5
		c-0.9,0-1.2,0.3-1.4,1.1c-1.3,6.5-2.6,12.9-4,19.4c-0.2,0.8,0,1.2,0.9,1.2C677.3,159.7,680.3,159.7,683.3,159.7 M694,108.6
		c2.9,0.1,5.8,0.4,8.8,0.3c6.6-0.3,11.1-5.4,10.6-11.9c-0.3-3.5-1.8-6-5.2-7.2c-1.1-0.4-2.1-0.7-3.2-0.8c-5.2-0.3-10.4-0.6-15.6-1
		c-1.1-0.1-1.5,0.2-1.7,1.3c-1.1,5.9-2.3,11.8-3.6,17.7c-0.2,0.9,0,1.2,0.9,1.2C687.9,108.2,691,108.4,694,108.6"/>
	<path class="st3" d="M680.3,200c-2.8,0-5.7,0-8.5,0l-11.5,0v-0.5l-4.6,0c-8.3,0-16.5,0-24.7,0c-0.6,0-2.3,0-3.4-1.4
		c-1.1-1.4-0.8-3.1-0.7-3.6c2-9.4,3.9-18.8,5.9-28.2l3-14.5c1.3-6.3,2.6-12.6,3.9-18.9c1.4-6.6,2.7-13.1,4.1-19.7
		c1.4-6.9,2.9-13.8,4.3-20.7l5.6-26.9c1.1-5.4,2.3-10.8,3.4-16.3c0.5-2.5,2.3-3.8,4.8-3.6c7.3,0.6,14.6,1.1,21.9,1.7l22.3,1.7
		c7.4,0.5,16,1.6,24.1,5.4c10.2,4.8,16.5,12.6,18.6,23.3c2.2,10.8,1.2,20.9-2.8,30.1c-3.5,7.9-9,13.8-16.5,17.6
		c5.6,4,9.4,9.8,11.2,16.9c3.3,13.8,1.4,26.5-5.7,37.9c-4.6,7.3-11.4,12.5-20.8,15.9c-6.8,2.4-14.2,3.6-22.8,3.7
		C687.7,200,684,200,680.3,200z M666.3,194l5.5,0c6.5,0,13.1,0,19.6,0c7.9-0.1,14.7-1.1,20.8-3.3c8.1-2.9,13.9-7.3,17.7-13.4
		c6.2-10,7.9-21.2,5-33.3c-1.7-7.1-5.8-12.3-12.2-15.5c-2.1-0.7-2.6-2.6-2.3-4c0.2-0.8,0.8-2.1,2.8-2.6c8.1-3,13.9-8.5,17.4-16.3
		c3.5-8,4.4-16.9,2.4-26.5c-1.8-8.9-6.8-15.1-15.3-19.1c-7.3-3.4-15.2-4.4-22-4.9l-22.3-1.7c-6.9-0.5-13.8-1-20.7-1.6
		c-1,5-2.1,10-3.1,15l-5.6,26.9c-1.4,6.9-2.9,13.8-4.3,20.7c-1.4,6.6-2.7,13.1-4.1,19.7c-1.3,6.3-2.6,12.6-3.9,18.9l-3,14.5
		c-1.8,8.7-3.6,17.3-5.4,26c7.5,0,15,0,22.5,0l10.6,0V194z M723.1,121.9C723.1,121.9,723.1,121.9,723.1,121.9
		C723.1,121.9,723.1,121.9,723.1,121.9z M688.6,163.1c-0.9,0-1.8,0-2.7,0c-0.9,0-1.8,0-2.6,0h-3v-0.4c-2,0-3.9,0-5.9,0
		c0,0,0,0-0.1,0c-1.7,0-2.6-0.7-3.2-1.3c-0.7-0.9-1-2.1-0.7-3.5c1.3-6.5,2.7-12.9,4-19.4c0.5-2.3,2.1-3.6,4.5-3.5
		c3.4,0.1,6.8,0.3,10.2,0.4l4.6,0.2c1.6,0.1,3.3,0.3,4.9,0.8c6.5,1.8,9.6,7,8.5,14c-1.2,7.7-6.9,12.5-15.3,12.7
		C690.8,163.1,689.7,163.1,688.6,163.1z M686.2,157.1c1.8,0,3.7,0,5.5,0c3.8-0.1,8.5-1.5,9.5-7.7c0.8-5.2-1.8-6.7-4.2-7.4
		c-1.1-0.3-2.3-0.5-3.5-0.5l-4.6-0.2c-3-0.1-5.9-0.2-8.9-0.3c-1.1,5.2-2.1,10.4-3.2,15.7c1.3,0,2.6,0,3.9,0l5.5,0V157.1z
		 M701.1,111.9c-1.6,0-3.2-0.1-4.8-0.2c-0.8,0-1.6-0.1-2.5-0.1l-2.5-0.1c-2.2-0.1-4.3-0.2-6.5-0.3c-1.4,0-2.4-0.5-3.1-1.4
		c-1.1-1.3-0.7-2.9-0.6-3.4c1.4-6.7,2.5-12.3,3.6-17.7c0.5-2.6,2.3-3.9,4.9-3.7c3.6,0.3,7.3,0.5,10.9,0.7l4.6,0.3
		c1.5,0.1,2.9,0.5,4,0.9c3.1,1.1,6.8,3.6,7.2,9.8c0.3,4-0.9,7.7-3.4,10.5c-2.5,2.8-6.1,4.4-10,4.6
		C702.3,111.8,701.7,111.9,701.1,111.9z M694.1,105.6c0.8,0,1.7,0.1,2.5,0.1c2.1,0.1,4,0.2,6,0.1c2.4-0.1,4.4-1,5.8-2.6
		c1.4-1.6,2.1-3.8,1.9-6.1c-0.2-2.5-1.1-3.9-3.2-4.6c-0.8-0.3-1.7-0.5-2.5-0.6l-4.6-0.3c-3.3-0.2-6.5-0.4-9.8-0.6
		c-0.9,4.4-1.8,9-2.9,14.2c1.4,0.1,2.8,0.1,4.2,0.2L694.1,105.6z"/>
</g>
</svg>
